<svg width="48" height="48" viewBox="0 0 48 48" fill="none" xmlns="http://www.w3.org/2000/svg">
<rect width="48" height="48" fill="black" fill-opacity="0"/>
<rect width="48" height="48" fill="black" fill-opacity="0"/>
<rect width="48" height="48" fill="black" fill-opacity="0"/>
<path d="M48 24C48 10.7667 37.2333 0 24 0C19.8511 0 15.809 1.07458 12.2253 3.09677H9.29032V0H4.64516V9.82219C1.61032 13.9564 0 18.8493 0 24C0 37.2341 10.7667 48 24 48C26.9489 48 29.8274 47.4697 32.5564 46.4276C34.1141 47.4178 35.9566 48 37.9355 48C40.3494 48 42.6844 47.1321 44.5099 45.5566L43.4981 44.3845C41.9535 45.7177 39.9786 46.4516 37.9355 46.4516C33.24 46.4516 29.4194 42.631 29.4194 37.9355C29.4194 33.24 33.24 29.4194 37.9355 29.4194C42.631 29.4194 46.4516 33.24 46.4516 37.9355C46.4516 39.8981 45.8028 41.743 44.5742 43.2705L45.7812 44.2413C47.2119 42.4614 48 40.2225 48 37.9355C48 35.9551 47.417 34.1125 46.4261 32.5541C47.4674 29.8243 48 26.9489 48 24ZM12.3871 7.74194H13.9355V9.29032V18.5806H12.3871V7.74194ZM9.29032 4.64516H10.8387V6.19355V18.5806H9.29032V4.64516ZM6.19355 1.54839H7.74194V3.09677V18.5806H6.19355V1.54839ZM23.2258 46.4323C11.4612 46.0304 1.96955 36.5388 1.56774 24.7742H23.2258V46.4323ZM23.2258 23.2258H1.57935C1.70555 19.457 2.75226 15.8555 4.64516 12.6449V20.129H7.74194H9.29032H10.8387H12.3871H13.9355H15.4839H17.0323H18.5806H21.6774V12.3871H18.5806V9.29032H15.4839V6.19355H12.3871V4.79381C15.6627 2.80877 19.385 1.7071 23.2258 1.57548V23.2258ZM15.4839 18.5806V10.8387H17.0323V12.3871V18.5806H15.4839ZM18.5806 18.5806V13.9355H20.129V18.5806H18.5806ZM46.4323 23.2258H39.8044L45.4978 17.5324C46.0444 19.3448 46.3649 21.2532 46.4323 23.2258ZM42.5311 11.3419L33.8841 19.9889L34.9788 21.0836L43.3788 12.6836C43.9796 13.7086 44.5006 14.7848 44.9357 15.905L37.615 23.2258H32.8366L33.8377 22.2248L32.743 21.1301L30.6472 23.2258H25.8689L40.4028 8.69187C41.1755 9.52026 41.8885 10.4044 42.5311 11.3419ZM24.7742 1.56774C26.7468 1.6351 28.6552 1.95561 30.4676 2.50219L24.7742 8.19561V1.56774ZM24.7742 17.3528L34.183 7.944L33.0883 6.84929L24.7742 15.1634V10.385L32.095 3.06426C33.2152 3.49858 34.2914 4.01961 35.3164 4.62116L34.0692 5.86839L35.1639 6.9631L36.6581 5.4689C37.5956 6.11148 38.4797 6.82374 39.3081 7.59716L24.7742 22.1311V17.3528ZM37.9355 27.871C32.3861 27.871 27.871 32.3861 27.871 37.9355C27.871 40.8472 29.1213 43.4655 31.104 45.305C29.064 45.9855 26.9419 46.361 24.7742 46.4338V24.7742H46.4338C46.361 26.9412 45.9825 29.0617 45.3027 31.1017C43.4632 29.1197 40.8457 27.871 37.9355 27.871Z" fill="#F28600"/>
<rect width="10.3853" height="10.3853" fill="black" fill-opacity="0" transform="translate(9.5204 28.0975)"/>
<rect width="10.3853" height="10.3853" fill="black" fill-opacity="0" transform="translate(9.5204 28.0975)"/>
<path d="M18.8108 28.0975L9.5204 37.3879L10.6153 38.4828L19.9057 29.1924L18.8108 28.0975Z" fill="#F28600"/>
<rect width="4.64516" height="4.64516" fill="black" fill-opacity="0" transform="translate(15.4839 34.0645)"/>
<rect width="4.64516" height="4.64516" fill="black" fill-opacity="0" transform="translate(15.4839 34.0645)"/>
<path d="M17.8065 34.0645C16.5259 34.0645 15.4839 35.1066 15.4839 36.3871C15.4839 37.6676 16.5259 38.7097 17.8065 38.7097C19.087 38.7097 20.129 37.6676 20.129 36.3871C20.129 35.1066 19.087 34.0645 17.8065 34.0645ZM17.8065 37.1613C17.3799 37.1613 17.0323 36.8144 17.0323 36.3871C17.0323 35.9597 17.3799 35.6129 17.8065 35.6129C18.233 35.6129 18.5806 35.9597 18.5806 36.3871C18.5806 36.8144 18.233 37.1613 17.8065 37.1613Z" fill="#F28600"/>
<rect width="4.64516" height="4.64516" fill="black" fill-opacity="0" transform="translate(9.29031 27.871)"/>
<rect width="4.64516" height="4.64516" fill="black" fill-opacity="0" transform="translate(9.29031 27.871)"/>
<path d="M11.6129 27.871C10.3324 27.871 9.29031 28.913 9.29031 30.1936C9.29031 31.4741 10.3324 32.5161 11.6129 32.5161C12.8934 32.5161 13.9355 31.4741 13.9355 30.1936C13.9355 28.913 12.8934 27.871 11.6129 27.871ZM11.6129 30.9677C11.1863 30.9677 10.8387 30.6209 10.8387 30.1936C10.8387 29.7662 11.1863 29.4194 11.6129 29.4194C12.0395 29.4194 12.3871 29.7662 12.3871 30.1936C12.3871 30.6209 12.0395 30.9677 11.6129 30.9677Z" fill="#F28600"/>
<rect width="6.19355" height="13.9355" fill="black" fill-opacity="0" transform="translate(34.8387 30.9677)"/>
<rect width="6.19355" height="13.9355" fill="black" fill-opacity="0" transform="translate(34.8387 30.9677)"/>
<path d="M37.9355 37.1613C37.0816 37.1613 36.3871 36.4668 36.3871 35.6129C36.3871 34.7589 37.0816 34.0645 37.9355 34.0645C38.7894 34.0645 39.4839 34.7589 39.4839 35.6129H41.0323C41.0323 34.1736 40.0413 32.9721 38.7097 32.626V30.9677H37.1613V32.626C35.8297 32.9721 34.8387 34.1736 34.8387 35.6129C34.8387 37.3207 36.2276 38.7096 37.9355 38.7096C38.7894 38.7096 39.4839 39.4041 39.4839 40.258C39.4839 41.112 38.7894 41.8064 37.9355 41.8064C37.0816 41.8064 36.3871 41.112 36.3871 40.258H34.8387C34.8387 41.6973 35.8297 42.8988 37.1613 43.2449V44.9032H38.7097V43.2449C40.0413 42.8988 41.0323 41.6973 41.0323 40.258C41.0323 38.5502 39.6434 37.1613 37.9355 37.1613Z" fill="#F28600"/>
<rect width="1.54839" height="1.54839" fill="black" fill-opacity="0" transform="translate(43.3548 37.1613)"/>
<rect width="1.54839" height="1.54839" fill="black" fill-opacity="0" transform="translate(43.3548 37.1613)"/>
<path d="M44.9032 37.1613H43.3548V38.7096H44.9032V37.1613Z" fill="#F28600"/>
<rect width="1.54839" height="1.54839" fill="black" fill-opacity="0" transform="translate(30.9677 37.1613)"/>
<rect width="1.54839" height="1.54839" fill="black" fill-opacity="0" transform="translate(30.9677 37.1613)"/>
<path d="M32.5161 37.1613H30.9677V38.7096H32.5161V37.1613Z" fill="#F28600"/>
</svg>
