<svg width="48" height="39" viewBox="0 0 48 39" fill="none" xmlns="http://www.w3.org/2000/svg">
<rect width="48" height="39" fill="black" fill-opacity="0"/>
<rect width="45.2361" height="29.0262" fill="black" fill-opacity="0" transform="translate(0 9.97375)"/>
<rect width="45.2361" height="29.0262" fill="black" fill-opacity="0" transform="translate(0 9.97375)"/>
<path d="M41.1971 9.97375H4.03896C1.81182 9.97375 0 11.7822 0 14.0052V34.9686C0 37.1915 1.81182 39 4.03896 39H41.1971C43.4242 39 45.2361 37.1916 45.2361 34.9686V14.0052C45.2361 11.7822 43.4242 9.97375 41.1971 9.97375ZM43.6205 34.9693C43.6205 36.3029 42.5332 37.3882 41.1971 37.3882H4.03896C2.70292 37.3882 1.6156 36.3029 1.6156 34.9693V14.0059C1.6156 12.6724 2.70292 11.5871 4.03896 11.5871H41.1971C42.5332 11.5871 43.6205 12.6724 43.6205 14.0059V34.9693Z" fill="#F28600"/>
<rect width="9.69335" height="8.06279" fill="black" fill-opacity="0" transform="translate(4.03897 14.0052)"/>
<rect width="9.69335" height="8.06279" fill="black" fill-opacity="0" transform="translate(4.03897 14.0052)"/>
<path d="M12.9246 14.0052H4.84673C4.40085 14.0052 4.03897 14.3664 4.03897 14.8114V21.2617C4.03897 21.7076 4.40085 22.068 4.84673 22.068H12.9246C13.3704 22.068 13.7323 21.7075 13.7323 21.2617V14.8114C13.7324 14.3664 13.3705 14.0052 12.9246 14.0052ZM12.1168 20.4554H5.65448V15.6177H12.1168V20.4554Z" fill="#F28600"/>
<rect width="2.42336" height="1.6126" fill="black" fill-opacity="0" transform="translate(4.84671 17.2311)"/>
<rect width="2.42336" height="1.6126" fill="black" fill-opacity="0" transform="translate(4.84671 17.2311)"/>
<path d="M7.27007 17.2311H4.84671V18.8437H7.27007V17.2311Z" fill="#F28600"/>
<rect width="2.42336" height="1.6126" fill="black" fill-opacity="0" transform="translate(10.5012 17.2311)"/>
<rect width="2.42336" height="1.6126" fill="black" fill-opacity="0" transform="translate(10.5012 17.2311)"/>
<path d="M12.9245 17.2311H10.5012V18.8437H12.9245V17.2311Z" fill="#F28600"/>
<rect width="9.69344" height="9.67538" fill="black" fill-opacity="0" transform="translate(31.5037 25.2931)"/>
<rect width="9.69344" height="9.67538" fill="black" fill-opacity="0" transform="translate(31.5037 25.2931)"/>
<path d="M36.3504 25.2931C33.6775 25.2931 31.5037 27.4628 31.5037 30.1308C31.5037 32.7987 33.6775 34.9685 36.3504 34.9685C39.0233 34.9685 41.1971 32.7987 41.1971 30.1308C41.1971 27.4628 39.0234 25.2931 36.3504 25.2931ZM36.3504 33.356C34.5684 33.356 33.1193 31.9095 33.1193 30.1309C33.1193 28.3522 34.5685 26.9058 36.3504 26.9058C38.1323 26.9058 39.5815 28.3523 39.5815 30.1309C39.5816 31.9095 38.1324 33.356 36.3504 33.356Z" fill="#F28600"/>
<rect width="9.69344" height="9.67538" fill="black" fill-opacity="0" transform="translate(26.657 25.2931)"/>
<rect width="9.69344" height="9.67538" fill="black" fill-opacity="0" transform="translate(26.657 25.2931)"/>
<path d="M31.5037 25.2931C28.8307 25.2931 26.657 27.4628 26.657 30.1308C26.657 32.7987 28.8307 34.9685 31.5037 34.9685C34.1766 34.9685 36.3504 32.7987 36.3504 30.1308C36.3504 27.4628 34.1767 25.2931 31.5037 25.2931ZM31.5037 33.356C29.7217 33.356 28.2726 31.9095 28.2726 30.1309C28.2726 28.3522 29.7218 26.9058 31.5037 26.9058C33.2857 26.9058 34.7348 28.3523 34.7348 30.1309C34.7349 31.9095 33.2857 33.356 31.5037 33.356Z" fill="#F28600"/>
<rect width="4.84672" height="1.6126" fill="black" fill-opacity="0" transform="translate(4.03897 26.9056)"/>
<rect width="4.84672" height="1.6126" fill="black" fill-opacity="0" transform="translate(4.03897 26.9056)"/>
<path d="M8.88569 26.9056H4.03897V28.5182H8.88569V26.9056Z" fill="#F28600"/>
<rect width="4.84672" height="1.6126" fill="black" fill-opacity="0" transform="translate(12.1168 26.9056)"/>
<rect width="4.84672" height="1.6126" fill="black" fill-opacity="0" transform="translate(12.1168 26.9056)"/>
<path d="M16.9635 26.9056H12.1168V28.5182H16.9635V26.9056Z" fill="#F28600"/>
<rect width="4.84672" height="1.6126" fill="black" fill-opacity="0" transform="translate(20.1946 26.9056)"/>
<rect width="4.84672" height="1.6126" fill="black" fill-opacity="0" transform="translate(20.1946 26.9056)"/>
<path d="M25.0414 26.9056H20.1946V28.5182H25.0414V26.9056Z" fill="#F28600"/>
<rect width="21.0025" height="1.6126" fill="black" fill-opacity="0" transform="translate(4.03897 31.7433)"/>
<rect width="21.0025" height="1.6126" fill="black" fill-opacity="0" transform="translate(4.03897 31.7433)"/>
<path d="M25.0415 31.7433H4.03897V33.3559H25.0415V31.7433Z" fill="#F28600"/>
<rect width="46.0192" height="27.8378" fill="black" fill-opacity="0" transform="translate(1.98077)"/>
<rect width="46.0192" height="27.8378" fill="black" fill-opacity="0" transform="translate(1.98077)"/>
<path d="M44.5963 5.92949L7.90581 0.0516038C5.70783 -0.302301 3.63266 1.20221 3.28128 3.3961L1.98077 11.4589L3.57613 11.7153L4.87664 3.65166C5.08748 2.3342 6.33465 1.43279 7.65063 1.64324L44.3412 7.52187C45.6595 7.73073 46.5617 8.9708 46.355 10.2858C46.3542 10.2907 46.3534 10.2963 46.3526 10.3012L43.6294 27.587L45.2264 27.8378L47.9471 10.5583C47.9479 10.5535 47.9487 10.5487 47.9495 10.5438C48.2992 8.34833 46.7951 6.27853 44.5963 5.92949Z" fill="#F28600"/>
<rect width="1.6156" height="3.2251" fill="black" fill-opacity="0" transform="translate(29.0803 14.8123)"/>
<rect width="1.6156" height="3.2251" fill="black" fill-opacity="0" transform="translate(29.0803 14.8123)"/>
<path d="M30.6959 14.8123H29.0803V18.0374H30.6959V14.8123Z" fill="#F28600"/>
<rect width="1.6156" height="3.2251" fill="black" fill-opacity="0" transform="translate(32.3115 14.8123)"/>
<rect width="1.6156" height="3.2251" fill="black" fill-opacity="0" transform="translate(32.3115 14.8123)"/>
<path d="M33.9271 14.8123H32.3115V18.0374H33.9271V14.8123Z" fill="#F28600"/>
<rect width="1.6156" height="3.2251" fill="black" fill-opacity="0" transform="translate(35.5427 14.8123)"/>
<rect width="1.6156" height="3.2251" fill="black" fill-opacity="0" transform="translate(35.5427 14.8123)"/>
<path d="M37.1583 14.8123H35.5427V18.0374H37.1583V14.8123Z" fill="#F28600"/>
<rect width="1.6156" height="3.2251" fill="black" fill-opacity="0" transform="translate(38.7737 14.8123)"/>
<rect width="1.6156" height="3.2251" fill="black" fill-opacity="0" transform="translate(38.7737 14.8123)"/>
<path d="M40.3893 14.8123H38.7737V18.0374H40.3893V14.8123Z" fill="#F28600"/>
<rect width="2.69406" height="2.00105" fill="black" fill-opacity="0" transform="translate(44.2921 11.9948)"/>
<rect width="2.69406" height="2.00105" fill="black" fill-opacity="0" transform="translate(44.2921 11.9948)"/>
<path d="M44.5631 11.9947L44.2921 13.5844L46.7153 13.9958L46.9862 12.4062L44.5631 11.9947Z" fill="#F28600"/>
<rect width="28.5448" height="6.428" fill="black" fill-opacity="0" transform="translate(3.90347 5.1488)"/>
<rect width="28.5448" height="6.428" fill="black" fill-opacity="0" transform="translate(3.90347 5.1488)"/>
<path d="M4.17649 5.14882L3.90347 6.7381L32.1753 11.5768L32.4483 9.98753L4.17649 5.14882Z" fill="#F28600"/>
</svg>
