<svg width="45" height="55" viewBox="0 0 45 55" fill="none" xmlns="http://www.w3.org/2000/svg">
<rect width="45" height="55" fill="black" fill-opacity="0"/>
<rect width="2.21036" height="2.14844" fill="black" fill-opacity="0" transform="translate(21.3611 16.3281)"/>
<rect width="2.21036" height="2.14844" fill="black" fill-opacity="0" transform="translate(21.3611 16.3281)"/>
<path d="M22.5 16.3281C21.9086 16.3281 21.4286 16.8094 21.4286 17.4023C21.4286 17.4206 21.4286 17.4378 21.4296 17.455C21.4071 17.4571 21.3836 17.4593 21.3611 17.4614L21.3879 17.4604L21.4296 17.4582C21.4596 18.0254 21.9279 18.4766 22.5 18.4766C23.0732 18.4766 23.5414 18.0243 23.5704 17.4561C23.5714 17.4389 23.5714 17.4206 23.5714 17.4023C23.5714 16.8094 23.0914 16.3281 22.5 16.3281Z" fill="#F28600"/>
<rect width="45" height="55" fill="black" fill-opacity="0"/>
<rect width="45" height="55" fill="black" fill-opacity="0"/>
<path d="M44.6433 6.54202C44.4164 6.33824 44.1132 6.24113 43.8107 6.27454C42.7896 6.38797 41.7479 6.44534 40.7143 6.44534C33.9782 6.44534 27.2169 3.22408 23.1356 0.209392C22.7577 -0.0697973 22.2424 -0.0697973 21.8645 0.209392C17.7831 3.22408 11.0218 6.44534 4.28571 6.44534C3.25221 6.44534 2.21036 6.38787 1.18929 6.27464C0.887036 6.24102 0.583821 6.33824 0.356678 6.54212C0.12975 6.7459 0 7.03691 0 7.34231V26.0767C0 39.4597 9.792 51.0283 22.1773 54.9502C22.2823 54.9835 22.3911 55 22.5 55C22.6089 55 22.7176 54.9834 22.8227 54.9502C35.1971 51.0318 45 39.4711 45 26.0767V7.34231C45 7.0368 44.8703 6.7458 44.6433 6.54202ZM42.8571 26.0767C42.8571 37.9095 34.5034 48.8504 22.5 52.7973C10.4966 48.8505 2.14286 37.9095 2.14286 26.0767V8.51793C2.85546 8.56831 3.57246 8.59377 4.28571 8.59377C11.1987 8.59377 18.0969 5.47295 22.5 2.39553C26.9031 5.47295 33.8013 8.59377 40.7143 8.59377C41.4275 8.59377 42.1446 8.56831 42.8571 8.51793V26.0767Z" fill="#F28600"/>
<rect width="36.4286" height="45.2902" fill="black" fill-opacity="0" transform="translate(4.28571 5.16595)"/>
<rect width="36.4286" height="45.2902" fill="black" fill-opacity="0" transform="translate(4.28571 5.16595)"/>
<path d="M39.6862 10.7206C34.3752 10.5048 28.3143 8.53744 23.0579 5.32306C22.7153 5.11359 22.2846 5.11359 21.9421 5.32306C16.6857 8.53744 10.6248 10.5047 5.31374 10.7206C4.73946 10.7439 4.28571 11.2175 4.28571 11.7939V26.0767C4.28571 36.4572 11.6216 46.4544 22.1251 50.3882C22.246 50.4335 22.3729 50.4561 22.5 50.4561C22.6271 50.4561 22.754 50.4335 22.8749 50.3882C33.3784 46.4543 40.7143 36.4571 40.7143 26.0766V11.7938C40.7143 11.2175 40.2606 10.7439 39.6862 10.7206ZM38.5714 26.0766C38.5714 35.4563 31.9829 44.5113 22.5 48.2317C13.0171 44.5113 6.42856 35.4563 6.42856 26.0766V12.8072C13.3258 12.2839 19.2334 9.41723 22.5 7.49212C25.7666 9.41723 31.6742 12.2839 38.5714 12.8072V26.0766Z" fill="#F28600"/>
<rect width="23.5704" height="23.4205" fill="black" fill-opacity="0" transform="translate(10.7153 17.185)"/>
<rect width="23.5704" height="23.4205" fill="black" fill-opacity="0" transform="translate(10.7153 17.185)"/>
<path d="M27.1221 17.2723C26.5782 17.0386 25.9484 17.2912 25.7152 17.8365C25.4821 18.3818 25.7341 19.0133 26.278 19.247C29.8408 20.7779 32.1428 24.2704 32.1428 28.1446C32.1428 33.6381 27.6368 38.4571 22.5 38.4571C17.4577 38.4571 12.7782 33.7284 12.8591 27.9425C12.9768 24.0243 15.1681 20.7741 18.7221 19.2469C19.266 19.0132 19.518 18.3818 19.2848 17.8364C19.0517 17.2911 18.4218 17.0383 17.878 17.2722C13.599 19.1108 10.8551 23.1784 10.7168 27.8873C10.7167 27.8928 10.7166 27.8985 10.7165 27.9041C10.6215 34.5267 15.8716 40.6055 22.5 40.6055C29.0981 40.6055 34.2857 34.5784 34.2857 28.1446C34.2857 23.4098 31.4738 19.1422 27.1221 17.2723Z" fill="#F28600"/>
<rect width="13.9285" height="9.66805" fill="black" fill-opacity="0" transform="translate(15 23.8477)"/>
<rect width="13.9285" height="9.66805" fill="black" fill-opacity="0" transform="translate(15 23.8477)"/>
<path d="M28.6148 24.1623C28.1963 23.7428 27.518 23.7428 27.0994 24.1623L20.3571 30.9223L16.829 27.385C16.4105 26.9655 15.7323 26.9655 15.3138 27.385C14.8954 27.8045 14.8954 28.4847 15.3138 28.9042L19.5995 33.2011C19.8088 33.4109 20.083 33.5158 20.3571 33.5158C20.6313 33.5158 20.9055 33.4109 21.1148 33.2011L28.6148 25.6816C29.0331 25.2621 29.0331 24.5819 28.6148 24.1623Z" fill="#F28600"/>
</svg>
