<svg width="51" height="51" viewBox="0 0 51 51" fill="none" xmlns="http://www.w3.org/2000/svg">
<rect width="51" height="51" fill="black" fill-opacity="0"/>
<rect width="51" height="51" fill="black" fill-opacity="0"/>
<rect width="51" height="51" fill="black" fill-opacity="0"/>
<path d="M25.5 0C11.4397 0 0 11.4389 0 25.5C0 39.5611 11.4397 51 25.5 51C39.5603 51 51 39.5611 51 25.5C51 11.4389 39.5603 0 25.5 0ZM25.5 47.8615C13.1698 47.8615 3.13846 37.8302 3.13846 25.5C3.13846 13.1698 13.1698 3.13846 25.5 3.13846C37.8302 3.13846 47.8615 13.1698 47.8615 25.5C47.8615 37.8302 37.8302 47.8615 25.5 47.8615Z" fill="#F28600"/>
<path d="M25.9064 17.9567C27.3559 17.9567 28.531 16.7817 28.531 15.3322C28.531 13.8827 27.3559 12.7076 25.9064 12.7076C24.4569 12.7076 23.2819 13.8827 23.2819 15.3322C23.2819 16.7817 24.4569 17.9567 25.9064 17.9567Z" fill="#F28600"/>
<path d="M25.2152 22.2375C24.349 22.2375 23.6459 22.9406 23.6459 23.8068V37.1452C23.6459 38.0115 24.349 38.7145 25.2152 38.7145C26.0814 38.7145 26.7844 38.0115 26.7844 37.1452V23.8068C26.7844 22.9398 26.0814 22.2375 25.2152 22.2375Z" fill="#F28600"/>
</svg>
