<?xml version="1.0" standalone="no"?>
<!DOCTYPE svg PUBLIC "-//W3C//DTD SVG 20010904//EN"
 "http://www.w3.org/TR/2001/REC-SVG-20010904/DTD/svg10.dtd">
<svg version="1.0" xmlns="http://www.w3.org/2000/svg"
 width="700.000000pt" height="700.000000pt" viewBox="0 0 700.000000 700.000000"
 preserveAspectRatio="xMidYMid meet">
<metadata>
Created by potrace 1.11, written by Peter Selinger 2001-2013
</metadata>
<g transform="translate(0.000000,700.000000) scale(0.100000,-0.100000)"
fill="#000000" stroke="none">
<path d="M595 6994 c-165 -35 -274 -92 -385 -204 -90 -90 -137 -165 -180 -290
-17 -50 -24 -96 -28 -202 l-5 -138 1924 0 c1058 -1 1949 -3 1979 -5 202 -16
410 -73 585 -162 212 -107 375 -241 517 -425 89 -115 127 -181 193 -333 36
-82 76 -230 90 -332 3 -18 7 -50 10 -70 8 -52 8 -246 0 -313 -43 -392 -222
-728 -520 -977 -234 -195 -548 -322 -865 -349 -47 -4 -302 -7 -567 -7 l-483 0
-1 -26 c-1 -35 -1 -1468 0 -1503 l1 -28 1990 0 1990 0 1 33 c4 259 -1 4687 -6
4727 -36 295 -275 543 -575 599 -53 10 -5618 14 -5665 5z"/>
<path d="M17 5472 c-16 -3 -17 -159 -17 -2340 1 -1526 4 -2356 11 -2392 26
-144 89 -261 199 -370 94 -94 174 -144 292 -182 l73 -23 2855 0 2855 0 78 27
c182 62 333 190 415 353 61 122 74 184 76 358 2 101 1 107 -19 107 -11 1
-1068 2 -2349 3 l-2330 2 0 1437 c0 791 4 1441 7 1445 4 4 398 8 875 9 477 1
880 4 897 8 149 35 314 146 413 277 109 146 164 301 166 474 1 129 -5 178 -34
266 -85 261 -285 460 -525 523 -28 7 -94 14 -145 15 -161 4 -3776 6 -3793 3z"/>
</g>
</svg>
