<?xml version="1.0" encoding="UTF-8"?>
<svg width="60px" height="60px" viewBox="0 0 60 60" version="1.1" xmlns="http://www.w3.org/2000/svg" xmlns:xlink="http://www.w3.org/1999/xlink">
    <!-- Generator: Sketch 40.3 (33839) - http://www.bohemiancoding.com/sketch -->
    <title>Combined Shape</title>
    <desc>Created with Sketch.</desc>
    <defs></defs>
    <g id="Page-1" stroke="none" stroke-width="1" fill="none" fill-rule="evenodd">
        <g id="HP" transform="translate(-790.000000, -4750.000000)" fill="#4B44EA">
            <g id="Group-3" transform="translate(70.000000, 4438.000000)">
                <path d="M744.083878,335.711633 C744.083878,332.888571 742.163265,332.888571 742.163265,332.888571 L741.146327,332.888571 L734.261633,332.888571 L734.261633,338.946122 L741.673469,338.946122 C742.954286,338.94551 744.083878,338.535918 744.083878,335.711633 L744.083878,335.711633 Z M742.163878,343.130204 L734.261633,343.130204 L734.261633,350.385306 L741.79898,350.385306 C742.932857,350.352857 745.02551,349.997755 745.02551,346.858776 C745.02551,343.092245 742.163878,343.130204 742.163878,343.130204 L742.163878,343.130204 Z M762.393673,338.94551 C758.200408,338.94551 757.615714,343.130204 757.615714,343.130204 L766.533061,343.130204 C766.533673,343.130204 766.586939,338.94551 762.393673,338.94551 L762.393673,338.94551 Z M749.923469,312 C733.397143,312 720,325.397755 720,341.923469 C720,358.449184 733.397143,371.846939 749.923469,371.846939 C766.449796,371.846939 779.846939,358.449184 779.846939,341.923469 C779.846939,325.397755 766.449796,312 749.923469,312 L749.923469,312 Z M756.447551,329.662041 L767.647959,329.662041 L767.647959,333.004898 L756.447551,333.004898 L756.447551,329.662041 L756.447551,329.662041 Z M750.786735,347.19551 C750.786735,355.48102 742.163878,355.208571 742.163878,355.208571 L734.261633,355.208571 L734.029592,355.208571 L728.037551,355.208571 L728.037551,328.062857 L734.029592,328.062857 L734.261633,328.062857 L742.163265,328.062857 C746.456327,328.062857 749.845102,330.432857 749.845102,335.290408 C749.845102,340.148571 745.702653,340.456531 745.702653,340.456531 C751.163265,340.456531 750.786735,347.19551 750.786735,347.19551 Z M762.446939,351.476939 C766.959184,351.476939 766.799388,348.556531 766.799388,348.556531 L771.576735,348.556531 C771.576735,356.306939 762.287755,355.776122 762.287755,355.776122 C751.140612,355.776122 751.857551,345.398571 751.857551,345.398571 C751.857551,345.398571 751.84898,334.969592 762.286531,334.969592 C773.27449,334.969592 771.735918,346.752245 771.735918,346.752245 L757.669592,346.752245 C757.669592,351.796531 762.446939,351.476939 762.446939,351.476939 Z" id="Combined-Shape"></path>
            </g>
        </g>
    </g>
</svg>