<?xml version="1.0" encoding="UTF-8"?>
<svg width="28px" height="48px" viewBox="0 0 28 48" version="1.1" xmlns="http://www.w3.org/2000/svg" xmlns:xlink="http://www.w3.org/1999/xlink">
    <!-- Generator: Sketch 40.3 (33839) - http://www.bohemiancoding.com/sketch -->
    <title>Combined Shape</title>
    <desc>Created with Sketch.</desc>
    <defs></defs>
    <g id="Page-1" stroke="none" stroke-width="1" fill="none" fill-rule="evenodd">
        <g id="HP" transform="translate(-741.000000, -4103.000000)" fill="#4B44EA">
            <path d="M761.709036,4142.1616 C761.174623,4141.40267 761.129733,4138.99253 761.129733,4138.99253 L748.080972,4138.99253 C748.036615,4141.35893 747.502202,4142.34027 747.502202,4142.34027 L741,4151 L746.255417,4151 C746.255417,4151 747.324243,4143.22133 754.661198,4143.22133 C761.998154,4143.22133 762.421409,4151 762.421409,4151 L768.299951,4151 C768.299951,4151 762.243449,4142.92107 761.709036,4142.1616 Z M753.425101,4132.1632 L755.919206,4132.1632 L757.166526,4137.87627 L760.105798,4137.87627 L758.012502,4131.4928 L758.012502,4129.43947 L751.554656,4129.43947 L751.554656,4131.62667 L749.328291,4137.87627 L752.13396,4137.87627 L753.425101,4132.1632 Z M757.205004,4128.10027 C755.868972,4116.02507 755.646121,4109.2176 755.646121,4109.2176 L755.913328,4109.2176 L755.913328,4107.29867 L753.642073,4107.29867 L753.642073,4109.21813 L753.864923,4109.21813 C753.775676,4116.94027 752.217328,4128.1008 752.217328,4128.1008 C752.217328,4128.1008 754.087773,4128.10027 757.205004,4128.10027 Z M754.364065,4103 L755.059336,4103 L755.059336,4106.46027 L754.364065,4106.46027 L754.364065,4103 Z" id="Combined-Shape"></path>
        </g>
    </g>
</svg>