<?xml version="1.0" encoding="UTF-8"?>
<svg width="60px" height="60px" viewBox="0 0 60 60" version="1.1" xmlns="http://www.w3.org/2000/svg" xmlns:xlink="http://www.w3.org/1999/xlink">
    <!-- Generator: Sketch 40.3 (33839) - http://www.bohemiancoding.com/sketch -->
    <title>Combined Shape</title>
    <desc>Created with Sketch.</desc>
    <defs></defs>
    <g id="Page-1" stroke="none" stroke-width="1" fill="none" fill-rule="evenodd">
        <g id="HP" transform="translate(-690.000000, -4750.000000)" fill="#4B44EA">
            <g id="Group-3" transform="translate(70.000000, 4438.000000)">
                <path d="M648.730816,335.739796 C645.733878,330.43898 642.530612,325.96898 641.885306,325.081837 C636.732653,327.540612 632.873673,332.284286 631.636327,337.992857 L631.819388,337.992857 C633.543469,337.992857 640.687143,337.85449 648.730816,335.739796 L648.730816,335.739796 Z M662.25102,327.908571 C658.955918,325.02 654.642041,323.265306 649.923469,323.265306 C648.472449,323.265306 647.060612,323.432449 645.703265,323.748367 C646.463673,324.775714 649.665102,329.197347 652.586735,334.542857 C658.901429,332.155102 661.73,328.621224 662.25102,327.908571 L662.25102,327.908571 Z M655.33449,340.155918 C655.461837,340.454694 655.58551,340.752857 655.707347,341.049184 C657.155306,340.87102 658.600204,340.801837 659.972857,340.801837 C664.228571,340.801837 667.79,341.467959 668.630612,341.637551 C668.55898,337.331633 667.022245,333.375918 664.496122,330.24551 C663.842857,331.092245 660.682449,334.836122 654.133878,337.533673 C654.55449,338.396939 654.957959,339.273673 655.33449,340.155918 L655.33449,340.155918 Z M651.20551,342.01102 C651.411224,341.944898 651.619388,341.884286 651.827551,341.823061 C651.381837,340.823265 650.901837,339.822245 650.397347,338.835918 C642.092245,341.301429 634.031429,341.494286 631.710408,341.494286 C631.496122,341.494286 631.332653,341.493061 631.22,341.490612 C631.216327,341.644898 631.212041,341.799184 631.212041,341.952245 C631.212653,346.698367 632.993673,351.034286 635.922041,354.333673 C636.712449,353.027755 641.854082,345.031224 651.20551,342.01102 L651.20551,342.01102 Z M649.923469,312 C633.397143,312 620,325.397755 620,341.923469 C620,358.449184 633.397143,371.846939 649.923469,371.846939 C666.449796,371.846939 679.846939,358.449184 679.846939,341.923469 C679.846939,325.397755 666.449796,312 649.923469,312 L649.923469,312 Z M649.923469,364.043265 C637.710408,364.043265 627.774898,354.120612 627.774286,341.923469 C627.77551,329.726327 637.710408,319.804898 649.923469,319.803673 C662.136531,319.804898 672.071429,329.726327 672.072041,341.923469 C672.071429,354.120612 662.136531,364.043265 649.923469,364.043265 L649.923469,364.043265 Z M656.934898,344.223061 C659.262041,350.641837 660.270408,355.905918 660.520204,357.344694 C664.617347,354.523469 667.537143,350.113469 668.381429,345.013469 C667.671224,344.796735 664.611837,343.940816 660.702041,343.940816 C659.511224,343.940816 658.240816,344.022245 656.934898,344.223061 L656.934898,344.223061 Z M653.173878,345.148776 C642.923673,348.715714 639.04449,355.701429 638.510612,356.750204 C641.672245,359.186327 645.629796,360.639184 649.924082,360.639184 C652.485102,360.639184 654.927347,360.122449 657.152245,359.188163 C656.852245,357.447551 655.763061,351.833265 653.194694,345.141429 C653.187347,345.143878 653.180612,345.146327 653.173878,345.148776 L653.173878,345.148776 Z" id="Combined-Shape"></path>
            </g>
        </g>
    </g>
</svg>