<?xml version="1.0" encoding="UTF-8"?>
<svg width="60px" height="60px" viewBox="0 0 60 60" version="1.1" xmlns="http://www.w3.org/2000/svg" xmlns:xlink="http://www.w3.org/1999/xlink">
    <!-- Generator: Sketch 40.3 (33839) - http://www.bohemiancoding.com/sketch -->
    <title>Combined Shape</title>
    <desc>Created with Sketch.</desc>
    <defs></defs>
    <g id="Page-1" stroke="none" stroke-width="1" fill="none" fill-rule="evenodd">
        <g id="HP" transform="translate(-690.000000, -4438.000000)" fill="#4B44EA">
            <g id="Group-3" transform="translate(70.000000, 4438.000000)">
                <g id="Group-10" transform="translate(446.000000, 0.000000)">
                    <path d="M189.647585,24.7272571 C190.099036,25.0456465 191.459876,25.9912639 193.730174,27.5636213 C196.000543,29.1359786 197.7398,30.3466533 198.948017,31.1957151 C199.08076,31.2887849 199.362777,31.4910985 199.794209,31.8029347 C200.22571,32.1149801 200.584248,32.3671401 200.869544,32.5594844 C201.155049,32.751759 201.500194,32.967458 201.905328,33.2062326 C202.310322,33.4447981 202.692088,33.6242451 203.050556,33.7430399 C203.409094,33.8628107 203.740986,33.9221383 204.046301,33.9221383 L204.066321,33.9221383 L204.08641,33.9221383 C204.391726,33.9221383 204.723757,33.862741 205.082295,33.7430399 C205.440623,33.6242451 205.822738,33.444589 206.227384,33.2062326 C206.632239,32.9671791 206.977384,32.7516893 207.262889,32.5594844 C207.548394,32.3671401 207.906653,32.1149801 208.338294,31.8029347 C208.769655,31.4908196 209.052021,31.2887849 209.184764,31.1957151 C210.406025,30.3466533 213.513098,28.1902915 218.505007,24.7268388 C219.474175,24.0503919 220.283885,23.234166 220.934346,22.2787187 C221.585294,21.3236898 221.91042,20.3218122 221.91042,19.2736437 C221.91042,18.3977415 221.59492,17.6479542 220.9642,17.0243515 C220.33355,16.4006093 219.58662,16.0889125 218.723896,16.0889125 L189.408536,16.0889125 C188.386285,16.0889125 187.599594,16.4338635 187.048603,17.1237654 C186.497683,17.8138068 186.222222,18.6763236 186.222222,19.7112462 C186.222222,20.5472015 186.587457,21.4530813 187.317577,22.4283276 C188.047627,23.4036437 188.824552,24.1700232 189.647585,24.7272571 L189.647585,24.7272571 Z M219.918651,26.8567785 C215.564298,29.8023168 212.257937,32.0914861 210.00117,33.7237985 C209.244404,34.2808929 208.630495,34.7157765 208.159025,35.0274036 C207.687554,35.3392398 207.060531,35.657699 206.277049,35.9826417 C205.493846,36.3080724 204.763935,36.4702997 204.086689,36.4702997 L204.066391,36.4702997 L204.046371,36.4702997 C203.369265,36.4702997 202.638935,36.3080724 201.855732,35.9826417 C201.072529,35.657699 200.445088,35.3392398 199.973757,35.0274036 C199.502565,34.7157765 198.888447,34.2808929 198.131751,33.7237985 C196.33927,32.4102241 193.040024,30.1209154 188.233871,26.8567785 C187.476896,26.3528768 186.806416,25.7752861 186.222222,25.1251916 L186.222222,40.9285888 C186.222222,41.8049092 186.534094,42.5542782 187.158188,43.1779507 C187.782141,43.8018323 188.53242,44.1136685 189.408746,44.1136685 L218.724175,44.1136685 C219.600291,44.1136685 220.350501,43.8018323 220.974524,43.1779507 C221.598757,42.5540691 221.91049,41.8049789 221.91049,40.9285888 L221.91049,25.1251916 C221.339479,25.7618311 220.675836,26.3394218 219.918651,26.8567785 L219.918651,26.8567785 Z M204,60 C220.568542,60 234,46.5685425 234,30 C234,13.4314575 220.568542,0 204,0 C187.431458,0 174,13.4314575 174,30 C174,46.5685425 187.431458,60 204,60 Z" id="Combined-Shape"></path>
                </g>
            </g>
        </g>
    </g>
</svg>