<?xml version="1.0" encoding="UTF-8"?>
<svg width="60px" height="60px" viewBox="0 0 60 60" version="1.1" xmlns="http://www.w3.org/2000/svg" xmlns:xlink="http://www.w3.org/1999/xlink">
    <!-- Generator: Sketch 40.3 (33839) - http://www.bohemiancoding.com/sketch -->
    <title>Shape</title>
    <desc>Created with Sketch.</desc>
    <defs></defs>
    <g id="Page-1" stroke="none" stroke-width="1" fill="none" fill-rule="evenodd">
        <g id="HP" transform="translate(-889.000000, -4750.000000)" fill="#4B44EA">
            <g id="Group-3" transform="translate(70.000000, 4438.000000)">
                <path d="M848.924999,312 C832.397828,312 819,325.397828 819,341.924999 C819,358.452171 832.397828,371.849998 848.924999,371.849998 C865.452171,371.849998 878.849998,358.452171 878.849998,341.924999 C878.849998,325.397828 865.452171,312 848.924999,312 L848.924999,312 Z M860.341501,327.239555 L856.202514,327.241391 C852.956838,327.241391 852.329255,328.783715 852.329255,331.046688 L852.329255,336.036739 L860.069038,336.036739 L860.065365,343.852445 L852.329867,343.852445 L852.329867,363.909388 L844.257005,363.909388 L844.257005,343.852445 L837.508497,343.852445 L837.508497,336.036739 L844.257005,336.036739 L844.257005,330.272771 C844.257005,323.583653 848.343949,319.94061 854.310581,319.94061 L860.342114,319.949794 L860.342114,327.239555 L860.341501,327.239555 L860.341501,327.239555 Z" id="Shape"></path>
            </g>
        </g>
    </g>
</svg>