<?xml version="1.0" encoding="UTF-8"?>
<svg width="28px" height="17px" viewBox="0 0 28 17" version="1.1" xmlns="http://www.w3.org/2000/svg" xmlns:xlink="http://www.w3.org/1999/xlink">
    <!-- Generator: Sketch 40.3 (33839) - http://www.bohemiancoding.com/sketch -->
    <title>Shape</title>
    <desc>Created with Sketch.</desc>
    <defs></defs>
    <g id="Page-1" stroke="none" stroke-width="1" fill="none" fill-rule="evenodd">
        <g id="HP" transform="translate(-718.000000, -553.000000)" fill="#FFFFFF">
            <path d="M745.720225,554.752433 L744.317518,553.292191 C744.130608,553.097193 743.915298,553 743.671883,553 C743.429058,553 743.213846,553.097193 743.026937,553.292191 L732.000147,564.77145 L720.97385,553.292498 C720.786842,553.097499 720.57163,553.000307 720.32851,553.000307 C720.085291,553.000307 719.87008,553.097499 719.68317,553.292498 L718.280659,554.752842 C718.093357,554.947432 718,555.171486 718,555.424698 C718,555.677706 718.093651,555.90176 718.280659,556.09635 L731.354808,569.708013 C731.541717,569.902705 731.757027,570 732.000147,570 C732.243268,570 732.458184,569.902705 732.644996,569.708013 L745.720225,556.09635 C745.907135,555.901658 746,555.677604 746,555.424698 C746,555.171486 745.907135,554.947432 745.720225,554.752433 L745.720225,554.752433 Z" id="Shape"></path>
        </g>
    </g>
</svg>