<?xml version="1.0" encoding="UTF-8"?>
<svg width="60px" height="60px" viewBox="0 0 60 60" version="1.1" xmlns="http://www.w3.org/2000/svg" xmlns:xlink="http://www.w3.org/1999/xlink">
    <!-- Generator: Sketch 40.3 (33839) - http://www.bohemiancoding.com/sketch -->
    <title>Shape</title>
    <desc>Created with Sketch.</desc>
    <defs></defs>
    <g id="Page-1" stroke="none" stroke-width="1" fill="none" fill-rule="evenodd">
        <g id="HP" transform="translate(-491.000000, -4750.000000)" fill="#4B44EA">
            <g id="Group-3" transform="translate(70.000000, 4438.000000)">
                <path d="M450.923469,312 C434.397143,312 421,325.397143 421,341.923469 C421,358.449796 434.397143,371.846939 450.923469,371.846939 C467.449796,371.846939 480.846939,358.449796 480.846939,341.923469 C480.846939,325.397143 467.449796,312 450.923469,312 L450.923469,312 Z M439.711429,362.183265 L431.299184,362.183265 L431.299184,335.117143 L439.711429,335.117143 L439.711429,362.183265 L439.711429,362.183265 Z M435.507143,331.417347 C432.810816,331.417347 430.628163,329.231633 430.628163,326.53898 C430.628776,323.848776 432.810816,321.663061 435.507143,321.663061 C438.196122,321.663061 440.381837,323.848776 440.381837,326.53898 C440.381837,329.232245 438.19551,331.417347 435.507143,331.417347 L435.507143,331.417347 Z M471.218163,362.183265 L462.812653,362.183265 L462.812653,349.020612 C462.812653,345.881633 462.75449,341.84449 458.44,341.84449 C454.064898,341.84449 453.392041,345.263265 453.392041,348.793469 L453.392041,362.182653 L444.987143,362.182653 L444.987143,335.117143 L453.055306,335.117143 L453.055306,338.815714 L453.168571,338.815714 C454.292041,336.687551 457.034898,334.444286 461.127755,334.444286 C469.645918,334.444286 471.218163,340.05 471.218163,347.337551 L471.218163,362.183265 L471.218163,362.183265 Z" id="Shape"></path>
            </g>
        </g>
    </g>
</svg>