<?xml version="1.0" encoding="UTF-8"?>
<svg width="60px" height="60px" viewBox="0 0 60 60" version="1.1" xmlns="http://www.w3.org/2000/svg" xmlns:xlink="http://www.w3.org/1999/xlink">
    <!-- Generator: Sketch 40.3 (33839) - http://www.bohemiancoding.com/sketch -->
    <title>Combined Shape</title>
    <desc>Created with Sketch.</desc>
    <defs></defs>
    <g id="Page-1" stroke="none" stroke-width="1" fill="none" fill-rule="evenodd">
        <g id="HP" transform="translate(-1130.000000, -63.000000)" fill="#FFFFFF">
            <path d="M1160,123 C1176.56854,123 1190,109.568542 1190,93 C1190,76.4314575 1176.56854,63 1160,63 C1143.43146,63 1130,76.4314575 1130,93 C1130,109.568542 1143.43146,123 1160,123 Z M1147.87234,83.4255319 L1172.12766,83.4255319 L1172.12766,85.9787234 L1147.87234,85.9787234 L1147.87234,83.4255319 Z M1147.87234,92.3617021 L1172.12766,92.3617021 L1172.12766,94.9148936 L1147.87234,94.9148936 L1147.87234,92.3617021 Z M1147.87234,101.297872 L1172.12766,101.297872 L1172.12766,103.851064 L1147.87234,103.851064 L1147.87234,101.297872 Z" id="Combined-Shape"></path>
        </g>
    </g>
</svg>