<?xml version="1.0" encoding="UTF-8"?>
<svg width="46px" height="37px" viewBox="0 0 46 37" version="1.1" xmlns="http://www.w3.org/2000/svg" xmlns:xlink="http://www.w3.org/1999/xlink">
    <!-- Generator: Sketch 40.3 (33839) - http://www.bohemiancoding.com/sketch -->
    <title>Shape</title>
    <desc>Created with Sketch.</desc>
    <defs></defs>
    <g id="Page-1" stroke="none" stroke-width="1" fill="none" fill-rule="evenodd">
        <g id="Menu" transform="translate(-697.000000, -482.000000)" fill="#4B44EA">
            <path d="M738.018367,491.943469 C738.032449,492.296735 738.039796,492.650612 738.039796,493.006327 C738.039796,505.788776 728.313061,519.010204 712.035918,519.010204 C707.060204,519.010204 702.21551,517.590408 698.025918,514.903265 C697.938367,514.847551 697.902245,514.739184 697.937143,514.641837 C697.972041,514.545102 698.070612,514.485102 698.171633,514.496735 C698.87449,514.580612 699.593265,514.622245 700.306531,514.622245 C704.177755,514.622245 707.842653,513.425306 710.942449,511.15449 C707.226735,510.84102 704.033265,508.326531 702.884694,504.739388 C702.860816,504.664694 702.877959,504.583265 702.929388,504.52449 C702.981429,504.465714 703.06102,504.44 703.136939,504.454082 C704.166735,504.649388 705.213673,504.662245 706.222653,504.498163 C702.390612,503.307347 699.697347,499.717755 699.697347,495.63102 L699.698571,495.512245 C699.700408,495.43449 699.742653,495.363469 699.81,495.324898 C699.876735,495.285714 699.96,495.285102 700.027347,495.323061 C701.026531,495.877755 702.132245,496.234082 703.266735,496.370612 C701.06449,494.615306 699.771429,491.95449 699.771429,489.108163 C699.771429,487.466122 700.206122,485.852245 701.02898,484.44102 C701.065714,484.377959 701.130612,484.337551 701.202857,484.332041 C701.275714,484.324694 701.346122,484.356531 701.392041,484.412857 C705.899388,489.941429 712.529388,493.34551 719.619184,493.783265 C719.50102,493.188163 719.44102,492.574694 719.44102,491.955714 C719.44102,486.836735 723.60551,482.672857 728.723878,482.672857 C731.240204,482.672857 733.672041,483.706939 735.415102,485.514286 C737.379796,485.113878 739.251429,484.391429 740.980408,483.366531 C741.059388,483.319388 741.158571,483.326735 741.231429,483.383673 C741.302449,483.441224 741.331837,483.536735 741.303673,483.624898 C740.717755,485.457347 739.575306,487.055918 738.040408,488.21 C739.485918,487.958367 740.888571,487.533469 742.222653,486.941429 C742.312041,486.900408 742.417959,486.926122 742.482245,487.001429 C742.545918,487.077347 742.551429,487.185714 742.496327,487.267755 C741.28102,489.086735 739.774898,490.659592 738.018367,491.943469 L738.018367,491.943469 Z" id="Shape"></path>
        </g>
    </g>
</svg>