<?xml version="1.0" encoding="UTF-8"?>
<svg width="46px" height="46px" viewBox="0 0 46 46" version="1.1" xmlns="http://www.w3.org/2000/svg" xmlns:xlink="http://www.w3.org/1999/xlink">
    <!-- Generator: Sketch 40.3 (33839) - http://www.bohemiancoding.com/sketch -->
    <title>Combined Shape</title>
    <desc>Created with Sketch.</desc>
    <defs></defs>
    <g id="Page-1" stroke="none" stroke-width="1" fill="none" fill-rule="evenodd">
        <g id="Menu" transform="translate(-799.000000, -477.000000)" fill="#4B44EA">
            <path d="M820.730816,493.739796 C817.733878,488.43898 814.530612,483.96898 813.885306,483.081837 C808.732653,485.540612 804.873673,490.284286 803.636327,495.992857 L803.819388,495.992857 C805.543469,495.992857 812.687143,495.85449 820.730816,493.739796 L820.730816,493.739796 Z M834.25102,485.908571 C830.955918,483.02 826.642041,481.265306 821.923469,481.265306 C820.472449,481.265306 819.060612,481.432449 817.703265,481.748367 C818.463673,482.775714 821.665102,487.197347 824.586735,492.542857 C830.901429,490.155102 833.73,486.621224 834.25102,485.908571 L834.25102,485.908571 Z M827.33449,498.155918 C827.461837,498.454694 827.58551,498.752857 827.707347,499.049184 C829.155306,498.87102 830.600204,498.801837 831.972857,498.801837 C836.228571,498.801837 839.79,499.467959 840.630612,499.637551 C840.55898,495.331633 839.022245,491.375918 836.496122,488.24551 C835.842857,489.092245 832.682449,492.836122 826.133878,495.533673 C826.55449,496.396939 826.957959,497.273673 827.33449,498.155918 L827.33449,498.155918 Z M823.20551,500.01102 C823.411224,499.944898 823.619388,499.884286 823.827551,499.823061 C823.381837,498.823265 822.901837,497.822245 822.397347,496.835918 C814.092245,499.301429 806.031429,499.494286 803.710408,499.494286 C803.496122,499.494286 803.332653,499.493061 803.22,499.490612 C803.216327,499.644898 803.212041,499.799184 803.212041,499.952245 C803.212653,504.698367 804.993673,509.034286 807.922041,512.333673 C808.712449,511.027755 813.854082,503.031224 823.20551,500.01102 L823.20551,500.01102 Z M821.923469,522.043265 C809.710408,522.043265 799.774898,512.120612 799.774286,499.923469 C799.77551,487.726327 809.710408,477.804898 821.923469,477.803673 C834.136531,477.804898 844.071429,487.726327 844.072041,499.923469 C844.071429,512.120612 834.136531,522.043265 821.923469,522.043265 L821.923469,522.043265 Z M828.934898,502.223061 C831.262041,508.641837 832.270408,513.905918 832.520204,515.344694 C836.617347,512.523469 839.537143,508.113469 840.381429,503.013469 C839.671224,502.796735 836.611837,501.940816 832.702041,501.940816 C831.511224,501.940816 830.240816,502.022245 828.934898,502.223061 L828.934898,502.223061 Z M825.173878,503.148776 C814.923673,506.715714 811.04449,513.701429 810.510612,514.750204 C813.672245,517.186327 817.629796,518.639184 821.924082,518.639184 C824.485102,518.639184 826.927347,518.122449 829.152245,517.188163 C828.852245,515.447551 827.763061,509.833265 825.194694,503.141429 C825.187347,503.143878 825.180612,503.146327 825.173878,503.148776 L825.173878,503.148776 Z" id="Combined-Shape"></path>
        </g>
    </g>
</svg>