<?xml version="1.0" encoding="UTF-8"?>
<svg width="42px" height="42px" viewBox="0 0 42 42" version="1.1" xmlns="http://www.w3.org/2000/svg" xmlns:xlink="http://www.w3.org/1999/xlink">
    <!-- Generator: Sketch 40.3 (33839) - http://www.bohemiancoding.com/sketch -->
    <title>Shape</title>
    <desc>Created with Sketch.</desc>
    <defs></defs>
    <g id="Page-1" stroke="none" stroke-width="1" fill="none" fill-rule="evenodd">
        <g id="Menu" transform="translate(-597.000000, -479.000000)" fill="#4B44EA">
            <path d="M606.711429,520.183265 L598.299184,520.183265 L598.299184,493.117143 L606.711429,493.117143 L606.711429,520.183265 L606.711429,520.183265 Z M602.507143,489.417347 C599.810816,489.417347 597.628163,487.231633 597.628163,484.53898 C597.628776,481.848776 599.810816,479.663061 602.507143,479.663061 C605.196122,479.663061 607.381837,481.848776 607.381837,484.53898 C607.381837,487.232245 605.19551,489.417347 602.507143,489.417347 L602.507143,489.417347 Z M638.218163,520.183265 L629.812653,520.183265 L629.812653,507.020612 C629.812653,503.881633 629.75449,499.84449 625.44,499.84449 C621.064898,499.84449 620.392041,503.263265 620.392041,506.793469 L620.392041,520.182653 L611.987143,520.182653 L611.987143,493.117143 L620.055306,493.117143 L620.055306,496.815714 L620.168571,496.815714 C621.292041,494.687551 624.034898,492.444286 628.127755,492.444286 C636.645918,492.444286 638.218163,498.05 638.218163,505.337551 L638.218163,520.183265 L638.218163,520.183265 Z" id="Shape"></path>
        </g>
    </g>
</svg>