<?xml version="1.0" encoding="UTF-8"?>
<svg width="60px" height="60px" viewBox="0 0 60 60" version="1.1" xmlns="http://www.w3.org/2000/svg" xmlns:xlink="http://www.w3.org/1999/xlink">
    <!-- Generator: Sketch 40.3 (33839) - http://www.bohemiancoding.com/sketch -->
    <title>Shape</title>
    <desc>Created with Sketch.</desc>
    <defs></defs>
    <g id="Page-1" stroke="none" stroke-width="1" fill="none" fill-rule="evenodd">
        <g id="HP" transform="translate(-591.000000, -4750.000000)" fill="#4B44EA">
            <g id="Group-3" transform="translate(70.000000, 4438.000000)">
                <path d="M550.923469,312 C534.397143,312 521,325.397143 521,341.923469 C521,358.449796 534.397143,371.846939 550.923469,371.846939 C567.449796,371.846939 580.846939,358.449796 580.846939,341.923469 C580.846939,325.397143 567.449796,312 550.923469,312 L550.923469,312 Z M569.018367,333.943469 C569.032449,334.296735 569.039796,334.650612 569.039796,335.006327 C569.039796,347.788776 559.313061,361.010204 543.035918,361.010204 C538.060204,361.010204 533.21551,359.590408 529.025918,356.903265 C528.938367,356.847551 528.902245,356.739184 528.937143,356.641837 C528.972041,356.545102 529.070612,356.485102 529.171633,356.496735 C529.87449,356.580612 530.593265,356.622245 531.306531,356.622245 C535.177755,356.622245 538.842653,355.425306 541.942449,353.15449 C538.226735,352.84102 535.033265,350.326531 533.884694,346.739388 C533.860816,346.664694 533.877959,346.583265 533.929388,346.52449 C533.981429,346.465714 534.06102,346.44 534.136939,346.454082 C535.166735,346.649388 536.213673,346.662245 537.222653,346.498163 C533.390612,345.307347 530.697347,341.717755 530.697347,337.63102 L530.698571,337.512245 C530.700408,337.43449 530.742653,337.363469 530.81,337.324898 C530.876735,337.285714 530.96,337.285102 531.027347,337.323061 C532.026531,337.877755 533.132245,338.234082 534.266735,338.370612 C532.06449,336.615306 530.771429,333.95449 530.771429,331.108163 C530.771429,329.466122 531.206122,327.852245 532.02898,326.44102 C532.065714,326.377959 532.130612,326.337551 532.202857,326.332041 C532.275714,326.324694 532.346122,326.356531 532.392041,326.412857 C536.899388,331.941429 543.529388,335.34551 550.619184,335.783265 C550.50102,335.188163 550.44102,334.574694 550.44102,333.955714 C550.44102,328.836735 554.60551,324.672857 559.723878,324.672857 C562.240204,324.672857 564.672041,325.706939 566.415102,327.514286 C568.379796,327.113878 570.251429,326.391429 571.980408,325.366531 C572.059388,325.319388 572.158571,325.326735 572.231429,325.383673 C572.302449,325.441224 572.331837,325.536735 572.303673,325.624898 C571.717755,327.457347 570.575306,329.055918 569.040408,330.21 C570.485918,329.958367 571.888571,329.533469 573.222653,328.941429 C573.312041,328.900408 573.417959,328.926122 573.482245,329.001429 C573.545918,329.077347 573.551429,329.185714 573.496327,329.267755 C572.28102,331.086735 570.774898,332.659592 569.018367,333.943469 L569.018367,333.943469 Z" id="Shape"></path>
            </g>
        </g>
    </g>
</svg>