<?xml version="1.0" encoding="utf-8"?>
<!-- Generator: Adobe Illustrator 19.0.1, SVG Export Plug-In . SVG Version: 6.00 Build 0)  -->
<svg version="1.1" id="иконка_1_" xmlns="http://www.w3.org/2000/svg" xmlns:xlink="http://www.w3.org/1999/xlink" x="0px"
	 y="0px" viewBox="0 0 17 17" style="enable-background:new 0 0 17 17;" xml:space="preserve">
<style type="text/css">
	.st0{fill-rule:evenodd;clip-rule:evenodd;fill:#88D490;}
</style>
<g id="иконка">
	<g>
		<path class="st0" d="M8.5,11.8c-0.6-0.5-1.2-1.1-1.8-1.7C6.1,9.5,5.5,8.9,4.9,8.3C4.5,7.8,4.4,7,4.6,6.4l-4-4
			c-0.9,0.9-0.8,3.3,0.2,5.3c0.4,0.9,1,1.7,1.6,2.5C3,11,3.7,11.7,4.3,12.4c0.7,0.7,1.4,1.3,2.1,1.9c0.8,0.6,1.6,1.1,2.5,1.6
			c2.1,1,4.4,1.1,5.4,0.2l-4-4C9.7,12.3,9,12.3,8.5,11.8z M5.5,5.3l0.6-0.6L6.8,4C7,3.8,7,3.4,6.8,3.2l-3-3C3.5,0,3.2,0,2.9,0.2
			c-0.5,0.5-1,1-1.5,1.5l3.9,3.9C5.4,5.5,5.4,5.4,5.5,5.3z M16.6,13l-3-3c-0.2-0.2-0.6-0.2-0.8,0h0l-0.7,0.7l-0.6,0.6
			c-0.1,0.1-0.2,0.1-0.2,0.2l3.8,3.9c0.5-0.5,1-1,1.5-1.5C16.8,13.6,16.8,13.2,16.6,13z"/>
	</g>
</g>
</svg>
