<?xml version="1.0" encoding="utf-8"?>
<!-- Generator: Adobe Illustrator 19.0.1, SVG Export Plug-In . SVG Version: 6.00 Build 0)  -->
<svg version="1.1" id="logo_1_" xmlns="http://www.w3.org/2000/svg" xmlns:xlink="http://www.w3.org/1999/xlink" x="0px" y="0px"
	 viewBox="0 0 178 46" style="enable-background:new 0 0 178 46;" xml:space="preserve">
<style type="text/css">
	.st0{fill:#FFFFFF;}
</style>
<g id="logo">
	<g>
		<path class="st0" d="M50.1,26.7h9.1v-2.3h-9.1v-6.8h10.2v-2.3H47.5v21h13.4V34H50.1V26.7z M85.3,22c-0.5-0.4-1-0.7-1.6-0.8
			C83.1,21,82.5,21,82,21c-1.1,0-2.1,0.3-3,0.8c-0.9,0.5-1.6,1.3-2.3,2.2h-0.1c-0.4-0.9-1-1.6-1.7-2.2c-0.7-0.5-1.7-0.8-2.8-0.8
			c-0.6,0-1.1,0.1-1.5,0.2s-0.9,0.3-1.3,0.5c-0.4,0.2-0.8,0.5-1.1,0.8c-0.3,0.3-0.6,0.6-0.9,1h0l-0.5-2.1H65v14.9h2.4V25.7
			c0.6-0.8,1.2-1.5,1.9-1.9c0.7-0.5,1.5-0.7,2.4-0.7c0.5,0,0.9,0.1,1.3,0.2c0.4,0.1,0.7,0.4,1,0.6c0.3,0.3,0.5,0.7,0.6,1.1
			c0.1,0.5,0.2,1,0.2,1.7v9.6h2.4V25.7c0.6-0.8,1.2-1.5,1.9-1.9c0.7-0.5,1.5-0.7,2.4-0.7c0.5,0,0.9,0.1,1.3,0.2
			c0.4,0.1,0.7,0.4,1,0.6c0.3,0.3,0.5,0.7,0.6,1.1c0.1,0.5,0.2,1,0.2,1.7v9.6H87v-10c0-1.1-0.2-2-0.5-2.7
			C86.2,22.9,85.8,22.4,85.3,22z M97.6,34.5c-0.5,0-0.9-0.1-1.2-0.2c-0.3-0.1-0.6-0.3-0.8-0.5c-0.2-0.2-0.4-0.5-0.5-0.8
			c-0.1-0.3-0.1-0.6-0.1-1v-8.7h4.5v-2.1h-4.5v-4.1h-2.4v4.1h-2.9v2.1h2.9v9.1c0,0.6,0.1,1.2,0.3,1.7c0.2,0.5,0.5,1,0.9,1.3
			c0.4,0.4,0.9,0.6,1.4,0.8c0.6,0.2,1.3,0.3,2,0.3c0.6,0,1.1-0.1,1.5-0.1c0.4-0.1,0.8-0.2,1-0.2v-2c-0.3,0.1-0.6,0.2-1,0.2
			C98.3,34.5,97.9,34.5,97.6,34.5z M103.3,36.3h3v-3.1h-3V36.3z M123,26.1c-0.6-0.4-1.3-0.8-2.1-1c-0.8-0.2-1.6-0.5-2.4-0.7
			c-0.6-0.1-1.2-0.3-1.8-0.5c-0.6-0.2-1.1-0.4-1.5-0.6c-0.4-0.3-0.8-0.6-1-1c-0.3-0.4-0.4-0.9-0.4-1.5c0-0.6,0.1-1.1,0.3-1.5
			c0.2-0.5,0.5-0.8,0.9-1.2c0.4-0.3,0.9-0.6,1.5-0.7c0.6-0.2,1.3-0.3,2.1-0.3c1.1,0,2.1,0.1,3,0.4c0.9,0.2,1.8,0.5,2.7,0.9V16
			c-0.8-0.3-1.7-0.6-2.7-0.8s-2-0.3-3.1-0.3c-1,0-1.9,0.1-2.8,0.4c-0.9,0.2-1.6,0.6-2.3,1.1c-0.7,0.5-1.2,1.1-1.6,1.9
			c-0.4,0.8-0.6,1.7-0.6,2.8c0,1,0.2,1.9,0.6,2.5c0.4,0.7,0.9,1.2,1.5,1.6c0.6,0.4,1.3,0.7,2.1,1s1.6,0.4,2.4,0.6
			c0.6,0.1,1.2,0.3,1.8,0.5c0.6,0.2,1.1,0.4,1.5,0.7c0.4,0.3,0.8,0.6,1,1c0.3,0.4,0.4,0.9,0.4,1.6c0,0.8-0.1,1.4-0.4,1.9
			c-0.3,0.5-0.7,0.9-1.2,1.2c-0.5,0.3-1.1,0.5-1.8,0.6c-0.7,0.1-1.4,0.2-2.1,0.2c-0.5,0-0.9,0-1.4-0.1c-0.5-0.1-1-0.1-1.5-0.3
			c-0.5-0.1-1-0.2-1.5-0.4c-0.5-0.2-0.9-0.3-1.3-0.5v2.3c0.2,0.1,0.6,0.3,1,0.4c0.4,0.1,0.9,0.3,1.4,0.4c0.5,0.1,1.1,0.2,1.6,0.3
			c0.6,0.1,1.1,0.1,1.7,0.1c1.2,0,2.3-0.1,3.3-0.4c1-0.2,1.9-0.6,2.6-1.1c0.7-0.5,1.3-1.2,1.7-1.9c0.4-0.8,0.6-1.7,0.6-2.8
			c0-1.1-0.2-1.9-0.6-2.6C124.1,27.1,123.6,26.5,123,26.1z M140.7,23.1c-0.6-0.7-1.4-1.2-2.2-1.6c-0.9-0.4-1.9-0.6-3-0.6
			c-1.1,0-2.1,0.2-2.9,0.6c-0.9,0.4-1.6,0.9-2.2,1.6c-0.6,0.7-1.1,1.5-1.4,2.5c-0.3,1-0.5,2-0.5,3.2c0,1.2,0.2,2.2,0.5,3.2
			c0.3,1,0.8,1.8,1.4,2.5c0.6,0.7,1.4,1.2,2.2,1.6c0.9,0.4,1.9,0.6,3,0.6c1.1,0,2.1-0.2,2.9-0.6c0.9-0.4,1.6-0.9,2.2-1.6
			c0.6-0.7,1.1-1.5,1.4-2.5c0.3-1,0.5-2,0.5-3.2c0-1.2-0.2-2.3-0.5-3.2C141.8,24.6,141.3,23.8,140.7,23.1z M139.7,31.3
			c-0.2,0.7-0.5,1.3-0.9,1.8c-0.4,0.5-0.9,0.9-1.4,1.1c-0.6,0.3-1.2,0.4-1.8,0.4c-0.7,0-1.3-0.1-1.8-0.4c-0.6-0.3-1-0.6-1.4-1.1
			c-0.4-0.5-0.7-1.1-1-1.8c-0.2-0.7-0.3-1.5-0.3-2.4c0-0.9,0.1-1.7,0.3-2.5c0.2-0.7,0.5-1.3,0.9-1.8c0.4-0.5,0.9-0.9,1.4-1.1
			c0.6-0.3,1.2-0.4,1.8-0.4c0.7,0,1.3,0.1,1.8,0.4c0.6,0.3,1,0.6,1.4,1.1c0.4,0.5,0.7,1.1,0.9,1.8c0.2,0.7,0.3,1.5,0.3,2.5
			C140.1,29.7,140,30.5,139.7,31.3z M146.6,36.3h2.4V13.5h-2.4V36.3z M164.6,23.9c-0.4-0.9-1.1-1.6-2.1-2.1c-1-0.5-2.2-0.8-3.7-0.8
			c-0.4,0-0.8,0-1.3,0.1c-0.4,0-0.8,0.1-1.2,0.2c-0.4,0.1-0.7,0.2-1.1,0.3c-0.3,0.1-0.6,0.2-0.9,0.4v2c0.7-0.3,1.3-0.4,2-0.6
			c0.7-0.1,1.4-0.2,2.1-0.2c1,0,1.8,0.2,2.4,0.5c0.6,0.3,1,0.7,1.3,1.2c0.1,0.2,0.2,0.5,0.3,0.8c0.1,0.3,0.1,0.7,0.1,1.1v1h-0.1
			c-0.5-0.2-1.1-0.3-1.8-0.5c-0.7-0.1-1.4-0.2-2.2-0.2c-0.8,0-1.6,0.1-2.2,0.3c-0.7,0.2-1.3,0.5-1.7,0.9c-0.5,0.4-0.9,0.9-1.1,1.5
			c-0.3,0.6-0.4,1.3-0.4,2c0,0.8,0.1,1.4,0.4,2c0.2,0.6,0.6,1.1,1,1.5c0.4,0.4,1,0.7,1.6,0.9c0.6,0.2,1.3,0.3,2,0.3
			c0.5,0,1-0.1,1.5-0.2c0.5-0.1,0.9-0.3,1.3-0.5c0.4-0.2,0.8-0.4,1.1-0.7c0.3-0.2,0.6-0.5,0.8-0.7h0.1l0.3,1.6h2.1v-10
			c0-0.5,0-0.9-0.1-1.3C164.9,24.6,164.8,24.2,164.6,23.9z M162.6,32.7c-0.1,0.1-0.3,0.3-0.5,0.5c-0.2,0.2-0.5,0.4-0.9,0.6
			c-0.4,0.2-0.8,0.4-1.2,0.5c-0.5,0.2-0.9,0.2-1.5,0.2c-0.4,0-0.8-0.1-1.1-0.2c-0.3-0.1-0.7-0.3-0.9-0.5c-0.3-0.2-0.5-0.5-0.6-0.9
			c-0.1-0.3-0.2-0.7-0.2-1.2c0-0.9,0.3-1.6,0.9-2c0.6-0.4,1.4-0.7,2.4-0.7c0.7,0,1.4,0.1,2,0.2c0.6,0.1,1.2,0.2,1.6,0.4V32.7z
			 M177.7,21c-0.1,0-0.2,0-0.3,0c-0.6,0-1.1,0.1-1.7,0.2c-0.5,0.1-1,0.3-1.4,0.6c-0.4,0.3-0.8,0.5-1.2,0.9c-0.4,0.3-0.6,0.7-0.9,1.1
			h0l-0.5-2.4h-1.9v14.9h2.4V25.9c0.3-0.4,0.6-0.8,1-1.1c0.4-0.3,0.8-0.6,1.3-0.8c0.5-0.2,1-0.4,1.6-0.5c0.6-0.1,1.1-0.2,1.7-0.2
			h0.2V21C177.9,21,177.8,21,177.7,21z M7.2,23.9L13.8,46l3.9-2.2l-6-19.3L7.2,23.9z M12.5,24.6l5.7,19l3.8-2.2l-4.8-16.2L12.5,24.6
			z M17.7,25.2l4.8,15.8l3.8-2.2l-4-13.1L17.7,25.2z M22.8,25.9l3.9,12.7l3.7-2.1l-3.3-10.1L22.8,25.9z M26.7,25l-2.8-9.7l-5.5-3.5
			l3.9,12.5L26.7,25z M21.6,24.3l-4-13L12.4,8l4.8,15.7L21.6,24.3z M16.6,23.5l-5-16.1L6.2,4l5.9,18.9L16.6,23.5z M5.5,3.6L0,0
			l7,22.1l4.4,0.7L5.5,3.6z"/>
	</g>
</g>
</svg>
