<?xml version="1.0" encoding="utf-8" ?>
<svg xmlns="http://www.w3.org/2000/svg" xmlns:xlink="http://www.w3.org/1999/xlink" width="67" height="62">
	<defs>
		<clipPath id="clip_0">
			<rect y="-1" width="68" height="63" clip-rule="nonzero"/>
		</clipPath>
	</defs>
	<g clip-path="url(#clip_0)">
		<path fill="rgb(98,98,98)" stroke="none" d="M0 16.2648C0.0687865 14.7452 1.23816 13.515 2.75146 13.515C4.26476 13.515 5.50292 14.8176 5.50292 16.3372L5.43413 20.8238C5.43413 21.9817 6.32835 22.9224 7.42894 22.9224L30.4724 22.9224L51.5211 0.778823C52.5529 -0.306646 54.2725 -0.234281 55.3043 0.851188C56.3361 1.93666 56.3361 3.74577 55.3043 4.90361L52.4841 7.87055L65.7599 21.3304C67.4795 23.0671 67.4107 26.1788 65.5535 28.3497L61.9766 32.4745C60.1194 34.5731 57.1615 34.9349 55.4419 33.1982C55.4419 33.1982 52.7592 30.593 50.0078 27.7708C49.6638 27.409 49.3887 27.2643 48.976 27.2643C48.632 27.2643 47.2563 28.8563 46.4996 29.8694L46.4996 57.585C46.4309 60.0454 44.5048 62 42.1661 62C39.7586 62 37.8326 59.9731 37.8326 57.4403L37.8326 50.3486C37.8326 48.4671 36.4568 47.0198 34.7372 47.0198L11.8313 47.0198C10.0428 47.0198 8.73588 48.5395 8.73588 50.3486L8.73588 57.4403C8.73588 59.9731 6.80986 62 4.40233 62C1.99481 62 0.0687865 60.0454 0 57.585L0 16.2648Z"/>
	</g>
	<defs>
		<clipPath id="clip_1">
			<rect x="-2" y="-3" width="72" height="67" clip-rule="nonzero"/>
		</clipPath>
	</defs>
	<g clip-path="url(#clip_1)">
		<path fill="none" stroke="rgb(213,213,213)" stroke-width="1" stroke-miterlimit="4" d="M0 16.2648C0.0687865 14.7452 1.23816 13.515 2.75146 13.515C4.26476 13.515 5.50292 14.8176 5.50292 16.3372L5.43413 20.8238C5.43413 21.9817 6.32835 22.9224 7.42894 22.9224L30.4724 22.9224L51.5211 0.778823C52.5529 -0.306646 54.2725 -0.234281 55.3043 0.851188C56.3361 1.93666 56.3361 3.74577 55.3043 4.90361L52.4841 7.87055L65.7599 21.3304C67.4795 23.0671 67.4107 26.1788 65.5535 28.3497L61.9766 32.4745C60.1194 34.5731 57.1615 34.9349 55.4419 33.1982C55.4419 33.1982 52.7592 30.593 50.0078 27.7708C49.6638 27.409 49.3887 27.2643 48.976 27.2643C48.632 27.2643 47.2563 28.8563 46.4996 29.8694L46.4996 57.585C46.4309 60.0454 44.5048 62 42.1661 62C39.7586 62 37.8326 59.9731 37.8326 57.4403L37.8326 50.3486C37.8326 48.4671 36.4568 47.0198 34.7372 47.0198L11.8313 47.0198C10.0428 47.0198 8.73588 48.5395 8.73588 50.3486L8.73588 57.4403C8.73588 59.9731 6.80986 62 4.40233 62C1.99481 62 0.0687865 60.0454 0 57.585L0 16.2648Z"/>
	</g>
</svg>
