<?xml version="1.0" encoding="utf-8" ?>
<svg xmlns="http://www.w3.org/2000/svg" xmlns:xlink="http://www.w3.org/1999/xlink" width="48" height="62">
	<defs>
		<clipPath id="clip_0">
			<rect width="48" height="62" clip-rule="nonzero"/>
		</clipPath>
	</defs>
	<g clip-path="url(#clip_0)">
		<path fill="rgb(98,98,98)" stroke="none" d="M0 62L47.6923 62L47.6923 0L0 0L0 62ZM2.38462 11.9255L45.3077 11.9255L45.3077 2.38462L2.38462 2.38462L2.38462 11.9255ZM45.3077 59.6154L2.38462 59.6154L2.38462 14.3077L45.3077 14.3077L45.3077 59.6154Z" fill-rule="evenodd"/>
	</g>
	<defs>
		<clipPath id="clip_1">
			<rect x="-2" y="-2" width="52" height="66" clip-rule="nonzero"/>
		</clipPath>
	</defs>
	<g clip-path="url(#clip_1)">
		<path fill="none" stroke="rgb(213,213,213)" stroke-width="1" stroke-miterlimit="4" d="M0 62L47.6923 62L47.6923 0L0 0L0 62ZM2.38462 11.9255L45.3077 11.9255L45.3077 2.38462L2.38462 2.38462L2.38462 11.9255ZM45.3077 59.6154L2.38462 59.6154L2.38462 14.3077L45.3077 14.3077L45.3077 59.6154Z" fill-rule="evenodd"/>
	</g>
	<defs>
		<clipPath id="clip_2">
			<rect x="-1225" y="-100" width="8254" height="1139" clip-rule="evenodd"/>
		</clipPath>
	</defs>
	<g clip-path="url(#clip_2)">
		<path fill="rgb(98,98,98)" stroke="none" transform="translate(7.15381 4.76929)" d="M2.38462 0C3.70092 0 4.76923 1.06831 4.76923 2.38462C4.76923 3.70092 3.70092 4.76923 2.38462 4.76923C1.06831 4.76923 0 3.70092 0 2.38462C0 1.06831 1.06831 0 2.38462 0"/>
	</g>
	<defs>
		<clipPath id="clip_3">
			<rect x="-1225" y="-100" width="8254" height="1139" clip-rule="evenodd"/>
		</clipPath>
	</defs>
	<g clip-path="url(#clip_3)">
		<path fill="rgb(98,98,98)" stroke="none" transform="translate(16.6923 4.76929)" d="M2.38462 0C3.70092 0 4.76923 1.06831 4.76923 2.38462C4.76923 3.70092 3.70092 4.76923 2.38462 4.76923C1.06831 4.76923 0 3.70092 0 2.38462C0 1.06831 1.06831 0 2.38462 0"/>
	</g>
	<defs>
		<clipPath id="clip_4">
			<rect x="-1225" y="-100" width="8254" height="1139" clip-rule="evenodd"/>
		</clipPath>
	</defs>
	<g clip-path="url(#clip_4)">
		<path fill="rgb(98,98,98)" stroke="none" transform="translate(26.2307 4.76929)" d="M2.38462 0C3.70331 0 4.76923 1.06831 4.76923 2.38462C4.76923 3.70092 3.70331 4.76923 2.38462 4.76923C1.06592 4.76923 0 3.70092 0 2.38462C0 1.06831 1.06592 0 2.38462 0"/>
	</g>
	<defs>
		<clipPath id="clip_5">
			<rect x="-1225" y="-100" width="8254" height="1139" clip-rule="evenodd"/>
		</clipPath>
	</defs>
	<g clip-path="url(#clip_5)">
		<path fill="rgb(98,98,98)" stroke="none" transform="translate(35.7692 4.76929)" d="M2.38462 0C3.70331 0 4.76923 1.06831 4.76923 2.38462C4.76923 3.70092 3.70331 4.76923 2.38462 4.76923C1.06592 4.76923 0 3.70092 0 2.38462C0 1.06831 1.06592 0 2.38462 0"/>
	</g>
	<defs>
		<clipPath id="clip_6">
			<rect x="-1225" y="-100" width="8254" height="1139" clip-rule="evenodd"/>
		</clipPath>
	</defs>
	<g clip-path="url(#clip_6)">
		<path fill="rgb(98,98,98)" stroke="none" transform="translate(7.15381 19.0769)" d="M0 16.6923C0 7.47339 7.47339 0 16.6923 0C25.9112 0 33.3846 7.47339 33.3846 16.6923C33.3846 25.9112 25.9112 33.3846 16.6923 33.3846C7.47339 33.3846 0 25.9112 0 16.6923ZM2.38462 16.6923C2.38462 24.5925 8.79208 31 16.6923 31C24.5925 31 31 24.5925 31 16.6923C31 8.79208 24.5925 2.38462 16.6923 2.38462C8.79208 2.38462 2.38462 8.79208 2.38462 16.6923Z" fill-rule="evenodd"/>
	</g>
	<defs>
		<clipPath id="clip_7">
			<rect x="-1225" y="-100" width="8254" height="1139" clip-rule="evenodd"/>
		</clipPath>
	</defs>
	<g clip-path="url(#clip_7)">
		<path fill="rgb(98,98,98)" stroke="none" transform="translate(14.3076 26.2307)" d="M0 9.53846C0 4.27085 4.27085 0 9.53846 0C14.8061 0 19.0769 4.27085 19.0769 9.53846C19.0769 14.8061 14.8061 19.0769 9.53846 19.0769C4.27085 19.0769 0 14.8061 0 9.53846ZM2.38462 9.53846C2.38462 13.4898 5.58715 16.6923 9.53846 16.6923C13.4898 16.6923 16.6923 13.4898 16.6923 9.53846C16.6923 5.58715 13.4898 2.38462 9.53846 2.38462C5.58715 2.38462 2.38462 5.58715 2.38462 9.53846Z" fill-rule="evenodd"/>
	</g>
</svg>
