<?xml version="1.0" encoding="utf-8" ?>
<svg xmlns="http://www.w3.org/2000/svg" xmlns:xlink="http://www.w3.org/1999/xlink" width="61" height="64">
	<defs>
		<clipPath id="clip_0">
			<rect x="21" y="33" width="27" height="20" clip-rule="nonzero"/>
		</clipPath>
	</defs>
	<g clip-path="url(#clip_0)">
		<path fill="rgb(98,98,98)" stroke="none" transform="translate(21.126 39.4402)" d="M25.9494 1.97936L25.9494 8.93767C25.9494 9.63302 25.275 9.32875 24.8811 9.11318L20.7156 6.49392C14.7169 13.1441 5.19083 12.9486 0 5.25201C0 5.25201 9.486 -6.0215 20.936 4.46509L24.4032 1.98032C24.4032 1.98032 24.4242 1.98032 24.4471 1.95933L24.5119 1.91641C24.8372 1.67604 25.9494 0.954931 25.9494 1.97936"/>
	</g>
	<defs>
		<clipPath id="clip_1">
			<rect x="19" y="31" width="31" height="24" clip-rule="nonzero"/>
		</clipPath>
	</defs>
	<g clip-path="url(#clip_1)">
		<path fill="none" stroke="rgb(213,213,213)" stroke-width="1" stroke-miterlimit="4" transform="translate(21.126 39.4402)" d="M25.9494 1.97936L25.9494 8.93767C25.9494 9.63302 25.275 9.32875 24.8811 9.11318L20.7156 6.49392C14.7169 13.1441 5.19083 12.9486 0 5.25201C0 5.25201 9.486 -6.0215 20.936 4.46509L24.4032 1.98032C24.4032 1.98032 24.4242 1.98032 24.4471 1.95933L24.5119 1.91641C24.8372 1.67604 25.9494 0.954931 25.9494 1.97936"/>
	</g>
	<defs>
		<clipPath id="clip_2">
			<rect x="22" y="28" width="8" height="8" clip-rule="nonzero"/>
		</clipPath>
	</defs>
	<g clip-path="url(#clip_2)">
		<path fill="rgb(98,98,98)" stroke="none" transform="translate(22.2993 28.4849)" d="M3.7448 0C5.81274 0 7.4896 1.67591 7.4896 3.7448C7.4896 5.81274 5.81274 7.4896 3.7448 7.4896C1.67686 7.4896 0 5.81274 0 3.7448C0 1.67591 1.67686 0 3.7448 0"/>
	</g>
	<defs>
		<clipPath id="clip_3">
			<rect x="20" y="26" width="12" height="12" clip-rule="nonzero"/>
		</clipPath>
	</defs>
	<g clip-path="url(#clip_3)">
		<path fill="none" stroke="rgb(213,213,213)" stroke-width="1" stroke-miterlimit="4" transform="translate(22.2993 28.4849)" d="M3.7448 0C5.81274 0 7.4896 1.67591 7.4896 3.7448C7.4896 5.81274 5.81274 7.4896 3.7448 7.4896C1.67686 7.4896 0 5.81274 0 3.7448C0 1.67591 1.67686 0 3.7448 0"/>
	</g>
	<defs>
		<clipPath id="clip_4">
			<rect x="33" y="24" width="5" height="5" clip-rule="nonzero"/>
		</clipPath>
	</defs>
	<g clip-path="url(#clip_4)">
		<path fill="rgb(98,98,98)" stroke="none" transform="translate(33.4912 24.2849)" d="M2.10132 0C3.26215 0 4.20265 0.940492 4.20265 2.10132C4.20265 3.26215 3.26215 4.20265 2.10132 4.20265C0.940492 4.20265 0 3.26215 0 2.10132C0 0.940492 0.940492 0 2.10132 0"/>
	</g>
	<defs>
		<clipPath id="clip_5">
			<rect x="31" y="22" width="9" height="9" clip-rule="nonzero"/>
		</clipPath>
	</defs>
	<g clip-path="url(#clip_5)">
		<path fill="none" stroke="rgb(213,213,213)" stroke-width="1" stroke-miterlimit="4" transform="translate(33.4912 24.2849)" d="M2.10132 0C3.26215 0 4.20265 0.940492 4.20265 2.10132C4.20265 3.26215 3.26215 4.20265 2.10132 4.20265C0.940492 4.20265 0 3.26215 0 2.10132C0 0.940492 0.940492 0 2.10132 0"/>
	</g>
	<defs>
		<clipPath id="clip_6">
			<rect x="27" y="12" width="7" height="6" clip-rule="nonzero"/>
		</clipPath>
	</defs>
	<g clip-path="url(#clip_6)">
		<path fill="rgb(98,98,98)" stroke="none" transform="translate(27.876 12.0127)" d="M5.61529 2.80812C5.61529 4.35717 4.35812 5.61338 2.80431 5.61338C1.25717 5.61338 0 4.35717 0 2.80812C0 1.25526 1.25812 0 2.80431 0C4.35622 0 5.61529 1.25526 5.61529 2.80812"/>
	</g>
	<defs>
		<clipPath id="clip_7">
			<rect x="25" y="10" width="11" height="10" clip-rule="nonzero"/>
		</clipPath>
	</defs>
	<g clip-path="url(#clip_7)">
		<path fill="none" stroke="rgb(213,213,213)" stroke-width="1" stroke-miterlimit="4" transform="translate(27.876 12.0127)" d="M5.61529 2.80812C5.61529 4.35717 4.35812 5.61338 2.80431 5.61338C1.25717 5.61338 0 4.35717 0 2.80812C0 1.25526 1.25812 0 2.80431 0C4.35622 0 5.61529 1.25526 5.61529 2.80812"/>
	</g>
	<defs>
		<clipPath id="clip_8">
			<rect x="7" y="16" width="16" height="38" clip-rule="nonzero"/>
		</clipPath>
	</defs>
	<g clip-path="url(#clip_8)">
		<path fill="rgb(98,98,98)" stroke="none" transform="translate(8.24805 17.2708)" d="M11.0046 0.850296C11.0046 0.850296 12.7254 -0.669181 13.8872 0.354296C14.614 1.21467 14.7141 2.30682 13.5896 2.96974C12.4621 3.63267 7.55744 6.44842 4.67491 13.2074C3.11919 17.2183 2.19301 22.8498 4.90765 29.1767C5.56962 30.8364 7.49162 33.4327 7.49162 33.4327C7.49162 33.4327 8.48839 34.9455 7.22741 35.7067C5.96642 36.4679 5.33879 35.9022 4.97251 35.474C4.6091 35.0419 1.62738 31.2341 0.567652 26.2302C-0.494933 21.2292 -0.196379 15.096 2.58694 10.0587C5.36931 5.02337 7.85408 3.07371 11.0046 0.850296"/>
	</g>
	<defs>
		<clipPath id="clip_9">
			<rect x="5" y="14" width="20" height="42" clip-rule="nonzero"/>
		</clipPath>
	</defs>
	<g clip-path="url(#clip_9)">
		<path fill="none" stroke="rgb(213,213,213)" stroke-width="1" stroke-miterlimit="4" transform="translate(8.24805 17.2708)" d="M11.0046 0.850296C11.0046 0.850296 12.7254 -0.669181 13.8872 0.354296C14.614 1.21467 14.7141 2.30682 13.5896 2.96974C12.4621 3.63267 7.55744 6.44842 4.67491 13.2074C3.11919 17.2183 2.19301 22.8498 4.90765 29.1767C5.56962 30.8364 7.49162 33.4327 7.49162 33.4327C7.49162 33.4327 8.48839 34.9455 7.22741 35.7067C5.96642 36.4679 5.33879 35.9022 4.97251 35.474C4.6091 35.0419 1.62738 31.2341 0.567652 26.2302C-0.494933 21.2292 -0.196379 15.096 2.58694 10.0587C5.36931 5.02337 7.85408 3.07371 11.0046 0.850296"/>
	</g>
	<defs>
		<clipPath id="clip_10">
			<rect x="-5" width="70" height="63" clip-rule="nonzero"/>
		</clipPath>
	</defs>
	<g clip-path="url(#clip_10)">
		<path fill="rgb(98,98,98)" stroke="none" transform="translate(0 0.953613)" d="M43.699 11.1595C43.7775 11.1992 43.8027 11.2205 43.822 11.2408C53.7132 16.2121 60.5157 26.4463 60.5157 38.2636C60.5157 47.8845 56.0201 56.4658 49.0181 62L11.4966 62C9.73328 60.5903 8.1172 58.9907 6.70459 57.2458C2.50841 52.0458 0 45.4517 0 38.2636C0 26.2525 7.02044 15.8808 17.1829 11.0035C17.2042 10.986 17.2168 10.9696 17.2488 10.9531C17.7449 10.7118 17.3467 10.2594 17.3438 10.2565L11.0771 3.29319L11.0771 3.29222L10.7709 2.95312C10.0549 2.11408 8.49894 0 11.0771 0L49.3243 0C49.3243 0 52.1543 0.189899 49.3291 3.3988L43.699 9.79238L43.699 9.79335C43.699 9.79335 42.9123 10.7545 43.699 11.1595ZM44.6611 58.7L47.6491 58.7C47.6491 58.7 64.4251 44.1292 52.6911 23.6996C52.6814 23.6928 52.6746 23.6918 52.6659 23.687C50.2457 18.7176 46.2481 14.6629 41.2691 12.2591L40.7139 11.9966L40.711 11.9966C39.1928 11.2437 40.711 9.32635 40.711 9.32635L44.4179 4.96546L44.4179 4.9645C45.8828 3.23797 44.4179 3.27091 44.4179 3.27091L17.0977 3.27091C16.7915 3.27478 15.7693 3.34261 16.4156 4.1332L20.6505 9.28954L21.0003 9.71681C21.4072 10.2826 21.8713 11.2786 20.6505 11.8784C20.6476 11.8793 20.6476 11.8803 20.6476 11.8803C20.5527 11.921 20.4587 11.9627 20.3666 12.0063L20.3695 12.0092C16.6626 13.6911 13.4692 16.2838 11.018 19.4733C11.0151 19.4656 11.0112 19.4598 11.0054 19.453C10.8979 19.608 10.8068 19.7553 10.6992 19.9103C10.1286 20.6902 9.60442 21.5002 9.12483 22.346C-4.26594 44.4547 13.1602 58.7 13.1602 58.7L44.6611 58.7Z" fill-rule="evenodd"/>
	</g>
	<defs>
		<clipPath id="clip_11">
			<rect x="-7" y="-2" width="74" height="67" clip-rule="nonzero"/>
		</clipPath>
	</defs>
	<g clip-path="url(#clip_11)">
		<path fill="none" stroke="rgb(213,213,213)" stroke-width="1" stroke-miterlimit="4" transform="translate(0 0.953613)" d="M43.699 11.1595C43.7775 11.1992 43.8027 11.2205 43.822 11.2408C53.7132 16.2121 60.5157 26.4463 60.5157 38.2636C60.5157 47.8845 56.0201 56.4658 49.0181 62L11.4966 62C9.73328 60.5903 8.1172 58.9907 6.70459 57.2458C2.50841 52.0458 0 45.4517 0 38.2636C0 26.2525 7.02044 15.8808 17.1829 11.0035C17.2042 10.986 17.2168 10.9696 17.2488 10.9531C17.7449 10.7118 17.3467 10.2594 17.3438 10.2565L11.0771 3.29319L11.0771 3.29222L10.7709 2.95312C10.0549 2.11408 8.49894 0 11.0771 0L49.3243 0C49.3243 0 52.1543 0.189899 49.3291 3.3988L43.699 9.79238L43.699 9.79335C43.699 9.79335 42.9123 10.7545 43.699 11.1595ZM44.6611 58.7L47.6491 58.7C47.6491 58.7 64.4251 44.1292 52.6911 23.6996C52.6814 23.6928 52.6746 23.6918 52.6659 23.687C50.2457 18.7176 46.2481 14.6629 41.2691 12.2591L40.7139 11.9966L40.711 11.9966C39.1928 11.2437 40.711 9.32635 40.711 9.32635L44.4179 4.96546L44.4179 4.9645C45.8828 3.23797 44.4179 3.27091 44.4179 3.27091L17.0977 3.27091C16.7915 3.27478 15.7693 3.34261 16.4156 4.1332L20.6505 9.28954L21.0003 9.71681C21.4072 10.2826 21.8713 11.2786 20.6505 11.8784C20.6476 11.8793 20.6476 11.8803 20.6476 11.8803C20.5527 11.921 20.4587 11.9627 20.3666 12.0063L20.3695 12.0092C16.6626 13.6911 13.4692 16.2838 11.018 19.4733C11.0151 19.4656 11.0112 19.4598 11.0054 19.453C10.8979 19.608 10.8068 19.7553 10.6992 19.9103C10.1286 20.6902 9.60442 21.5002 9.12483 22.346C-4.26594 44.4547 13.1602 58.7 13.1602 58.7L44.6611 58.7Z" fill-rule="evenodd"/>
	</g>
</svg>
