<?xml version="1.0" encoding="utf-8" ?>
<svg xmlns="http://www.w3.org/2000/svg" xmlns:xlink="http://www.w3.org/1999/xlink" width="50" height="60">
	<defs>
		<clipPath id="clip_0">
			<rect x="-1" y="-1" width="51" height="60" clip-rule="nonzero"/>
		</clipPath>
	</defs>
	<g clip-path="url(#clip_0)">
		<path fill="rgb(98,98,98)" stroke="none" transform="matrix(0.99 0 0 0.99 -0.052002 0.0473633)" d="M49.6 2.4603L49.6 45.865C49.6 45.865 49.445 53.3 40.9398 53.3C31.6274 53.3 31 47.2575 31 45.8601C31 42.8717 32.1681 39.6142 40.92 39.6142C44.9488 39.6142 45.88 38.5788 45.88 35.9401L45.88 15.133C45.88 13.5 45.7808 12.9097 43.9667 13.3202C40.8456 14.0257 20.46 18.4451 19.6466 18.6397C18.8331 18.8344 18.6 19.3168 18.6 20.7502L18.6 52.06C18.6 54.8537 16.4399 59.5 8.68 59.5C0.92008 59.5 0 54.5425 0 52.06C0 48.3735 2.79 45.9952 8.68868 45.9952C14.1831 45.9952 14.88 44.4465 14.88 42.1401L14.88 8.66027C14.88 7.46988 15.3648 6.66512 16.5738 6.39852C18.5963 5.95461 47.301 0.0361169 47.301 0.0361169C47.301 0.0361169 49.6 -0.4884 49.6 2.4603"/>
	</g>
	<defs>
		<clipPath id="clip_1">
			<rect x="-3" y="-3" width="55" height="64" clip-rule="nonzero"/>
		</clipPath>
	</defs>
	<g clip-path="url(#clip_1)">
		<path fill="none" stroke="rgb(213,213,213)" stroke-width="1" stroke-miterlimit="4" transform="matrix(0.99 0 0 0.99 -0.052002 0.0473633)" d="M49.6 2.4603L49.6 45.865C49.6 45.865 49.445 53.3 40.9398 53.3C31.6274 53.3 31 47.2575 31 45.8601C31 42.8717 32.1681 39.6142 40.92 39.6142C44.9488 39.6142 45.88 38.5788 45.88 35.9401L45.88 15.133C45.88 13.5 45.7808 12.9097 43.9667 13.3202C40.8456 14.0257 20.46 18.4451 19.6466 18.6397C18.8331 18.8344 18.6 19.3168 18.6 20.7502L18.6 52.06C18.6 54.8537 16.4399 59.5 8.68 59.5C0.92008 59.5 0 54.5425 0 52.06C0 48.3735 2.79 45.9952 8.68868 45.9952C14.1831 45.9952 14.88 44.4465 14.88 42.1401L14.88 8.66027C14.88 7.46988 15.3648 6.66512 16.5738 6.39852C18.5963 5.95461 47.301 0.0361169 47.301 0.0361169C47.301 0.0361169 49.6 -0.4884 49.6 2.4603"/>
	</g>
</svg>
