<?xml version="1.0" encoding="utf-8" ?>
<svg xmlns="http://www.w3.org/2000/svg" xmlns:xlink="http://www.w3.org/1999/xlink" width="67" height="62">
	<defs>
		<clipPath id="clip_0">
			<rect width="67" height="62" clip-rule="nonzero"/>
		</clipPath>
	</defs>
	<g clip-path="url(#clip_0)">
		<path fill="rgb(98,98,98)" stroke="none" d="M53.9722 0C56.4103 0 58.4947 1.6275 59.2578 3.91375L67 27.125L67 58.125C67 60.2563 65.3436 62 63.2778 62L59.5556 62C57.5083 62 55.8333 60.2563 55.8333 58.125L55.8333 54.25L11.1667 54.25L11.1667 58.125C11.1667 60.2563 9.51028 62 7.44444 62L3.72222 62C1.675 62 0 60.2563 0 58.125L0 27.125L7.74222 3.91375C8.50528 1.6275 10.5897 0 13.0278 0L53.9722 0ZM13.0278 5.8125L7.44444 23.25L59.5556 23.25L53.9722 5.8125L13.0278 5.8125ZM13.0278 42.625C9.93833 42.625 7.44444 40.0287 7.44444 36.8125C7.44444 33.5962 9.93833 31 13.0278 31C16.1172 31 18.6111 33.5962 18.6111 36.8125C18.6111 40.0287 16.1172 42.625 13.0278 42.625ZM48.3889 36.8125C48.3889 40.0287 50.8828 42.625 53.9722 42.625C57.0617 42.625 59.5556 40.0287 59.5556 36.8125C59.5556 33.5962 57.0617 31 53.9722 31C50.8828 31 48.3889 33.5962 48.3889 36.8125Z" fill-rule="evenodd"/>
	</g>
	<defs>
		<clipPath id="clip_1">
			<rect x="-2" y="-2" width="71" height="66" clip-rule="nonzero"/>
		</clipPath>
	</defs>
	<g clip-path="url(#clip_1)">
		<path fill="none" stroke="rgb(213,213,213)" stroke-width="1" stroke-miterlimit="4" d="M53.9722 0C56.4103 0 58.4947 1.6275 59.2578 3.91375L67 27.125L67 58.125C67 60.2563 65.3436 62 63.2778 62L59.5556 62C57.5083 62 55.8333 60.2563 55.8333 58.125L55.8333 54.25L11.1667 54.25L11.1667 58.125C11.1667 60.2563 9.51028 62 7.44444 62L3.72222 62C1.675 62 0 60.2563 0 58.125L0 27.125L7.74222 3.91375C8.50528 1.6275 10.5897 0 13.0278 0L53.9722 0ZM13.0278 5.8125L7.44444 23.25L59.5556 23.25L53.9722 5.8125L13.0278 5.8125ZM13.0278 42.625C9.93833 42.625 7.44444 40.0287 7.44444 36.8125C7.44444 33.5962 9.93833 31 13.0278 31C16.1172 31 18.6111 33.5962 18.6111 36.8125C18.6111 40.0287 16.1172 42.625 13.0278 42.625ZM48.3889 36.8125C48.3889 40.0287 50.8828 42.625 53.9722 42.625C57.0617 42.625 59.5556 40.0287 59.5556 36.8125C59.5556 33.5962 57.0617 31 53.9722 31C50.8828 31 48.3889 33.5962 48.3889 36.8125Z" fill-rule="evenodd"/>
	</g>
</svg>
