<?xml version="1.0" encoding="utf-8" ?>
<svg xmlns="http://www.w3.org/2000/svg" xmlns:xlink="http://www.w3.org/1999/xlink" width="47" height="63">
	<defs>
		<clipPath id="clip_0">
			<rect x="5" width="36" height="35" clip-rule="nonzero"/>
		</clipPath>
	</defs>
	<g clip-path="url(#clip_0)">
		<path fill="rgb(98,98,98)" stroke="none" transform="translate(5.87305 0)" d="M34.779 17.205C34.779 26.7065 26.9917 34.4061 17.39 34.4061C7.78633 34.4061 0 26.7055 0 17.205C0 7.70156 7.78633 0 17.39 0C26.9917 0 34.779 7.70156 34.779 17.205ZM31.9913 17.205C31.9913 9.22637 25.4534 2.759 17.39 2.759C9.32754 2.759 2.78867 9.22541 2.78867 17.205C2.78867 25.1817 9.32754 31.65 17.39 31.65C25.4534 31.65 31.9913 25.1817 31.9913 17.205Z" fill-rule="evenodd"/>
	</g>
	<defs>
		<clipPath id="clip_1">
			<rect x="3" y="-2" width="40" height="39" clip-rule="nonzero"/>
		</clipPath>
	</defs>
	<g clip-path="url(#clip_1)">
		<path fill="none" stroke="rgb(213,213,213)" stroke-width="1" stroke-miterlimit="4" transform="translate(5.87305 0)" d="M34.779 17.205C34.779 26.7065 26.9917 34.4061 17.39 34.4061C7.78633 34.4061 0 26.7055 0 17.205C0 7.70156 7.78633 0 17.39 0C26.9917 0 34.779 7.70156 34.779 17.205ZM31.9913 17.205C31.9913 9.22637 25.4534 2.759 17.39 2.759C9.32754 2.759 2.78867 9.22541 2.78867 17.205C2.78867 25.1817 9.32754 31.65 17.39 31.65C25.4534 31.65 31.9913 25.1817 31.9913 17.205Z" fill-rule="evenodd"/>
	</g>
	<defs>
		<clipPath id="clip_2">
			<rect y="17" width="47" height="45" clip-rule="nonzero"/>
		</clipPath>
	</defs>
	<g clip-path="url(#clip_2)">
		<path fill="rgb(98,98,98)" stroke="none" transform="translate(0 17.2019)" d="M46.5271 0.807937C46.4076 -0.034875 45.6057 0.00096875 45.6057 0.00096875L45.1729 0.00096875C44.3298 0 44.1604 1.01041 44.131 1.27294C44.1252 1.31362 44.1252 1.33591 44.1252 1.33591L44.1017 1.32912C43.1705 11.9272 34.2199 20.2546 23.264 20.2546C12.4481 20.2546 3.5769 12.1394 2.45771 1.73309C2.44596 1.67884 2.43617 1.63041 2.4254 1.56744C2.24033 0.262531 1.65185 0.0329375 1.36398 0L0.880271 0C0.233042 0 0.047 0.490187 0 0.854438C0.437688 12.6829 9.86119 22.2163 21.7257 22.9836L21.7257 34.2153L11.1537 44.6787L11.1938 44.7165L35.344 44.701L35.3744 44.6729L24.8013 34.2153L24.8013 22.9836C36.6806 22.2134 46.1109 12.6538 46.5271 0.807937"/>
	</g>
	<defs>
		<clipPath id="clip_3">
			<rect x="-2" y="15" width="51" height="49" clip-rule="nonzero"/>
		</clipPath>
	</defs>
	<g clip-path="url(#clip_3)">
		<path fill="none" stroke="rgb(213,213,213)" stroke-width="1" stroke-miterlimit="4" transform="translate(0 17.2019)" d="M46.5271 0.807937C46.4076 -0.034875 45.6057 0.00096875 45.6057 0.00096875L45.1729 0.00096875C44.3298 0 44.1604 1.01041 44.131 1.27294C44.1252 1.31362 44.1252 1.33591 44.1252 1.33591L44.1017 1.32912C43.1705 11.9272 34.2199 20.2546 23.264 20.2546C12.4481 20.2546 3.5769 12.1394 2.45771 1.73309C2.44596 1.67884 2.43617 1.63041 2.4254 1.56744C2.24033 0.262531 1.65185 0.0329375 1.36398 0L0.880271 0C0.233042 0 0.047 0.490187 0 0.854438C0.437688 12.6829 9.86119 22.2163 21.7257 22.9836L21.7257 34.2153L11.1537 44.6787L11.1938 44.7165L35.344 44.701L35.3744 44.6729L24.8013 34.2153L24.8013 22.9836C36.6806 22.2134 46.1109 12.6538 46.5271 0.807937"/>
	</g>
	<defs>
		<clipPath id="clip_4">
			<rect x="11" y="6" width="14" height="17" clip-rule="nonzero"/>
		</clipPath>
	</defs>
	<g clip-path="url(#clip_4)">
		<path fill="rgb(98,98,98)" stroke="none" transform="translate(11.9092 6.48779)" d="M12.8046 0.101719C12.3287 0.0416562 11.8469 -8.88178e-16 11.3544 -8.88178e-16C5.08481 -8.88178e-16 0 5.02781 0 11.2327C0 12.9096 0.380896 14.4954 1.04869 15.9243L12.8046 0.101719Z"/>
	</g>
	<defs>
		<clipPath id="clip_5">
			<rect x="9" y="4" width="18" height="21" clip-rule="nonzero"/>
		</clipPath>
	</defs>
	<g clip-path="url(#clip_5)">
		<path fill="none" stroke="rgb(213,213,213)" stroke-width="1" stroke-miterlimit="4" transform="translate(11.9092 6.48779)" d="M12.8046 0.101719C12.3287 0.0416562 11.8469 -8.88178e-16 11.3544 -8.88178e-16C5.08481 -8.88178e-16 0 5.02781 0 11.2327C0 12.9096 0.380896 14.4954 1.04869 15.9243L12.8046 0.101719Z"/>
	</g>
	<defs>
		<clipPath id="clip_6">
			<rect x="15" y="8" width="17" height="20" clip-rule="nonzero"/>
		</clipPath>
	</defs>
	<g clip-path="url(#clip_6)">
		<path fill="rgb(98,98,98)" stroke="none" transform="translate(15.5889 8.00586)" d="M13.3558 -1.77636e-15L0 17.9771C0.799 18.7037 1.70179 19.3178 2.68879 19.7974L15.9124 1.9995C15.1634 1.21675 14.3046 0.543469 13.3558 -1.77636e-15"/>
	</g>
	<defs>
		<clipPath id="clip_7">
			<rect x="13" y="6" width="21" height="24" clip-rule="nonzero"/>
		</clipPath>
	</defs>
	<g clip-path="url(#clip_7)">
		<path fill="none" stroke="rgb(213,213,213)" stroke-width="1" stroke-miterlimit="4" transform="translate(15.5889 8.00586)" d="M13.3558 -1.77636e-15L0 17.9771C0.799 18.7037 1.70179 19.3178 2.68879 19.7974L15.9124 1.9995C15.1634 1.21675 14.3046 0.543469 13.3558 -1.77636e-15"/>
	</g>
	<defs>
		<clipPath id="clip_8">
			<rect x="24" y="15" width="11" height="14" clip-rule="nonzero"/>
		</clipPath>
	</defs>
	<g clip-path="url(#clip_8)">
		<path fill="rgb(98,98,98)" stroke="none" transform="translate(24.0693 15.1389)" d="M0 13.7756C5.8936 13.3639 10.5466 8.51725 10.5466 2.58172C10.5466 1.69241 10.4311 0.82925 10.2352 0L0 13.7756Z"/>
	</g>
	<defs>
		<clipPath id="clip_9">
			<rect x="22" y="13" width="15" height="18" clip-rule="nonzero"/>
		</clipPath>
	</defs>
	<g clip-path="url(#clip_9)">
		<path fill="none" stroke="rgb(213,213,213)" stroke-width="1" stroke-miterlimit="4" transform="translate(24.0693 15.1389)" d="M0 13.7756C5.8936 13.3639 10.5466 8.51725 10.5466 2.58172C10.5466 1.69241 10.4311 0.82925 10.2352 0L0 13.7756Z"/>
	</g>
</svg>
