<?xml version="1.0" encoding="utf-8" ?>
<svg xmlns="http://www.w3.org/2000/svg" xmlns:xlink="http://www.w3.org/1999/xlink" width="80" height="62">
	<defs>
		<clipPath id="clip_0">
			<rect y="-5" width="79" height="67" clip-rule="nonzero"/>
		</clipPath>
	</defs>
	<g clip-path="url(#clip_0)">
		<path fill="rgb(98,98,98)" stroke="none" transform="matrix(0.99 0 0 0.99 0.107422 0.310059)" d="M69.9015 2.57981C68.7444 -0.156002 56.805 -4.57325 52.8602 13.0464L32.0317 28.6671L0.873788 47.322L2.43435 47.8624L6.5741 46.6544L0 50.5369L2.15582 51.2833L24.4573 44.6563C24.4573 44.6563 34.5186 46.0305 42.358 46.0353C41.9888 46.7754 41.6195 47.5138 41.2495 48.2531C40.8763 49.0003 44.0324 56.4732 45.1983 60.0319C43.2326 60.3303 41.267 60.6295 39.3006 60.9279C38.5979 61.0345 38.8979 62.0984 39.5942 61.9926C41.6657 61.6783 43.7348 61.364 45.8047 61.0496C47.8745 61.364 49.9452 61.6783 52.0143 61.9926C52.7106 62.0984 53.0106 61.0345 52.3087 60.9279C50.3256 60.6255 48.3425 60.3247 46.3593 60.0239C46.2694 59.7175 46.1787 59.4112 46.088 59.1056C45.7362 57.9136 45.3845 56.7223 45.0319 55.5303C44.3738 53.3037 43.7173 51.0764 43.0599 48.8499C43.0544 48.8348 43.0496 48.8252 43.0456 48.8117C43.2844 48.3326 50.8102 44.9029 50.8102 44.9029C50.8102 44.9029 50.8071 44.9029 50.8063 44.9021C78.1476 35.0602 63.0878 12.5005 68.8502 8.99679C71.2734 7.52385 79.58 5.31483 79.58 5.31483C79.58 2.80103 69.9015 2.57981 69.9015 2.57981"/>
	</g>
	<defs>
		<clipPath id="clip_1">
			<rect x="-2" y="-7" width="83" height="71" clip-rule="nonzero"/>
		</clipPath>
	</defs>
	<g clip-path="url(#clip_1)">
		<path fill="none" stroke="rgb(213,213,213)" stroke-width="1" stroke-miterlimit="4" transform="matrix(0.99 0 0 0.99 0.107422 0.310059)" d="M69.9015 2.57981C68.7444 -0.156002 56.805 -4.57325 52.8602 13.0464L32.0317 28.6671L0.873788 47.322L2.43435 47.8624L6.5741 46.6544L0 50.5369L2.15582 51.2833L24.4573 44.6563C24.4573 44.6563 34.5186 46.0305 42.358 46.0353C41.9888 46.7754 41.6195 47.5138 41.2495 48.2531C40.8763 49.0003 44.0324 56.4732 45.1983 60.0319C43.2326 60.3303 41.267 60.6295 39.3006 60.9279C38.5979 61.0345 38.8979 62.0984 39.5942 61.9926C41.6657 61.6783 43.7348 61.364 45.8047 61.0496C47.8745 61.364 49.9452 61.6783 52.0143 61.9926C52.7106 62.0984 53.0106 61.0345 52.3087 60.9279C50.3256 60.6255 48.3425 60.3247 46.3593 60.0239C46.2694 59.7175 46.1787 59.4112 46.088 59.1056C45.7362 57.9136 45.3845 56.7223 45.0319 55.5303C44.3738 53.3037 43.7173 51.0764 43.0599 48.8499C43.0544 48.8348 43.0496 48.8252 43.0456 48.8117C43.2844 48.3326 50.8102 44.9029 50.8102 44.9029C50.8102 44.9029 50.8071 44.9029 50.8063 44.9021C78.1476 35.0602 63.0878 12.5005 68.8502 8.99679C71.2734 7.52385 79.58 5.31483 79.58 5.31483C79.58 2.80103 69.9015 2.57981 69.9015 2.57981"/>
	</g>
</svg>
