<?xml version="1.0" encoding="utf-8" ?>
<svg xmlns="http://www.w3.org/2000/svg" xmlns:xlink="http://www.w3.org/1999/xlink" width="81" height="62">
	<defs>
		<clipPath id="clip_0">
			<rect x="-1" y="-1" width="82" height="63" clip-rule="nonzero"/>
		</clipPath>
	</defs>
	<g clip-path="url(#clip_0)">
		<path fill="rgb(98,98,98)" stroke="none" transform="translate(-0.000488281 0)" d="M79.7894 0.00105217C76.6632 -0.072629 73.8294 3.74801 73.8294 3.74801L66.9174 3.74801C66.9174 3.74801 64.0819 -0.072629 60.9565 0.00105217C60.0107 3.08668 62.5556 8.37644 62.5556 8.37644C60.0196 10.9472 61.073 12.1602 59.0739 14.1811C53.5139 19.8015 36.4259 15.5595 28.0908 14.7687C19.7556 13.978 8.77697 18.8607 6.93608 29.4888C5.28897 38.991 5.6392 42.2123 1.07564 46.5145C0.136973 47.3996 -0.298582 48.7726 0.224085 49.7188C0.745862 50.6658 2.20808 51.2607 3.39031 50.7494C12.033 47.0114 13.2348 34.6806 13.2348 34.6806L16.5299 47.7096L22.089 60.4223C22.2845 60.868 22.833 61.2283 23.3139 61.2283L26.609 61.2283C30.6792 61.2283 29.2739 57.3097 25.3485 57.3097L23.7734 52.7505L31.3574 38.0106L52.1939 38.991L55.1708 60.3558C55.2392 60.8383 55.6863 61.2292 56.169 61.2292L59.5583 61.2292C63.4001 61.2292 61.9103 57.8003 58.881 57.8003L60.721 46.3393L66.7041 59.4492C66.9059 59.8913 67.4596 60.2498 67.9414 60.2498L71.1405 60.2498C74.8463 60.2498 73.2845 56.8694 70.2685 56.8694C65.3992 39.7502 76.3005 30.6398 75.4303 23.2915C80.5894 16.68 78.1903 8.37644 78.1903 8.37644C78.1903 8.37644 80.7334 3.08578 79.7894 0.00105217"/>
	</g>
	<defs>
		<clipPath id="clip_1">
			<rect x="-3" y="-3" width="86" height="67" clip-rule="nonzero"/>
		</clipPath>
	</defs>
	<g clip-path="url(#clip_1)">
		<path fill="none" stroke="rgb(213,213,213)" stroke-width="1" stroke-miterlimit="4" transform="translate(-0.000488281 0)" d="M79.7894 0.00105217C76.6632 -0.072629 73.8294 3.74801 73.8294 3.74801L66.9174 3.74801C66.9174 3.74801 64.0819 -0.072629 60.9565 0.00105217C60.0107 3.08668 62.5556 8.37644 62.5556 8.37644C60.0196 10.9472 61.073 12.1602 59.0739 14.1811C53.5139 19.8015 36.4259 15.5595 28.0908 14.7687C19.7556 13.978 8.77697 18.8607 6.93608 29.4888C5.28897 38.991 5.6392 42.2123 1.07564 46.5145C0.136973 47.3996 -0.298582 48.7726 0.224085 49.7188C0.745862 50.6658 2.20808 51.2607 3.39031 50.7494C12.033 47.0114 13.2348 34.6806 13.2348 34.6806L16.5299 47.7096L22.089 60.4223C22.2845 60.868 22.833 61.2283 23.3139 61.2283L26.609 61.2283C30.6792 61.2283 29.2739 57.3097 25.3485 57.3097L23.7734 52.7505L31.3574 38.0106L52.1939 38.991L55.1708 60.3558C55.2392 60.8383 55.6863 61.2292 56.169 61.2292L59.5583 61.2292C63.4001 61.2292 61.9103 57.8003 58.881 57.8003L60.721 46.3393L66.7041 59.4492C66.9059 59.8913 67.4596 60.2498 67.9414 60.2498L71.1405 60.2498C74.8463 60.2498 73.2845 56.8694 70.2685 56.8694C65.3992 39.7502 76.3005 30.6398 75.4303 23.2915C80.5894 16.68 78.1903 8.37644 78.1903 8.37644C78.1903 8.37644 80.7334 3.08578 79.7894 0.00105217"/>
	</g>
</svg>
