<?xml version="1.0" encoding="utf-8" ?>
<svg xmlns="http://www.w3.org/2000/svg" xmlns:xlink="http://www.w3.org/1999/xlink" width="87" height="63">
	<defs>
		<clipPath id="clip_0">
			<rect x="-380" y="-346" width="1024" height="2170" clip-rule="evenodd"/>
		</clipPath>
	</defs>
	<g clip-path="url(#clip_0)">
		<path fill="rgb(98,98,98)" stroke="none" transform="translate(5.3913 49.5217)" d="M2.69565 0C4.18365 0 5.3913 1.20496 5.3913 2.69565C5.3913 4.18635 4.18365 5.3913 2.69565 5.3913C1.20765 5.3913 0 4.18635 0 2.69565C0 1.20496 1.20765 0 2.69565 0Z"/>
	</g>
	<defs>
		<clipPath id="clip_1">
			<rect x="-380" y="-346" width="1024" height="2170" clip-rule="evenodd"/>
		</clipPath>
	</defs>
	<g clip-path="url(#clip_1)">
		<path fill="rgb(98,98,98)" stroke="none" transform="translate(26.9565 9.08694)" d="M51.2174 35.0435L0 35.0435L0 0L51.2174 0L51.2174 35.0435Z" fill-rule="evenodd"/>
	</g>
	<defs>
		<clipPath id="clip_2">
			<rect width="87" height="63" clip-rule="nonzero"/>
		</clipPath>
	</defs>
	<g clip-path="url(#clip_2)">
		<path fill="rgb(98,98,98)" stroke="none" transform="translate(0.000549316 0.998932)" d="M18.8694 0L18.8694 5.394L0 5.394L0 62L32.3448 62L32.3448 51.2201L48.5213 51.2201L48.5213 59.307L37.7388 59.307L37.7388 62L67.3906 62L67.3906 59.307L56.6054 59.307L56.6054 51.2201L86.26 51.2201L86.26 0L18.8694 0ZM21.565 48.5217L83.5617 48.5217L83.5617 2.69835L21.565 2.69835L21.565 48.5217ZM18.8694 16.1766L2.69563 16.1766L2.69563 8.08965L18.8694 8.08965L18.8694 16.1766ZM2.69563 26.9592L18.8694 26.9592L18.8694 18.8696L2.69563 18.8696L2.69563 26.9592ZM18.8694 29.6549L2.69563 29.6549L2.69563 59.307L29.6519 59.307L29.6519 51.2201L18.8694 51.2201L18.8694 43.1304L5.39125 43.1304L5.39125 32.3505L18.8694 32.3505L18.8694 29.6549ZM8.08418 40.4375L18.8694 40.4375L18.8694 35.0462L8.08418 35.0462L8.08418 40.4375ZM53.9125 59.307L51.2169 59.307L51.2169 51.2201L53.9125 51.2201L53.9125 59.307Z" fill-rule="evenodd"/>
	</g>
	<defs>
		<clipPath id="clip_3">
			<rect x="-2" y="-2" width="91" height="67" clip-rule="nonzero"/>
		</clipPath>
	</defs>
	<g clip-path="url(#clip_3)">
		<path fill="none" stroke="rgb(213,213,213)" stroke-width="1" stroke-miterlimit="4" transform="translate(0.000549316 0.998932)" d="M18.8694 0L18.8694 5.394L0 5.394L0 62L32.3448 62L32.3448 51.2201L48.5213 51.2201L48.5213 59.307L37.7388 59.307L37.7388 62L67.3906 62L67.3906 59.307L56.6054 59.307L56.6054 51.2201L86.26 51.2201L86.26 0L18.8694 0ZM21.565 48.5217L83.5617 48.5217L83.5617 2.69835L21.565 2.69835L21.565 48.5217ZM18.8694 16.1766L2.69563 16.1766L2.69563 8.08965L18.8694 8.08965L18.8694 16.1766ZM2.69563 26.9592L18.8694 26.9592L18.8694 18.8696L2.69563 18.8696L2.69563 26.9592ZM18.8694 29.6549L2.69563 29.6549L2.69563 59.307L29.6519 59.307L29.6519 51.2201L18.8694 51.2201L18.8694 43.1304L5.39125 43.1304L5.39125 32.3505L18.8694 32.3505L18.8694 29.6549ZM8.08418 40.4375L18.8694 40.4375L18.8694 35.0462L8.08418 35.0462L8.08418 40.4375ZM53.9125 59.307L51.2169 59.307L51.2169 51.2201L53.9125 51.2201L53.9125 59.307Z" fill-rule="evenodd"/>
	</g>
</svg>
