<?xml version="1.0" encoding="utf-8" ?>
<svg xmlns="http://www.w3.org/2000/svg" xmlns:xlink="http://www.w3.org/1999/xlink" width="53" height="62">
	<defs>
		<clipPath id="clip_0">
			<rect x="-1" width="55" height="63" clip-rule="nonzero"/>
		</clipPath>
	</defs>
	<g clip-path="url(#clip_0)">
		<path fill="rgb(98,98,98)" stroke="none" d="M33.9251 9.00151C34.0532 9.05286 34.5282 9.45928 35.2488 10.1224L43.1587 2.45717L46.2519 3.12314L49.0012 0L52.1175 3.12314L49.4137 5.87854L50.3762 9.27707L42.3442 17.0347C43.6595 18.3563 45.0024 19.7237 46.2727 21.0403L48.039 19.4723L52.4381 24.1109L50.8219 25.9107C52.2454 27.5156 53.1129 28.6329 52.9881 28.8413C52.4381 29.7596 20.3611 62.1828 19.4446 61.9992C18.5281 61.8155 -0.610899 43.0657 0.0150206 42.1595C0.839877 40.9654 33.0086 8.6341 33.9251 9.00151"/>
	</g>
	<defs>
		<clipPath id="clip_1">
			<rect x="-3" y="-2" width="59" height="67" clip-rule="nonzero"/>
		</clipPath>
	</defs>
	<g clip-path="url(#clip_1)">
		<path fill="none" stroke="rgb(213,213,213)" stroke-width="1" stroke-miterlimit="4" d="M33.9251 9.00151C34.0532 9.05286 34.5282 9.45928 35.2488 10.1224L43.1587 2.45717L46.2519 3.12314L49.0012 0L52.1175 3.12314L49.4137 5.87854L50.3762 9.27707L42.3442 17.0347C43.6595 18.3563 45.0024 19.7237 46.2727 21.0403L48.039 19.4723L52.4381 24.1109L50.8219 25.9107C52.2454 27.5156 53.1129 28.6329 52.9881 28.8413C52.4381 29.7596 20.3611 62.1828 19.4446 61.9992C18.5281 61.8155 -0.610899 43.0657 0.0150206 42.1595C0.839877 40.9654 33.0086 8.6341 33.9251 9.00151"/>
	</g>
</svg>
