<?xml version="1.0" encoding="utf-8" ?>
<svg xmlns="http://www.w3.org/2000/svg" xmlns:xlink="http://www.w3.org/1999/xlink" width="60" height="62">
	<defs>
		<clipPath id="clip_0">
			<rect y="27" width="60" height="34" clip-rule="nonzero"/>
		</clipPath>
	</defs>
	<g clip-path="url(#clip_0)">
		<path fill="rgb(98,98,98)" stroke="none" transform="translate(0 27.9956)" d="M43.4 9.92L43.4 11.7316C41.204 10.9467 36.9557 9.92 29.76 9.92C22.5643 9.92 18.3173 10.9467 16.12 11.7316L16.12 9.92C16.12 4.45036 11.6696 0 6.2 0C2.78132 0 0 2.78132 0 6.2C0 8.711 1.49792 10.9591 3.81796 11.9251C4.51236 12.2165 4.96 12.8898 4.96 13.64L6.2 18.6C6.2 23.0516 9.57156 26.7282 13.8954 27.2205C12.8774 27.7066 12.1681 28.7382 12.1681 29.941C12.1681 31.6101 13.5222 32.9642 15.1912 32.9642C16.8603 32.9642 18.2144 31.6101 18.2144 29.941C18.2144 28.7829 17.5547 27.7884 16.5974 27.28L42.9263 27.28C41.969 27.7872 41.3094 28.7816 41.3094 29.941C41.3094 31.6101 42.6634 32.9642 44.3325 32.9642C46.0015 32.9642 47.3556 31.6101 47.3556 29.941C47.3556 28.7382 46.6463 27.7066 45.6283 27.2205C49.9484 26.7282 53.32 23.0516 53.32 18.6L54.56 13.64C54.56 12.8886 55.0076 12.2165 55.702 11.9251C58.0221 10.9604 59.52 8.711 59.52 6.2C59.52 2.78132 56.7387 0 53.32 0C47.8504 0 43.4 4.45036 43.4 9.92Z"/>
	</g>
	<defs>
		<clipPath id="clip_1">
			<rect x="-2" y="25" width="64" height="38" clip-rule="nonzero"/>
		</clipPath>
	</defs>
	<g clip-path="url(#clip_1)">
		<path fill="none" stroke="rgb(213,213,213)" stroke-width="1" stroke-miterlimit="4" transform="translate(0 27.9956)" d="M43.4 9.92L43.4 11.7316C41.204 10.9467 36.9557 9.92 29.76 9.92C22.5643 9.92 18.3173 10.9467 16.12 11.7316L16.12 9.92C16.12 4.45036 11.6696 0 6.2 0C2.78132 0 0 2.78132 0 6.2C0 8.711 1.49792 10.9591 3.81796 11.9251C4.51236 12.2165 4.96 12.8898 4.96 13.64L6.2 18.6C6.2 23.0516 9.57156 26.7282 13.8954 27.2205C12.8774 27.7066 12.1681 28.7382 12.1681 29.941C12.1681 31.6101 13.5222 32.9642 15.1912 32.9642C16.8603 32.9642 18.2144 31.6101 18.2144 29.941C18.2144 28.7829 17.5547 27.7884 16.5974 27.28L42.9263 27.28C41.969 27.7872 41.3094 28.7816 41.3094 29.941C41.3094 31.6101 42.6634 32.9642 44.3325 32.9642C46.0015 32.9642 47.3556 31.6101 47.3556 29.941C47.3556 28.7382 46.6463 27.7066 45.6283 27.2205C49.9484 26.7282 53.32 23.0516 53.32 18.6L54.56 13.64C54.56 12.8886 55.0076 12.2165 55.702 11.9251C58.0221 10.9604 59.52 8.711 59.52 6.2C59.52 2.78132 56.7387 0 53.32 0C47.8504 0 43.4 4.45036 43.4 9.92Z"/>
	</g>
	<defs>
		<clipPath id="clip_2">
			<rect x="11" width="38" height="36" clip-rule="nonzero"/>
		</clipPath>
	</defs>
	<g clip-path="url(#clip_2)">
		<path fill="rgb(98,98,98)" stroke="none" transform="translate(11.16 0.000244141)" d="M8.37 35.0164C10.9504 34.5452 14.3096 34.1955 18.6 34.1955C22.8904 34.1955 26.2496 34.5452 28.83 35.0164C29.8046 30.5276 33.0014 26.8646 37.2012 25.2191L37.2012 18.6C37.2012 8.32784 28.8734 0 18.6 0C8.32784 0 0 8.32784 0 18.6L0 25.2204C4.19988 26.8658 7.39536 30.5288 8.37 35.0164"/>
	</g>
	<defs>
		<clipPath id="clip_3">
			<rect x="9" y="-2" width="42" height="40" clip-rule="nonzero"/>
		</clipPath>
	</defs>
	<g clip-path="url(#clip_3)">
		<path fill="none" stroke="rgb(213,213,213)" stroke-width="1" stroke-miterlimit="4" transform="translate(11.16 0.000244141)" d="M8.37 35.0164C10.9504 34.5452 14.3096 34.1955 18.6 34.1955C22.8904 34.1955 26.2496 34.5452 28.83 35.0164C29.8046 30.5276 33.0014 26.8646 37.2012 25.2191L37.2012 18.6C37.2012 8.32784 28.8734 0 18.6 0C8.32784 0 0 8.32784 0 18.6L0 25.2204C4.19988 26.8658 7.39536 30.5288 8.37 35.0164"/>
	</g>
</svg>
