<?xml version="1.0" encoding="utf-8" ?>
<svg xmlns="http://www.w3.org/2000/svg" xmlns:xlink="http://www.w3.org/1999/xlink" width="90" height="62">
	<defs>
		<clipPath id="clip_0">
			<rect width="90" height="62" clip-rule="nonzero"/>
		</clipPath>
	</defs>
	<g clip-path="url(#clip_0)">
		<path fill="rgb(98,98,98)" stroke="none" d="M90 49.4766L89.9858 49.5592C89.9798 49.5917 89.3805 52.9934 89.237 55.2977C89.1571 56.5211 89.4098 58.0801 89.6129 59.3317C89.8252 60.6289 89.9282 61.3221 89.7908 61.6436C89.6887 61.8805 89.4462 62 89.0682 62C88.29 62 87.0308 61.5013 86.3486 61.2025C86.1829 61.1298 85.9959 61.0928 85.7938 61.0928C84.9671 61.0928 84.1283 61.6947 84.1192 61.7001L84.0879 61.724L84.0515 61.7306C83.3855 61.8555 82.772 61.9163 82.1737 61.9163C80.4971 61.9163 78.9155 61.4122 77.3399 60.379C72.9902 57.5228 71.3661 52.2057 73.3945 47.4493L73.3961 47.4436C73.435 47.3153 74.1184 45.0622 72.3677 42.2724C70.6435 39.5237 67.5409 39.3987 67.5096 39.3977L67.2883 39.389L67.3459 39.1597C67.354 39.1304 68.0927 36.0047 65.6005 32.879C63.6905 30.4845 60.3594 30.2542 60.3261 30.252L60.1543 30.2411L60.1624 30.0564L60.1624 30.055C60.1652 29.967 60.2767 26.438 58.2998 24.2135C57.2205 22.9989 55.7116 22.3851 53.8167 22.3851C53.6671 22.3851 53.5115 22.3883 53.3528 22.3959C51.187 22.7403 48.4088 24.6709 47.2224 25.4966C46.8565 25.7498 46.7272 25.8389 46.6554 25.8638C46.6079 25.8823 46.5564 25.891 46.5028 25.891C46.1956 25.891 45.9379 25.589 45.9106 25.5542C45.8984 25.539 45.195 24.6166 44.429 23.3835L44.4068 23.3313L44.4067 23.3312C44.3915 23.2746 44.3576 23.148 44.6766 22.3134L42.81 20.7902L42.9626 20.0785C42.1996 19.393 35.9165 13.9858 24.8361 11.3066C23.1251 10.8188 21.2039 10.5711 19.122 10.5711C10.1224 10.5711 0.64983 15.1722 0.554832 15.2178L0 15.4894L0.336537 14.944C0.35776 14.9082 2.56193 11.3772 6.93186 7.80174C10.9632 4.5033 17.7192 0.486726 27.0109 0.0803967C27.8336 0.0271611 28.6764 0 29.5132 0C40.3279 0 48.7636 4.47614 49.9652 5.14539C50.137 4.86183 50.427 4.44138 50.6686 4.39031C50.6858 4.38597 50.7029 4.38488 50.7252 4.38488C51.0526 4.38488 52.2745 5.09324 52.6393 5.31053L52.6686 5.32791L52.6898 5.35507C52.6989 5.36702 53.5398 6.45673 54.129 7.14118C54.5393 7.61705 54.4311 7.88974 54.2977 8.10703C54.2806 8.13093 54.2613 8.1657 54.2563 8.18091C54.2583 8.182 54.2644 8.19503 54.2826 8.21676C54.321 8.26239 54.3553 8.27217 54.3917 8.27217C54.4503 8.27217 54.5271 8.24392 54.6019 8.21676C54.6939 8.18308 54.7859 8.14723 54.8879 8.14723C55.0244 8.14723 55.1365 8.21459 55.2144 8.34279C55.3776 8.61082 55.2342 8.81486 55.1559 8.92638L55.1537 8.92947C55.1107 8.98815 55.0912 9.01482 55.0935 9.03946C55.0954 9.05999 55.1124 9.07911 55.1436 9.11416C55.1901 9.16523 55.2154 9.16523 55.2225 9.16523C55.2659 9.16523 55.3316 9.12286 55.3912 9.08374C55.4812 9.02616 55.5822 8.96098 55.7015 8.96098C55.7773 8.96098 55.8864 8.98814 55.9865 9.1196C56.1734 9.37056 56.0835 9.62479 56.0269 9.77798C55.9764 9.92139 55.9824 9.92682 56.0037 9.94638C56.0249 9.96485 56.038 9.96702 56.0491 9.96702C56.0886 9.96702 56.1451 9.94312 56.2028 9.91922C56.2866 9.88445 56.3816 9.84425 56.4898 9.84425C56.609 9.84425 56.7162 9.89423 56.8091 9.99201C57.0333 10.2265 56.9355 10.4749 56.8828 10.6091L56.8819 10.6113C56.8316 10.7378 56.8364 10.7427 56.8643 10.7716L56.8647 10.7721C56.8738 10.7829 56.8789 10.7851 56.8789 10.7851C56.892 10.7829 56.9526 10.7438 56.991 10.7178C57.084 10.6558 57.1982 10.5798 57.3448 10.5798C57.4478 10.5798 57.5469 10.6189 57.6409 10.6971C57.8736 10.891 57.799 11.1378 57.7585 11.2717L57.7581 11.2729C57.7136 11.4174 57.7157 11.4315 57.7824 11.4848C57.8005 11.4989 57.8258 11.5152 57.846 11.5152C57.8774 11.5152 57.9299 11.475 57.9804 11.437C58.0663 11.3718 58.1735 11.2903 58.317 11.2903C58.4069 11.2903 58.4989 11.3262 58.5858 11.3946C58.8748 11.6228 58.7243 11.8976 58.6596 12.015C58.6404 12.0497 58.608 12.1106 58.609 12.1301C58.609 12.1301 58.6161 12.1497 58.6636 12.1845C58.7121 12.2214 58.7364 12.2246 58.7414 12.2246C58.7647 12.2246 58.8092 12.1812 58.8445 12.1453C58.9244 12.0693 59.0325 11.9639 59.1952 11.9639C59.2851 11.9639 59.3751 11.9965 59.4731 12.0628C59.7733 12.2692 59.65 12.5625 59.5964 12.6875L59.5916 12.6996C59.5761 12.738 59.5542 12.7926 59.556 12.8102C59.557 12.8113 59.5661 12.8222 59.5914 12.8407C59.6096 12.8515 59.6328 12.8656 59.654 12.8656C59.6874 12.8656 59.7409 12.8244 59.7925 12.782C59.8784 12.7114 59.9896 12.6245 60.1391 12.6245C60.2311 12.6245 60.3231 12.6581 60.413 12.7244C60.6649 12.9118 60.6194 13.1943 60.5921 13.3639L60.5919 13.3654C60.5828 13.4165 60.5686 13.5012 60.5767 13.524L60.5969 13.5306C60.6171 13.5284 60.6737 13.4686 60.7041 13.4382C60.794 13.3459 60.9153 13.2187 61.1012 13.2187C61.1861 13.2187 61.273 13.2459 61.362 13.2991C61.6642 13.4817 61.5762 13.7891 61.5287 13.9532C61.5264 13.9623 61.5237 13.9725 61.5208 13.9832C61.5087 14.0286 61.4941 14.0833 61.4974 14.1053C61.4994 14.1053 61.5055 14.1096 61.5166 14.1151C61.5786 14.1452 61.6053 14.1206 61.6821 14.0496L61.6925 14.0401C61.7784 13.9608 61.8946 13.85 62.0674 13.85C62.1462 13.85 62.2261 13.8739 62.3089 13.9173C62.5858 14.0673 62.5202 14.3562 62.4878 14.4942L62.4873 14.4964C62.4771 14.5404 62.4587 14.6195 62.4676 14.6409C62.4676 14.6409 62.4747 14.6496 62.4979 14.6626C62.5131 14.6691 62.5252 14.6724 62.5333 14.6724C62.5697 14.6724 62.6293 14.6126 62.6839 14.5583C62.7809 14.4605 62.9123 14.3258 63.1093 14.3258C63.1882 14.3258 63.27 14.3476 63.3529 14.3932C63.5921 14.5234 63.5582 14.8064 63.5379 14.9749L63.5379 14.9755C63.5298 15.0374 63.5176 15.1396 63.5298 15.1678C63.5399 15.17 63.5439 15.17 63.549 15.17C63.5813 15.17 63.643 15.1222 63.6985 15.0809C63.8047 15.0016 63.937 14.9027 64.1139 14.9027C64.1756 14.9027 64.2412 14.9169 64.3049 14.944C64.5333 15.0374 64.5475 15.3091 64.5576 15.5068C64.5606 15.5818 64.5687 15.723 64.5929 15.7523C64.6869 15.7512 64.8719 15.5883 64.982 15.4416L65.0922 15.2971L65.2266 15.4144C65.2741 15.4568 70.0463 19.6298 72.873 22.5991C75.6987 25.5683 81.8109 33.382 81.8726 33.4613L82.0232 33.6525L81.8089 33.7536C81.8038 33.7568 81.6492 33.8362 81.5957 34.0404C81.535 34.2642 81.6128 34.5695 81.822 34.9237C82.0424 35.2963 82.2263 35.3452 82.3637 35.3452C82.4628 35.3452 82.5669 35.3159 82.6689 35.2887C82.7751 35.2594 82.8872 35.229 82.9974 35.229C83.2005 35.229 83.3582 35.3246 83.4805 35.5212C83.7301 35.921 83.5401 36.2057 83.4016 36.4132L83.401 36.4142C83.2487 36.6418 83.1382 36.807 83.3835 37.1867C83.6459 37.5954 83.9663 37.5753 84.2506 37.5575C84.2642 37.5567 84.2776 37.5558 84.291 37.555C84.3587 37.5507 84.4254 37.5464 84.4891 37.5464C84.7023 37.5464 84.9651 37.5876 85.1106 37.9071C85.2871 38.292 85.065 38.5341 84.9174 38.6949L84.9166 38.6958L84.916 38.6964C84.7233 38.9047 84.5965 39.0417 84.8489 39.4824C85.1116 39.9409 85.3916 39.943 85.6877 39.943C85.9504 39.9452 86.2789 39.9474 86.4729 40.3505C86.67 40.7601 86.482 41.0089 86.3436 41.187C86.1879 41.3902 86.0667 41.5499 86.286 42.0084C86.4709 42.3941 86.673 42.4256 86.8479 42.4256C86.9156 42.4256 86.9853 42.418 87.051 42.4136C87.1228 42.4049 87.1965 42.3984 87.2632 42.3984C87.4381 42.3984 87.6897 42.4386 87.8484 42.7667C88.0505 43.1893 87.8171 43.4881 87.6452 43.7065C87.4512 43.9498 87.3249 44.1106 87.5129 44.4485C87.6978 44.7766 87.9808 44.9429 88.3547 44.9429C88.5548 44.9429 88.7034 44.8929 88.7044 44.8929L88.8469 44.8451L88.9136 44.9885C89.1309 45.4546 89.8444 47.0038 89.8696 47.3015C89.8868 47.5069 89.7302 47.7209 89.4694 48.0512C89.3835 48.1576 89.2592 48.313 89.2168 48.3967C89.4047 48.6444 89.9293 49.3745 89.9525 49.4103L90 49.4766ZM27.0241 0.458479C17.8254 0.860462 11.1391 4.83358 7.14915 8.09508C6.5266 8.60354 5.94853 9.11199 5.4129 9.60958C16.3701 0.648606 29.1928 1.22551 37.2889 3.3658C41.9237 4.59022 44.4229 4.2393 45.7468 3.60047C42.0662 2.13269 36.2541 0.379168 29.5082 0.379168C28.6784 0.379168 27.8427 0.406329 27.0241 0.458479ZM24.9139 10.9459C36.7846 13.8163 43.2031 19.8124 43.2658 19.8732L43.3446 19.9482L43.195 20.6424L43.5184 20.9064L44.6604 13.7348C44.6604 13.7348 45.0293 11.9813 43.2233 10.7634C43.1548 10.7172 43.0737 10.6619 42.9805 10.5984C40.6169 8.98739 30.4763 2.07567 20.8118 3.55049C13.2179 4.70973 8.277 7.34761 5.15317 9.85729C2.9965 11.9063 1.60588 13.7337 0.99041 14.6083C3.2057 13.6088 11.3311 10.1995 19.1169 10.1995C21.2291 10.1995 23.1796 10.4505 24.9139 10.9459ZM75.8331 49.7688C76.8003 47.4688 78.9397 45.9837 81.2864 45.9837C82.1384 45.9837 82.9661 46.1771 83.7483 46.5573C86.7549 48.0186 88.094 51.8352 86.7357 55.0685C85.7685 57.3642 83.628 58.8493 81.2814 58.8493C80.4294 58.8493 79.6027 58.6559 78.8195 58.2768C77.3632 57.5684 76.2515 56.294 75.6866 54.6872C75.1216 53.0781 75.1742 51.3322 75.8331 49.7688Z" fill-rule="evenodd"/>
	</g>
</svg>
