<?xml version="1.0" encoding="utf-8" ?>
<svg xmlns="http://www.w3.org/2000/svg" xmlns:xlink="http://www.w3.org/1999/xlink" width="62" height="62">
	<defs>
		<clipPath id="clip_0">
			<rect width="62" height="62" clip-rule="nonzero"/>
		</clipPath>
	</defs>
	<g clip-path="url(#clip_0)">
		<path fill="rgb(98,98,98)" stroke="none" d="M31 0C13.8802 0 0 13.8802 0 31C0 48.1198 13.8802 62 31 62C48.1198 62 62 48.1198 62 31C62 13.8802 48.1198 0 31 0ZM31 19.375C37.4209 19.375 42.625 24.5791 42.625 31C42.625 37.4209 37.4209 42.625 31 42.625C24.5791 42.625 19.375 37.4209 19.375 31C19.375 24.5791 24.5791 19.375 31 19.375ZM23.25 31C23.25 26.722 26.722 23.25 31 23.25C35.278 23.25 38.75 26.722 38.75 31C38.75 35.278 35.278 38.75 31 38.75C26.722 38.75 23.25 35.278 23.25 31ZM31 27.125C33.139 27.125 34.875 28.861 34.875 31C34.875 33.139 33.139 34.875 31 34.875C28.861 34.875 27.125 33.139 27.125 31C27.125 28.861 28.861 27.125 31 27.125Z" fill-rule="evenodd"/>
	</g>
	<defs>
		<clipPath id="clip_1">
			<rect x="-2" y="-2" width="66" height="66" clip-rule="nonzero"/>
		</clipPath>
	</defs>
	<g clip-path="url(#clip_1)">
		<path fill="none" stroke="rgb(213,213,213)" stroke-width="1" stroke-miterlimit="4" d="M31 0C13.8802 0 0 13.8802 0 31C0 48.1198 13.8802 62 31 62C48.1198 62 62 48.1198 62 31C62 13.8802 48.1198 0 31 0ZM31 19.375C37.4209 19.375 42.625 24.5791 42.625 31C42.625 37.4209 37.4209 42.625 31 42.625C24.5791 42.625 19.375 37.4209 19.375 31C19.375 24.5791 24.5791 19.375 31 19.375ZM23.25 31C23.25 26.722 26.722 23.25 31 23.25C35.278 23.25 38.75 26.722 38.75 31C38.75 35.278 35.278 38.75 31 38.75C26.722 38.75 23.25 35.278 23.25 31ZM31 27.125C33.139 27.125 34.875 28.861 34.875 31C34.875 33.139 33.139 34.875 31 34.875C28.861 34.875 27.125 33.139 27.125 31C27.125 28.861 28.861 27.125 31 27.125Z" fill-rule="evenodd"/>
	</g>
</svg>
