<?xml version="1.0" encoding="utf-8" ?>
<svg xmlns="http://www.w3.org/2000/svg" xmlns:xlink="http://www.w3.org/1999/xlink" width="63" height="62">
	<defs>
		<clipPath id="clip_0">
			<rect x="-1" y="-1" width="64" height="63" clip-rule="nonzero"/>
		</clipPath>
	</defs>
	<g clip-path="url(#clip_0)">
		<path fill="rgb(98,98,98)" stroke="none" d="M32.0075 0.242464L62.4731 28.3144C62.8193 28.6318 62.8599 29.1537 62.5876 29.5234C62.5846 29.5271 62.5794 29.5338 62.578 29.5367C62.5595 29.5618 62.5433 29.5877 62.5233 29.6105C62.513 29.6201 62.5019 29.626 62.4931 29.6356C62.485 29.6445 62.4805 29.6533 62.4717 29.6607L60.2677 31.7023C60.2618 31.7082 60.253 31.7112 60.2463 31.7156C60.0743 31.8662 59.861 31.9466 59.6462 31.9466C59.4226 31.9466 59.1997 31.8662 59.0226 31.7045L56.1551 29.0614L56.1551 57.2684C56.1551 57.7755 55.7454 58.1852 55.2383 58.1852L41.3223 58.1852C41.6042 59.0458 41.7541 59.9455 41.7541 60.8593C41.7541 61.3678 41.3415 61.7775 40.8329 61.7775L21.9318 61.7775C21.4247 61.7775 21.0121 61.3678 21.0121 60.8593C21.0121 59.9455 21.1627 59.0458 21.4439 58.1852L7.52713 58.1852C7.02153 58.1852 6.61041 57.7763 6.61041 57.2684L6.61041 29.0614L3.74217 31.7045C3.39748 32.0263 2.87196 32.0204 2.5221 31.7193C2.51472 31.7156 2.50734 31.7126 2.49775 31.7038L0.294531 29.6637C0.289365 29.6585 0.286412 29.6497 0.278293 29.6438C0.267222 29.6319 0.254674 29.6253 0.243603 29.6128C-0.101088 29.2385 -0.0767304 28.6591 0.296008 28.3144L30.7616 0.242464C31.1152 -0.0808214 31.6555 -0.0808214 32.0075 0.242464ZM32.0075 4.31306L59.6455 29.7803L60.4995 28.9935L31.3846 2.1652L2.27189 28.9935L3.12291 29.7803L30.7616 4.31306C31.1152 3.98977 31.6555 3.98977 32.0075 4.31306ZM25.6297 11.5383L31.3838 6.2358L37.1388 11.5383L25.6297 11.5383ZM45.2438 19.0078L39.1301 13.3747L23.6368 13.3747L17.5239 19.0078L45.2438 19.0078ZM51.0651 26.4758L11.7025 26.4758L11.7025 24.3715L15.5318 20.8442L47.2374 20.8442L51.0659 24.3715L51.0651 26.4758ZM9.86763 56.3517L8.44532 56.3517L8.44532 27.3719L9.86763 26.0625L9.86763 56.3517ZM52.9001 56.3517L54.3231 56.3517L54.3231 27.3719L52.9001 26.0625L52.9001 56.3517ZM41.0632 33.9454L51.0651 33.9454L51.0651 28.313L11.7025 28.313L11.7025 33.9454L21.7045 33.9454C24.1431 31.3864 27.5804 29.7877 31.3838 29.7877C35.188 29.7877 38.6238 31.3864 41.0632 33.9454ZM40.4838 56.3517L42.9262 56.3517L42.9262 43.1657C42.9262 36.8011 37.7477 31.6241 31.3838 31.6241C25.0207 31.6241 19.8422 36.8011 19.8422 43.1657L19.8422 56.3488L22.2853 56.3488C22.8588 55.3929 23.6124 54.5235 24.5292 53.7898C24.6923 53.6592 24.8945 53.5883 25.1041 53.5883L25.5758 53.5883L24.8701 52.8819C24.4731 53.0775 24.0331 53.186 23.577 53.186C22.805 53.186 22.0779 52.8834 21.5288 52.338C20.4025 51.2102 20.4025 49.3716 21.5288 48.2445C21.9761 47.7965 22.5422 47.5153 23.1578 47.4274C23.2478 46.8222 23.5268 46.2487 23.9719 45.8043C24.5203 45.2567 25.2451 44.957 26.0208 44.957C26.7922 44.957 27.5184 45.2567 28.0668 45.8043C28.9651 46.7048 29.1481 48.0585 28.6086 49.1427L30.4826 51.016L33.2844 48.2157C33.0268 47.7463 32.8896 47.2126 32.8896 46.6605C32.8896 45.7933 33.2261 44.9784 33.841 44.3643C34.4536 43.7502 35.2714 43.4129 36.1372 43.4129C37.003 43.4129 37.8208 43.7517 38.4334 44.3643C38.9656 44.8958 39.2874 45.5866 39.3649 46.3092C40.1 46.3904 40.782 46.7129 41.312 47.2436C42.5793 48.5109 42.5793 50.5695 41.312 51.8383C40.7001 52.4494 39.883 52.7897 39.0165 52.7897C38.4636 52.7897 37.9322 52.6531 37.4613 52.3948L36.2641 53.5912L37.6687 53.5912C37.8739 53.5912 38.0769 53.6599 38.2385 53.7927C39.1582 54.5264 39.9096 55.3959 40.4838 56.3517ZM11.7025 35.7817L11.7025 41.4142L18.1269 41.4142C18.3971 39.3527 19.1381 37.438 20.2371 35.7817L11.7025 35.7817ZM51.0652 41.4142L44.643 41.4142C44.3736 39.3527 43.6333 37.438 42.5328 35.7817L51.0666 35.7817L51.0652 41.4142ZM11.7025 48.8815L18.0066 48.8815L18.0066 43.2505L11.7025 43.2505L11.7025 48.8815ZM51.0651 48.8815L44.7611 48.8815L44.7611 43.2505L51.0651 43.2505L51.0651 48.8815ZM35.1385 48.959C35.3105 48.7877 35.4065 48.5523 35.4065 48.3094C35.4065 48.0637 35.3105 47.8334 35.1385 47.6614C34.8706 47.3935 34.7259 47.0384 34.7259 46.662C34.7259 46.2841 34.8699 45.9298 35.1385 45.6619C35.6707 45.1297 36.6022 45.1297 37.1373 45.6634C37.499 46.0236 37.6355 46.5565 37.4967 47.0488C37.4067 47.3691 37.4953 47.7116 37.73 47.947C37.9632 48.1817 38.3087 48.2725 38.6268 48.1817C39.1183 48.0422 39.6564 48.1817 40.0136 48.539C40.5657 49.0911 40.5657 49.9864 40.0151 50.5385C39.4815 51.0721 38.55 51.0707 38.0164 50.5385C37.6569 50.1783 37.076 50.1783 36.7181 50.5385L33.666 53.5905L30.5048 53.5905L35.1385 48.959ZM25.268 47.1027C25.0001 47.3721 24.8952 47.7728 25.0015 48.1434C25.0908 48.463 25.0015 48.8062 24.7653 49.0438C24.5292 49.2771 24.1837 49.3664 23.8649 49.2771C23.4988 49.173 23.0965 49.2756 22.8264 49.545C22.4116 49.9583 22.4116 50.63 22.8264 51.0441C23.2271 51.4434 23.9239 51.4434 24.3262 51.0441C24.5048 50.864 24.741 50.7762 24.975 50.7762C25.2097 50.7762 25.4436 50.864 25.6245 51.0441L28.0395 53.4599L29.1843 52.3166L26.7685 49.8993C26.4098 49.5398 26.4098 48.9604 26.7685 48.6017C27.1811 48.1884 27.1811 47.5167 26.7685 47.1027C26.3677 46.7004 25.6702 46.7004 25.268 47.1027ZM18.0066 56.3517L11.7025 56.3517L11.7025 50.7164L18.0066 50.7164L18.0066 56.3517ZM44.7611 56.3517L51.0651 56.3517L51.0651 50.7164L44.7611 50.7164L44.7611 56.3517ZM22.912 59.9426C23.1482 58.2353 24.0354 56.6366 25.4333 55.4276L37.3321 55.4276C38.7316 56.6388 39.6202 58.2361 39.855 59.9426L22.912 59.9426Z" fill-rule="evenodd"/>
	</g>
	<defs>
		<clipPath id="clip_1">
			<rect x="-3" y="-3" width="68" height="67" clip-rule="nonzero"/>
		</clipPath>
	</defs>
	<g clip-path="url(#clip_1)">
		<path fill="none" stroke="rgb(213,213,213)" stroke-width="1" stroke-miterlimit="4" d="M32.0075 0.242464L62.4731 28.3144C62.8193 28.6318 62.8599 29.1537 62.5876 29.5234C62.5846 29.5271 62.5794 29.5338 62.578 29.5367C62.5595 29.5618 62.5433 29.5877 62.5233 29.6105C62.513 29.6201 62.5019 29.626 62.4931 29.6356C62.485 29.6445 62.4805 29.6533 62.4717 29.6607L60.2677 31.7023C60.2618 31.7082 60.253 31.7112 60.2463 31.7156C60.0743 31.8662 59.861 31.9466 59.6462 31.9466C59.4226 31.9466 59.1997 31.8662 59.0226 31.7045L56.1551 29.0614L56.1551 57.2684C56.1551 57.7755 55.7454 58.1852 55.2383 58.1852L41.3223 58.1852C41.6042 59.0458 41.7541 59.9455 41.7541 60.8593C41.7541 61.3678 41.3415 61.7775 40.8329 61.7775L21.9318 61.7775C21.4247 61.7775 21.0121 61.3678 21.0121 60.8593C21.0121 59.9455 21.1627 59.0458 21.4439 58.1852L7.52713 58.1852C7.02153 58.1852 6.61041 57.7763 6.61041 57.2684L6.61041 29.0614L3.74217 31.7045C3.39748 32.0263 2.87196 32.0204 2.5221 31.7193C2.51472 31.7156 2.50734 31.7126 2.49775 31.7038L0.294531 29.6637C0.289365 29.6585 0.286412 29.6497 0.278293 29.6438C0.267222 29.6319 0.254674 29.6253 0.243603 29.6128C-0.101088 29.2385 -0.0767304 28.6591 0.296008 28.3144L30.7616 0.242464C31.1152 -0.0808214 31.6555 -0.0808214 32.0075 0.242464ZM32.0075 4.31306L59.6455 29.7803L60.4995 28.9935L31.3846 2.1652L2.27189 28.9935L3.12291 29.7803L30.7616 4.31306C31.1152 3.98977 31.6555 3.98977 32.0075 4.31306ZM25.6297 11.5383L31.3838 6.2358L37.1388 11.5383L25.6297 11.5383ZM45.2438 19.0078L39.1301 13.3747L23.6368 13.3747L17.5239 19.0078L45.2438 19.0078ZM51.0651 26.4758L11.7025 26.4758L11.7025 24.3715L15.5318 20.8442L47.2374 20.8442L51.0659 24.3715L51.0651 26.4758ZM9.86763 56.3517L8.44532 56.3517L8.44532 27.3719L9.86763 26.0625L9.86763 56.3517ZM52.9001 56.3517L54.3231 56.3517L54.3231 27.3719L52.9001 26.0625L52.9001 56.3517ZM41.0632 33.9454L51.0651 33.9454L51.0651 28.313L11.7025 28.313L11.7025 33.9454L21.7045 33.9454C24.1431 31.3864 27.5804 29.7877 31.3838 29.7877C35.188 29.7877 38.6238 31.3864 41.0632 33.9454ZM40.4838 56.3517L42.9262 56.3517L42.9262 43.1657C42.9262 36.8011 37.7477 31.6241 31.3838 31.6241C25.0207 31.6241 19.8422 36.8011 19.8422 43.1657L19.8422 56.3488L22.2853 56.3488C22.8588 55.3929 23.6124 54.5235 24.5292 53.7898C24.6923 53.6592 24.8945 53.5883 25.1041 53.5883L25.5758 53.5883L24.8701 52.8819C24.4731 53.0775 24.0331 53.186 23.577 53.186C22.805 53.186 22.0779 52.8834 21.5288 52.338C20.4025 51.2102 20.4025 49.3716 21.5288 48.2445C21.9761 47.7965 22.5422 47.5153 23.1578 47.4274C23.2478 46.8222 23.5268 46.2487 23.9719 45.8043C24.5203 45.2567 25.2451 44.957 26.0208 44.957C26.7922 44.957 27.5184 45.2567 28.0668 45.8043C28.9651 46.7048 29.1481 48.0585 28.6086 49.1427L30.4826 51.016L33.2844 48.2157C33.0268 47.7463 32.8896 47.2126 32.8896 46.6605C32.8896 45.7933 33.2261 44.9784 33.841 44.3643C34.4536 43.7502 35.2714 43.4129 36.1372 43.4129C37.003 43.4129 37.8208 43.7517 38.4334 44.3643C38.9656 44.8958 39.2874 45.5866 39.3649 46.3092C40.1 46.3904 40.782 46.7129 41.312 47.2436C42.5793 48.5109 42.5793 50.5695 41.312 51.8383C40.7001 52.4494 39.883 52.7897 39.0165 52.7897C38.4636 52.7897 37.9322 52.6531 37.4613 52.3948L36.2641 53.5912L37.6687 53.5912C37.8739 53.5912 38.0769 53.6599 38.2385 53.7927C39.1582 54.5264 39.9096 55.3959 40.4838 56.3517ZM11.7025 35.7817L11.7025 41.4142L18.1269 41.4142C18.3971 39.3527 19.1381 37.438 20.2371 35.7817L11.7025 35.7817ZM51.0652 41.4142L44.643 41.4142C44.3736 39.3527 43.6333 37.438 42.5328 35.7817L51.0666 35.7817L51.0652 41.4142ZM11.7025 48.8815L18.0066 48.8815L18.0066 43.2505L11.7025 43.2505L11.7025 48.8815ZM51.0651 48.8815L44.7611 48.8815L44.7611 43.2505L51.0651 43.2505L51.0651 48.8815ZM35.1385 48.959C35.3105 48.7877 35.4065 48.5523 35.4065 48.3094C35.4065 48.0637 35.3105 47.8334 35.1385 47.6614C34.8706 47.3935 34.7259 47.0384 34.7259 46.662C34.7259 46.2841 34.8699 45.9298 35.1385 45.6619C35.6707 45.1297 36.6022 45.1297 37.1373 45.6634C37.499 46.0236 37.6355 46.5565 37.4967 47.0488C37.4067 47.3691 37.4953 47.7116 37.73 47.947C37.9632 48.1817 38.3087 48.2725 38.6268 48.1817C39.1183 48.0422 39.6564 48.1817 40.0136 48.539C40.5657 49.0911 40.5657 49.9864 40.0151 50.5385C39.4815 51.0721 38.55 51.0707 38.0164 50.5385C37.6569 50.1783 37.076 50.1783 36.7181 50.5385L33.666 53.5905L30.5048 53.5905L35.1385 48.959ZM25.268 47.1027C25.0001 47.3721 24.8952 47.7728 25.0015 48.1434C25.0908 48.463 25.0015 48.8062 24.7653 49.0438C24.5292 49.2771 24.1837 49.3664 23.8649 49.2771C23.4988 49.173 23.0965 49.2756 22.8264 49.545C22.4116 49.9583 22.4116 50.63 22.8264 51.0441C23.2271 51.4434 23.9239 51.4434 24.3262 51.0441C24.5048 50.864 24.741 50.7762 24.975 50.7762C25.2097 50.7762 25.4436 50.864 25.6245 51.0441L28.0395 53.4599L29.1843 52.3166L26.7685 49.8993C26.4098 49.5398 26.4098 48.9604 26.7685 48.6017C27.1811 48.1884 27.1811 47.5167 26.7685 47.1027C26.3677 46.7004 25.6702 46.7004 25.268 47.1027ZM18.0066 56.3517L11.7025 56.3517L11.7025 50.7164L18.0066 50.7164L18.0066 56.3517ZM44.7611 56.3517L51.0651 56.3517L51.0651 50.7164L44.7611 50.7164L44.7611 56.3517ZM22.912 59.9426C23.1482 58.2353 24.0354 56.6366 25.4333 55.4276L37.3321 55.4276C38.7316 56.6388 39.6202 58.2361 39.855 59.9426L22.912 59.9426Z" fill-rule="evenodd"/>
	</g>
</svg>
