<?xml version="1.0" encoding="utf-8" ?>
<svg xmlns="http://www.w3.org/2000/svg" xmlns:xlink="http://www.w3.org/1999/xlink" width="60" height="63">
	<defs>
		<clipPath id="clip_0">
			<rect x="-1" width="61" height="63" clip-rule="nonzero"/>
		</clipPath>
	</defs>
	<g clip-path="url(#clip_0)">
		<path fill="rgb(98,98,98)" stroke="none" transform="translate(0 0.000244141)" d="M52.5761 43.1075C54.4556 42.524 56.552 43.0353 57.9978 44.4941C59.1544 45.6604 59.6605 47.2652 59.4436 48.7976C59.299 50.3294 58.5038 51.7882 57.2034 52.7357C52.5046 56.2369 42.6002 62 29.7328 62C16.9376 62 7.03396 56.1647 2.26287 52.7357C0.961668 51.8604 0.166487 50.4016 0.0219086 48.7976C-0.12267 47.1929 0.455644 45.6604 1.53998 44.4941C2.98576 42.9624 5.22673 42.524 7.17853 43.1812C7.3954 42.524 7.68456 41.5765 8.04601 40.5546L7.68456 40.5546C7.25082 40.5546 6.88938 40.5546 6.45564 40.4094C3.70866 39.6063 2.11829 36.3976 2.04601 36.2518C1.90143 35.8871 1.90143 35.4494 2.11829 35.1576C2.40745 34.7929 2.7689 34.6471 3.13034 34.6471C5.98474 34.8623 7.07807 33.231 8.70506 30.8035C8.72625 30.7719 8.74752 30.7401 8.7689 30.7082C9.92552 28.9576 11.299 26.9153 13.54 25.3828C17.2267 22.8299 20.552 23.7059 22.5761 24.9459C23.2267 23.9976 24.2388 23.3412 25.4677 23.3412L31.1785 23.3412C29.5882 19.6212 28.7207 11.3788 31.8291 5.68868C32.1183 5.17882 32.4075 4.66824 32.7689 4.22986C32.8412 4.22986 32.8412 4.15765 32.8412 4.15765C34.9376 1.45882 37.9737 0 41.7328 0C55.6846 0 56.9135 12.0353 56.9135 12.1812C56.9135 12.4729 56.8419 12.7647 56.6243 12.9828C56.4075 13.2024 56.119 13.3475 55.8291 13.3475L52.9376 13.3475C53.3713 16.0471 53.299 18.9647 52.7207 22.32C52.0701 26.1122 49.4677 27.571 47.2267 27.6447L46.9376 27.6447C46.287 27.6447 45.6371 27.571 44.9858 27.3529C45.3472 28.0824 45.7809 28.8118 46.36 29.6141C50.8412 36.1788 52.2147 40.7741 52.5761 43.1075ZM31.9737 13.9318L35.4436 13.9318C36.0219 13.9318 36.5279 13.4212 36.5279 12.8376C36.5279 12.2534 36.0219 11.7435 35.4436 11.7435L32.1906 11.7435C32.4797 9.99294 32.9865 8.24162 33.7809 6.7828C33.8532 6.71059 33.9255 6.63765 33.9255 6.49176L36.3834 8.53412C36.6009 8.68 36.8171 8.75294 37.1062 8.75294C37.3954 8.75294 37.7568 8.60633 37.9737 8.38824C38.3352 7.95059 38.2629 7.22118 37.8291 6.85647L35.299 4.74118C36.6725 3.28235 38.4797 2.48 40.7207 2.26118L40.7207 4.88706C40.7207 5.47059 41.2267 5.98118 41.805 5.98118C42.3841 5.98118 42.8894 5.47059 42.8894 4.88706L42.8894 2.26118C51.5641 2.69882 53.9503 8.60633 54.6002 11.2329L51.6364 11.2329C51.2749 11.2329 50.9858 11.3788 50.7689 11.6706C50.552 11.9624 50.4797 12.2534 50.552 12.6181C51.4202 16.1929 50.9858 19.6941 50.552 22.0282C50.046 25.0918 47.9496 25.5294 47.0829 25.6024C45.2756 25.6753 43.6846 24.5812 43.2508 22.9765L43.2508 22.9035C42.3732 18.8844 43.8914 16.4558 44.1554 16.0335C44.1741 16.0036 44.1865 15.9838 44.1913 15.9741C44.5527 15.4635 44.4797 14.8063 43.9737 14.4416C43.4684 14.0769 42.8171 14.1506 42.4556 14.6612C42.2388 14.88 37.6853 21.0063 44.5527 30.9271C49.54 38.1475 50.4074 42.8165 50.552 44.2753C49.3231 45.1506 47.7327 46.0988 45.8532 47.1193C44.4797 44.931 40.3593 39.5341 33.6364 37.9294L34.4323 30.3435C36.1665 30.1976 37.54 28.7388 37.54 26.9153C37.54 25.0181 36.0219 23.4871 34.1424 23.4871L33.5641 23.4871C33.5641 23.4141 33.4918 23.4141 33.4918 23.3412C32.625 21.6635 31.8291 17.8706 31.9737 13.9318ZM34.287 25.6024L25.6123 25.6024C24.8894 25.6024 24.3111 26.3318 24.3111 27.1514C24.3111 27.9729 24.8894 28.7024 25.54 28.7024L34.2147 28.7024C34.9376 28.7024 35.5166 27.9729 35.5166 27.1514C35.5166 26.3318 34.9376 25.6024 34.287 25.6024ZM5.08215 36.7624C5.66046 37.4181 6.38335 38.0753 7.17853 38.2941C7.90143 38.5122 8.55203 38.3671 9.20263 37.9294C9.4195 37.4181 9.70866 36.8353 9.99781 36.324C12.6725 31.4376 16.3593 28.0824 20.6966 26.4047C19.3231 25.8212 17.2267 25.5294 14.7689 27.2063C12.8894 28.52 11.7328 30.2706 10.6484 31.9475C9.27492 34.0635 7.82914 36.2518 5.08215 36.7624ZM25.3954 30.2706L26.4797 37.7828C19.3231 39.2416 15.4195 45.2235 14.1906 47.2652C12.1665 46.2447 10.5038 45.2235 9.20263 44.3475C9.92552 41.5765 13.2508 31.0729 22.4315 28.2282C22.9376 29.3224 24.0942 30.1976 25.3954 30.2706ZM27.6364 30.2706L32.3352 30.2706L31.5407 37.4918C30.9617 37.4181 30.4556 37.4181 29.8773 37.4181C29.4436 37.4181 29.0821 37.4181 28.6484 37.4918L27.6364 30.2706ZM43.8299 47.9946C42.2388 45.5882 37.3954 39.6063 29.805 39.6063C21.9978 39.6063 17.5159 45.9529 16.1424 48.2134C19.9014 49.8181 24.5279 51.131 29.805 51.131C35.2267 51.131 39.9978 49.6722 43.8299 47.9946ZM29.805 59.884C42.0942 59.884 51.4918 54.3412 56.046 50.9859C56.8419 50.4753 57.3472 49.6 57.3472 48.7976C57.4195 47.8487 57.0581 46.9004 56.4075 46.2447C55.3231 45.0769 53.5159 44.8588 52.2147 45.8063C50.6973 46.9004 48.5287 48.2134 45.9255 49.5271L45.8532 49.5271C41.6612 51.5694 36.1665 53.3193 29.805 53.3193C19.3954 53.3193 11.299 48.5781 7.3954 45.7341C6.81709 45.3694 6.16649 45.1506 5.51588 45.1506C4.7207 45.1506 3.85323 45.4416 3.20263 46.0988C2.55203 46.7546 2.19058 47.7035 2.26287 48.6518C2.33516 49.6722 2.7689 50.4753 3.56408 51.0588C8.11829 54.3412 17.5882 59.884 29.805 59.884Z" fill-rule="evenodd"/>
	</g>
	<defs>
		<clipPath id="clip_1">
			<rect x="-3" y="-2" width="65" height="67" clip-rule="nonzero"/>
		</clipPath>
	</defs>
	<g clip-path="url(#clip_1)">
		<path fill="none" stroke="rgb(213,213,213)" stroke-width="1" stroke-miterlimit="4" transform="translate(0 0.000244141)" d="M52.5761 43.1075C54.4556 42.524 56.552 43.0353 57.9978 44.4941C59.1544 45.6604 59.6605 47.2652 59.4436 48.7976C59.299 50.3294 58.5038 51.7882 57.2034 52.7357C52.5046 56.2369 42.6002 62 29.7328 62C16.9376 62 7.03396 56.1647 2.26287 52.7357C0.961668 51.8604 0.166487 50.4016 0.0219086 48.7976C-0.12267 47.1929 0.455644 45.6604 1.53998 44.4941C2.98576 42.9624 5.22673 42.524 7.17853 43.1812C7.3954 42.524 7.68456 41.5765 8.04601 40.5546L7.68456 40.5546C7.25082 40.5546 6.88938 40.5546 6.45564 40.4094C3.70866 39.6063 2.11829 36.3976 2.04601 36.2518C1.90143 35.8871 1.90143 35.4494 2.11829 35.1576C2.40745 34.7929 2.7689 34.6471 3.13034 34.6471C5.98474 34.8623 7.07807 33.231 8.70506 30.8035C8.72625 30.7719 8.74752 30.7401 8.7689 30.7082C9.92552 28.9576 11.299 26.9153 13.54 25.3828C17.2267 22.8299 20.552 23.7059 22.5761 24.9459C23.2267 23.9976 24.2388 23.3412 25.4677 23.3412L31.1785 23.3412C29.5882 19.6212 28.7207 11.3788 31.8291 5.68868C32.1183 5.17882 32.4075 4.66824 32.7689 4.22986C32.8412 4.22986 32.8412 4.15765 32.8412 4.15765C34.9376 1.45882 37.9737 0 41.7328 0C55.6846 0 56.9135 12.0353 56.9135 12.1812C56.9135 12.4729 56.8419 12.7647 56.6243 12.9828C56.4075 13.2024 56.119 13.3475 55.8291 13.3475L52.9376 13.3475C53.3713 16.0471 53.299 18.9647 52.7207 22.32C52.0701 26.1122 49.4677 27.571 47.2267 27.6447L46.9376 27.6447C46.287 27.6447 45.6371 27.571 44.9858 27.3529C45.3472 28.0824 45.7809 28.8118 46.36 29.6141C50.8412 36.1788 52.2147 40.7741 52.5761 43.1075ZM31.9737 13.9318L35.4436 13.9318C36.0219 13.9318 36.5279 13.4212 36.5279 12.8376C36.5279 12.2534 36.0219 11.7435 35.4436 11.7435L32.1906 11.7435C32.4797 9.99294 32.9865 8.24162 33.7809 6.7828C33.8532 6.71059 33.9255 6.63765 33.9255 6.49176L36.3834 8.53412C36.6009 8.68 36.8171 8.75294 37.1062 8.75294C37.3954 8.75294 37.7568 8.60633 37.9737 8.38824C38.3352 7.95059 38.2629 7.22118 37.8291 6.85647L35.299 4.74118C36.6725 3.28235 38.4797 2.48 40.7207 2.26118L40.7207 4.88706C40.7207 5.47059 41.2267 5.98118 41.805 5.98118C42.3841 5.98118 42.8894 5.47059 42.8894 4.88706L42.8894 2.26118C51.5641 2.69882 53.9503 8.60633 54.6002 11.2329L51.6364 11.2329C51.2749 11.2329 50.9858 11.3788 50.7689 11.6706C50.552 11.9624 50.4797 12.2534 50.552 12.6181C51.4202 16.1929 50.9858 19.6941 50.552 22.0282C50.046 25.0918 47.9496 25.5294 47.0829 25.6024C45.2756 25.6753 43.6846 24.5812 43.2508 22.9765L43.2508 22.9035C42.3732 18.8844 43.8914 16.4558 44.1554 16.0335C44.1741 16.0036 44.1865 15.9838 44.1913 15.9741C44.5527 15.4635 44.4797 14.8063 43.9737 14.4416C43.4684 14.0769 42.8171 14.1506 42.4556 14.6612C42.2388 14.88 37.6853 21.0063 44.5527 30.9271C49.54 38.1475 50.4074 42.8165 50.552 44.2753C49.3231 45.1506 47.7327 46.0988 45.8532 47.1193C44.4797 44.931 40.3593 39.5341 33.6364 37.9294L34.4323 30.3435C36.1665 30.1976 37.54 28.7388 37.54 26.9153C37.54 25.0181 36.0219 23.4871 34.1424 23.4871L33.5641 23.4871C33.5641 23.4141 33.4918 23.4141 33.4918 23.3412C32.625 21.6635 31.8291 17.8706 31.9737 13.9318ZM34.287 25.6024L25.6123 25.6024C24.8894 25.6024 24.3111 26.3318 24.3111 27.1514C24.3111 27.9729 24.8894 28.7024 25.54 28.7024L34.2147 28.7024C34.9376 28.7024 35.5166 27.9729 35.5166 27.1514C35.5166 26.3318 34.9376 25.6024 34.287 25.6024ZM5.08215 36.7624C5.66046 37.4181 6.38335 38.0753 7.17853 38.2941C7.90143 38.5122 8.55203 38.3671 9.20263 37.9294C9.4195 37.4181 9.70866 36.8353 9.99781 36.324C12.6725 31.4376 16.3593 28.0824 20.6966 26.4047C19.3231 25.8212 17.2267 25.5294 14.7689 27.2063C12.8894 28.52 11.7328 30.2706 10.6484 31.9475C9.27492 34.0635 7.82914 36.2518 5.08215 36.7624ZM25.3954 30.2706L26.4797 37.7828C19.3231 39.2416 15.4195 45.2235 14.1906 47.2652C12.1665 46.2447 10.5038 45.2235 9.20263 44.3475C9.92552 41.5765 13.2508 31.0729 22.4315 28.2282C22.9376 29.3224 24.0942 30.1976 25.3954 30.2706ZM27.6364 30.2706L32.3352 30.2706L31.5407 37.4918C30.9617 37.4181 30.4556 37.4181 29.8773 37.4181C29.4436 37.4181 29.0821 37.4181 28.6484 37.4918L27.6364 30.2706ZM43.8299 47.9946C42.2388 45.5882 37.3954 39.6063 29.805 39.6063C21.9978 39.6063 17.5159 45.9529 16.1424 48.2134C19.9014 49.8181 24.5279 51.131 29.805 51.131C35.2267 51.131 39.9978 49.6722 43.8299 47.9946ZM29.805 59.884C42.0942 59.884 51.4918 54.3412 56.046 50.9859C56.8419 50.4753 57.3472 49.6 57.3472 48.7976C57.4195 47.8487 57.0581 46.9004 56.4075 46.2447C55.3231 45.0769 53.5159 44.8588 52.2147 45.8063C50.6973 46.9004 48.5287 48.2134 45.9255 49.5271L45.8532 49.5271C41.6612 51.5694 36.1665 53.3193 29.805 53.3193C19.3954 53.3193 11.299 48.5781 7.3954 45.7341C6.81709 45.3694 6.16649 45.1506 5.51588 45.1506C4.7207 45.1506 3.85323 45.4416 3.20263 46.0988C2.55203 46.7546 2.19058 47.7035 2.26287 48.6518C2.33516 49.6722 2.7689 50.4753 3.56408 51.0588C8.11829 54.3412 17.5882 59.884 29.805 59.884Z" fill-rule="evenodd"/>
	</g>
	<defs>
		<clipPath id="clip_2">
			<rect x="47" y="13" width="4" height="5" clip-rule="nonzero"/>
		</clipPath>
	</defs>
	<g clip-path="url(#clip_2)">
		<path fill="rgb(98,98,98)" stroke="none" transform="translate(47.2266 13.9128)" d="M0.409639 2.69022C0.512048 2.79266 0.716868 2.89511 0.921687 2.99755C1.12651 3.1 1.33133 3.1 1.53614 3.1C1.74096 3.1 1.94578 3.1 2.1506 2.99755C2.35542 2.89511 2.45783 2.79266 2.66265 2.69022C2.76506 2.58777 2.86747 2.38288 2.96988 2.17799C3.07229 1.9731 3.07229 1.76821 3.07229 1.56332C3.07229 1.15354 2.86747 0.743764 2.66265 0.436429C2.56024 0.333984 2.56024 0.333984 2.45783 0.231539C2.35542 0.129094 2.25301 0.129094 2.1506 0.129094C2.04819 0.129094 1.94578 0.026649 1.84337 0.026649C1.33133 -0.0757961 0.819277 0.129094 0.409639 0.436429C0.10241 0.743764 0 1.15354 0 1.56332C0 1.76821 0 1.9731 0.10241 2.17799C0.204819 2.38288 0.307229 2.48533 0.409639 2.69022"/>
	</g>
	<defs>
		<clipPath id="clip_3">
			<rect x="45" y="11" width="8" height="9" clip-rule="nonzero"/>
		</clipPath>
	</defs>
	<g clip-path="url(#clip_3)">
		<path fill="none" stroke="rgb(213,213,213)" stroke-width="1" stroke-miterlimit="4" transform="translate(47.2266 13.9128)" d="M0.409639 2.69022C0.512048 2.79266 0.716868 2.89511 0.921687 2.99755C1.12651 3.1 1.33133 3.1 1.53614 3.1C1.74096 3.1 1.94578 3.1 2.1506 2.99755C2.35542 2.89511 2.45783 2.79266 2.66265 2.69022C2.76506 2.58777 2.86747 2.38288 2.96988 2.17799C3.07229 1.9731 3.07229 1.76821 3.07229 1.56332C3.07229 1.15354 2.86747 0.743764 2.66265 0.436429C2.56024 0.333984 2.56024 0.333984 2.45783 0.231539C2.35542 0.129094 2.25301 0.129094 2.1506 0.129094C2.04819 0.129094 1.94578 0.026649 1.84337 0.026649C1.33133 -0.0757961 0.819277 0.129094 0.409639 0.436429C0.10241 0.743764 0 1.15354 0 1.56332C0 1.76821 0 1.9731 0.10241 2.17799C0.204819 2.38288 0.307229 2.48533 0.409639 2.69022"/>
	</g>
</svg>
