<?xml version="1.0" encoding="utf-8" ?>
<svg xmlns="http://www.w3.org/2000/svg" xmlns:xlink="http://www.w3.org/1999/xlink" width="69" height="69">
	<defs>
		<clipPath id="clip_0">
			<rect width="79" height="17" clip-rule="nonzero"/>
		</clipPath>
	</defs>
	<g clip-path="url(#clip_0)">
		<path fill="rgb(98,98,98)" stroke="none" transform="scale(0.99 0.99)" d="M33.2045 0.406381L31.8449 0.406381L31.8449 0L33.2045 0L33.2045 0.406381ZM27.8191 2.53381L26.9153 2.53381L26.9153 0.406381L27.8191 0.406381L27.8191 2.53381ZM28.0553 2.33548L36.7737 2.33548L36.7737 0.605524L28.0553 0.605524L28.0553 2.33548ZM75.1511 2.89729L74.9236 4.12533L74.9236 4.12614L35.4576 4.12614L35.4576 2.53462L34.4361 2.53462L34.4361 4.12614L33.0433 4.12614L33.0433 2.53462L32.0219 2.53462L32.0219 4.12614L25.7761 4.12614L25.7761 5.71767Q24.0709 6.29688 22.6027 6.72067C20.7967 7.09548 19.3424 7.23067 18.2395 7.12705C12.403 6.10948 6.51197 6.36771 0.56564 7.90095C0.37683 7.95114 0.18802 8.00133 0 8.05233C0.05609 10.7221 0.45583 13.4316 1.19843 16.1816C1.37934 16.2658 1.63767 16.3079 1.975 16.3079C2.86217 16.3054 4.29128 16.0059 6.26312 15.4125L22.6027 10.7076C23.621 10.4364 24.6535 10.2081 25.7003 10.0243Q26.704 9.84219 27.7006 9.70376C28.4487 9.59448 29.1976 9.50543 29.9457 9.43662C30.5469 10.1911 30.5864 11.2783 30.0634 12.6966C35.8984 11.9583 39.8429 10.8112 41.8969 9.25448C46.3477 9.16219 50.6351 8.72667 54.7596 7.9479L76.822 6.82348C77.228 6.20662 77.228 5.74276 76.822 5.4311L79 5.4311L79 4.12533L77.8016 4.12533L76.7469 2.89729L75.1511 2.89729ZM54.8173 7.28248L55.6792 7.28248L55.6792 4.79157L54.8173 4.79157L54.8173 7.28248ZM26.8568 5.71686L33.3554 5.71686L33.3222 7.26548C33.2827 7.27681 33.2487 7.29705 33.2203 7.32619C33.1531 7.395 33.1002 7.47595 33.0607 7.56824C33.0204 7.66052 33.0015 7.7609 33.0015 7.871C33.0015 7.97462 33.0204 8.08148 33.0607 8.19157C33.1002 8.27252 33.1531 8.347 33.2203 8.41662C33.3672 8.56071 33.5442 8.63276 33.7528 8.63276C33.9605 8.63276 34.1375 8.56071 34.2844 8.41662C34.425 8.26686 34.4953 8.08471 34.4953 7.87181C34.4953 7.65891 34.425 7.47676 34.2844 7.327C34.256 7.29786 34.2283 7.27762 34.1999 7.26629L34.1414 5.71767L38.1341 5.71767L38.1341 4.91219L26.8568 4.91219L26.8568 5.71686ZM50.5568 5.71686L39.0695 5.71686L39.0695 4.91219L50.5568 4.91219L50.5568 5.71686Z" fill-rule="evenodd"/>
	</g>
	<defs>
		<clipPath id="clip_1">
			<rect x="-2" y="-2" width="82" height="20" clip-rule="nonzero"/>
		</clipPath>
	</defs>
	<g clip-path="url(#clip_1)">
		<path fill="none" stroke="rgb(213,213,213)" stroke-width="0.70710677" stroke-miterlimit="4" transform="scale(0.99 0.99)" d="M33.2045 0.406381L31.8449 0.406381L31.8449 0L33.2045 0L33.2045 0.406381ZM27.8191 2.53381L26.9153 2.53381L26.9153 0.406381L27.8191 0.406381L27.8191 2.53381ZM28.0553 2.33548L36.7737 2.33548L36.7737 0.605524L28.0553 0.605524L28.0553 2.33548ZM75.1511 2.89729L74.9236 4.12533L74.9236 4.12614L35.4576 4.12614L35.4576 2.53462L34.4361 2.53462L34.4361 4.12614L33.0433 4.12614L33.0433 2.53462L32.0219 2.53462L32.0219 4.12614L25.7761 4.12614L25.7761 5.71767Q24.0709 6.29688 22.6027 6.72067C20.7967 7.09548 19.3424 7.23067 18.2395 7.12705C12.403 6.10948 6.51197 6.36771 0.56564 7.90095C0.37683 7.95114 0.18802 8.00133 0 8.05233C0.05609 10.7221 0.45583 13.4316 1.19843 16.1816C1.37934 16.2658 1.63767 16.3079 1.975 16.3079C2.86217 16.3054 4.29128 16.0059 6.26312 15.4125L22.6027 10.7076C23.621 10.4364 24.6535 10.2081 25.7003 10.0243Q26.704 9.84219 27.7006 9.70376C28.4487 9.59448 29.1976 9.50543 29.9457 9.43662C30.5469 10.1911 30.5864 11.2783 30.0634 12.6966C35.8984 11.9583 39.8429 10.8112 41.8969 9.25448C46.3477 9.16219 50.6351 8.72667 54.7596 7.9479L76.822 6.82348C77.228 6.20662 77.228 5.74276 76.822 5.4311L79 5.4311L79 4.12533L77.8016 4.12533L76.7469 2.89729L75.1511 2.89729ZM54.8173 7.28248L55.6792 7.28248L55.6792 4.79157L54.8173 4.79157L54.8173 7.28248ZM26.8568 5.71686L33.3554 5.71686L33.3222 7.26548C33.2827 7.27681 33.2487 7.29705 33.2203 7.32619C33.1531 7.395 33.1002 7.47595 33.0607 7.56824C33.0204 7.66052 33.0015 7.7609 33.0015 7.871C33.0015 7.97462 33.0204 8.08148 33.0607 8.19157C33.1002 8.27252 33.1531 8.347 33.2203 8.41662C33.3672 8.56071 33.5442 8.63276 33.7528 8.63276C33.9605 8.63276 34.1375 8.56071 34.2844 8.41662C34.425 8.26686 34.4953 8.08471 34.4953 7.87181C34.4953 7.65891 34.425 7.47676 34.2844 7.327C34.256 7.29786 34.2283 7.27762 34.1999 7.26629L34.1414 5.71767L38.1341 5.71767L38.1341 4.91219L26.8568 4.91219L26.8568 5.71686ZM50.5568 5.71686L39.0695 5.71686L39.0695 4.91219L50.5568 4.91219L50.5568 5.71686Z" fill-rule="evenodd"/>
	</g>
	<defs>
		<clipPath id="clip_2">
			<rect x="-1" width="18" height="4" clip-rule="nonzero"/>
		</clipPath>
	</defs>
	<g clip-path="url(#clip_2)">
		<path fill="rgb(98,98,98)" stroke="none" transform="scale(0.99 0.99)" d="M4.54171 3.4421C10.3766 2.70381 14.3211 1.55671 16.3751 0L4.54171 3.4421ZM0.17775 0.769857Q-0.17775 1.72914 0.17775 2.69814C0.46452 3.50524 1.027 3.86871 1.86598 3.78857L4.54171 3.4421L1.81091 1.76991L2.16541 0.494699L4.42321 0.182143C3.67508 0.250952 2.92616 0.34 2.17803 0.449286C1.51364 0.541571 0.84767 0.648429 0.17775 0.769857L0.17775 0.769857ZM1.44303 1.54464L0.17775 0.769857L2.05838 0.509515C1.70525 0.710846 1.50013 1.05584 1.44303 1.54464ZM1.44303 1.54464C1.40369 1.88138 1.4346 2.28638 1.53576 2.75967L1.81091 1.76991L1.44303 1.54464ZM2.05838 0.509515L2.16541 0.494699L2.17803 0.449286C2.13642 0.467685 2.09654 0.487761 2.05838 0.509515Z" fill-rule="evenodd"/>
	</g>
	<defs>
		<clipPath id="clip_3">
			<rect x="-2" y="-2" width="20" height="8" clip-rule="nonzero"/>
		</clipPath>
	</defs>
	<g clip-path="url(#clip_3)">
		<path fill="none" stroke="rgb(213,213,213)" stroke-width="0.70710677" stroke-miterlimit="4" transform="scale(0.99 0.99)" d="M4.54171 3.4421C10.3766 2.70381 14.3211 1.55671 16.3751 0L4.54171 3.4421ZM0.17775 0.769857Q-0.17775 1.72914 0.17775 2.69814C0.46452 3.50524 1.027 3.86871 1.86598 3.78857L4.54171 3.4421L1.81091 1.76991L2.16541 0.494699L4.42321 0.182143C3.67508 0.250952 2.92616 0.34 2.17803 0.449286C1.51364 0.541571 0.84767 0.648429 0.17775 0.769857L0.17775 0.769857ZM1.44303 1.54464L0.17775 0.769857L2.05838 0.509515C1.70525 0.710846 1.50013 1.05584 1.44303 1.54464ZM1.44303 1.54464C1.40369 1.88138 1.4346 2.28638 1.53576 2.75967L1.81091 1.76991L1.44303 1.54464ZM2.05838 0.509515L2.16541 0.494699L2.17803 0.449286C2.13642 0.467685 2.09654 0.487761 2.05838 0.509515Z" fill-rule="evenodd"/>
	</g>
	<defs>
		<clipPath id="clip_4">
			<rect x="-1" width="18" height="4" clip-rule="nonzero"/>
		</clipPath>
	</defs>
	<g clip-path="url(#clip_4)">
		<path fill="rgb(98,98,98)" stroke="none" transform="scale(0.99 0.99)" d="M4.54171 3.4421C10.3766 2.70381 14.3211 1.55671 16.3751 0L4.54171 3.4421ZM0.17775 0.769857Q-0.17775 1.72914 0.17775 2.69814C0.46452 3.50524 1.027 3.86871 1.86598 3.78857L4.54171 3.4421L1.81091 1.76991L2.16541 0.494699L4.42321 0.182143C3.67508 0.250952 2.92616 0.34 2.17803 0.449286C1.51364 0.541571 0.84767 0.648429 0.17775 0.769857L0.17775 0.769857ZM1.44303 1.54464L0.17775 0.769857L2.05838 0.509515C1.70525 0.710846 1.50013 1.05584 1.44303 1.54464ZM1.44303 1.54464C1.40369 1.88138 1.4346 2.28638 1.53576 2.75967L1.81091 1.76991L1.44303 1.54464ZM2.05838 0.509515L2.16541 0.494699L2.17803 0.449286C2.13642 0.467685 2.09654 0.487761 2.05838 0.509515Z" fill-rule="evenodd"/>
	</g>
	<defs>
		<clipPath id="clip_5">
			<rect x="-2" y="-2" width="20" height="8" clip-rule="nonzero"/>
		</clipPath>
	</defs>
	<g clip-path="url(#clip_5)">
		<path fill="none" stroke="rgb(213,213,213)" stroke-width="0.70710677" stroke-miterlimit="4" transform="scale(0.99 0.99)" d="M4.54171 3.4421C10.3766 2.70381 14.3211 1.55671 16.3751 0L4.54171 3.4421ZM0.17775 0.769857Q-0.17775 1.72914 0.17775 2.69814C0.46452 3.50524 1.027 3.86871 1.86598 3.78857L4.54171 3.4421L1.81091 1.76991L2.16541 0.494699L4.42321 0.182143C3.67508 0.250952 2.92616 0.34 2.17803 0.449286C1.51364 0.541571 0.84767 0.648429 0.17775 0.769857L0.17775 0.769857ZM1.44303 1.54464L0.17775 0.769857L2.05838 0.509515C1.70525 0.710846 1.50013 1.05584 1.44303 1.54464ZM1.44303 1.54464C1.40369 1.88138 1.4346 2.28638 1.53576 2.75967L1.81091 1.76991L1.44303 1.54464ZM2.05838 0.509515L2.16541 0.494699L2.17803 0.449286C2.13642 0.467685 2.09654 0.487761 2.05838 0.509515Z" fill-rule="evenodd"/>
	</g>
	<defs>
		<clipPath id="clip_6">
			<rect x="-1" y="-1" width="4" height="3" clip-rule="nonzero"/>
		</clipPath>
	</defs>
	<g clip-path="url(#clip_6)">
		<path fill="rgb(98,98,98)" stroke="none" transform="scale(0.99 0.99)" d="M2.87797 1.22805L1.82332 -7.10543e-15L0.22831 -7.10543e-15L-1.42109e-14 1.22805"/>
	</g>
	<defs>
		<clipPath id="clip_7">
			<rect x="-2" y="-2" width="7" height="5" clip-rule="nonzero"/>
		</clipPath>
	</defs>
	<g clip-path="url(#clip_7)">
		<path fill="none" stroke="rgb(213,213,213)" stroke-width="0.70710677" stroke-miterlimit="4" transform="scale(0.99 0.99)" d="M2.87797 1.22805L1.82332 -7.10543e-15L0.22831 -7.10543e-15L-1.42109e-14 1.22805"/>
	</g>
	<defs>
		<clipPath id="clip_8">
			<rect x="-1" y="-1" width="4" height="3" clip-rule="nonzero"/>
		</clipPath>
	</defs>
	<g clip-path="url(#clip_8)">
		<path fill="rgb(98,98,98)" stroke="none" transform="scale(0.99 0.99)" d="M2.87797 1.22805L1.82332 -7.10543e-15L0.22831 -7.10543e-15L-1.42109e-14 1.22805"/>
	</g>
	<defs>
		<clipPath id="clip_9">
			<rect x="-2" y="-2" width="7" height="5" clip-rule="nonzero"/>
		</clipPath>
	</defs>
	<g clip-path="url(#clip_9)">
		<path fill="none" stroke="rgb(213,213,213)" stroke-width="0.70710677" stroke-miterlimit="4" transform="scale(0.99 0.99)" d="M2.87797 1.22805L1.82332 -7.10543e-15L0.22831 -7.10543e-15L-1.42109e-14 1.22805"/>
	</g>
</svg>
