<?xml version="1.0" encoding="utf-8" ?>
<svg xmlns="http://www.w3.org/2000/svg" xmlns:xlink="http://www.w3.org/1999/xlink" width="61" height="62">
	<defs>
		<clipPath id="clip_0">
			<rect width="61" height="62" clip-rule="nonzero"/>
		</clipPath>
	</defs>
	<g clip-path="url(#clip_0)">
		<path fill="rgb(98,98,98)" stroke="none" transform="translate(0 0.000244141)" d="M16.9348 36.7913C15.654 36.3646 14.2853 36.13 12.8598 36.13C5.75877 36.13 0 41.8851 0 48.9888C0 50.4515 0.247483 51.8558 0.6975 53.166L9.41108 44.4524L17.6338 52.6752L9.0365 61.2736C10.2445 61.6492 11.5284 61.8496 12.8603 61.8517C19.9635 61.8517 25.7207 56.0924 25.7207 48.9903C25.7207 47.2404 25.3709 45.5726 24.7365 44.0515L43.7358 25.0594C45.0161 25.4872 46.3853 25.7217 47.8103 25.7217C54.9113 25.7217 60.6706 19.965 60.6706 12.8619C60.6706 11.3992 60.4231 9.99543 59.9731 8.68517L51.2595 17.3982L43.0363 9.17497L51.6341 0.57815C50.4262 0.202533 49.1422 0.000516667 47.8103 0C40.7071 0 34.9499 5.75773 34.9499 12.8603C34.9499 14.6103 35.2997 16.2776 35.9342 17.7992L16.9348 36.7913Z"/>
	</g>
	<defs>
		<clipPath id="clip_1">
			<rect x="-2" y="-2" width="65" height="66" clip-rule="nonzero"/>
		</clipPath>
	</defs>
	<g clip-path="url(#clip_1)">
		<path fill="none" stroke="rgb(213,213,213)" stroke-width="1" stroke-miterlimit="4" transform="translate(0 0.000244141)" d="M16.9348 36.7913C15.654 36.3646 14.2853 36.13 12.8598 36.13C5.75877 36.13 0 41.8851 0 48.9888C0 50.4515 0.247483 51.8558 0.6975 53.166L9.41108 44.4524L17.6338 52.6752L9.0365 61.2736C10.2445 61.6492 11.5284 61.8496 12.8603 61.8517C19.9635 61.8517 25.7207 56.0924 25.7207 48.9903C25.7207 47.2404 25.3709 45.5726 24.7365 44.0515L43.7358 25.0594C45.0161 25.4872 46.3853 25.7217 47.8103 25.7217C54.9113 25.7217 60.6706 19.965 60.6706 12.8619C60.6706 11.3992 60.4231 9.99543 59.9731 8.68517L51.2595 17.3982L43.0363 9.17497L51.6341 0.57815C50.4262 0.202533 49.1422 0.000516667 47.8103 0C40.7071 0 34.9499 5.75773 34.9499 12.8603C34.9499 14.6103 35.2997 16.2776 35.9342 17.7992L16.9348 36.7913Z"/>
	</g>
</svg>
