<?xml version="1.0" encoding="utf-8" ?>
<svg xmlns="http://www.w3.org/2000/svg" xmlns:xlink="http://www.w3.org/1999/xlink" width="96" height="63">
	<defs>
		<clipPath id="clip_0">
			<rect x="4" width="88" height="51" clip-rule="nonzero"/>
		</clipPath>
	</defs>
	<g clip-path="url(#clip_0)">
		<path fill="rgb(98,98,98)" stroke="none" transform="translate(4.45435 0.192383)" d="M5.1648 50.1584L5.1648 5.1795L81.9264 5.1795L81.9264 50.1584L87.0912 50.1584L87.0912 4.29379C87.0912 1.92547 85.1712 0 82.8096 0L4.2816 0C1.92 0 0 1.92547 0 4.29379L0 50.1584L5.1648 50.1584Z"/>
	</g>
	<defs>
		<clipPath id="clip_1">
			<rect x="2" y="-2" width="92" height="55" clip-rule="nonzero"/>
		</clipPath>
	</defs>
	<g clip-path="url(#clip_1)">
		<path fill="none" stroke="rgb(213,213,213)" stroke-width="1" stroke-miterlimit="4" transform="translate(4.45435 0.192383)" d="M5.1648 50.1584L5.1648 5.1795L81.9264 5.1795L81.9264 50.1584L87.0912 50.1584L87.0912 4.29379C87.0912 1.92547 85.1712 0 82.8096 0L4.2816 0C1.92 0 0 1.92547 0 4.29379L0 50.1584L5.1648 50.1584Z"/>
	</g>
	<defs>
		<clipPath id="clip_2">
			<rect y="52" width="96" height="10" clip-rule="nonzero"/>
		</clipPath>
	</defs>
	<g clip-path="url(#clip_2)">
		<path fill="rgb(98,98,98)" stroke="none" transform="translate(0 52.9312)" d="M0 4.23602L0 0L96 0L96 4.23602C96 6.87391 93.8688 9.03063 91.219 9.03063L4.7808 9.03063C2.1504 9.03063 0 6.89317 0 4.23602ZM12.7872 6.4118C11.7504 6.4118 10.8864 5.56479 10.8864 4.50578C10.8864 3.46584 11.7312 2.59938 12.7872 2.59938C13.824 2.59938 14.688 3.44678 14.688 4.50578C14.6688 5.56479 13.824 6.4118 12.7872 6.4118ZM15.9744 4.50578C15.9744 5.56479 16.8384 6.4118 17.8752 6.4118C18.9312 6.4118 19.776 5.56479 19.776 4.50578C19.776 3.44678 18.912 2.59938 17.8752 2.59938C16.8192 2.59938 15.9744 3.46584 15.9744 4.50578ZM21.0816 4.50578C21.0816 5.56479 21.9456 6.4118 22.9824 6.4118C24.0192 6.4118 24.864 5.56479 24.8832 4.50578C24.8832 3.44678 24.0192 2.59938 22.9824 2.59938C21.9264 2.59938 21.0816 3.46584 21.0816 4.50578Z" fill-rule="evenodd"/>
	</g>
	<defs>
		<clipPath id="clip_3">
			<rect x="-2" y="50" width="100" height="14" clip-rule="nonzero"/>
		</clipPath>
	</defs>
	<g clip-path="url(#clip_3)">
		<path fill="none" stroke="rgb(213,213,213)" stroke-width="1" stroke-miterlimit="4" transform="translate(0 52.9312)" d="M0 4.23602L0 0L96 0L96 4.23602C96 6.87391 93.8688 9.03063 91.219 9.03063L4.7808 9.03063C2.1504 9.03063 0 6.89317 0 4.23602ZM12.7872 6.4118C11.7504 6.4118 10.8864 5.56479 10.8864 4.50578C10.8864 3.46584 11.7312 2.59938 12.7872 2.59938C13.824 2.59938 14.688 3.44678 14.688 4.50578C14.6688 5.56479 13.824 6.4118 12.7872 6.4118ZM15.9744 4.50578C15.9744 5.56479 16.8384 6.4118 17.8752 6.4118C18.9312 6.4118 19.776 5.56479 19.776 4.50578C19.776 3.44678 18.912 2.59938 17.8752 2.59938C16.8192 2.59938 15.9744 3.46584 15.9744 4.50578ZM21.0816 4.50578C21.0816 5.56479 21.9456 6.4118 22.9824 6.4118C24.0192 6.4118 24.864 5.56479 24.8832 4.50578C24.8832 3.44678 24.0192 2.59938 22.9824 2.59938C21.9264 2.59938 21.0816 3.46584 21.0816 4.50578Z" fill-rule="evenodd"/>
	</g>
</svg>
