<?xml version="1.0" encoding="utf-8" ?>
<svg xmlns="http://www.w3.org/2000/svg" xmlns:xlink="http://www.w3.org/1999/xlink" width="68" height="62">
	<defs>
		<clipPath id="clip_0">
			<rect x="-1" width="69" height="62" clip-rule="nonzero"/>
		</clipPath>
	</defs>
	<g clip-path="url(#clip_0)">
		<path fill="rgb(98,98,98)" stroke="none" d="M66.9052 19.3346C67.4972 17.3971 67.255 15.6615 66.1786 14.1276C65.6135 13.3741 64.8197 12.7956 63.7971 12.3919C63.8509 13.3338 63.7837 14.1007 63.5953 14.6927L51.4859 54.5326C51.2706 55.2322 50.7997 55.7906 50.0731 56.2077C49.3466 56.6248 48.5931 56.8333 47.8127 56.8333L10.5562 56.8333C7.32705 56.8333 5.38955 55.8915 4.74372 54.0078C4.47461 53.2813 4.48809 52.7027 4.78409 52.2721C5.08008 51.8685 5.59138 51.6667 6.31794 51.6667L41.3948 51.6667C43.8974 51.6667 45.6263 51.2025 46.5816 50.2741C47.5369 49.3457 48.4989 47.2804 49.4677 44.0781L60.5276 7.50781C61.1196 5.51651 60.8774 3.76735 59.801 2.26042C58.7246 0.753486 57.1908 0 55.1994 0L24.482 0C24.1322 0 23.446 0.121094 22.4234 0.363281L22.4638 0.242188C21.7103 0.0807292 21.0712 0.00674089 20.5465 0.0201823C20.0217 0.0336237 19.5373 0.188382 19.0933 0.484375C18.6493 0.780369 18.2928 1.09658 18.0237 1.43294C17.7546 1.7693 17.4922 2.19987 17.2366 2.72461C16.9809 3.24935 16.7656 3.73372 16.5907 4.17773C16.4158 4.62175 16.214 5.09268 15.9853 5.5905C15.7565 6.08831 15.5345 6.4987 15.3192 6.82161C15.1578 7.03688 14.929 7.31943 14.633 7.66927C14.3371 8.01911 14.0949 8.32855 13.9065 8.59766Q13.6239 9.00132 13.5432 9.32422C13.4894 9.56641 13.5163 9.92295 13.6239 10.3939C13.7316 10.8648 13.7719 11.2079 13.745 11.4232C13.6374 12.4457 13.2674 13.7441 12.635 15.3184C12.0026 16.8926 11.4308 18.0295 10.9195 18.7292C10.8119 18.8637 10.5159 19.1664 10.0315 19.6374C9.54711 20.1083 9.25111 20.5187 9.14346 20.8685C9.03581 21.003 9.02911 21.3798 9.12328 21.9987C9.21745 22.6176 9.25111 23.0482 9.22419 23.2904C9.11654 24.2053 8.78018 25.4162 8.21508 26.9232C7.64997 28.4301 7.08487 29.668 6.51976 30.6367C6.43903 30.7982 6.21029 31.1077 5.83356 31.5651C5.45684 32.0226 5.2281 32.3993 5.14737 32.6953C5.09356 32.9106 5.10026 33.2873 5.16755 33.8255C5.23484 34.3637 5.2281 34.7673 5.14737 35.0365C4.9321 36.059 4.52846 37.2901 3.93643 38.7298C3.3444 40.1695 2.73893 41.4006 2.12002 42.4232C1.95856 42.6923 1.73656 43.0085 1.45401 43.3717C1.17146 43.735 0.94945 44.0512 0.787992 44.3203C0.626534 44.5894 0.518881 44.872 0.465075 45.168C0.438152 45.3294 0.478517 45.5918 0.586169 45.9551C0.693822 46.3184 0.734186 46.6077 0.707263 46.8229C0.68034 47.1996 0.626534 47.6975 0.545805 48.3164Q0.424711 49.2448 0.424711 49.4063C-0.167316 51.0208 -0.140393 52.7296 0.50544 54.5326C1.25893 56.6315 2.59766 58.4008 4.52172 59.8405C6.44577 61.2802 8.44382 62 10.5159 62L47.7724 62C49.5215 62 51.1697 61.4147 52.717 60.2441C54.2643 59.0736 55.2936 57.6272 55.8049 55.9049L66.9052 19.3346ZM23.2307 14.2083C23.123 14.5582 23.15 14.8609 23.3114 15.1165C23.4729 15.3722 23.742 15.5 24.1187 15.5L48.6604 15.5C49.0102 15.5 49.3533 15.3722 49.6897 15.1165C50.026 14.8609 50.248 14.5582 50.3557 14.2083L51.2034 11.625C51.311 11.2752 51.2841 10.9724 51.1226 10.7168C50.9612 10.4612 50.6921 10.3333 50.3153 10.3333L25.7737 10.3333C25.4238 10.3333 25.0807 10.4612 24.7444 10.7168C24.408 10.9724 24.186 11.2752 24.0784 11.625L23.2307 14.2083ZM19.8804 24.5417C19.7728 24.8915 19.7997 25.1942 19.9612 25.4499C20.1226 25.7055 20.3917 25.8333 20.7685 25.8333L45.3101 25.8333C45.66 25.8333 46.0031 25.7055 46.3394 25.4499C46.6758 25.1942 46.8978 24.8915 47.0054 24.5417L47.8531 21.9583C47.9608 21.6085 47.9338 21.3058 47.7724 21.0501C47.6109 20.7945 47.3418 20.6667 46.9651 20.6667L22.4234 20.6667C22.0736 20.6667 21.7305 20.7945 21.3941 21.0501C21.0578 21.3058 20.8357 21.6085 20.7281 21.9583L19.8804 24.5417Z" fill-rule="evenodd"/>
	</g>
	<defs>
		<clipPath id="clip_1">
			<rect x="-3" y="-2" width="73" height="66" clip-rule="nonzero"/>
		</clipPath>
	</defs>
	<g clip-path="url(#clip_1)">
		<path fill="none" stroke="rgb(213,213,213)" stroke-width="1" stroke-miterlimit="4" d="M66.9052 19.3346C67.4972 17.3971 67.255 15.6615 66.1786 14.1276C65.6135 13.3741 64.8197 12.7956 63.7971 12.3919C63.8509 13.3338 63.7837 14.1007 63.5953 14.6927L51.4859 54.5326C51.2706 55.2322 50.7997 55.7906 50.0731 56.2077C49.3466 56.6248 48.5931 56.8333 47.8127 56.8333L10.5562 56.8333C7.32705 56.8333 5.38955 55.8915 4.74372 54.0078C4.47461 53.2813 4.48809 52.7027 4.78409 52.2721C5.08008 51.8685 5.59138 51.6667 6.31794 51.6667L41.3948 51.6667C43.8974 51.6667 45.6263 51.2025 46.5816 50.2741C47.5369 49.3457 48.4989 47.2804 49.4677 44.0781L60.5276 7.50781C61.1196 5.51651 60.8774 3.76735 59.801 2.26042C58.7246 0.753486 57.1908 0 55.1994 0L24.482 0C24.1322 0 23.446 0.121094 22.4234 0.363281L22.4638 0.242188C21.7103 0.0807292 21.0712 0.00674089 20.5465 0.0201823C20.0217 0.0336237 19.5373 0.188382 19.0933 0.484375C18.6493 0.780369 18.2928 1.09658 18.0237 1.43294C17.7546 1.7693 17.4922 2.19987 17.2366 2.72461C16.9809 3.24935 16.7656 3.73372 16.5907 4.17773C16.4158 4.62175 16.214 5.09268 15.9853 5.5905C15.7565 6.08831 15.5345 6.4987 15.3192 6.82161C15.1578 7.03688 14.929 7.31943 14.633 7.66927C14.3371 8.01911 14.0949 8.32855 13.9065 8.59766Q13.6239 9.00132 13.5432 9.32422C13.4894 9.56641 13.5163 9.92295 13.6239 10.3939C13.7316 10.8648 13.7719 11.2079 13.745 11.4232C13.6374 12.4457 13.2674 13.7441 12.635 15.3184C12.0026 16.8926 11.4308 18.0295 10.9195 18.7292C10.8119 18.8637 10.5159 19.1664 10.0315 19.6374C9.54711 20.1083 9.25111 20.5187 9.14346 20.8685C9.03581 21.003 9.02911 21.3798 9.12328 21.9987C9.21745 22.6176 9.25111 23.0482 9.22419 23.2904C9.11654 24.2053 8.78018 25.4162 8.21508 26.9232C7.64997 28.4301 7.08487 29.668 6.51976 30.6367C6.43903 30.7982 6.21029 31.1077 5.83356 31.5651C5.45684 32.0226 5.2281 32.3993 5.14737 32.6953C5.09356 32.9106 5.10026 33.2873 5.16755 33.8255C5.23484 34.3637 5.2281 34.7673 5.14737 35.0365C4.9321 36.059 4.52846 37.2901 3.93643 38.7298C3.3444 40.1695 2.73893 41.4006 2.12002 42.4232C1.95856 42.6923 1.73656 43.0085 1.45401 43.3717C1.17146 43.735 0.94945 44.0512 0.787992 44.3203C0.626534 44.5894 0.518881 44.872 0.465075 45.168C0.438152 45.3294 0.478517 45.5918 0.586169 45.9551C0.693822 46.3184 0.734186 46.6077 0.707263 46.8229C0.68034 47.1996 0.626534 47.6975 0.545805 48.3164Q0.424711 49.2448 0.424711 49.4063C-0.167316 51.0208 -0.140393 52.7296 0.50544 54.5326C1.25893 56.6315 2.59766 58.4008 4.52172 59.8405C6.44577 61.2802 8.44382 62 10.5159 62L47.7724 62C49.5215 62 51.1697 61.4147 52.717 60.2441C54.2643 59.0736 55.2936 57.6272 55.8049 55.9049L66.9052 19.3346ZM23.2307 14.2083C23.123 14.5582 23.15 14.8609 23.3114 15.1165C23.4729 15.3722 23.742 15.5 24.1187 15.5L48.6604 15.5C49.0102 15.5 49.3533 15.3722 49.6897 15.1165C50.026 14.8609 50.248 14.5582 50.3557 14.2083L51.2034 11.625C51.311 11.2752 51.2841 10.9724 51.1226 10.7168C50.9612 10.4612 50.6921 10.3333 50.3153 10.3333L25.7737 10.3333C25.4238 10.3333 25.0807 10.4612 24.7444 10.7168C24.408 10.9724 24.186 11.2752 24.0784 11.625L23.2307 14.2083ZM19.8804 24.5417C19.7728 24.8915 19.7997 25.1942 19.9612 25.4499C20.1226 25.7055 20.3917 25.8333 20.7685 25.8333L45.3101 25.8333C45.66 25.8333 46.0031 25.7055 46.3394 25.4499C46.6758 25.1942 46.8978 24.8915 47.0054 24.5417L47.8531 21.9583C47.9608 21.6085 47.9338 21.3058 47.7724 21.0501C47.6109 20.7945 47.3418 20.6667 46.9651 20.6667L22.4234 20.6667C22.0736 20.6667 21.7305 20.7945 21.3941 21.0501C21.0578 21.3058 20.8357 21.6085 20.7281 21.9583L19.8804 24.5417Z" fill-rule="evenodd"/>
	</g>
</svg>
