<!-- Generated by IcoMoon.io -->
<svg version="1.1" xmlns="http://www.w3.org/2000/svg" width="1652" height="1024" viewBox="0 0 1652 1024">
<title></title>
<g id="icomoon-ignore">
</g>
<path fill="none" stroke="#626262" stroke-width="49.5484" stroke-miterlimit="4" stroke-linecap="butt" stroke-linejoin="miter" d="M1091.7 218.601c26.99-29.666 77.233-44.68 130.568-44.68 79.877 0 75.79 35.291 75.79 78.67 0 43.47 4.097 78.735-75.79 78.735-38.064 0-87.324-8.001-113.152-21.086"></path>
<path fill="none" stroke="#626262" stroke-width="49.5484" stroke-miterlimit="4" stroke-linecap="butt" stroke-linejoin="miter" d="M1101.304 320.886c52.493 152.162 156.815 341.633 259.745 451.25"></path>
<path fill="none" stroke="#626262" stroke-width="49.5484" stroke-miterlimit="4" stroke-linecap="butt" stroke-linejoin="miter" d="M857.304 110.984c62.98-62.98 157.408-62.98 157.408-62.98s21.683 40.842 29.666 73.716"></path>
<path fill="none" stroke="#626262" stroke-width="49.5484" stroke-miterlimit="4" stroke-linecap="butt" stroke-linejoin="miter" d="M494.963 559.212c-103.842-191.512-225.52-164.88-330.287-164.88-65.918 0-94.456-31.489-94.456-31.489s21.215-94.456 220.383-94.456c137.583 0 155.822 3.057 188.894 62.98 21.858 39.566 125.937 62.98 220.383 62.98 54.72 0 0-157.413 251.872-157.413 67.86 0 96.657-83.354 93.106-116.233 0 0 45.808 192.788 78.901 269.376 0 0-188.239 82.703-151.003 350.641 1.558 34.61-75.409 61.552-159.281 62.593-74.895 0.821-206.208-19.584-237.684-62.593"></path>
<path fill="none" stroke="#626262" stroke-width="49.5484" stroke-miterlimit="4" stroke-linecap="butt" stroke-linejoin="miter" d="M322.069 740.639h243.217"></path>
<path fill="#626262" d="M38.708 740.639c0-156.546 126.816-283.361 283.361-283.361s283.361 126.816 283.361 283.361c0 156.546-126.816 283.361-283.361 283.361s-283.361-126.816-283.361-283.361zM542.452 740.639c0-121.484-98.853-220.383-220.383-220.383s-220.383 98.897-220.383 220.383c0 121.484 98.853 220.383 220.383 220.383s220.383-98.897 220.383-220.383z"></path>
<path fill="#626262" d="M164.666 740.639c0-86.953 70.488-157.408 157.413-157.408s157.413 70.465 157.413 157.408c0 86.928-70.483 157.408-157.413 157.408s-157.413-70.483-157.413-157.408zM416.54 740.639c0-52.066-42.367-94.456-94.456-94.456s-94.456 42.367-94.456 94.456c0 52.066 42.367 94.456 94.456 94.456s94.456-42.367 94.456-94.456z"></path>
<path fill="#626262" d="M1046.197 740.639c0-156.546 126.816-283.361 283.361-283.361s283.361 126.816 283.361 283.361c0 156.546-126.816 283.361-283.361 283.361s-283.361-126.816-283.361-283.361zM1549.941 740.639c0-121.484-98.897-220.383-220.383-220.383s-220.383 98.897-220.383 220.383c0 121.484 98.897 220.383 220.383 220.383s220.383-98.897 220.383-220.383z"></path>
<path fill="#626262" d="M1172.147 740.639c0-86.953 70.483-157.408 157.413-157.408s157.408 70.465 157.408 157.408c0 86.928-70.483 157.408-157.408 157.408s-157.413-70.483-157.413-157.408zM1424.016 740.639c0-52.066-42.362-94.456-94.461-94.456s-94.456 42.367-94.456 94.456c0 52.066 42.362 94.456 94.456 94.456s94.461-42.367 94.461-94.456z"></path>
</svg>
