<?xml version="1.0" encoding="utf-8" ?>
<svg xmlns="http://www.w3.org/2000/svg" xmlns:xlink="http://www.w3.org/1999/xlink" width="62" height="62">
	<defs>
		<clipPath id="clip_0">
			<rect x="-1" width="63" height="63" clip-rule="nonzero"/>
		</clipPath>
	</defs>
	<g clip-path="url(#clip_0)">
		<path fill="rgb(98,98,98)" stroke="none" transform="translate(0.999512 0.488281)" d="M54.2571 0.756197L59.5505 6.04957C60.3067 7.05784 60.3067 8.57023 59.2984 9.83056L54.0051 15.1239C52.9968 16.1322 51.4844 16.1322 50.4761 15.1239L41.1522 24.4504C43.6729 29.2396 42.9142 35.2892 38.8811 39.3197C37.8729 40.3305 36.3605 41.3388 35.1001 41.8404C35.3522 46.6321 33.8398 51.4214 30.0588 55.2024C23.253 62.0056 11.9101 62.0056 5.10433 55.2024C-1.70144 48.3966 -1.70144 37.0536 5.10433 30.2479C8.63325 26.719 13.6746 24.9545 18.4638 25.2066C18.9679 23.9462 19.9762 22.6859 20.9845 21.4256C25.0175 17.3925 30.815 16.6363 35.6043 19.157L45.1828 9.57849C44.1745 8.57023 44.1745 7.05784 45.1828 6.04957L50.7282 0.756197C51.7365 -0.252066 53.2489 -0.252066 54.2571 0.756197ZM46.9472 7.81403L52.2406 13.1074L57.5365 7.81403L52.2406 2.52066L46.9472 7.81403ZM38.8811 21.4256C39.1332 21.9297 39.3852 22.1818 39.6373 22.4338L48.7142 13.3595L46.9472 11.595L37.8729 20.6694C38.1249 20.9214 38.6316 21.1735 38.8811 21.4256ZM35.3522 35.7933C34.8506 36.2974 34.596 36.5495 34.0919 36.7991C32.5795 37.8098 31.5712 37.8098 30.815 39.3197C30.0588 40.3305 30.0588 41.3388 30.0588 42.8511C30.0588 46.128 28.7985 49.1528 26.2778 51.6734C21.2365 56.7148 13.4225 56.7148 8.38118 51.6734C3.33987 46.6321 3.33987 38.8181 8.38118 33.7768C10.9018 31.2561 13.9266 30.2479 17.2035 29.9958C18.9679 29.9958 20.2283 29.9958 20.9845 29.4917C21.9927 28.4834 22.4969 27.4751 23.5051 25.9628C23.7572 25.4586 24.0092 24.9545 24.5134 24.7024C27.5382 21.6776 32.3274 21.6776 35.1001 24.7024C37.8729 27.7272 38.1249 32.7685 35.3522 35.7933Z" fill-rule="evenodd"/>
	</g>
	<defs>
		<clipPath id="clip_1">
			<rect x="-3" y="-2" width="67" height="67" clip-rule="nonzero"/>
		</clipPath>
	</defs>
	<g clip-path="url(#clip_1)">
		<path fill="none" stroke="rgb(213,213,213)" stroke-width="1" stroke-miterlimit="4" transform="translate(0.999512 0.488281)" d="M54.2571 0.756197L59.5505 6.04957C60.3067 7.05784 60.3067 8.57023 59.2984 9.83056L54.0051 15.1239C52.9968 16.1322 51.4844 16.1322 50.4761 15.1239L41.1522 24.4504C43.6729 29.2396 42.9142 35.2892 38.8811 39.3197C37.8729 40.3305 36.3605 41.3388 35.1001 41.8404C35.3522 46.6321 33.8398 51.4214 30.0588 55.2024C23.253 62.0056 11.9101 62.0056 5.10433 55.2024C-1.70144 48.3966 -1.70144 37.0536 5.10433 30.2479C8.63325 26.719 13.6746 24.9545 18.4638 25.2066C18.9679 23.9462 19.9762 22.6859 20.9845 21.4256C25.0175 17.3925 30.815 16.6363 35.6043 19.157L45.1828 9.57849C44.1745 8.57023 44.1745 7.05784 45.1828 6.04957L50.7282 0.756197C51.7365 -0.252066 53.2489 -0.252066 54.2571 0.756197ZM46.9472 7.81403L52.2406 13.1074L57.5365 7.81403L52.2406 2.52066L46.9472 7.81403ZM38.8811 21.4256C39.1332 21.9297 39.3852 22.1818 39.6373 22.4338L48.7142 13.3595L46.9472 11.595L37.8729 20.6694C38.1249 20.9214 38.6316 21.1735 38.8811 21.4256ZM35.3522 35.7933C34.8506 36.2974 34.596 36.5495 34.0919 36.7991C32.5795 37.8098 31.5712 37.8098 30.815 39.3197C30.0588 40.3305 30.0588 41.3388 30.0588 42.8511C30.0588 46.128 28.7985 49.1528 26.2778 51.6734C21.2365 56.7148 13.4225 56.7148 8.38118 51.6734C3.33987 46.6321 3.33987 38.8181 8.38118 33.7768C10.9018 31.2561 13.9266 30.2479 17.2035 29.9958C18.9679 29.9958 20.2283 29.9958 20.9845 29.4917C21.9927 28.4834 22.4969 27.4751 23.5051 25.9628C23.7572 25.4586 24.0092 24.9545 24.5134 24.7024C27.5382 21.6776 32.3274 21.6776 35.1001 24.7024C37.8729 27.7272 38.1249 32.7685 35.3522 35.7933Z" fill-rule="evenodd"/>
	</g>
	<defs>
		<clipPath id="clip_2">
			<rect x="15" y="35" width="11" height="11" clip-rule="nonzero"/>
		</clipPath>
	</defs>
	<g clip-path="url(#clip_2)">
		<path fill="rgb(98,98,98)" stroke="none" transform="translate(15.6826 35.7771)" d="M0 5.04131C0 2.26859 2.26859 0 5.04131 0C8.0661 0 10.0826 2.26859 10.0826 5.04131C10.0826 7.81403 7.81403 10.0826 5.04131 10.0826C2.26859 10.0826 0 7.81403 0 5.04131ZM2.52066 5.04131C2.52066 6.5537 3.52892 7.56197 5.04131 7.56197C6.5537 7.56197 7.56197 6.5537 7.56197 5.04131C7.56197 3.52892 6.5537 2.52066 5.04131 2.52066C3.52892 2.52066 2.52066 3.52892 2.52066 5.04131Z" fill-rule="evenodd"/>
	</g>
	<defs>
		<clipPath id="clip_3">
			<rect x="13" y="33" width="15" height="15" clip-rule="nonzero"/>
		</clipPath>
	</defs>
	<g clip-path="url(#clip_3)">
		<path fill="none" stroke="rgb(213,213,213)" stroke-width="1" stroke-miterlimit="4" transform="translate(15.6826 35.7771)" d="M0 5.04131C0 2.26859 2.26859 0 5.04131 0C8.0661 0 10.0826 2.26859 10.0826 5.04131C10.0826 7.81403 7.81403 10.0826 5.04131 10.0826C2.26859 10.0826 0 7.81403 0 5.04131ZM2.52066 5.04131C2.52066 6.5537 3.52892 7.56197 5.04131 7.56197C6.5537 7.56197 7.56197 6.5537 7.56197 5.04131C7.56197 3.52892 6.5537 2.52066 5.04131 2.52066C3.52892 2.52066 2.52066 3.52892 2.52066 5.04131Z" fill-rule="evenodd"/>
	</g>
</svg>
