<?xml version="1.0" encoding="utf-8" ?>
<svg xmlns="http://www.w3.org/2000/svg" xmlns:xlink="http://www.w3.org/1999/xlink" width="62" height="62">
	<defs>
		<clipPath id="clip_0">
			<rect width="62" height="62" clip-rule="nonzero"/>
		</clipPath>
	</defs>
	<g clip-path="url(#clip_0)">
		<path fill="rgb(98,98,98)" stroke="none" d="M49.0833 7.75L59.4167 7.75C60.9667 7.75 62 8.78333 62 10.3333L62 43.9167C62 45.4667 60.9667 46.5 59.4167 46.5L49.0833 46.5L49.0833 59.4167C49.0833 60.9667 48.05 62 46.5 62L15.5 62C13.95 62 12.9167 60.9667 12.9167 59.4167L12.9167 46.5L2.58333 46.5C1.03333 46.5 0 45.4667 0 43.9167L0 10.3333C0 8.78333 1.03333 7.75 2.58333 7.75L12.9167 7.75L12.9167 2.58333C12.9167 1.03333 13.95 0 15.5 0L46.5 0C48.05 0 49.0833 1.03333 49.0833 2.58333L49.0833 7.75ZM15.5 7.75L15.5 2.58333L46.5 2.58333L46.5 7.75L15.5 7.75ZM49.0833 41.3333L56.8333 41.3333L56.8333 12.9167L5.16667 12.9167L5.16667 41.3333L12.9167 41.3333L12.9167 31L10.3333 31L10.3333 25.8333L51.6667 25.8333L51.6667 31L49.0833 31L49.0833 41.3333ZM15.5 31L15.5 59.4167L46.5 59.4167L46.5 31L15.5 31Z" fill-rule="evenodd"/>
	</g>
	<defs>
		<clipPath id="clip_1">
			<rect x="-2" y="-2" width="66" height="66" clip-rule="nonzero"/>
		</clipPath>
	</defs>
	<g clip-path="url(#clip_1)">
		<path fill="none" stroke="rgb(213,213,213)" stroke-width="1" stroke-miterlimit="4" d="M49.0833 7.75L59.4167 7.75C60.9667 7.75 62 8.78333 62 10.3333L62 43.9167C62 45.4667 60.9667 46.5 59.4167 46.5L49.0833 46.5L49.0833 59.4167C49.0833 60.9667 48.05 62 46.5 62L15.5 62C13.95 62 12.9167 60.9667 12.9167 59.4167L12.9167 46.5L2.58333 46.5C1.03333 46.5 0 45.4667 0 43.9167L0 10.3333C0 8.78333 1.03333 7.75 2.58333 7.75L12.9167 7.75L12.9167 2.58333C12.9167 1.03333 13.95 0 15.5 0L46.5 0C48.05 0 49.0833 1.03333 49.0833 2.58333L49.0833 7.75ZM15.5 7.75L15.5 2.58333L46.5 2.58333L46.5 7.75L15.5 7.75ZM49.0833 41.3333L56.8333 41.3333L56.8333 12.9167L5.16667 12.9167L5.16667 41.3333L12.9167 41.3333L12.9167 31L10.3333 31L10.3333 25.8333L51.6667 25.8333L51.6667 31L49.0833 31L49.0833 41.3333ZM15.5 31L15.5 59.4167L46.5 59.4167L46.5 31L15.5 31Z" fill-rule="evenodd"/>
	</g>
	<defs>
		<clipPath id="clip_2">
			<rect x="7" y="15" width="6" height="6" clip-rule="nonzero"/>
		</clipPath>
	</defs>
	<g clip-path="url(#clip_2)">
		<path fill="rgb(98,98,98)" stroke="none" transform="translate(7.75 15.5)" d="M2.58333 1.77636e-15C4.00933 1.77636e-15 5.16667 1.15733 5.16667 2.58333C5.16667 4.00933 4.00933 5.16667 2.58333 5.16667C1.15733 5.16667 0 4.00933 0 2.58333C0 1.15733 1.15733 1.77636e-15 2.58333 1.77636e-15"/>
	</g>
	<defs>
		<clipPath id="clip_3">
			<rect x="5" y="13" width="10" height="10" clip-rule="nonzero"/>
		</clipPath>
	</defs>
	<g clip-path="url(#clip_3)">
		<path fill="none" stroke="rgb(213,213,213)" stroke-width="1" stroke-miterlimit="4" transform="translate(7.75 15.5)" d="M2.58333 1.77636e-15C4.00933 1.77636e-15 5.16667 1.15733 5.16667 2.58333C5.16667 4.00933 4.00933 5.16667 2.58333 5.16667C1.15733 5.16667 0 4.00933 0 2.58333C0 1.15733 1.15733 1.77636e-15 2.58333 1.77636e-15"/>
	</g>
	<defs>
		<clipPath id="clip_4">
			<rect x="15" y="15" width="6" height="6" clip-rule="nonzero"/>
		</clipPath>
	</defs>
	<g clip-path="url(#clip_4)">
		<path fill="rgb(98,98,98)" stroke="none" transform="translate(15.5 15.5)" d="M2.58333 1.77636e-15C4.00933 1.77636e-15 5.16667 1.15733 5.16667 2.58333C5.16667 4.00933 4.00933 5.16667 2.58333 5.16667C1.15733 5.16667 1.77636e-15 4.00933 1.77636e-15 2.58333C1.77636e-15 1.15733 1.15733 1.77636e-15 2.58333 1.77636e-15"/>
	</g>
	<defs>
		<clipPath id="clip_5">
			<rect x="13" y="13" width="10" height="10" clip-rule="nonzero"/>
		</clipPath>
	</defs>
	<g clip-path="url(#clip_5)">
		<path fill="none" stroke="rgb(213,213,213)" stroke-width="1" stroke-miterlimit="4" transform="translate(15.5 15.5)" d="M2.58333 1.77636e-15C4.00933 1.77636e-15 5.16667 1.15733 5.16667 2.58333C5.16667 4.00933 4.00933 5.16667 2.58333 5.16667C1.15733 5.16667 1.77636e-15 4.00933 1.77636e-15 2.58333C1.77636e-15 1.15733 1.15733 1.77636e-15 2.58333 1.77636e-15"/>
	</g>
	<defs>
		<clipPath id="clip_6">
			<rect x="20" y="36" width="22" height="3" clip-rule="nonzero"/>
		</clipPath>
	</defs>
	<g clip-path="url(#clip_6)">
		<path fill="rgb(98,98,98)" stroke="none" transform="translate(20.6667 36.1667)" d="M0 2.58333L20.6667 2.58333L20.6667 0L0 0L0 2.58333Z"/>
	</g>
	<defs>
		<clipPath id="clip_7">
			<rect x="18" y="34" width="26" height="7" clip-rule="nonzero"/>
		</clipPath>
	</defs>
	<g clip-path="url(#clip_7)">
		<path fill="none" stroke="rgb(213,213,213)" stroke-width="1" stroke-miterlimit="4" transform="translate(20.6667 36.1667)" d="M0 2.58333L20.6667 2.58333L20.6667 0L0 0L0 2.58333Z"/>
	</g>
	<defs>
		<clipPath id="clip_8">
			<rect x="20" y="43" width="22" height="4" clip-rule="nonzero"/>
		</clipPath>
	</defs>
	<g clip-path="url(#clip_8)">
		<path fill="rgb(98,98,98)" stroke="none" transform="translate(20.6667 43.9167)" d="M0 2.58333L20.6667 2.58333L20.6667 0L0 0L0 2.58333Z"/>
	</g>
	<defs>
		<clipPath id="clip_9">
			<rect x="18" y="41" width="26" height="8" clip-rule="nonzero"/>
		</clipPath>
	</defs>
	<g clip-path="url(#clip_9)">
		<path fill="none" stroke="rgb(213,213,213)" stroke-width="1" stroke-miterlimit="4" transform="translate(20.6667 43.9167)" d="M0 2.58333L20.6667 2.58333L20.6667 0L0 0L0 2.58333Z"/>
	</g>
	<defs>
		<clipPath id="clip_10">
			<rect x="20" y="51" width="22" height="4" clip-rule="nonzero"/>
		</clipPath>
	</defs>
	<g clip-path="url(#clip_10)">
		<path fill="rgb(98,98,98)" stroke="none" transform="translate(20.6667 51.6667)" d="M0 2.58333L20.6667 2.58333L20.6667 0L0 0L0 2.58333Z"/>
	</g>
	<defs>
		<clipPath id="clip_11">
			<rect x="18" y="49" width="26" height="8" clip-rule="nonzero"/>
		</clipPath>
	</defs>
	<g clip-path="url(#clip_11)">
		<path fill="none" stroke="rgb(213,213,213)" stroke-width="1" stroke-miterlimit="4" transform="translate(20.6667 51.6667)" d="M0 2.58333L20.6667 2.58333L20.6667 0L0 0L0 2.58333Z"/>
	</g>
</svg>
