<?xml version="1.0" encoding="utf-8" ?>
<svg xmlns="http://www.w3.org/2000/svg" xmlns:xlink="http://www.w3.org/1999/xlink" width="63" height="62">
	<defs>
		<clipPath id="clip_0">
			<rect x="39" width="11" height="14" clip-rule="nonzero"/>
		</clipPath>
	</defs>
	<g clip-path="url(#clip_0)">
		<path fill="rgb(98,98,98)" stroke="none" transform="translate(39.8184 0.688965)" d="M9.31578 12.6449C9.44041 12.6456 9.5582 12.6539 9.68077 12.6573C8.26601 5.6203 4.08747 1.8941 1.35176 0.15603C0.199957 -0.318614 0.0246522 0.415052 0 0.693363C0.084913 2.66841 0.639587 3.98901 0.847076 4.41956C3.70878 6.13145 6.78825 8.72443 9.31578 12.6449"/>
	</g>
	<defs>
		<clipPath id="clip_1">
			<rect x="37" y="-2" width="15" height="18" clip-rule="nonzero"/>
		</clipPath>
	</defs>
	<g clip-path="url(#clip_1)">
		<path fill="none" stroke="rgb(213,213,213)" stroke-width="1" stroke-miterlimit="4" transform="translate(39.8184 0.688965)" d="M9.31578 12.6449C9.44041 12.6456 9.5582 12.6539 9.68077 12.6573C8.26601 5.6203 4.08747 1.8941 1.35176 0.15603C0.199957 -0.318614 0.0246522 0.415052 0 0.693363C0.084913 2.66841 0.639587 3.98901 0.847076 4.41956C3.70878 6.13145 6.78825 8.72443 9.31578 12.6449"/>
	</g>
	<defs>
		<clipPath id="clip_2">
			<rect x="51" y="21" width="2" height="2" clip-rule="nonzero"/>
		</clipPath>
	</defs>
	<g clip-path="url(#clip_2)">
		<path fill="rgb(98,98,98)" stroke="none" transform="translate(51.2979 21.3545)" d="M0.397174 0C0.616989 0 0.795033 0.179111 0.795033 0.400244C0.795033 0.621378 0.616989 0.800489 0.397174 0.800489C0.178043 0.800489 0 0.621378 0 0.400244C0 0.179111 0.178043 0 0.397174 0"/>
	</g>
	<defs>
		<clipPath id="clip_3">
			<rect x="49" y="19" width="6" height="6" clip-rule="nonzero"/>
		</clipPath>
	</defs>
	<g clip-path="url(#clip_3)">
		<path fill="none" stroke="rgb(213,213,213)" stroke-width="1" stroke-miterlimit="4" transform="translate(51.2979 21.3545)" d="M0.397174 0C0.616989 0 0.795033 0.179111 0.795033 0.400244C0.795033 0.621378 0.616989 0.800489 0.397174 0.800489C0.178043 0.800489 0 0.621378 0 0.400244C0 0.179111 0.178043 0 0.397174 0"/>
	</g>
	<defs>
		<clipPath id="clip_4">
			<rect x="-1" y="4" width="65" height="58" clip-rule="nonzero"/>
		</clipPath>
	</defs>
	<g clip-path="url(#clip_4)">
		<path fill="rgb(98,98,98)" stroke="none" transform="translate(0 4.44092)" d="M48.6278 10.9334C52.3722 10.7825 54.5881 12.4145 57.7128 15.7818C61.2251 19.5596 63.1322 24.0064 62.1468 26.1261C61.2305 28.1067 55.9837 29.47 54.4443 29.4769C53.5226 29.4838 51.9771 29.4941 51.7922 31.2204C51.0026 44.4058 52.2051 49.2583 52.492 50.198C52.5954 51.9346 53.5658 53.745 55.4564 53.6548C55.6441 53.6452 55.8283 53.641 56.0118 53.641C57.5218 53.641 60.0486 53.9545 60.0486 56.0563C60.0486 56.8891 58.5619 57.3293 55.755 57.3293C55.4304 57.3293 55.1161 57.3238 54.8367 57.3204C54.5923 57.3176 54.356 57.3128 54.1602 57.3128C53.1357 57.3128 51.7716 55.9137 51.117 54.972C50.6143 53.6341 45.7545 41.0089 44.2089 36.775C44.0891 36.5139 43.6912 35.8456 42.8804 36.1005C42.3203 36.2776 42.2497 36.7295 42.2942 37.0891L43.9124 41.5476C43.3563 44.7578 37.7699 49.2184 30.8728 50.7594C30.4413 50.955 29.8949 51.3284 30.0065 51.9484C30.1421 52.7021 31.1049 52.7606 31.5644 52.7441C32.7367 52.5856 33.818 52.4947 34.7842 52.4947C37.068 52.4947 39.9249 52.897 40.5535 54.985C40.6836 55.4119 40.7383 55.8035 40.7537 56.1674C40.7542 56.1641 40.7549 56.163 40.7555 56.1706C40.7559 56.1884 40.7568 56.1884 40.7575 56.1884C40.7583 56.1884 40.759 56.1884 40.759 56.2051C40.7542 56.5123 40.5912 57.0972 39.1121 57.0972L17.2134 57.0972C15.6945 57.0972 15.5603 57.0421 15.2015 56.3532C15.1784 56.3081 15.1545 56.3126 15.1302 56.3172C15.1055 56.3219 15.0805 56.3267 15.0556 56.2795C14.8872 55.9688 15.3508 54.808 15.6014 54.1846C15.7404 53.838 15.8835 53.4805 15.9986 53.134C16.5409 51.4869 16.1506 49.6014 15.1002 48.8346C14.8735 48.6721 14.603 48.5915 14.2962 48.5915C13.6792 48.5915 12.9479 48.9283 11.8064 49.4794C11.0791 49.8301 10.256 50.2262 9.5856 50.4108C8.59815 50.7188 7.66821 50.8751 6.82045 50.8751C3.80878 50.8751 1.6072 48.8567 0.277352 44.8825C-0.11092 43.4923 -0.0917457 42.4528 0.336243 41.8858C0.788885 41.2851 1.74142 41.1487 2.46181 41.1487C2.83912 41.1487 3.2452 41.1604 3.66634 41.2272C6.71797 41.9484 9.34022 41.6873 9.55432 41.666C9.5617 41.6653 9.56622 41.6648 9.5678 41.6647L10.4731 41.4918L10.4792 40.4082C10.5785 23.4787 27.177 22.6541 29.0697 22.6541L29.4107 22.6541C34.2768 22.6541 37.5165 22.2125 39.3202 20.6116C39.614 20.3463 39.8023 20.3174 39.8749 19.86L39.8934 19.7484L39.8859 19.6354C39.8626 19.2303 39.8694 18.8177 39.9091 18.4078L39.9139 18.3251C39.9187 17.8319 39.9701 17.1754 40.2981 16.4665L40.3433 16.3556C40.3563 16.3129 40.3727 16.2736 40.3858 16.2323C40.6769 15.8009 41.0944 15.9036 41.2757 15.9482C41.3152 15.9579 41.3435 15.9649 41.3568 15.9629C41.7067 16.1434 42.0683 16.3094 42.4456 16.4548C42.4469 16.4527 42.4476 16.4514 42.4476 16.4514C42.4476 16.4514 43.6912 16.687 43.8713 15.7439C43.9857 15.1487 43.6049 14.7932 43.3064 14.61C42.6318 14.364 41.9991 14.0327 41.4211 13.6545L40.8993 13.228C38.6491 11.3866 34.8685 7.4276 33.1462 0.651689C33.1264 0.320334 33.2661 -0.0929997 34.131 0.0186003C37.5364 1.03678 43.5775 3.71311 47.7294 10.4532L48.0389 10.9575L48.6278 10.9334ZM51.6949 19.7442C50.3637 19.7442 49.2804 18.6537 49.2804 17.3145C49.2804 15.974 50.3637 14.8834 51.6949 14.8834C53.0268 14.8834 54.1102 15.974 54.1102 17.3145C54.1102 18.6537 53.0268 19.7442 51.6949 19.7442ZM43.7809 35.5653C43.785 35.5784 43.7905 35.5928 43.7953 35.6073L43.7809 35.6073L43.7809 35.5653ZM43.7953 35.6073L43.8672 35.6073L43.8021 35.63C43.8001 35.6218 43.7973 35.6156 43.7953 35.6073Z" fill-rule="evenodd"/>
	</g>
	<defs>
		<clipPath id="clip_5">
			<rect x="-3" y="2" width="69" height="62" clip-rule="nonzero"/>
		</clipPath>
	</defs>
	<g clip-path="url(#clip_5)">
		<path fill="none" stroke="rgb(213,213,213)" stroke-width="1" stroke-miterlimit="4" transform="translate(0 4.44092)" d="M48.6278 10.9334C52.3722 10.7825 54.5881 12.4145 57.7128 15.7818C61.2251 19.5596 63.1322 24.0064 62.1468 26.1261C61.2305 28.1067 55.9837 29.47 54.4443 29.4769C53.5226 29.4838 51.9771 29.4941 51.7922 31.2204C51.0026 44.4058 52.2051 49.2583 52.492 50.198C52.5954 51.9346 53.5658 53.745 55.4564 53.6548C55.6441 53.6452 55.8283 53.641 56.0118 53.641C57.5218 53.641 60.0486 53.9545 60.0486 56.0563C60.0486 56.8891 58.5619 57.3293 55.755 57.3293C55.4304 57.3293 55.1161 57.3238 54.8367 57.3204C54.5923 57.3176 54.356 57.3128 54.1602 57.3128C53.1357 57.3128 51.7716 55.9137 51.117 54.972C50.6143 53.6341 45.7545 41.0089 44.2089 36.775C44.0891 36.5139 43.6912 35.8456 42.8804 36.1005C42.3203 36.2776 42.2497 36.7295 42.2942 37.0891L43.9124 41.5476C43.3563 44.7578 37.7699 49.2184 30.8728 50.7594C30.4413 50.955 29.8949 51.3284 30.0065 51.9484C30.1421 52.7021 31.1049 52.7606 31.5644 52.7441C32.7367 52.5856 33.818 52.4947 34.7842 52.4947C37.068 52.4947 39.9249 52.897 40.5535 54.985C40.6836 55.4119 40.7383 55.8035 40.7537 56.1674C40.7542 56.1641 40.7549 56.163 40.7555 56.1706C40.7559 56.1884 40.7568 56.1884 40.7575 56.1884C40.7583 56.1884 40.759 56.1884 40.759 56.2051C40.7542 56.5123 40.5912 57.0972 39.1121 57.0972L17.2134 57.0972C15.6945 57.0972 15.5603 57.0421 15.2015 56.3532C15.1784 56.3081 15.1545 56.3126 15.1302 56.3172C15.1055 56.3219 15.0805 56.3267 15.0556 56.2795C14.8872 55.9688 15.3508 54.808 15.6014 54.1846C15.7404 53.838 15.8835 53.4805 15.9986 53.134C16.5409 51.4869 16.1506 49.6014 15.1002 48.8346C14.8735 48.6721 14.603 48.5915 14.2962 48.5915C13.6792 48.5915 12.9479 48.9283 11.8064 49.4794C11.0791 49.8301 10.256 50.2262 9.5856 50.4108C8.59815 50.7188 7.66821 50.8751 6.82045 50.8751C3.80878 50.8751 1.6072 48.8567 0.277352 44.8825C-0.11092 43.4923 -0.0917457 42.4528 0.336243 41.8858C0.788885 41.2851 1.74142 41.1487 2.46181 41.1487C2.83912 41.1487 3.2452 41.1604 3.66634 41.2272C6.71797 41.9484 9.34022 41.6873 9.55432 41.666C9.5617 41.6653 9.56622 41.6648 9.5678 41.6647L10.4731 41.4918L10.4792 40.4082C10.5785 23.4787 27.177 22.6541 29.0697 22.6541L29.4107 22.6541C34.2768 22.6541 37.5165 22.2125 39.3202 20.6116C39.614 20.3463 39.8023 20.3174 39.8749 19.86L39.8934 19.7484L39.8859 19.6354C39.8626 19.2303 39.8694 18.8177 39.9091 18.4078L39.9139 18.3251C39.9187 17.8319 39.9701 17.1754 40.2981 16.4665L40.3433 16.3556C40.3563 16.3129 40.3727 16.2736 40.3858 16.2323C40.6769 15.8009 41.0944 15.9036 41.2757 15.9482C41.3152 15.9579 41.3435 15.9649 41.3568 15.9629C41.7067 16.1434 42.0683 16.3094 42.4456 16.4548C42.4469 16.4527 42.4476 16.4514 42.4476 16.4514C42.4476 16.4514 43.6912 16.687 43.8713 15.7439C43.9857 15.1487 43.6049 14.7932 43.3064 14.61C42.6318 14.364 41.9991 14.0327 41.4211 13.6545L40.8993 13.228C38.6491 11.3866 34.8685 7.4276 33.1462 0.651689C33.1264 0.320334 33.2661 -0.0929997 34.131 0.0186003C37.5364 1.03678 43.5775 3.71311 47.7294 10.4532L48.0389 10.9575L48.6278 10.9334ZM51.6949 19.7442C50.3637 19.7442 49.2804 18.6537 49.2804 17.3145C49.2804 15.974 50.3637 14.8834 51.6949 14.8834C53.0268 14.8834 54.1102 15.974 54.1102 17.3145C54.1102 18.6537 53.0268 19.7442 51.6949 19.7442ZM43.7809 35.5653C43.785 35.5784 43.7905 35.5928 43.7953 35.6073L43.7809 35.6073L43.7809 35.5653ZM43.7953 35.6073L43.8672 35.6073L43.8021 35.63C43.8001 35.6218 43.7973 35.6156 43.7953 35.6073Z" fill-rule="evenodd"/>
	</g>
</svg>
