<?xml version="1.0" encoding="utf-8" ?>
<svg xmlns="http://www.w3.org/2000/svg" xmlns:xlink="http://www.w3.org/1999/xlink" width="75" height="62">
	<defs>
		<clipPath id="clip_0">
			<rect x="-1" y="-1" width="76" height="63" clip-rule="nonzero"/>
		</clipPath>
	</defs>
	<g clip-path="url(#clip_0)">
		<path fill="rgb(98,98,98)" stroke="none" transform="matrix(0.99 0 0 0.99 -0.115051 -0.130585)" d="M0 19.6225L17.9624 0L25.6741 0C25.6741 7.45018 30.9791 13.5007 37.4961 13.5007C44.0131 13.5007 49.3056 7.45018 49.3056 0L57.0178 0L74.98 19.6225L63.9319 32.8607L57.0299 25.3295L57.0299 61.88L17.9624 61.88L17.9624 25.3295L11.0602 32.8607L0 19.6225ZM37.4961 12.7132C31.3567 12.7132 26.3633 7.01859 26.3633 0L27.4028 0C27.4028 6.36752 31.9198 11.5246 37.4961 11.5246C43.0722 11.5246 47.5772 6.36752 47.5772 0L48.6167 0C48.6167 7.01158 43.6291 12.7132 37.4961 12.7132Z" fill-rule="evenodd"/>
	</g>
	<defs>
		<clipPath id="clip_1">
			<rect x="-3" y="-3" width="80" height="67" clip-rule="nonzero"/>
		</clipPath>
	</defs>
	<g clip-path="url(#clip_1)">
		<path fill="none" stroke="rgb(213,213,213)" stroke-width="1" stroke-miterlimit="4" transform="matrix(0.99 0 0 0.99 -0.115051 -0.130585)" d="M0 19.6225L17.9624 0L25.6741 0C25.6741 7.45018 30.9791 13.5007 37.4961 13.5007C44.0131 13.5007 49.3056 7.45018 49.3056 0L57.0178 0L74.98 19.6225L63.9319 32.8607L57.0299 25.3295L57.0299 61.88L17.9624 61.88L17.9624 25.3295L11.0602 32.8607L0 19.6225ZM37.4961 12.7132C31.3567 12.7132 26.3633 7.01859 26.3633 0L27.4028 0C27.4028 6.36752 31.9198 11.5246 37.4961 11.5246C43.0722 11.5246 47.5772 6.36752 47.5772 0L48.6167 0C48.6167 7.01158 43.6291 12.7132 37.4961 12.7132Z" fill-rule="evenodd"/>
	</g>
</svg>
