<?xml version="1.0" encoding="utf-8" ?>
<svg xmlns="http://www.w3.org/2000/svg" xmlns:xlink="http://www.w3.org/1999/xlink" width="75" height="62">
	<defs>
		<clipPath id="clip_0">
			<rect width="75" height="62" clip-rule="nonzero"/>
		</clipPath>
	</defs>
	<g clip-path="url(#clip_0)">
		<path fill="rgb(98,98,98)" stroke="none" d="M56.773 9.88125L68.9425 9.88125C72.2778 9.88125 75 12.71 75 16.3137L75 55.4706C75 59.0744 72.2778 62 68.9425 62L6.05769 62C2.70433 62 0 59.0744 0 55.4706L0 16.3137C0 12.71 2.70433 9.88125 6.05769 9.88125L18.4976 9.88125L25.619 2.13125L25.619 2.11188C26.7189 0.81375 28.2873 0 30.0543 0L45.1985 0C46.8572 0 48.3173 0.73625 49.399 1.89875L49.4353 1.9375C49.4531 1.9375 49.4892 1.97625 49.4892 1.97625L56.773 9.88125ZM67.8065 20.2469C66.4185 20.2469 65.2825 19.0263 65.2825 17.515C65.2825 16.0037 66.4185 14.7831 67.8065 14.7831C69.1947 14.7831 70.3305 16.0037 70.3305 17.515C70.3305 19.0263 69.1947 20.2469 67.8065 20.2469ZM37.5 52.2156C28.3233 52.2156 20.8413 44.1556 20.8413 34.2744C20.8413 24.3737 28.3233 16.3331 37.5 16.3331C46.6947 16.3331 54.1588 24.3737 54.1588 34.2744C54.1588 44.1556 46.6947 52.2156 37.5 52.2156Z" fill-rule="evenodd"/>
	</g>
	<defs>
		<clipPath id="clip_1">
			<rect x="-2" y="-2" width="79" height="66" clip-rule="nonzero"/>
		</clipPath>
	</defs>
	<g clip-path="url(#clip_1)">
		<path fill="none" stroke="rgb(213,213,213)" stroke-width="1" stroke-miterlimit="4" d="M56.773 9.88125L68.9425 9.88125C72.2778 9.88125 75 12.71 75 16.3137L75 55.4706C75 59.0744 72.2778 62 68.9425 62L6.05769 62C2.70433 62 0 59.0744 0 55.4706L0 16.3137C0 12.71 2.70433 9.88125 6.05769 9.88125L18.4976 9.88125L25.619 2.13125L25.619 2.11188C26.7189 0.81375 28.2873 0 30.0543 0L45.1985 0C46.8572 0 48.3173 0.73625 49.399 1.89875L49.4353 1.9375C49.4531 1.9375 49.4892 1.97625 49.4892 1.97625L56.773 9.88125ZM67.8065 20.2469C66.4185 20.2469 65.2825 19.0263 65.2825 17.515C65.2825 16.0037 66.4185 14.7831 67.8065 14.7831C69.1947 14.7831 70.3305 16.0037 70.3305 17.515C70.3305 19.0263 69.1947 20.2469 67.8065 20.2469ZM37.5 52.2156C28.3233 52.2156 20.8413 44.1556 20.8413 34.2744C20.8413 24.3737 28.3233 16.3331 37.5 16.3331C46.6947 16.3331 54.1588 24.3737 54.1588 34.2744C54.1588 44.1556 46.6947 52.2156 37.5 52.2156Z" fill-rule="evenodd"/>
	</g>
	<defs>
		<clipPath id="clip_2">
			<rect x="24" y="20" width="27" height="28" clip-rule="nonzero"/>
		</clipPath>
	</defs>
	<g clip-path="url(#clip_2)">
		<path fill="rgb(98,98,98)" stroke="none" transform="translate(24.9158 20.7119)" d="M12.5841 0C5.625 0 0 6.06438 0 13.5625C0 21.0413 5.625 27.125 12.5841 27.125C19.5252 27.125 25.1683 21.0606 25.1683 13.5625C25.1683 6.06438 19.5252 0 12.5841 0"/>
	</g>
	<defs>
		<clipPath id="clip_3">
			<rect x="22" y="18" width="31" height="32" clip-rule="nonzero"/>
		</clipPath>
	</defs>
	<g clip-path="url(#clip_3)">
		<path fill="none" stroke="rgb(213,213,213)" stroke-width="1" stroke-miterlimit="4" transform="translate(24.9158 20.7119)" d="M12.5841 0C5.625 0 0 6.06438 0 13.5625C0 21.0413 5.625 27.125 12.5841 27.125C19.5252 27.125 25.1683 21.0606 25.1683 13.5625C25.1683 6.06438 19.5252 0 12.5841 0"/>
	</g>
</svg>
