<?xml version="1.0" encoding="utf-8" ?>
<svg xmlns="http://www.w3.org/2000/svg" xmlns:xlink="http://www.w3.org/1999/xlink" width="31" height="63">
	<defs>
		<clipPath id="clip_0">
			<rect y="-1" width="31" height="63" clip-rule="nonzero"/>
		</clipPath>
	</defs>
	<g clip-path="url(#clip_0)">
		<path fill="rgb(98,98,98)" stroke="none" transform="translate(0 -0.000244141)" d="M20.4083 27.3833C20.15 28.675 19.1167 29.45 18.0833 30.225L18.0833 36.1667L31 36.1667L28.4167 59.4167C28.4167 60.9667 27.3833 62 25.8333 62L5.16667 62C3.61667 62 2.58333 60.9667 2.58333 59.4167L0 36.1667L12.9167 36.1667L12.9167 29.9667C11.8833 29.45 10.85 28.4167 10.5917 27.125C8.78333 28.1583 6.2 27.9 4.65 26.35C2.84167 24.8 2.58333 22.475 3.61667 20.4083C1.55 19.6333 0 17.825 0 15.5C0 13.175 1.55 11.3667 3.61667 10.5917C2.58333 8.525 2.84167 6.2 4.65 4.65C6.2 2.84167 8.525 2.58333 10.5917 3.61667C11.3667 1.55 13.175 0 15.5 0C17.825 0 19.6333 1.55 20.6667 3.875C22.475 2.84167 25.0583 3.1 26.6083 4.65C28.1583 6.2 28.4167 8.525 27.3833 10.5917C29.45 11.3667 31 13.175 31 15.5C31 17.825 29.45 19.6333 27.125 20.6667C28.1583 22.475 27.9 25.0583 26.35 26.6083C24.8 28.1583 22.475 28.4167 20.4083 27.3833ZM10.075 24.5417L10.3333 24.2833L12.9167 21.7L12.9167 25.8333C12.9167 27.3833 13.95 28.4167 15.5 28.4167C17.05 28.4167 18.0833 27.3833 18.0833 25.8333L18.0833 21.7L20.925 24.5417C21.9583 25.575 23.5083 25.575 24.5417 24.5417C25.575 23.5083 25.575 21.9583 24.5417 20.925L21.7 18.0833L25.8333 18.0833C27.3833 18.0833 28.4167 17.05 28.4167 15.5C28.4167 13.95 27.3833 12.9167 25.8333 12.9167L21.7 12.9167L24.2833 10.3333L24.5417 10.075C25.575 9.04167 25.575 7.49167 24.5417 6.45833C23.5083 5.425 21.9583 5.425 20.925 6.45833L20.6667 6.71667L18.0833 9.3L18.0833 5.16667C18.0833 3.61667 17.05 2.58333 15.5 2.58333C13.95 2.58333 12.9167 3.61667 12.9167 5.16667L12.9167 9.3L10.3333 6.71667L10.075 6.45833C9.04167 5.425 7.49167 5.425 6.45833 6.45833C5.425 7.49167 5.425 9.04167 6.45833 10.075L6.71667 10.3333L9.3 12.9167L5.16667 12.9167C3.61667 12.9167 2.58333 13.95 2.58333 15.5C2.58333 17.05 3.61667 18.0833 5.16667 18.0833L9.3 18.0833L6.71667 20.6667L6.45833 20.925C5.425 21.9583 5.425 23.5083 6.45833 24.5417C7.49167 25.575 9.04167 25.575 10.075 24.5417ZM25.0583 43.9167L25.3167 41.3333L5.68333 41.3333L5.94167 43.9167L25.0583 43.9167ZM23.7667 56.8333L7.23333 56.8333L6.45833 46.5L25.0583 46.5L23.7667 56.8333Z" fill-rule="evenodd"/>
	</g>
	<defs>
		<clipPath id="clip_1">
			<rect x="-2" y="-3" width="35" height="67" clip-rule="nonzero"/>
		</clipPath>
	</defs>
	<g clip-path="url(#clip_1)">
		<path fill="none" stroke="rgb(213,213,213)" stroke-width="1" stroke-miterlimit="4" transform="translate(0 -0.000244141)" d="M20.4083 27.3833C20.15 28.675 19.1167 29.45 18.0833 30.225L18.0833 36.1667L31 36.1667L28.4167 59.4167C28.4167 60.9667 27.3833 62 25.8333 62L5.16667 62C3.61667 62 2.58333 60.9667 2.58333 59.4167L0 36.1667L12.9167 36.1667L12.9167 29.9667C11.8833 29.45 10.85 28.4167 10.5917 27.125C8.78333 28.1583 6.2 27.9 4.65 26.35C2.84167 24.8 2.58333 22.475 3.61667 20.4083C1.55 19.6333 0 17.825 0 15.5C0 13.175 1.55 11.3667 3.61667 10.5917C2.58333 8.525 2.84167 6.2 4.65 4.65C6.2 2.84167 8.525 2.58333 10.5917 3.61667C11.3667 1.55 13.175 0 15.5 0C17.825 0 19.6333 1.55 20.6667 3.875C22.475 2.84167 25.0583 3.1 26.6083 4.65C28.1583 6.2 28.4167 8.525 27.3833 10.5917C29.45 11.3667 31 13.175 31 15.5C31 17.825 29.45 19.6333 27.125 20.6667C28.1583 22.475 27.9 25.0583 26.35 26.6083C24.8 28.1583 22.475 28.4167 20.4083 27.3833ZM10.075 24.5417L10.3333 24.2833L12.9167 21.7L12.9167 25.8333C12.9167 27.3833 13.95 28.4167 15.5 28.4167C17.05 28.4167 18.0833 27.3833 18.0833 25.8333L18.0833 21.7L20.925 24.5417C21.9583 25.575 23.5083 25.575 24.5417 24.5417C25.575 23.5083 25.575 21.9583 24.5417 20.925L21.7 18.0833L25.8333 18.0833C27.3833 18.0833 28.4167 17.05 28.4167 15.5C28.4167 13.95 27.3833 12.9167 25.8333 12.9167L21.7 12.9167L24.2833 10.3333L24.5417 10.075C25.575 9.04167 25.575 7.49167 24.5417 6.45833C23.5083 5.425 21.9583 5.425 20.925 6.45833L20.6667 6.71667L18.0833 9.3L18.0833 5.16667C18.0833 3.61667 17.05 2.58333 15.5 2.58333C13.95 2.58333 12.9167 3.61667 12.9167 5.16667L12.9167 9.3L10.3333 6.71667L10.075 6.45833C9.04167 5.425 7.49167 5.425 6.45833 6.45833C5.425 7.49167 5.425 9.04167 6.45833 10.075L6.71667 10.3333L9.3 12.9167L5.16667 12.9167C3.61667 12.9167 2.58333 13.95 2.58333 15.5C2.58333 17.05 3.61667 18.0833 5.16667 18.0833L9.3 18.0833L6.71667 20.6667L6.45833 20.925C5.425 21.9583 5.425 23.5083 6.45833 24.5417C7.49167 25.575 9.04167 25.575 10.075 24.5417ZM25.0583 43.9167L25.3167 41.3333L5.68333 41.3333L5.94167 43.9167L25.0583 43.9167ZM23.7667 56.8333L7.23333 56.8333L6.45833 46.5L25.0583 46.5L23.7667 56.8333Z" fill-rule="evenodd"/>
	</g>
	<defs>
		<clipPath id="clip_2">
			<rect x="10" y="10" width="11" height="11" clip-rule="nonzero"/>
		</clipPath>
	</defs>
	<g clip-path="url(#clip_2)">
		<path fill="rgb(98,98,98)" stroke="none" transform="translate(10.3334 10.3333)" d="M5.16667 0C8.00833 0 10.3333 2.325 10.3333 5.16667C10.3333 8.00833 8.00833 10.3333 5.16667 10.3333C2.325 10.3333 0 8.00833 0 5.16667C0 2.325 2.325 0 5.16667 0ZM5.16667 2.58333C3.61667 2.58333 2.58333 3.61667 2.58333 5.16667C2.58333 6.71667 3.61667 7.75 5.16667 7.75C6.71667 7.75 7.75 6.71667 7.75 5.16667C7.75 3.61667 6.71667 2.58333 5.16667 2.58333Z" fill-rule="evenodd"/>
	</g>
	<defs>
		<clipPath id="clip_3">
			<rect x="8" y="8" width="15" height="15" clip-rule="nonzero"/>
		</clipPath>
	</defs>
	<g clip-path="url(#clip_3)">
		<path fill="none" stroke="rgb(213,213,213)" stroke-width="1" stroke-miterlimit="4" transform="translate(10.3334 10.3333)" d="M5.16667 0C8.00833 0 10.3333 2.325 10.3333 5.16667C10.3333 8.00833 8.00833 10.3333 5.16667 10.3333C2.325 10.3333 0 8.00833 0 5.16667C0 2.325 2.325 0 5.16667 0ZM5.16667 2.58333C3.61667 2.58333 2.58333 3.61667 2.58333 5.16667C2.58333 6.71667 3.61667 7.75 5.16667 7.75C6.71667 7.75 7.75 6.71667 7.75 5.16667C7.75 3.61667 6.71667 2.58333 5.16667 2.58333Z" fill-rule="evenodd"/>
	</g>
</svg>
