<?xml version="1.0" encoding="utf-8" ?>
<svg xmlns="http://www.w3.org/2000/svg" xmlns:xlink="http://www.w3.org/1999/xlink" width="54" height="53">
	<defs>
		<clipPath id="clip_0">
			<rect width="54" height="53" clip-rule="nonzero"/>
		</clipPath>
	</defs>
	<g clip-path="url(#clip_0)">
		<path fill="rgb(98,98,98)" stroke="none" transform="translate(0.532684 0.900391)" d="M48.8517 38.7479L44.6773 43.9765L38.4172 41.7766L31.8097 44.9574L29.6289 51.2198L22.9375 51.2198L20.7567 44.9574L14.1492 41.7766L7.88915 43.9765L3.7147 38.7479L7.25688 33.1377L5.62128 25.9938L0 22.473L1.48832 15.9528L8.08689 15.22L12.6576 9.48954L11.9009 2.90103L17.9306 0L22.6161 4.69516L29.9487 4.69516L34.6342 0L40.6647 2.90021L39.908 9.48873L44.4787 15.2192L51.0773 15.952L52.5656 22.4722L46.9427 25.9929L45.3104 33.1377L48.8517 38.7479ZM14.0776 25.4822C14.0776 18.7424 19.541 13.2828 26.2836 13.2828C33.0262 13.2828 38.4896 18.7424 38.4896 25.4822C38.4896 32.222 33.0262 37.6816 26.2836 37.6816C19.541 37.6816 14.0776 32.222 14.0776 25.4822ZM17.7394 25.4822C17.7394 30.1912 21.5721 34.0218 26.2836 34.0218C30.9951 34.0218 34.8278 30.1912 34.8278 25.4822C34.8278 20.7732 30.9951 16.9426 26.2836 16.9426C21.5721 16.9426 17.7394 20.7732 17.7394 25.4822Z" fill-rule="evenodd"/>
	</g>
	<defs>
		<clipPath id="clip_1">
			<rect x="-2" y="-2" width="58" height="57" clip-rule="nonzero"/>
		</clipPath>
	</defs>
	<g clip-path="url(#clip_1)">
		<path fill="none" stroke="rgb(213,213,213)" stroke-width="1" stroke-miterlimit="4" transform="translate(0.532684 0.900391)" d="M48.8517 38.7479L44.6773 43.9765L38.4172 41.7766L31.8097 44.9574L29.6289 51.2198L22.9375 51.2198L20.7567 44.9574L14.1492 41.7766L7.88915 43.9765L3.7147 38.7479L7.25688 33.1377L5.62128 25.9938L0 22.473L1.48832 15.9528L8.08689 15.22L12.6576 9.48954L11.9009 2.90103L17.9306 0L22.6161 4.69516L29.9487 4.69516L34.6342 0L40.6647 2.90021L39.908 9.48873L44.4787 15.2192L51.0773 15.952L52.5656 22.4722L46.9427 25.9929L45.3104 33.1377L48.8517 38.7479ZM14.0776 25.4822C14.0776 18.7424 19.541 13.2828 26.2836 13.2828C33.0262 13.2828 38.4896 18.7424 38.4896 25.4822C38.4896 32.222 33.0262 37.6816 26.2836 37.6816C19.541 37.6816 14.0776 32.222 14.0776 25.4822ZM17.7394 25.4822C17.7394 30.1912 21.5721 34.0218 26.2836 34.0218C30.9951 34.0218 34.8278 30.1912 34.8278 25.4822C34.8278 20.7732 30.9951 16.9426 26.2836 16.9426C21.5721 16.9426 17.7394 20.7732 17.7394 25.4822Z" fill-rule="evenodd"/>
	</g>
</svg>
