<?xml version="1.0" encoding="utf-8" ?>
<svg xmlns="http://www.w3.org/2000/svg" xmlns:xlink="http://www.w3.org/1999/xlink" width="62" height="61">
	<defs>
		<clipPath id="clip_0">
			<rect width="62" height="60" clip-rule="nonzero"/>
		</clipPath>
	</defs>
	<g clip-path="url(#clip_0)">
		<path fill="rgb(98,98,98)" stroke="none" transform="matrix(0.99 0 0 0.99 0.309998 0.0871582)" d="M45.9833 5.22952C45.9833 8.13481 43.9167 10.459 41.3333 10.459C38.75 10.459 36.6833 8.13481 36.6833 5.22952C36.6833 2.32423 38.75 0 41.3333 0C43.9167 0 45.9833 2.32423 45.9833 5.22952ZM49.0833 25.5665L38.2333 25.5665L33.8417 18.3033L27.9 24.9855L33.5833 29.9245L33.5833 48.8088L28.9333 48.8088L28.9333 34.2824L20.15 28.4718C18.8583 27.6002 18.0833 25.8571 18.0833 24.1139C18.0833 22.6612 18.6 21.4991 19.375 20.6275L28.9333 9.87798C29.7083 9.00639 30.7417 8.42534 32.0333 8.42534C33.8417 8.42534 35.1333 9.29692 35.9083 10.7496L40.8167 20.337L49.0833 20.337L49.0833 25.5665ZM12.9167 31.3771C5.68333 31.3771 0 37.7687 0 45.9036C0 54.0384 5.68333 60.43 12.9167 60.43C20.15 60.43 25.8333 54.0384 25.8333 45.9036C25.8333 37.7687 20.15 31.3771 12.9167 31.3771ZM36.1667 45.9036C36.1667 37.7687 41.85 31.3771 49.0833 31.3771C56.3167 31.3771 62 37.7687 62 45.9036C62 54.0384 56.3167 60.43 49.0833 60.43C41.85 60.43 36.1667 54.0384 36.1667 45.9036ZM3.875 45.9036C3.875 51.4236 8.00833 56.0721 12.9167 56.0721C17.825 56.0721 21.9583 51.4236 21.9583 45.9036C21.9583 40.3835 17.825 35.7351 12.9167 35.7351C8.00833 35.7351 3.875 40.3835 3.875 45.9036ZM49.0833 56.0721C44.175 56.0721 40.0417 51.4236 40.0417 45.9036C40.0417 40.3835 44.175 35.7351 49.0833 35.7351C53.9917 35.7351 58.125 40.3835 58.125 45.9036C58.125 51.4236 53.9917 56.0721 49.0833 56.0721Z" fill-rule="evenodd"/>
	</g>
	<defs>
		<clipPath id="clip_1">
			<rect x="-2" y="-2" width="66" height="64" clip-rule="nonzero"/>
		</clipPath>
	</defs>
	<g clip-path="url(#clip_1)">
		<path fill="none" stroke="rgb(213,213,213)" stroke-width="1" stroke-miterlimit="4" transform="matrix(0.99 0 0 0.99 0.309998 0.0871582)" d="M45.9833 5.22952C45.9833 8.13481 43.9167 10.459 41.3333 10.459C38.75 10.459 36.6833 8.13481 36.6833 5.22952C36.6833 2.32423 38.75 0 41.3333 0C43.9167 0 45.9833 2.32423 45.9833 5.22952ZM49.0833 25.5665L38.2333 25.5665L33.8417 18.3033L27.9 24.9855L33.5833 29.9245L33.5833 48.8088L28.9333 48.8088L28.9333 34.2824L20.15 28.4718C18.8583 27.6002 18.0833 25.8571 18.0833 24.1139C18.0833 22.6612 18.6 21.4991 19.375 20.6275L28.9333 9.87798C29.7083 9.00639 30.7417 8.42534 32.0333 8.42534C33.8417 8.42534 35.1333 9.29692 35.9083 10.7496L40.8167 20.337L49.0833 20.337L49.0833 25.5665ZM12.9167 31.3771C5.68333 31.3771 0 37.7687 0 45.9036C0 54.0384 5.68333 60.43 12.9167 60.43C20.15 60.43 25.8333 54.0384 25.8333 45.9036C25.8333 37.7687 20.15 31.3771 12.9167 31.3771ZM36.1667 45.9036C36.1667 37.7687 41.85 31.3771 49.0833 31.3771C56.3167 31.3771 62 37.7687 62 45.9036C62 54.0384 56.3167 60.43 49.0833 60.43C41.85 60.43 36.1667 54.0384 36.1667 45.9036ZM3.875 45.9036C3.875 51.4236 8.00833 56.0721 12.9167 56.0721C17.825 56.0721 21.9583 51.4236 21.9583 45.9036C21.9583 40.3835 17.825 35.7351 12.9167 35.7351C8.00833 35.7351 3.875 40.3835 3.875 45.9036ZM49.0833 56.0721C44.175 56.0721 40.0417 51.4236 40.0417 45.9036C40.0417 40.3835 44.175 35.7351 49.0833 35.7351C53.9917 35.7351 58.125 40.3835 58.125 45.9036C58.125 51.4236 53.9917 56.0721 49.0833 56.0721Z" fill-rule="evenodd"/>
	</g>
</svg>
