<?xml version="1.0" encoding="utf-8" ?>
<svg xmlns="http://www.w3.org/2000/svg" xmlns:xlink="http://www.w3.org/1999/xlink" width="48" height="62">
	<defs>
		<clipPath id="clip_0">
			<rect width="48" height="62" clip-rule="nonzero"/>
		</clipPath>
	</defs>
	<g clip-path="url(#clip_0)">
		<path fill="rgb(98,98,98)" stroke="none" d="M47.8898 2.37565L47.8871 2.37565C47.8871 2.35513 47.8898 2.33592 47.8898 2.31539C47.8898 1.03654 46.8532 0 45.5739 0C45.553 0 45.5333 0.00174648 45.5128 0.00261972L45.5128 0L2.37652 0L2.37652 0.00261972C2.35644 0.00174648 2.33679 0 2.31583 0C1.03654 0 0 1.03654 0 2.31583C0 2.33635 0.00261972 2.35556 0.00305634 2.37608L0 2.37608L0 59.365L0.062 59.365C0.0615634 59.3873 0.0576338 59.4065 0.0576338 59.4279C0.0576338 60.7041 1.09199 61.738 2.3691 61.738C2.38918 61.738 2.40927 61.7354 2.42935 61.7345L2.42935 61.738L45.4622 61.738L45.4622 61.7345C45.4831 61.7354 45.5023 61.738 45.5237 61.738C46.8 61.738 47.8352 60.7041 47.8352 59.4279C47.8352 59.4065 47.8317 59.3873 47.8304 59.365L47.8919 59.365L47.8898 2.37565ZM4.91808 56.2567L42.9717 56.2567L42.9708 5.65554L4.91808 5.65554L4.91808 56.2567ZM22.4383 59.1432C22.4383 58.3119 23.112 57.639 23.9438 57.639C24.776 57.639 25.4501 58.3123 25.4501 59.1432C25.4501 59.9776 24.7764 60.6508 23.9438 60.6508C23.1129 60.6508 22.4383 59.9767 22.4383 59.1432Z" fill-rule="evenodd"/>
	</g>
	<defs>
		<clipPath id="clip_1">
			<rect x="-2" y="-2" width="52" height="66" clip-rule="nonzero"/>
		</clipPath>
	</defs>
	<g clip-path="url(#clip_1)">
		<path fill="none" stroke="rgb(213,213,213)" stroke-width="1" stroke-miterlimit="4" d="M47.8898 2.37565L47.8871 2.37565C47.8871 2.35513 47.8898 2.33592 47.8898 2.31539C47.8898 1.03654 46.8532 0 45.5739 0C45.553 0 45.5333 0.00174648 45.5128 0.00261972L45.5128 0L2.37652 0L2.37652 0.00261972C2.35644 0.00174648 2.33679 0 2.31583 0C1.03654 0 0 1.03654 0 2.31583C0 2.33635 0.00261972 2.35556 0.00305634 2.37608L0 2.37608L0 59.365L0.062 59.365C0.0615634 59.3873 0.0576338 59.4065 0.0576338 59.4279C0.0576338 60.7041 1.09199 61.738 2.3691 61.738C2.38918 61.738 2.40927 61.7354 2.42935 61.7345L2.42935 61.738L45.4622 61.738L45.4622 61.7345C45.4831 61.7354 45.5023 61.738 45.5237 61.738C46.8 61.738 47.8352 60.7041 47.8352 59.4279C47.8352 59.4065 47.8317 59.3873 47.8304 59.365L47.8919 59.365L47.8898 2.37565ZM4.91808 56.2567L42.9717 56.2567L42.9708 5.65554L4.91808 5.65554L4.91808 56.2567ZM22.4383 59.1432C22.4383 58.3119 23.112 57.639 23.9438 57.639C24.776 57.639 25.4501 58.3123 25.4501 59.1432C25.4501 59.9776 24.7764 60.6508 23.9438 60.6508C23.1129 60.6508 22.4383 59.9767 22.4383 59.1432Z" fill-rule="evenodd"/>
	</g>
</svg>
