<?xml version="1.0" encoding="utf-8" ?>
<svg xmlns="http://www.w3.org/2000/svg" xmlns:xlink="http://www.w3.org/1999/xlink" width="39" height="62">
	<defs>
		<clipPath id="clip_0">
			<rect width="39" height="62" clip-rule="nonzero"/>
		</clipPath>
	</defs>
	<g clip-path="url(#clip_0)">
		<path fill="rgb(98,98,98)" stroke="none" d="M0 62L39 62L39 0L0 0L0 62ZM7.3125 34.8731L31.6875 34.8731L31.6875 7.75L7.3125 7.75L7.3125 34.8731ZM12.1899 42.625L7.3125 42.625L7.3125 38.75L12.1899 38.75L12.1899 42.625ZM17.0625 42.625L21.9375 42.625L21.9375 38.75L17.0625 38.75L17.0625 42.625ZM31.6875 42.625L26.8125 42.625L26.8125 38.75L31.6875 38.75L31.6875 42.625ZM7.3125 50.375L12.1899 50.375L12.1899 46.5L7.3125 46.5L7.3125 50.375ZM21.9375 50.375L17.0625 50.375L17.0625 46.5L21.9375 46.5L21.9375 50.375ZM26.8125 50.375L31.6875 50.375L31.6875 46.5L26.8125 46.5L26.8125 50.375ZM12.1899 58.1269L7.3125 58.1269L7.3125 54.2481L12.1899 54.2481L12.1899 58.1269ZM21.9375 58.125L17.0625 58.125L17.0625 54.25L21.9375 54.25L21.9375 58.125ZM26.8125 58.125L31.6875 58.125L31.6875 54.25L26.8125 54.25L26.8125 58.125Z" fill-rule="evenodd"/>
	</g>
	<defs>
		<clipPath id="clip_1">
			<rect x="-2" y="-2" width="43" height="66" clip-rule="nonzero"/>
		</clipPath>
	</defs>
	<g clip-path="url(#clip_1)">
		<path fill="none" stroke="rgb(213,213,213)" stroke-width="1" stroke-miterlimit="4" d="M0 62L39 62L39 0L0 0L0 62ZM7.3125 34.8731L31.6875 34.8731L31.6875 7.75L7.3125 7.75L7.3125 34.8731ZM12.1899 42.625L7.3125 42.625L7.3125 38.75L12.1899 38.75L12.1899 42.625ZM17.0625 42.625L21.9375 42.625L21.9375 38.75L17.0625 38.75L17.0625 42.625ZM31.6875 42.625L26.8125 42.625L26.8125 38.75L31.6875 38.75L31.6875 42.625ZM7.3125 50.375L12.1899 50.375L12.1899 46.5L7.3125 46.5L7.3125 50.375ZM21.9375 50.375L17.0625 50.375L17.0625 46.5L21.9375 46.5L21.9375 50.375ZM26.8125 50.375L31.6875 50.375L31.6875 46.5L26.8125 46.5L26.8125 50.375ZM12.1899 58.1269L7.3125 58.1269L7.3125 54.2481L12.1899 54.2481L12.1899 58.1269ZM21.9375 58.125L17.0625 58.125L17.0625 54.25L21.9375 54.25L21.9375 58.125ZM26.8125 58.125L31.6875 58.125L31.6875 54.25L26.8125 54.25L26.8125 58.125Z" fill-rule="evenodd"/>
	</g>
</svg>
