<?xml version="1.0" encoding="utf-8" ?>
<svg xmlns="http://www.w3.org/2000/svg" xmlns:xlink="http://www.w3.org/1999/xlink" width="101" height="63">
	<defs>
		<clipPath id="clip_0">
			<rect x="-1" width="68" height="53" clip-rule="nonzero"/>
		</clipPath>
	</defs>
	<g clip-path="url(#clip_0)">
		<path fill="rgb(98,98,98)" stroke="none" transform="translate(-6.10352e-05 0.281738)" d="M1.51382 0L65.2594 0C66.0951 0 66.7729 0.704545 66.7729 1.57395L66.7729 50.5548C66.7729 51.4242 66.0951 52.129 65.2594 52.129L32.5087 52.129C32.4458 49.3269 31.3556 46.6736 29.4447 44.6865C27.4756 42.6388 24.826 41.4972 22.0412 41.4972C19.2558 41.4972 16.6062 42.6388 14.6371 44.6865C12.7266 46.6736 11.636 49.3272 11.5732 52.129L1.51382 52.129C0.677778 52.129 0 51.4242 0 50.5548L0 1.57395C0 0.704545 0.677778 0 1.51382 0Z"/>
	</g>
	<defs>
		<clipPath id="clip_1">
			<rect x="-3" y="-2" width="72" height="57" clip-rule="nonzero"/>
		</clipPath>
	</defs>
	<g clip-path="url(#clip_1)">
		<path fill="none" stroke="rgb(213,213,213)" stroke-width="1" stroke-miterlimit="4" transform="translate(-6.10352e-05 0.281738)" d="M1.51382 0L65.2594 0C66.0951 0 66.7729 0.704545 66.7729 1.57395L66.7729 50.5548C66.7729 51.4242 66.0951 52.129 65.2594 52.129L32.5087 52.129C32.4458 49.3269 31.3556 46.6736 29.4447 44.6865C27.4756 42.6388 24.826 41.4972 22.0412 41.4972C19.2558 41.4972 16.6062 42.6388 14.6371 44.6865C12.7266 46.6736 11.636 49.3272 11.5732 52.129L1.51382 52.129C0.677778 52.129 0 51.4242 0 50.5548L0 1.57395C0 0.704545 0.677778 0 1.51382 0Z"/>
	</g>
	<defs>
		<clipPath id="clip_2">
			<rect x="-354" y="-100" width="8254" height="1139" clip-rule="evenodd"/>
		</clipPath>
	</defs>
	<g clip-path="url(#clip_2)">
		<path fill="rgb(98,98,98)" stroke="none" transform="translate(12.299 23.8835)" d="M0.75664 0C0.338753 0 3.55271e-15 0.352555 3.55271e-15 0.787118C3.55271e-15 1.22168 0.338753 1.57424 0.75664 1.57424L40.1751 1.57424C40.5932 1.57424 40.932 1.22168 40.932 0.787118C40.932 0.352555 40.5932 0 40.1751 0L0.75664 0Z"/>
	</g>
	<defs>
		<clipPath id="clip_3">
			<rect x="-354" y="-100" width="8254" height="1139" clip-rule="evenodd"/>
		</clipPath>
	</defs>
	<g clip-path="url(#clip_3)">
		<path fill="none" stroke="rgb(213,213,213)" stroke-width="1" stroke-miterlimit="4" transform="translate(12.299 23.8835)" d="M0.75664 0C0.338753 0 3.55271e-15 0.352555 3.55271e-15 0.787118C3.55271e-15 1.22168 0.338753 1.57424 0.75664 1.57424L40.1751 1.57424C40.5932 1.57424 40.932 1.22168 40.932 0.787118C40.932 0.352555 40.5932 0 40.1751 0L0.75664 0Z"/>
	</g>
	<defs>
		<clipPath id="clip_4">
			<rect x="-354" y="-100" width="8254" height="1139" clip-rule="evenodd"/>
		</clipPath>
	</defs>
	<g clip-path="url(#clip_4)">
		<path fill="rgb(98,98,98)" stroke="none" transform="translate(12.299 11.8835)" d="M0.75664 0C0.338753 0 3.55271e-15 0.352555 3.55271e-15 0.787118C3.55271e-15 1.22168 0.338753 1.57424 0.75664 1.57424L40.1751 1.57424C40.5932 1.57424 40.932 1.22168 40.932 0.787118C40.932 0.352555 40.5932 0 40.1751 0L0.75664 0Z"/>
	</g>
	<defs>
		<clipPath id="clip_5">
			<rect x="-354" y="-100" width="8254" height="1139" clip-rule="evenodd"/>
		</clipPath>
	</defs>
	<g clip-path="url(#clip_5)">
		<path fill="none" stroke="rgb(213,213,213)" stroke-width="1" stroke-miterlimit="4" transform="translate(12.299 11.8835)" d="M0.75664 0C0.338753 0 3.55271e-15 0.352555 3.55271e-15 0.787118C3.55271e-15 1.22168 0.338753 1.57424 0.75664 1.57424L40.1751 1.57424C40.5932 1.57424 40.932 1.22168 40.932 0.787118C40.932 0.352555 40.5932 0 40.1751 0L0.75664 0Z"/>
	</g>
	<defs>
		<clipPath id="clip_6">
			<rect x="13" y="43" width="18" height="19" clip-rule="nonzero"/>
		</clipPath>
	</defs>
	<g clip-path="url(#clip_6)">
		<path fill="rgb(98,98,98)" stroke="none" transform="translate(13.0839 43.3528)" d="M8.95718 0C11.4304 0 13.6696 1.04273 15.2905 2.72828C16.9114 4.41384 17.9141 6.7425 17.9141 9.31465C17.9141 11.8865 16.9114 14.2155 15.2905 15.9007C13.6696 17.5866 11.4304 18.629 8.95718 18.629C6.48374 18.629 4.24444 17.5866 2.62358 15.9007C1.00271 14.2155 0 11.8865 0 9.31465C0 6.7425 1.00271 4.41384 2.62358 2.72828C4.24444 1.04245 6.48374 0 8.95718 0ZM8.95718 11.7115C10.2301 11.7115 11.2621 10.6384 11.2621 9.31465C11.2621 7.99067 10.2301 6.91751 8.95718 6.91751C7.68401 6.91751 6.65203 7.99067 6.65203 9.31465C6.65203 10.6384 7.68401 11.7115 8.95718 11.7115Z" fill-rule="evenodd"/>
	</g>
	<defs>
		<clipPath id="clip_7">
			<rect x="11" y="41" width="22" height="23" clip-rule="nonzero"/>
		</clipPath>
	</defs>
	<g clip-path="url(#clip_7)">
		<path fill="none" stroke="rgb(213,213,213)" stroke-width="1" stroke-miterlimit="4" transform="translate(13.0839 43.3528)" d="M8.95718 0C11.4304 0 13.6696 1.04273 15.2905 2.72828C16.9114 4.41384 17.9141 6.7425 17.9141 9.31465C17.9141 11.8865 16.9114 14.2155 15.2905 15.9007C13.6696 17.5866 11.4304 18.629 8.95718 18.629C6.48374 18.629 4.24444 17.5866 2.62358 15.9007C1.00271 14.2155 0 11.8865 0 9.31465C0 6.7425 1.00271 4.41384 2.62358 2.72828C4.24444 1.04245 6.48374 0 8.95718 0ZM8.95718 11.7115C10.2301 11.7115 11.2621 10.6384 11.2621 9.31465C11.2621 7.99067 10.2301 6.91751 8.95718 6.91751C7.68401 6.91751 6.65203 7.99067 6.65203 9.31465C6.65203 10.6384 7.68401 11.7115 8.95718 11.7115Z" fill-rule="evenodd"/>
	</g>
	<defs>
		<clipPath id="clip_8">
			<rect x="74" y="43" width="19" height="19" clip-rule="nonzero"/>
		</clipPath>
	</defs>
	<g clip-path="url(#clip_8)">
		<path fill="rgb(98,98,98)" stroke="none" transform="translate(74.3804 43.3528)" d="M2.62385 15.9007C1.00298 14.2155 0 11.8868 0 9.31465C0 6.74278 1.00298 4.41384 2.62385 2.72856C4.24472 1.04273 6.48401 0 8.95718 0C11.4306 0 13.6699 1.04273 15.2908 2.72856C16.9119 4.41384 17.9144 6.74278 17.9144 9.31465C17.9144 11.8868 16.9119 14.2155 15.2908 15.9007C13.6699 17.5866 11.4306 18.6293 8.95718 18.6293C6.48401 18.6293 4.24472 17.5866 2.62385 15.9007ZM8.95718 11.7118C10.2304 11.7118 11.2623 10.6384 11.2623 9.31465C11.2623 7.99095 10.2304 6.91751 8.95718 6.91751C7.68428 6.91751 6.6523 7.99095 6.6523 9.31465C6.6523 10.6384 7.68428 11.7118 8.95718 11.7118Z" fill-rule="evenodd"/>
	</g>
	<defs>
		<clipPath id="clip_9">
			<rect x="72" y="41" width="23" height="23" clip-rule="nonzero"/>
		</clipPath>
	</defs>
	<g clip-path="url(#clip_9)">
		<path fill="none" stroke="rgb(213,213,213)" stroke-width="1" stroke-miterlimit="4" transform="translate(74.3804 43.3528)" d="M2.62385 15.9007C1.00298 14.2155 0 11.8868 0 9.31465C0 6.74278 1.00298 4.41384 2.62385 2.72856C4.24472 1.04273 6.48401 0 8.95718 0C11.4306 0 13.6699 1.04273 15.2908 2.72856C16.9119 4.41384 17.9144 6.74278 17.9144 9.31465C17.9144 11.8868 16.9119 14.2155 15.2908 15.9007C13.6699 17.5866 11.4306 18.6293 8.95718 18.6293C6.48401 18.6293 4.24472 17.5866 2.62385 15.9007ZM8.95718 11.7118C10.2304 11.7118 11.2623 10.6384 11.2623 9.31465C11.2623 7.99095 10.2304 6.91751 8.95718 6.91751C7.68428 6.91751 6.6523 7.99095 6.6523 9.31465C6.6523 10.6384 7.68428 11.7118 8.95718 11.7118Z" fill-rule="evenodd"/>
	</g>
	<defs>
		<clipPath id="clip_10">
			<rect x="67" y="11" width="33" height="42" clip-rule="nonzero"/>
		</clipPath>
	</defs>
	<g clip-path="url(#clip_10)">
		<path fill="rgb(98,98,98)" stroke="none" transform="translate(67.9083 11.6985)" d="M22.8333 33.2695C20.8642 31.2221 18.2146 30.0804 15.4293 30.0804C12.6444 30.0804 9.99485 31.2221 8.02575 33.2695C6.1149 35.2566 5.02466 37.9102 4.96179 40.712L0.37832 40.712C0.247696 40.712 0.120867 40.6951 0 40.6627C0.24065 40.2107 0.37832 39.691 0.37832 39.1381L0.37832 0L17.806 0C21.7274 0 25.287 1.78391 27.8631 4.65789C30.4122 7.50144 31.994 11.4159 31.994 15.7142L31.994 39.1381C31.994 40.0072 31.3165 40.712 30.4805 40.712L25.897 40.712C25.8344 37.9102 24.7439 35.2566 22.8333 33.2695ZM23.2591 22.7878L23.2591 13.9669C23.2591 11.0383 21.1114 8.64195 18.4862 8.64195L11.9233 8.64195L11.9233 22.7878L23.2591 22.7878Z" fill-rule="evenodd"/>
	</g>
	<defs>
		<clipPath id="clip_11">
			<rect x="65" y="9" width="36" height="46" clip-rule="nonzero"/>
		</clipPath>
	</defs>
	<g clip-path="url(#clip_11)">
		<path fill="none" stroke="rgb(213,213,213)" stroke-width="1" stroke-miterlimit="4" transform="translate(67.9083 11.6985)" d="M22.8333 33.2695C20.8642 31.2221 18.2146 30.0804 15.4293 30.0804C12.6444 30.0804 9.99485 31.2221 8.02575 33.2695C6.1149 35.2566 5.02466 37.9102 4.96179 40.712L0.37832 40.712C0.247696 40.712 0.120867 40.6951 0 40.6627C0.24065 40.2107 0.37832 39.691 0.37832 39.1381L0.37832 0L17.806 0C21.7274 0 25.287 1.78391 27.8631 4.65789C30.4122 7.50144 31.994 11.4159 31.994 15.7142L31.994 39.1381C31.994 40.0072 31.3165 40.712 30.4805 40.712L25.897 40.712C25.8344 37.9102 24.7439 35.2566 22.8333 33.2695ZM23.2591 22.7878L23.2591 13.9669C23.2591 11.0383 21.1114 8.64195 18.4862 8.64195L11.9233 8.64195L11.9233 22.7878L23.2591 22.7878Z" fill-rule="evenodd"/>
	</g>
</svg>
