<?xml version="1.0" encoding="utf-8" ?>
<svg xmlns="http://www.w3.org/2000/svg" xmlns:xlink="http://www.w3.org/1999/xlink" width="42" height="62">
	<defs>
		<clipPath id="clip_0">
			<rect width="42" height="62" clip-rule="nonzero"/>
		</clipPath>
	</defs>
	<g clip-path="url(#clip_0)">
		<path fill="rgb(98,98,98)" stroke="none" d="M33.5833 14.725C38.2333 18.6 41.3333 24.5417 41.3333 31C41.3333 37.4583 38.2333 43.4 33.5833 47.275L31 62L10.3333 62L7.75 47.275C3.1 43.4 0 37.4583 0 31C0 24.5417 3.1 18.6 7.75 14.725L10.3333 0L31 0L33.5833 14.725ZM20.6667 15.5C12.1417 15.5 5.16667 22.475 5.16667 31C5.16667 39.525 12.1417 46.5 20.6667 46.5C29.1917 46.5 36.1667 39.525 36.1667 31C36.1667 22.475 29.1917 15.5 20.6667 15.5Z" fill-rule="evenodd"/>
	</g>
	<defs>
		<clipPath id="clip_1">
			<rect x="-2" y="-2" width="46" height="66" clip-rule="nonzero"/>
		</clipPath>
	</defs>
	<g clip-path="url(#clip_1)">
		<path fill="none" stroke="rgb(213,213,213)" stroke-width="1" stroke-miterlimit="4" d="M33.5833 14.725C38.2333 18.6 41.3333 24.5417 41.3333 31C41.3333 37.4583 38.2333 43.4 33.5833 47.275L31 62L10.3333 62L7.75 47.275C3.1 43.4 0 37.4583 0 31C0 24.5417 3.1 18.6 7.75 14.725L10.3333 0L31 0L33.5833 14.725ZM20.6667 15.5C12.1417 15.5 5.16667 22.475 5.16667 31C5.16667 39.525 12.1417 46.5 20.6667 46.5C29.1917 46.5 36.1667 39.525 36.1667 31C36.1667 22.475 29.1917 15.5 20.6667 15.5Z" fill-rule="evenodd"/>
	</g>
</svg>
