<?xml version="1.0" encoding="utf-8" ?>
<svg xmlns="http://www.w3.org/2000/svg" xmlns:xlink="http://www.w3.org/1999/xlink" width="69" height="62">
	<defs>
		<clipPath id="clip_0">
			<rect width="68" height="62" clip-rule="nonzero"/>
		</clipPath>
	</defs>
	<g clip-path="url(#clip_0)">
		<path fill="rgb(98,98,98)" stroke="none" transform="matrix(0.99 0 0 0.99 0.0776367 0.310059)" d="M9.79 17.9474C0 34.2632 0 45.6842 0 45.6842L29.37 45.6842C29.37 45.6842 26.1067 40.7895 26.1067 26.1053C26.1067 11.4211 29.37 0 29.37 0C29.37 0 19.58 1.63158 9.79 17.9474ZM68.2167 48.9474L35.8967 48.9474L35.8967 0L32.6333 0L32.6333 48.9474L0 48.9474C0 56.1557 5.84463 62 13.0533 62L55.4799 62C62.6854 62 68.53 56.1426 68.53 48.9474L68.2167 48.9474ZM68.53 45.6842L39.16 45.6842L39.16 16.3158L68.53 45.6842Z" fill-rule="evenodd"/>
	</g>
	<defs>
		<clipPath id="clip_1">
			<rect x="-2" y="-2" width="72" height="66" clip-rule="nonzero"/>
		</clipPath>
	</defs>
	<g clip-path="url(#clip_1)">
		<path fill="none" stroke="rgb(213,213,213)" stroke-width="1" stroke-miterlimit="4" transform="matrix(0.99 0 0 0.99 0.0776367 0.310059)" d="M9.79 17.9474C0 34.2632 0 45.6842 0 45.6842L29.37 45.6842C29.37 45.6842 26.1067 40.7895 26.1067 26.1053C26.1067 11.4211 29.37 0 29.37 0C29.37 0 19.58 1.63158 9.79 17.9474ZM68.2167 48.9474L35.8967 48.9474L35.8967 0L32.6333 0L32.6333 48.9474L0 48.9474C0 56.1557 5.84463 62 13.0533 62L55.4799 62C62.6854 62 68.53 56.1426 68.53 48.9474L68.2167 48.9474ZM68.53 45.6842L39.16 45.6842L39.16 16.3158L68.53 45.6842Z" fill-rule="evenodd"/>
	</g>
</svg>
