<?xml version="1.0" encoding="utf-8"?>
<!-- Generator: Adobe Illustrator 23.1.0, SVG Export Plug-In . SVG Version: 6.00 Build 0)  -->
<svg version="1.1" id="Слой_1" xmlns="http://www.w3.org/2000/svg" xmlns:xlink="http://www.w3.org/1999/xlink" x="0px" y="0px"
	 viewBox="0 0 103 30" style="enable-background:new 0 0 103 30;" xml:space="preserve">
<style type="text/css">
	.st0{enable-background:new    ;}
	.st1{fill:#FFFFFF;}
</style>
<g id="апстор" transform="translate(20474 -5587)">
	<g class="st0">
		<path class="st1" d="M-20434.7,5610.4h-4.4l-0.9,2.6h-2.1l4.3-11.4h1.8l4.3,11.4h-2.1L-20434.7,5610.4z M-20438.5,5608.8h3.3
			l-1.6-4.7L-20438.5,5608.8z"/>
		<path class="st1" d="M-20423.4,5608.9c0,1.3-0.3,2.4-0.9,3.1s-1.4,1.2-2.4,1.2c-0.9,0-1.7-0.3-2.2-0.9v4h-1.9v-11.7h1.8l0.1,0.9
			c0.6-0.7,1.3-1,2.3-1c1,0,1.8,0.4,2.4,1.2s0.9,1.8,0.9,3.2V5608.9z M-20425.3,5608.7c0-0.8-0.2-1.5-0.5-2s-0.8-0.7-1.4-0.7
			c-0.8,0-1.3,0.3-1.7,1v3.8c0.3,0.7,0.9,1,1.7,1c0.6,0,1.1-0.2,1.4-0.7C-20425.5,5610.4-20425.3,5609.7-20425.3,5608.7z"/>
		<path class="st1" d="M-20414.4,5608.9c0,1.3-0.3,2.4-0.9,3.1s-1.4,1.2-2.4,1.2c-0.9,0-1.7-0.3-2.2-0.9v4h-1.9v-11.7h1.8l0.1,0.9
			c0.6-0.7,1.3-1,2.3-1c1,0,1.8,0.4,2.4,1.2s0.9,1.8,0.9,3.2V5608.9z M-20416.3,5608.7c0-0.8-0.2-1.5-0.5-2s-0.8-0.7-1.4-0.7
			c-0.8,0-1.3,0.3-1.7,1v3.8c0.3,0.7,0.9,1,1.7,1c0.6,0,1.1-0.2,1.4-0.7S-20416.3,5609.7-20416.3,5608.7z"/>
		<path class="st1" d="M-20402.7,5610.1c0-0.5-0.2-0.9-0.5-1.2s-1-0.5-1.9-0.8s-1.6-0.6-2.2-0.9c-1-0.7-1.6-1.5-1.6-2.5
			c0-0.9,0.4-1.7,1.1-2.3s1.7-0.9,2.9-0.9c0.8,0,1.5,0.1,2.1,0.4s1.1,0.7,1.5,1.2s0.5,1.1,0.5,1.8h-2c0-0.6-0.2-1.1-0.6-1.4
			s-0.9-0.5-1.6-0.5c-0.6,0-1.1,0.1-1.5,0.4s-0.5,0.7-0.5,1.2c0,0.4,0.2,0.8,0.6,1s1,0.5,1.9,0.8s1.6,0.6,2.1,0.9s0.9,0.7,1.2,1.2
			s0.4,0.9,0.4,1.5c0,0.9-0.4,1.7-1.1,2.3s-1.7,0.8-3,0.8c-0.8,0-1.6-0.2-2.3-0.5s-1.2-0.7-1.6-1.3s-0.6-1.2-0.6-1.9h2
			c0,0.6,0.2,1.1,0.6,1.5s1,0.5,1.8,0.5c0.7,0,1.2-0.1,1.6-0.4S-20402.7,5610.5-20402.7,5610.1z"/>
		<path class="st1" d="M-20396.8,5602.5v2.1h1.5v1.4h-1.5v4.7c0,0.3,0.1,0.6,0.2,0.7s0.4,0.2,0.7,0.2c0.2,0,0.4,0,0.7-0.1v1.5
			c-0.4,0.1-0.8,0.2-1.3,0.2c-1.5,0-2.2-0.8-2.2-2.4v-4.8h-1.4v-1.4h1.4v-2.1H-20396.8z"/>
		<path class="st1" d="M-20394.4,5608.7c0-0.8,0.2-1.6,0.5-2.2s0.8-1.2,1.4-1.5s1.3-0.5,2-0.5c1.1,0,2.1,0.4,2.8,1.1
			s1.1,1.7,1.2,2.9l0,0.4c0,0.8-0.2,1.6-0.5,2.2s-0.8,1.2-1.4,1.5s-1.3,0.5-2.1,0.5c-1.2,0-2.1-0.4-2.9-1.2
			S-20394.4,5610.1-20394.4,5608.7L-20394.4,5608.7z M-20392.5,5608.9c0,0.9,0.2,1.6,0.5,2s0.9,0.7,1.5,0.7s1.1-0.3,1.5-0.8
			s0.5-1.2,0.5-2.2c0-0.9-0.2-1.5-0.6-2s-0.9-0.8-1.5-0.8c-0.6,0-1.1,0.2-1.5,0.7S-20392.5,5607.9-20392.5,5608.9z"/>
		<path class="st1" d="M-20380.5,5606.3c-0.3,0-0.5-0.1-0.8-0.1c-0.9,0-1.5,0.3-1.8,1v5.8h-1.9v-8.5h1.8l0,0.9
			c0.5-0.7,1.1-1.1,1.9-1.1c0.3,0,0.5,0,0.7,0.1L-20380.5,5606.3z"/>
		<path class="st1" d="M-20375.7,5613.2c-1.2,0-2.2-0.4-2.9-1.1s-1.1-1.8-1.1-3v-0.2c0-0.8,0.2-1.6,0.5-2.3s0.8-1.2,1.4-1.6
			s1.2-0.6,2-0.6c1.2,0,2,0.4,2.7,1.1s0.9,1.8,0.9,3.1v0.8h-5.5c0.1,0.7,0.3,1.3,0.7,1.7s0.9,0.6,1.5,0.6c0.9,0,1.6-0.4,2.1-1.1l1,1
			c-0.3,0.5-0.8,0.9-1.4,1.2S-20375,5613.2-20375.7,5613.2z M-20375.9,5605.9c-0.5,0-0.9,0.2-1.3,0.5s-0.5,0.9-0.6,1.5h3.6v-0.1
			c0-0.6-0.2-1.1-0.5-1.4S-20375.4,5605.9-20375.9,5605.9z"/>
	</g>
	<g class="st0">
		<path class="st1" d="M-20441.4,5597.1l0.4-0.5c0.4-0.5,0.7-1.4,0.7-2.5l0.1-2.5h4.1v5.5h0.8v2.7h-1.1v-1.9h-4.4v1.9h-1.1l0-2.7
			H-20441.4z M-20440.1,5597.1h2.9v-4.5h-2l-0.1,1.5C-20439.3,5595.4-20439.6,5596.4-20440.1,5597.1z"/>
		<path class="st1" d="M-20434.4,5594.8c0-0.6,0.1-1.2,0.4-1.7s0.6-0.9,1-1.1s0.9-0.4,1.5-0.4c0.9,0,1.6,0.3,2.1,0.9
			s0.8,1.4,0.8,2.4v0.1c0,0.6-0.1,1.2-0.4,1.7s-0.6,0.9-1,1.1s-0.9,0.4-1.5,0.4c-0.9,0-1.6-0.3-2.1-0.9
			S-20434.4,5595.8-20434.4,5594.8L-20434.4,5594.8z M-20433.3,5594.9c0,0.7,0.2,1.3,0.5,1.7s0.8,0.6,1.3,0.6c0.6,0,1-0.2,1.3-0.6
			s0.5-1,0.5-1.8c0-0.7-0.2-1.3-0.5-1.7s-0.8-0.6-1.3-0.6c-0.5,0-1,0.2-1.3,0.6S-20433.3,5594.1-20433.3,5594.9z"/>
		<path class="st1" d="M-20424.7,5597.2c0.4,0,0.7-0.1,1-0.4s0.4-0.5,0.5-0.9h1c0,0.4-0.1,0.7-0.4,1s-0.5,0.6-0.9,0.8
			s-0.8,0.3-1.2,0.3c-0.9,0-1.5-0.3-2.1-0.9s-0.8-1.4-0.8-2.4v-0.2c0-0.6,0.1-1.2,0.3-1.6s0.6-0.9,1-1.1s0.9-0.4,1.5-0.4
			c0.7,0,1.3,0.2,1.8,0.6s0.7,1,0.8,1.7h-1c0-0.4-0.2-0.7-0.5-1s-0.6-0.4-1-0.4c-0.6,0-1,0.2-1.3,0.6s-0.5,1-0.5,1.7v0.2
			c0,0.7,0.2,1.3,0.5,1.7S-20425.3,5597.2-20424.7,5597.2z"/>
		<path class="st1" d="M-20416.3,5592.5h-2.1v5.5h-1.1v-5.5h-2.1v-0.9h5.3V5592.5z"/>
		<path class="st1" d="M-20413.1,5596.4l1.5-4.8h1.2l-2.5,7.3c-0.4,1.1-1,1.6-1.9,1.6l-0.2,0l-0.4-0.1v-0.9l0.3,0
			c0.4,0,0.7-0.1,0.9-0.2c0.2-0.1,0.4-0.4,0.5-0.8l0.2-0.6l-2.3-6.3h1.2L-20413.1,5596.4z"/>
		<path class="st1" d="M-20404.3,5598h-1.1v-5.4h-2.9v5.4h-1.1v-6.3h5.1V5598z"/>
		<path class="st1" d="M-20397.4,5598h-1.1v-2.7h-2.9v2.7h-1.1v-6.3h1.1v2.7h2.9v-2.7h1.1V5598z"/>
		<path class="st1" d="M-20395.9,5594.8c0-0.6,0.1-1.2,0.4-1.7c0.2-0.5,0.6-0.9,1-1.1c0.4-0.3,0.9-0.4,1.5-0.4
			c0.9,0,1.6,0.3,2.1,0.9c0.5,0.6,0.8,1.4,0.8,2.4v0.1c0,0.6-0.1,1.2-0.4,1.7c-0.2,0.5-0.6,0.9-1,1.1c-0.4,0.3-0.9,0.4-1.5,0.4
			c-0.9,0-1.6-0.3-2.1-0.9C-20395.7,5596.6-20395.9,5595.8-20395.9,5594.8L-20395.9,5594.8z M-20394.9,5594.9c0,0.7,0.2,1.3,0.5,1.7
			c0.3,0.4,0.8,0.6,1.3,0.6c0.6,0,1-0.2,1.3-0.6s0.5-1,0.5-1.8c0-0.7-0.2-1.3-0.5-1.7c-0.3-0.4-0.8-0.6-1.3-0.6
			c-0.5,0-1,0.2-1.3,0.6S-20394.9,5594.1-20394.9,5594.9z"/>
		<path class="st1" d="M-20385.7,5598v-6.3h2.5c0.8,0,1.5,0.1,1.9,0.4c0.4,0.3,0.7,0.7,0.7,1.3c0,0.3-0.1,0.6-0.3,0.8
			s-0.4,0.4-0.8,0.5c0.4,0.1,0.7,0.3,0.9,0.5c0.2,0.3,0.3,0.6,0.3,0.9c0,0.6-0.2,1-0.6,1.3c-0.4,0.3-1,0.5-1.8,0.5H-20385.7z
			 M-20384.7,5594.4h1.4c1,0,1.5-0.3,1.5-0.9s-0.5-0.9-1.4-0.9h-1.5V5594.4z M-20384.7,5595.2v1.9h1.8c0.5,0,0.8-0.1,1-0.3
			c0.2-0.2,0.3-0.4,0.3-0.7c0-0.6-0.5-0.9-1.4-0.9H-20384.7z"/>
	</g>
	<g id="Сгруппировать_1234" transform="translate(-20142.277 5386.628)">
		<g id="Контур_1403">
			<path class="st1" d="M-319.1,220l-4.6,0l5.8-10.1c0.4-0.7,0.2-1.5-0.5-1.9c-0.7-0.4-1.5-0.2-1.9,0.5l-0.6,1.1l-0.6-1.1
				c-0.4-0.7-1.2-0.9-1.9-0.5c-0.7,0.4-0.9,1.2-0.5,1.9l1.4,2.5l-4.4,7.6l-3.4,0h0c-0.8,0-1.4,0.6-1.4,1.4c0,0.8,0.6,1.4,1.4,1.4
				c0,0,0,0,0,0l12.3,0.1c0,0,0.6-0.3,0.3-1.3C-318.1,220.9-318.5,220.4-319.1,220z"/>
		</g>
		<g id="Контур_1404">
			<path class="st1" d="M-311.4,220.1l-3.4,0l-4-6.9c-1,1.1-1.3,2.7-0.8,4.1l0,0l5.3,9.2c0.2,0.4,0.7,0.7,1.2,0.7
				c0.2,0,0.5-0.1,0.7-0.2c0.7-0.4,0.9-1.2,0.5-1.9l-1.3-2.2l1.8,0h0c0.8,0,1.4-0.6,1.4-1.4C-310,220.7-310.6,220.1-311.4,220.1
				C-311.4,220.1-311.4,220.1-311.4,220.1z"/>
		</g>
		<g id="Контур_1405">
			<path class="st1" d="M-328.8,223.4l-1,1.7c-0.4,0.7-0.2,1.5,0.5,1.9c0.2,0.1,0.5,0.2,0.7,0.2c0.5,0,1-0.3,1.2-0.7l1.3-2.3
				C-326.9,222.7-328.8,223.4-328.8,223.4z"/>
		</g>
	</g>
</g>
</svg>
