<svg xmlns="http://www.w3.org/2000/svg" width="32" height="32" viewBox="0 0 32 32">
  <g>
    <g>
      <g>
        <path class="ico-filter-settings-bg" fill="#e7e7e7" d="M0 32V0h32v32z"/>
      </g>
      <g>
        <path class="ico-filter-settings-el" fill="#f65050" d="M3.033 6.175H25.91L16.086 16v12.578l-3.918-3.917V16z"/>
      </g>
      <g>
        <path class="ico-filter-settings-el" fill="#707070"
              d="M25.637 22.673c0 1.452-1.21 2.633-2.698 2.633-1.486 0-2.695-1.181-2.695-2.633 0-1.451 1.21-2.632 2.695-2.632 1.489 0 2.698 1.18 2.698 2.632zm-2.006 5.8c.55 0 1-.449 1-1v-.494c.072-.026.14-.056.215-.087l.025-.011.541.529a.764.764 0 0 0 1.074 0l1.31-1.276a.735.735 0 0 0 0-1.052l-.544-.53c.027-.052.05-.108.068-.155l.012-.026.023-.054h.53c.55 0 1-.448 1-1v-1.288c0-.551-.45-1-1-1h-.53l-.005-.015c-.01-.02-.02-.04-.028-.06l-.017-.044c-.018-.039-.033-.077-.053-.117l.545-.528a.735.735 0 0 0 0-1.053l-1.31-1.275a.773.773 0 0 0-1.074 0l-.542.528a9.811 9.811 0 0 0-.125-.051c-.039-.015-.078-.03-.115-.046v-.49c0-.55-.45-1-1-1h-1.375c-.55 0-1 .45-1 1v.49c-.037.016-.076.03-.115.046a9.811 9.811 0 0 0-.125.051l-.541-.528a.774.774 0 0 0-.541-.216.773.773 0 0 0-.54.216l-1.306 1.275a.732.732 0 0 0 0 1.053l.547.528a1.242 1.242 0 0 1-.037.082l-.012.026c-.022.043-.04.084-.055.128h-.529c-.55 0-1 .449-1 1v1.288c0 .552.45 1 1 1h.53l.015.04.02.039a1.461 1.461 0 0 0 .068.157l-.547.529a.733.733 0 0 0-.225.532c0 .196.08.38.225.52l1.31 1.276c.143.142.334.22.538.22a.764.764 0 0 0 .539-.22l.545-.53c.097.045.171.076.236.099v.494c0 .551.45 1 1 1z"/>
      </g>
    </g>
  </g>
</svg>
