<?xml version="1.0" encoding="utf-8"?>
<!-- Generator: Adobe Illustrator 23.1.0, SVG Export Plug-In . SVG Version: 6.00 Build 0)  -->
<svg version="1.1" id="Слой_1" xmlns="http://www.w3.org/2000/svg" xmlns:xlink="http://www.w3.org/1999/xlink" x="0px" y="0px"
	 viewBox="0 0 117.5 30" style="enable-background:new 0 0 117.5 30;" xml:space="preserve">
<style type="text/css">
	.st0{enable-background:new    ;}
	.st1{fill:#FFFFFF;}
</style>
<g id="гугл" transform="translate(20316.525 -5587)">
	<g class="st0">
		<path class="st1" d="M-20274.9,5611.5c-0.4,0.5-1,0.9-1.7,1.2s-1.6,0.4-2.5,0.4c-1,0-1.8-0.2-2.5-0.6s-1.3-1.1-1.7-1.9
			s-0.6-1.7-0.6-2.8v-0.9c0-1.7,0.4-3.1,1.2-4s2-1.4,3.4-1.4c1.3,0,2.3,0.3,3,0.9s1.2,1.5,1.3,2.7h-1.9c-0.2-1.4-1-2.1-2.4-2.1
			c-0.9,0-1.6,0.3-2,1s-0.7,1.6-0.7,2.8v0.9c0,1.2,0.3,2.2,0.8,2.9s1.2,1,2.2,1c1,0,1.7-0.2,2.2-0.7v-2.2h-2.3v-1.5h4.3V5611.5z"/>
		<path class="st1" d="M-20273.2,5608.7c0-0.8,0.2-1.6,0.5-2.2s0.8-1.2,1.4-1.5s1.3-0.5,2-0.5c1.1,0,2.1,0.4,2.8,1.1
			s1.1,1.7,1.2,2.9l0,0.4c0,0.8-0.2,1.6-0.5,2.2s-0.8,1.2-1.4,1.5s-1.3,0.5-2.1,0.5c-1.2,0-2.1-0.4-2.9-1.2
			S-20273.2,5610.1-20273.2,5608.7L-20273.2,5608.7z M-20271.3,5608.9c0,0.9,0.2,1.6,0.5,2s0.9,0.7,1.5,0.7s1.1-0.3,1.5-0.8
			s0.5-1.2,0.5-2.2c0-0.9-0.2-1.5-0.6-2s-0.9-0.8-1.5-0.8c-0.6,0-1.1,0.2-1.5,0.7S-20271.3,5607.9-20271.3,5608.9z"/>
		<path class="st1" d="M-20264.1,5608.7c0-0.8,0.2-1.6,0.5-2.2s0.8-1.2,1.4-1.5s1.3-0.5,2-0.5c1.1,0,2.1,0.4,2.8,1.1
			s1.1,1.7,1.2,2.9l0,0.4c0,0.8-0.2,1.6-0.5,2.2s-0.8,1.2-1.4,1.5s-1.3,0.5-2.1,0.5c-1.2,0-2.1-0.4-2.9-1.2
			S-20264.1,5610.1-20264.1,5608.7L-20264.1,5608.7z M-20262.2,5608.9c0,0.9,0.2,1.6,0.5,2s0.9,0.7,1.5,0.7s1.1-0.3,1.5-0.8
			s0.5-1.2,0.5-2.2c0-0.9-0.2-1.5-0.6-2s-0.9-0.8-1.5-0.8c-0.6,0-1.1,0.2-1.5,0.7S-20262.2,5607.9-20262.2,5608.9z"/>
		<path class="st1" d="M-20255,5608.7c0-1.3,0.3-2.4,0.9-3.1s1.4-1.2,2.5-1.2c1,0,1.7,0.3,2.3,1l0.1-0.9h1.7v8.2c0,1.1-0.3,2-1,2.6
			c-0.7,0.6-1.6,1-2.8,1c-0.6,0-1.2-0.1-1.8-0.4c-0.6-0.3-1-0.6-1.3-1l0.9-1.1c0.6,0.7,1.3,1,2.2,1c0.6,0,1.1-0.2,1.5-0.5
			c0.4-0.3,0.5-0.8,0.5-1.5v-0.6c-0.5,0.6-1.3,0.9-2.2,0.9c-1,0-1.8-0.4-2.4-1.2C-20254.7,5611.2-20255,5610.1-20255,5608.7z
			 M-20253.1,5608.9c0,0.8,0.2,1.5,0.5,2c0.3,0.5,0.8,0.7,1.4,0.7c0.8,0,1.3-0.3,1.7-1v-3.7c-0.4-0.6-0.9-1-1.7-1
			c-0.6,0-1.1,0.2-1.5,0.7C-20252.9,5607.2-20253.1,5607.9-20253.1,5608.9z"/>
		<path class="st1" d="M-20243.6,5613h-1.9v-12h1.9V5613z"/>
		<path class="st1" d="M-20237.8,5613.2c-1.2,0-2.2-0.4-2.9-1.1c-0.7-0.8-1.1-1.8-1.1-3v-0.2c0-0.8,0.2-1.6,0.5-2.3
			c0.3-0.7,0.8-1.2,1.4-1.6c0.6-0.4,1.2-0.6,2-0.6c1.2,0,2,0.4,2.7,1.1c0.6,0.7,0.9,1.8,0.9,3.1v0.8h-5.5c0.1,0.7,0.3,1.3,0.7,1.7
			c0.4,0.4,0.9,0.6,1.5,0.6c0.9,0,1.6-0.4,2.1-1.1l1,1c-0.3,0.5-0.8,0.9-1.4,1.2C-20236.4,5613-20237.1,5613.2-20237.8,5613.2z
			 M-20238,5605.9c-0.5,0-0.9,0.2-1.3,0.5s-0.5,0.9-0.6,1.5h3.6v-0.1c0-0.6-0.2-1.1-0.5-1.4S-20237.5,5605.9-20238,5605.9z"/>
		<path class="st1" d="M-20226.8,5608.8v4.2h-2v-11.4h4.4c1.3,0,2.3,0.3,3,1c0.7,0.7,1.1,1.5,1.1,2.6c0,1.1-0.4,2-1.1,2.6
			c-0.7,0.6-1.8,0.9-3.1,0.9H-20226.8z M-20226.8,5607.2h2.4c0.7,0,1.2-0.2,1.6-0.5c0.4-0.3,0.6-0.8,0.6-1.4c0-0.6-0.2-1.1-0.6-1.5
			s-0.9-0.6-1.5-0.6h-2.4V5607.2z"/>
		<path class="st1" d="M-20216.7,5613h-1.9v-12h1.9V5613z"/>
		<path class="st1" d="M-20209.6,5613c-0.1-0.2-0.2-0.4-0.2-0.8c-0.6,0.6-1.3,0.9-2.2,0.9c-0.8,0-1.5-0.2-2.1-0.7
			c-0.5-0.5-0.8-1.1-0.8-1.8c0-0.9,0.3-1.6,1-2.1c0.7-0.5,1.6-0.7,2.9-0.7h1.2v-0.6c0-0.4-0.1-0.8-0.4-1.1c-0.2-0.3-0.6-0.4-1.1-0.4
			c-0.4,0-0.8,0.1-1.1,0.3c-0.3,0.2-0.4,0.5-0.4,0.8h-1.9c0-0.5,0.2-0.9,0.5-1.3c0.3-0.4,0.7-0.7,1.3-0.9c0.5-0.2,1.1-0.3,1.8-0.3
			c1,0,1.8,0.2,2.4,0.7c0.6,0.5,0.9,1.2,0.9,2.1v3.8c0,0.8,0.1,1.4,0.3,1.8v0.1H-20209.6z M-20211.6,5611.6c0.4,0,0.7-0.1,1.1-0.3
			c0.3-0.2,0.6-0.4,0.7-0.7v-1.6h-1c-0.7,0-1.2,0.1-1.6,0.4c-0.4,0.2-0.5,0.6-0.5,1c0,0.4,0.1,0.7,0.4,0.9
			S-20212.1,5611.6-20211.6,5611.6z"/>
		<path class="st1" d="M-20203.1,5610.3l1.7-5.7h2l-3.4,9.7c-0.5,1.4-1.4,2.1-2.6,2.1c-0.3,0-0.6,0-0.9-0.1v-1.5l0.4,0
			c0.5,0,0.8-0.1,1.1-0.3c0.2-0.2,0.4-0.5,0.6-0.9l0.3-0.7l-3-8.4h2L-20203.1,5610.3z"/>
	</g>
	<g class="st0">
		<path class="st1" d="M-20284.4,5597.1l0.4-0.5c0.4-0.5,0.7-1.4,0.7-2.5l0.1-2.5h4.1v5.5h0.8v2.7h-1.1v-1.9h-4.4v1.9h-1.1l0-2.7
			H-20284.4z M-20283.1,5597.1h2.9v-4.5h-2l-0.1,1.5C-20282.3,5595.4-20282.6,5596.4-20283.1,5597.1z"/>
		<path class="st1" d="M-20277.4,5594.8c0-0.6,0.1-1.2,0.4-1.7s0.6-0.9,1-1.1s0.9-0.4,1.5-0.4c0.9,0,1.6,0.3,2.1,0.9
			s0.8,1.4,0.8,2.4v0.1c0,0.6-0.1,1.2-0.4,1.7s-0.6,0.9-1,1.1s-0.9,0.4-1.5,0.4c-0.9,0-1.6-0.3-2.1-0.9
			S-20277.4,5595.8-20277.4,5594.8L-20277.4,5594.8z M-20276.3,5594.9c0,0.7,0.2,1.3,0.5,1.7s0.8,0.6,1.3,0.6c0.6,0,1-0.2,1.3-0.6
			s0.5-1,0.5-1.8c0-0.7-0.2-1.3-0.5-1.7s-0.8-0.6-1.3-0.6c-0.5,0-1,0.2-1.3,0.6S-20276.3,5594.1-20276.3,5594.9z"/>
		<path class="st1" d="M-20267.7,5597.2c0.4,0,0.7-0.1,1-0.4s0.4-0.5,0.5-0.9h1c0,0.4-0.1,0.7-0.4,1s-0.5,0.6-0.9,0.8
			s-0.8,0.3-1.2,0.3c-0.9,0-1.5-0.3-2.1-0.9s-0.8-1.4-0.8-2.4v-0.2c0-0.6,0.1-1.2,0.3-1.6s0.6-0.9,1-1.1s0.9-0.4,1.5-0.4
			c0.7,0,1.3,0.2,1.8,0.6s0.7,1,0.8,1.7h-1c0-0.4-0.2-0.7-0.5-1s-0.6-0.4-1-0.4c-0.6,0-1,0.2-1.3,0.6s-0.5,1-0.5,1.7v0.2
			c0,0.7,0.2,1.3,0.5,1.7S-20268.3,5597.2-20267.7,5597.2z"/>
		<path class="st1" d="M-20259.3,5592.5h-2.1v5.5h-1.1v-5.5h-2.1v-0.9h5.3V5592.5z"/>
		<path class="st1" d="M-20256.1,5596.4l1.5-4.8h1.2l-2.5,7.3c-0.4,1.1-1,1.6-1.9,1.6l-0.2,0l-0.4-0.1v-0.9l0.3,0
			c0.4,0,0.7-0.1,0.9-0.2s0.4-0.4,0.5-0.8l0.2-0.6l-2.3-6.3h1.2L-20256.1,5596.4z"/>
		<path class="st1" d="M-20247.3,5598h-1.1v-5.4h-2.9v5.4h-1.1v-6.3h5.1V5598z"/>
		<path class="st1" d="M-20240.4,5598h-1.1v-2.7h-2.9v2.7h-1.1v-6.3h1.1v2.7h2.9v-2.7h1.1V5598z"/>
		<path class="st1" d="M-20238.9,5594.8c0-0.6,0.1-1.2,0.4-1.7s0.6-0.9,1-1.1s0.9-0.4,1.5-0.4c0.9,0,1.6,0.3,2.1,0.9
			s0.8,1.4,0.8,2.4v0.1c0,0.6-0.1,1.2-0.4,1.7s-0.6,0.9-1,1.1s-0.9,0.4-1.5,0.4c-0.9,0-1.6-0.3-2.1-0.9
			S-20238.9,5595.8-20238.9,5594.8L-20238.9,5594.8z M-20237.9,5594.9c0,0.7,0.2,1.3,0.5,1.7s0.8,0.6,1.3,0.6c0.6,0,1-0.2,1.3-0.6
			s0.5-1,0.5-1.8c0-0.7-0.2-1.3-0.5-1.7s-0.8-0.6-1.3-0.6c-0.5,0-1,0.2-1.3,0.6S-20237.9,5594.1-20237.9,5594.9z"/>
		<path class="st1" d="M-20228.7,5598v-6.3h2.5c0.8,0,1.5,0.1,1.9,0.4s0.7,0.7,0.7,1.3c0,0.3-0.1,0.6-0.3,0.8s-0.4,0.4-0.8,0.5
			c0.4,0.1,0.7,0.3,0.9,0.5s0.3,0.6,0.3,0.9c0,0.6-0.2,1-0.6,1.3s-1,0.5-1.8,0.5H-20228.7z M-20227.7,5594.4h1.4
			c1,0,1.5-0.3,1.5-0.9s-0.5-0.9-1.4-0.9h-1.5V5594.4z M-20227.7,5595.2v1.9h1.8c0.5,0,0.8-0.1,1-0.3s0.3-0.4,0.3-0.7
			c0-0.6-0.5-0.9-1.4-0.9H-20227.7z"/>
	</g>
	<g id="Сгруппировать_1233" transform="translate(-20111.914 5145.048)">
		<g id="Сгруппировать_1232" transform="translate(-204.611 447.154)">
			<g id="Контур_1399">
				<path class="st1" d="M0.2,0.7C0.1,1,0,1.2,0,1.5v19.7c0,0.3,0.1,0.5,0.2,0.8l11.4-10.6L0.2,0.7z"/>
			</g>
			<g id="Контур_1400">
				<path class="st1" d="M12.6,10.5l3.5-3.3l-14-7.1C1.9,0,1.6,0,1.3,0L12.6,10.5z"/>
			</g>
			<g id="Контур_1401">
				<path class="st1" d="M12.6,12.2L1.3,22.6c0.3,0,0.6,0,0.8-0.1l13.9-7L12.6,12.2z"/>
			</g>
			<g id="Контур_1402">
				<path class="st1" d="M21.6,10l-4.3-2.2l-3.8,3.5l3.8,3.5l4.4-2.2c0.7-0.4,1-1.3,0.7-2C22.1,10.4,21.9,10.2,21.6,10z"/>
			</g>
		</g>
	</g>
</g>
</svg>
