<?xml version="1.0" encoding="utf-8"?>
<!-- Generator: Adobe Illustrator 23.1.0, SVG Export Plug-In . SVG Version: 6.00 Build 0)  -->
<svg version="1.1" id="Слой_1" xmlns="http://www.w3.org/2000/svg" xmlns:xlink="http://www.w3.org/1999/xlink" x="0px" y="0px"
	 viewBox="0 0 764 89.5" style="enable-background:new 0 0 764 89.5;" xml:space="preserve">
<style type="text/css">
	.st0{fill:#555555;}
</style>
<g>
	<path class="st0" d="M286,66.5v-1h-0.5l0,0H284l0.4-0.4l-4-4l-0.7,0.7l3.6,3.6H278l0.4-0.4l-4-4l-0.7,0.7l3.6,3.6h-1.8l0,0H275v1
		c-2.6,0-4.7,2-4.9,4.5H270v0.5V72v6v1v1.5c0,2.8,2.2,5,5,5h-1c-0.6,0-1,0.4-1,1v2c0,0.6,0.4,1,1,1h2c0.6,0,1-0.4,1-1v-2
		c0-0.6-0.4-1-1-1h9c-0.6,0-1,0.4-1,1v2c0,0.6,0.4,1,1,1h2c0.6,0,1-0.4,1-1v-2c0-0.6-0.4-1-1-1h-1c2.8,0,5-2.2,5-5V72v-0.5V71h-0.1
		C290.7,68.5,288.6,66.5,286,66.5z M274,86.5V86V86.5L274,86.5z M276,88.5h-2v-2h2V88.5z M285,86.5V86V86.5L285,86.5z M287,86.5v2
		h-2v-2H287z M275,67.5h11c2,0,3.7,1.5,3.9,3.5h-8.4h-2h-8.4C271.3,69,273,67.5,275,67.5z M271,72h8.5v6H271V72z M286,84.5h-11
		c-2.2,0-4-1.8-4-4V79h8.5h2h8.5v1.5C290,82.7,288.2,84.5,286,84.5z M290,78h-8.5v-6h8.5V78z"/>
	<path class="st0" d="M276,81.4c-0.1-0.3-0.3-0.6-0.6-0.8c-0.1-0.1-0.3-0.1-0.4-0.1s-0.3,0-0.4,0.1c-0.3,0.1-0.5,0.4-0.6,0.8v0.1
		l0,0l0,0c0,0.6,0.4,1,1,1S276,82.1,276,81.4L276,81.4L276,81.4C276,81.4,276,81.4,276,81.4z"/>
	<path class="st0" d="M287,81.4c-0.1-0.3-0.3-0.6-0.6-0.8c-0.1-0.1-0.3-0.1-0.4-0.1s-0.3,0-0.4,0.1c-0.3,0.1-0.5,0.4-0.6,0.8v0.1
		l0,0l0,0c0,0.6,0.4,1,1,1S287,82.1,287,81.4L287,81.4L287,81.4C287,81.4,287,81.4,287,81.4z"/>
	<path class="st0" d="M305,67.5c0-2.2-1.8-4-4-4s-4,1.8-4,4c0,2,1.5,3.7,3.5,3.9v18.1h1V71.4C303.5,71.2,305,69.5,305,67.5z
		 M301,70.5c-1.7,0-3-1.3-3-3s1.3-3,3-3s3,1.3,3,3S302.7,70.5,301,70.5z"/>
	<path class="st0" d="M726,69.5c0-2.2-1.8-4-4-4s-4,1.8-4,4c0,2,1.5,3.7,3.5,3.9v16.1h1V73.4C724.5,73.2,726,71.5,726,69.5z
		 M722,72.5c-1.7,0-3-1.3-3-3s1.3-3,3-3s3,1.3,3,3S723.7,72.5,722,72.5z"/>
	<path class="st0" d="M333,68.5c0-5-4-9-9-9c-4.6,0-8.3,3.4-8.9,7.8c0-0.2,0-0.4,0.1-0.6c-0.7-0.2-1.4-0.3-2.2-0.3c-4.4,0-8,3.6-8,8
		s3.6,8,8,8c1.7,0,3.4-0.6,4.8-1.6c1.3-1,2.4-2.4,2.9-4h-0.1c1.1,0.4,2.2,0.7,3.4,0.7C329,77.5,333,73.5,333,68.5z M315,67.6
		c0,0.3,0,0.6,0,0.9l0,0C315,68.2,315,67.9,315,67.6z M317.2,80.1c-1.2,0.9-2.7,1.4-4.2,1.4c-3.9,0-7-3.1-7-7s3.1-7,7-7
		c0.4,0,0.7,0,1,0.1c0,0.3,0,0.6,0,0.9c0,3.8,2.1,7.2,5.4,8.9C318.9,78.4,318.1,79.4,317.2,80.1z M315.1,69.7c0,0.1,0,0.2,0.1,0.3
		C315.1,69.9,315.1,69.8,315.1,69.7z M315.4,71c0,0.1,0.1,0.2,0.1,0.4C315.4,71.2,315.4,71.1,315.4,71z M315.8,72.2
		c0.1,0.2,0.1,0.3,0.2,0.5C315.9,72.5,315.9,72.3,315.8,72.2z M316.3,73.2c0.2,0.3,0.3,0.5,0.5,0.8
		C316.7,73.7,316.5,73.4,316.3,73.2z M317.1,74.3c0.1,0.2,0.3,0.3,0.4,0.5C317.4,74.6,317.3,74.5,317.1,74.3z M319.2,76.1
		c0.1,0.1,0.3,0.2,0.4,0.2C319.5,76.3,319.3,76.2,319.2,76.1z M318,75.2c0.2,0.2,0.4,0.4,0.6,0.5C318.4,75.5,318.2,75.4,318,75.2z
		 M324,76.5c-4.4,0-8-3.6-8-8s3.6-8,8-8s8,3.6,8,8S328.4,76.5,324,76.5z"/>
	<path class="st0" d="M754,70.5c0-5-4-9-9-9c-4.6,0-8.3,3.4-8.9,7.8c0-0.2,0-0.4,0.1-0.6c-0.7-0.2-1.4-0.3-2.2-0.3c-4.4,0-8,3.6-8,8
		s3.6,8,8,8c1.7,0,3.4-0.6,4.8-1.6c1.3-1,2.4-2.4,2.9-4h-0.1c1.1,0.4,2.2,0.7,3.4,0.7C750,79.5,754,75.5,754,70.5z M736,69.6
		c0,0.3,0,0.6,0,0.9l0,0C736,70.2,736,69.9,736,69.6z M738.2,82.1c-1.2,0.9-2.7,1.4-4.2,1.4c-3.9,0-7-3.1-7-7s3.1-7,7-7
		c0.4,0,0.7,0,1,0.1c0,0.3,0,0.6,0,0.9c0,3.8,2.1,7.2,5.4,8.9C739.9,80.4,739.1,81.4,738.2,82.1z M736.1,71.7c0,0.1,0,0.2,0.1,0.3
		C736.1,71.9,736.1,71.8,736.1,71.7z M736.4,73c0,0.1,0.1,0.2,0.1,0.4C736.4,73.2,736.4,73.1,736.4,73z M736.8,74.2
		c0.1,0.2,0.1,0.3,0.2,0.5C736.9,74.5,736.9,74.3,736.8,74.2z M737.3,75.2c0.2,0.3,0.3,0.5,0.5,0.8
		C737.7,75.7,737.5,75.4,737.3,75.2z M738.1,76.3c0.1,0.2,0.3,0.3,0.4,0.5C738.4,76.6,738.3,76.5,738.1,76.3z M740.2,78.1
		c0.1,0.1,0.3,0.2,0.4,0.2C740.4,78.3,740.3,78.2,740.2,78.1z M739,77.2c0.2,0.2,0.4,0.4,0.6,0.5C739.4,77.5,739.2,77.4,739,77.2z
		 M745,78.5c-4.4,0-8-3.6-8-8s3.6-8,8-8s8,3.6,8,8S749.4,78.5,745,78.5z"/>
	<polygon class="st0" points="323.5,77.5 323.5,89.5 324.5,89.5 324.5,77.5 324,77.5 	"/>
	<polygon class="st0" points="744.5,79.5 744.5,89.5 745.5,89.5 745.5,79.5 745,79.5 	"/>
	<rect x="312.5" y="82.5" class="st0" width="1" height="7"/>
	<rect x="733.5" y="84.5" class="st0" width="1" height="5"/>
	<path class="st0" d="M339,73.5c-2.2,0-4,1.8-4,4c0,2,1.5,3.7,3.5,3.9v8.1h1v-8.1c2-0.2,3.5-1.9,3.5-3.9
		C343,75.3,341.2,73.5,339,73.5z M339,80.5c-1.7,0-3-1.3-3-3s1.3-3,3-3s3,1.3,3,3S340.7,80.5,339,80.5z"/>
	<path class="st0" d="M764,79.5c0-2.2-1.8-4-4-4s-4,1.8-4,4s1.8,4,4,4S764,81.7,764,79.5z M760,82.5c-1.7,0-3-1.3-3-3s1.3-3,3-3
		s3,1.3,3,3S761.7,82.5,760,82.5z"/>
	<path class="st0" d="M712,75.5c-2.2,0-4,1.8-4,4s1.8,4,4,4s4-1.8,4-4S714.2,75.5,712,75.5z M712,82.5c-1.7,0-3-1.3-3-3s1.3-3,3-3
		s3,1.3,3,3S713.7,82.5,712,82.5z"/>
	<polygon class="st0" points="759.5,89.5 760.5,89.5 760.5,83.5 760,83.5 759.5,83.5 	"/>
	<polygon class="st0" points="711.5,89.5 712.5,89.5 712.5,83.5 712,83.5 711.5,83.5 	"/>
	<path class="st0" d="M332,80.5c-1.1,0-2,0.9-2,2c0,0.9,0.6,1.7,1.5,1.9v5.1h1v-5.1c0.9-0.2,1.5-1,1.5-1.9
		C334,81.4,333.1,80.5,332,80.5z M332,83.5c-0.6,0-1-0.4-1-1s0.4-1,1-1s1,0.4,1,1S332.6,83.5,332,83.5z"/>
	<path class="st0" d="M753,82.5c-1.1,0-2,0.9-2,2s0.9,2,2,2s2-0.9,2-2S754.1,82.5,753,82.5z M753,85.5c-0.6,0-1-0.4-1-1s0.4-1,1-1
		s1,0.4,1,1S753.6,85.5,753,85.5z"/>
	<path class="st0" d="M705,82.5c-1.1,0-2,0.9-2,2s0.9,2,2,2s2-0.9,2-2S706.1,82.5,705,82.5z M705,85.5c-0.6,0-1-0.4-1-1s0.4-1,1-1
		s1,0.4,1,1S705.6,85.5,705,85.5z"/>
	<polygon class="st0" points="752.5,89.5 753.5,89.5 753.5,86.5 753,86.5 752.5,86.5 	"/>
	<polygon class="st0" points="704.5,89.5 705.5,89.5 705.5,86.5 705,86.5 704.5,86.5 	"/>
	<path class="st0" d="M425,76.5L425,76.5h-2l0,0V78h-17v-1.5l0,0h-2l0,0V78h-2.5v3h2.5v1h-2.5v3h2.5v4.5l0,0h2l0,0V85h17v4.5l0,0h2
		l0,0V85h2.5v-3H425v-1h2.5v-3H425V76.5z M423,79v1h-17v-1H423z M402.5,80v-1h1.5v1H402.5z M402.5,84v-1h1.5v1H402.5z M406,84v-1h17
		v1H406z M426.5,83v1H425v-1H426.5z M423,82h-17v-1h17V82z M426.5,79v1H425v-1H426.5z"/>
	<path class="st0" d="M480,76.5L480,76.5h-2l0,0V78h-17v-1.5l0,0h-2l0,0V78h-2.5v3h2.5v1h-2.5v3h2.5v4.5l0,0h2l0,0V85h17v4.5l0,0h2
		l0,0V85h2.5v-3H480v-1h2.5v-3H480V76.5z M478,79v1h-17v-1H478z M457.5,80v-1h1.5v1H457.5z M457.5,84v-1h1.5v1H457.5z M461,84v-1h17
		v1H461z M481.5,83v1H480v-1H481.5z M478,82h-17v-1h17V82z M481.5,79v1H480v-1H481.5z"/>
	<path class="st0" d="M453,83h-9.5v-9.9c0.3-0.5,1.6-2.4,3.6-2.7c1.7-0.2,3.6,0.8,5.5,2.9l0.7-0.7c-2.2-2.4-4.3-3.5-6.4-3.2
		c-2.9,0.4-4.4,3.2-4.4,3.3l-0.1,0.1V83h-1V72.9l-0.1-0.1c-0.1-0.1-1.6-2.9-4.4-3.3c-2-0.3-4.2,0.8-6.4,3.2l0.7,0.7
		c1.9-2.1,3.8-3.1,5.5-2.9c2.1,0.3,3.4,2.2,3.6,2.7V83H431c-0.2,0-0.4,0.1-0.5,0.3c-0.1,0.2,0,0.4,0.1,0.5l6.3,6
		c0.1,0.1,0.2,0.1,0.3,0.1h9.4c0.1,0,0.3,0,0.3-0.1l6.3-6c0.1-0.1,0.2-0.4,0.1-0.5C453.4,83.1,453.2,83,453,83z M446.5,89h-9l-5.2-5
		h19.5L446.5,89z"/>
	<path class="st0" d="M445,67.5c0-1.7-1.3-3-3-3s-3,1.3-3,3s1.3,3,3,3S445,69.2,445,67.5z M440,67.5c0-1.1,0.9-2,2-2s2,0.9,2,2
		s-0.9,2-2,2S440,68.6,440,67.5z"/>
	<path class="st0" d="M494,69.5c0-1.5-1.1-2.7-2.4-2.9l0.1-0.1l-4.6-4.6l-4.6,4.6l0.1,0.1c-1.4,0.3-2.4,1.5-2.4,2.9c0,1.7,1.3,3,3,3
		c0.9,0,1.8-0.5,2.3-1.1l0.4,0.6h0.3v17.5l0,0h2l0,0V72h0.3l0.4-0.6c0.6,0.7,1.4,1.1,2.3,1.1C492.7,72.5,494,71.2,494,69.5z
		 M483,71.5c-1.1,0-2-0.9-2-2s0.9-2,2-2l0,0l1.7,2.9C484.4,71.1,483.8,71.5,483,71.5z M487.7,71h-1.4l-0.4-0.7
		c0.1-0.3,0.1-0.5,0.1-0.8c0-1.4-1-2.6-2.4-2.9l3.4-3.4l3.4,3.4c-1.3,0.3-2.4,1.5-2.4,2.9c0,0.3,0.1,0.6,0.1,0.8L487.7,71z
		 M491,71.5c-0.8,0-1.4-0.4-1.8-1.1l1.7-2.9l0,0c1.1,0,2,0.9,2,2S492.1,71.5,491,71.5z"/>
	<path class="st0" d="M514,79.5L514,79.5c-0.6-3.9-3.9-7-8-7c-3.4,0-6.2,2.1-7.4,5c-0.2,0-0.4,0-0.6,0c-3.3,0-6,2.7-6,6s2.7,6,6,6
		h17v-0.1c2.3-0.5,4-2.5,4-4.9C519,81.7,516.8,79.5,514,79.5z M514.8,88.4l-0.4,0.1H498c-2.8,0-5-2.2-5-5s2.2-5,5-5
		c0.2,0,0.3,0,0.5,0l0.7,0.1l0.3-0.7c0.5-1.3,1.4-2.4,2.5-3.2c1.2-0.8,2.5-1.2,4-1.2c3.5,0,6.5,2.6,6.9,6.1l0.1,0.9h0.9h0.1
		c2.2,0,4,1.8,4,4C518,86.4,516.7,88,514.8,88.4z"/>
	<path class="st0" d="M218,62.5c-2,0-3.9,0.9-5.5,2.4V24h-29v47.1c-0.4,0.2-0.7,0.5-1,0.8c-0.6-0.4-1.3-0.6-2-0.9V48h-47v21.5
		c-0.3,0-0.7,0.1-1,0.1V14h-29v75.5h1V15h27v54.9c-2.7,0.8-4.9,2.9-6,5.5c-0.2,0-0.4,0-0.7,0c-3.8,0-6.9,3.2-6.9,7.1
		s3.1,7.1,6.9,7.1h19.5v-0.1c2.6-0.5,4.6-2.9,4.6-5.8c0-3.2-2.6-5.9-5.7-5.9c0,0,0,0-0.1,0c-0.5-4.5-4.2-8-8.7-8.2V49h45v21.8
		c-0.5-0.1-1-0.1-1.5-0.1c-5,0-9,4.2-9,9.5c0,4.9,3.5,8.9,8,9.4v0.1h18l0,0c3.9-0.3,7-3.7,7-7.9c0-3.7-2.4-6.7-5.6-7.6
		c-1.7-2.7-4.6-4.5-7.9-4.5c-1.4,0-2.8,0.3-4,0.9V25h27v40.9c-2.1,2.5-3.5,5.8-3.5,8.8c0,3.3,1.8,6.3,4.5,8v6.9h1v-6.4
		c1.2,0.6,2.6,0.9,4,1v5.4h1v-5.4c5.3-0.3,9.5-4.4,9.5-9.5C228,69.4,223.5,62.5,218,62.5z M142.2,77.9l0.1,0.9h0.9h0.1
		c2.6,0,4.7,2.2,4.7,4.9c0,2.3-1.6,4.3-3.8,4.8l-0.5,0.1h-18.9c-3.2,0-5.9-2.7-5.9-6.1c0-3.3,2.6-6.1,5.9-6.1c0.2,0,0.4,0,0.6,0
		l0.8,0.1l0.3-0.7c0.6-1.5,1.6-2.9,3-3.8c1.4-1,3-1.5,4.6-1.5C138.2,70.5,141.7,73.7,142.2,77.9z M195.6,74.6l0.2,0.3l0.4,0.1
		c2.9,0.8,4.9,3.5,4.9,6.7c0,3.6-2.7,6.6-6.1,6.9h-0.2h-17.2l-0.4-0.1c-1.9-0.2-3.7-1.2-5-2.7c-1.3-1.6-2.1-3.6-2.1-5.7
		c0-4.7,3.6-8.5,8-8.5c1.4,0,2.7,0.4,3.9,1.1l0.6,0.4l0.5-0.5c1.5-1.3,3.4-2,5.4-2C191.3,70.6,194,72.1,195.6,74.6z M227,74.7
		c0,4.6-3.8,8.3-8.5,8.5v-3.9l4.8-3.4l-0.6-0.8l-4.2,2.9v-2.3l2.8-1.9l-0.6-0.8l-2.2,1.5v-1.8l1.7-0.9l-0.4-0.9l-1.3,0.6v-1.2h-1
		v1.2l-1.3-0.6l-0.4,0.9l1.7,0.9v1.8l-2.2-1.5l-0.6,0.8l2.8,1.9V78l-4.2-2.9l-0.6,0.8l4.8,3.4v3.9c-4.7-0.2-8.5-4-8.5-8.5
		c0-2.4,1-5.2,2.7-7.5c0.9-1.1,1.9-2.1,2.9-2.7c1.1-0.7,2.2-1,3.4-1s2.3,0.3,3.4,1c1,0.6,2,1.6,2.9,2.7C226,69.4,227,72.3,227,74.7z
		"/>
	<path class="st0" d="M655,63.5c-5.5,0-10,6.9-10,12.2c0,5.1,4.2,9.3,9.5,9.5v4.3h1v-4.3c5.3-0.3,9.5-4.4,9.5-9.5
		C665,70.4,660.5,63.5,655,63.5z M664,75.7c0,4.6-3.8,8.3-8.5,8.5v-3.9l4.8-3.4l-0.6-0.8l-4.2,2.9v-2.3l2.8-1.9l-0.6-0.8l-2.2,1.5
		v-1.8l1.7-0.9l-0.4-0.9l-1.3,0.6v-1.2h-1v1.2l-1.3-0.6l-0.4,0.9l1.7,0.9v1.8l-2.2-1.5l-0.6,0.8l2.8,1.9V79l-4.2-2.9l-0.6,0.8
		l4.8,3.4v3.9c-4.7-0.2-8.5-4-8.5-8.5c0-2.4,1-5.2,2.7-7.5c0.9-1.1,1.9-2.1,2.9-2.7c1.1-0.7,2.2-1,3.4-1s2.3,0.3,3.4,1
		c1,0.6,2,1.6,2.9,2.7C663,70.4,664,73.3,664,75.7z"/>
	<path class="st0" d="M91,63.5c-5.5,0-10,6.9-10,12.2c0,5.1,4.2,9.3,9.5,9.5v4.3h1v-4.3c5.3-0.3,9.5-4.4,9.5-9.5
		C101,70.4,96.5,63.5,91,63.5z M100,75.7c0,4.6-3.8,8.3-8.5,8.5v-3.9l4.8-3.4l-0.6-0.8L91.5,79v-2.3l2.8-1.9L93.7,74l-2.2,1.5v-1.8
		l1.7-0.9l-0.4-0.9l-1.3,0.6v-1.2h-1v1.2l-1.3-0.6l-0.4,0.9l1.7,0.9v1.8L88.3,74l-0.6,0.8l2.8,1.9V79l-4.2-2.9l-0.6,0.8l4.8,3.4v3.9
		c-4.7-0.2-8.5-4-8.5-8.5c0-2.4,1-5.2,2.7-7.5c0.9-1.1,1.9-2.1,2.9-2.7c1.1-0.7,2.2-1,3.4-1s2.3,0.3,3.4,1c1,0.6,2,1.6,2.9,2.7
		C99,70.4,100,73.3,100,75.7z"/>
	<path class="st0" d="M259,80.5h-1v-5l0,0c-0.1-1.7-1.5-3-3.2-3h-6.5c-1.7,0-3.1,1.3-3.2,3l0,0v5h-1c-1.1,0-2,0.9-2,2v2
		c0,1.1,0.9,2,2,2h1v3h3v-3h7v3h3v-3h1c1.1,0,2-0.9,2-2v-2C261,81.4,260.1,80.5,259,80.5z M247,88.5h-1v-1h1V88.5z M257,88.5h-1v-1
		h1V88.5z M248.3,73.5h6.5c1.2,0,2.1,0.9,2.2,2h-11C246.1,74.4,247.1,73.5,248.3,73.5z M246,76.5h11v4h-11V76.5z M260,84.5
		c0,0.6-0.4,1-1,1h-15c-0.6,0-1-0.4-1-1v-2c0-0.6,0.4-1,1-1h1h13h1c0.6,0,1,0.4,1,1V84.5z"/>
	<path class="st0" d="M696,80.5h-1v-5l0,0c-0.1-1.7-1.5-3-3.2-3h-6.5c-1.7,0-3.1,1.3-3.2,3l0,0v5h-1c-1.1,0-2,0.9-2,2v2
		c0,1.1,0.9,2,2,2h1v3h3v-3h7v3h3v-3h1c1.1,0,2-0.9,2-2v-2C698,81.4,697.1,80.5,696,80.5z M684,88.5h-1v-1h1V88.5z M694,88.5h-1v-1
		h1V88.5z M685.3,73.5h6.5c1.2,0,2.1,0.9,2.2,2h-11C683.1,74.4,684.1,73.5,685.3,73.5z M683,76.5h11v4h-11V76.5z M697,84.5
		c0,0.6-0.4,1-1,1h-15c-0.6,0-1-0.4-1-1v-2c0-0.6,0.4-1,1-1h1h13h1c0.6,0,1,0.4,1,1V84.5z"/>
	<path class="st0" d="M247,83.4c-0.1-0.3-0.3-0.6-0.6-0.8c-0.1-0.1-0.3-0.1-0.4-0.1s-0.3,0-0.4,0.1c-0.3,0.1-0.5,0.4-0.6,0.8v0.1
		l0,0l0,0c0,0.6,0.4,1,1,1S247,84.1,247,83.4L247,83.4L247,83.4C247,83.4,247,83.4,247,83.4z"/>
	<path class="st0" d="M684,83.3c0-0.1,0-0.1,0-0.2l0,0c0-0.1-0.1-0.2-0.2-0.3c-0.2-0.2-0.4-0.3-0.7-0.3s-0.5,0.1-0.7,0.3
		c-0.1,0.1-0.1,0.2-0.2,0.3l0,0c0,0.1,0,0.1,0,0.2s0,0.1,0,0.2l0,0l0,0c0,0.6,0.4,1,1,1s1-0.4,1-1l0,0l0,0
		C684,83.4,684,83.4,684,83.3z"/>
	<path class="st0" d="M258,83.4c-0.1-0.3-0.3-0.6-0.6-0.8c-0.1-0.1-0.3-0.1-0.4-0.1s-0.3,0-0.4,0.1c-0.3,0.1-0.5,0.4-0.6,0.8v0.1
		l0,0l0,0c0,0.6,0.4,1,1,1S258,84.1,258,83.4L258,83.4L258,83.4C258,83.4,258,83.4,258,83.4z"/>
	<path class="st0" d="M695,83.3c0-0.1,0-0.1,0-0.2l0,0c0-0.1-0.1-0.2-0.2-0.3c-0.2-0.2-0.4-0.3-0.7-0.3s-0.5,0.1-0.7,0.3
		c-0.1,0.1-0.1,0.2-0.2,0.3l0,0c0,0.1,0,0.1,0,0.2s0,0.1,0,0.2l0,0l0,0c0,0.6,0.4,1,1,1s1-0.4,1-1l0,0l0,0
		C695,83.4,695,83.4,695,83.3z"/>
	<path class="st0" d="M233,61.5c-2.8,0-5,2.2-5,5c0,2.4,1.7,4.4,4,4.9v18.1l0,0h2l0,0V71.4c2.3-0.5,4-2.5,4-4.9
		C238,63.7,235.8,61.5,233,61.5z M233,70.5c-2.2,0-4-1.8-4-4s1.8-4,4-4s4,1.8,4,4S235.2,70.5,233,70.5z"/>
	<path class="st0" d="M670,63.5c-2.8,0-5,2.2-5,5c0,2.4,1.7,4.4,4,4.9v16.1l0,0h2l0,0V73.4c2.3-0.5,4-2.5,4-4.9
		C675,65.7,672.8,63.5,670,63.5z M670,72.5c-2.2,0-4-1.8-4-4s1.8-4,4-4s4,1.8,4,4S672.2,72.5,670,72.5z"/>
	<path class="st0" d="M74,63.5c-2.8,0-5,2.2-5,5c0,2.4,1.7,4.4,4,4.9v16.1l0,0h2l0,0V73.4c2.3-0.5,4-2.5,4-4.9
		C79,65.7,76.8,63.5,74,63.5z M74,72.5c-2.2,0-4-1.8-4-4s1.8-4,4-4s4,1.8,4,4S76.2,72.5,74,72.5z"/>
	<g>
		<path class="st0" d="M192,29.5v3h-3v-3H192 M193,28.5h-5v5h5V28.5L193,28.5z"/>
	</g>
	<g>
		<path class="st0" d="M112,19.5v3h-3v-3H112 M113,18.5h-5v5h5V18.5L113,18.5z"/>
	</g>
	<g>
		<path class="st0" d="M192,37.5v3h-3v-3H192 M193,36.5h-5v5h5V36.5L193,36.5z"/>
	</g>
	<g>
		<path class="st0" d="M112,27.5v3h-3v-3H112 M113,26.5h-5v5h5V26.5L113,26.5z"/>
	</g>
	<g>
		<path class="st0" d="M112,35.5v3h-3v-3H112 M113,34.5h-5v5h5V34.5L113,34.5z"/>
	</g>
	<g>
		<path class="st0" d="M112,43.5v3h-3v-3H112 M113,42.5h-5v5h5V42.5L113,42.5z"/>
	</g>
	<g>
		<path class="st0" d="M112,51.5v3h-3v-3H112 M113,50.5h-5v5h5V50.5L113,50.5z"/>
	</g>
	<g>
		<path class="st0" d="M112,59.5v3h-3v-3H112 M113,58.5h-5v5h5V58.5L113,58.5z"/>
	</g>
	<g>
		<path class="st0" d="M112,67.5v3h-3v-3H112 M113,66.5h-5v5h5V66.5L113,66.5z"/>
	</g>
	<g>
		<path class="st0" d="M112,75.5v3h-3v-3H112 M113,74.5h-5v5h5V74.5L113,74.5z"/>
	</g>
	<g>
		<path class="st0" d="M192,45.5v3h-3v-3H192 M193,44.5h-5v5h5V44.5L193,44.5z"/>
	</g>
	<g>
		<path class="st0" d="M192,53.5v3h-3v-3H192 M193,52.5h-5v5h5V52.5L193,52.5z"/>
	</g>
	<g>
		<path class="st0" d="M141,52.5v3h-3v-3H141 M142,51.5h-5v5h5V51.5L142,51.5z"/>
	</g>
	<g>
		<path class="st0" d="M141,60.5v3h-3v-3H141 M142,59.5h-5v5h5V59.5L142,59.5z"/>
	</g>
	<g>
		<path class="st0" d="M192,61.5v3h-3v-3H192 M193,60.5h-5v5h5V60.5L193,60.5z"/>
	</g>
	<g>
		<path class="st0" d="M199,29.5v3h-3v-3H199 M200,28.5h-5v5h5V28.5L200,28.5z"/>
	</g>
	<g>
		<path class="st0" d="M119,19.5v3h-3v-3H119 M120,18.5h-5v5h5V18.5L120,18.5z"/>
	</g>
	<g>
		<path class="st0" d="M199,37.5v3h-3v-3H199 M200,36.5h-5v5h5V36.5L200,36.5z"/>
	</g>
	<g>
		<path class="st0" d="M119,27.5v3h-3v-3H119 M120,26.5h-5v5h5V26.5L120,26.5z"/>
	</g>
	<g>
		<path class="st0" d="M119,35.5v3h-3v-3H119 M120,34.5h-5v5h5V34.5L120,34.5z"/>
	</g>
	<g>
		<path class="st0" d="M119,43.5v3h-3v-3H119 M120,42.5h-5v5h5V42.5L120,42.5z"/>
	</g>
	<g>
		<path class="st0" d="M119,51.5v3h-3v-3H119 M120,50.5h-5v5h5V50.5L120,50.5z"/>
	</g>
	<g>
		<path class="st0" d="M119,59.5v3h-3v-3H119 M120,58.5h-5v5h5V58.5L120,58.5z"/>
	</g>
	<g>
		<path class="st0" d="M119,67.5v3h-3v-3H119 M120,66.5h-5v5h5V66.5L120,66.5z"/>
	</g>
	<g>
		<path class="st0" d="M199,45.5v3h-3v-3H199 M200,44.5h-5v5h5V44.5L200,44.5z"/>
	</g>
	<g>
		<path class="st0" d="M199,53.5v3h-3v-3H199 M200,52.5h-5v5h5V52.5L200,52.5z"/>
	</g>
	<g>
		<path class="st0" d="M148,52.5v3h-3v-3H148 M149,51.5h-5v5h5V51.5L149,51.5z"/>
	</g>
	<g>
		<path class="st0" d="M148,60.5v3h-3v-3H148 M149,59.5h-5v5h5V59.5L149,59.5z"/>
	</g>
	<g>
		<path class="st0" d="M148,68.5v3h-3v-3H148 M149,67.5h-5v5h5V67.5L149,67.5z"/>
	</g>
	<g>
		<path class="st0" d="M162,52.5v3h-3v-3H162 M163,51.5h-5v5h5V51.5L163,51.5z"/>
	</g>
	<g>
		<path class="st0" d="M162,60.5v3h-3v-3H162 M163,59.5h-5v5h5V59.5L163,59.5z"/>
	</g>
	<g>
		<path class="st0" d="M162,68.5v3h-3v-3H162 M163,67.5h-5v5h5V67.5L163,67.5z"/>
	</g>
	<g>
		<path class="st0" d="M162,75.5v3h-3v-3H162 M163,74.5h-5v5h5V74.5L163,74.5z"/>
	</g>
	<g>
		<path class="st0" d="M199,61.5v3h-3v-3H199 M200,60.5h-5v5h5V60.5L200,60.5z"/>
	</g>
	<g>
		<path class="st0" d="M206,29.5v3h-3v-3H206 M207,28.5h-5v5h5V28.5L207,28.5z"/>
	</g>
	<g>
		<path class="st0" d="M126,19.5v3h-3v-3H126 M127,18.5h-5v5h5V18.5L127,18.5z"/>
	</g>
	<g>
		<path class="st0" d="M206,37.5v3h-3v-3H206 M207,36.5h-5v5h5V36.5L207,36.5z"/>
	</g>
	<g>
		<path class="st0" d="M126,27.5v3h-3v-3H126 M127,26.5h-5v5h5V26.5L127,26.5z"/>
	</g>
	<g>
		<path class="st0" d="M126,35.5v3h-3v-3H126 M127,34.5h-5v5h5V34.5L127,34.5z"/>
	</g>
	<g>
		<path class="st0" d="M126,43.5v3h-3v-3H126 M127,42.5h-5v5h5V42.5L127,42.5z"/>
	</g>
	<g>
		<path class="st0" d="M126,51.5v3h-3v-3H126 M127,50.5h-5v5h5V50.5L127,50.5z"/>
	</g>
	<g>
		<path class="st0" d="M126,59.5v3h-3v-3H126 M127,58.5h-5v5h5V58.5L127,58.5z"/>
	</g>
	<g>
		<path class="st0" d="M126,67.5v3h-3v-3H126 M127,66.5h-5v5h5V66.5L127,66.5z"/>
	</g>
	<g>
		<path class="st0" d="M206,45.5v3h-3v-3H206 M207,44.5h-5v5h5V44.5L207,44.5z"/>
	</g>
	<g>
		<path class="st0" d="M206,53.5v3h-3v-3H206 M207,52.5h-5v5h5V52.5L207,52.5z"/>
	</g>
	<g>
		<path class="st0" d="M155,52.5v3h-3v-3H155 M156,51.5h-5v5h5V51.5L156,51.5z"/>
	</g>
	<g>
		<path class="st0" d="M155,60.5v3h-3v-3H155 M156,59.5h-5v5h5V59.5L156,59.5z"/>
	</g>
	<g>
		<path class="st0" d="M155,75.5v3h-3v-3H155 M156,74.5h-5v5h5V74.5L156,74.5z"/>
	</g>
	<g>
		<path class="st0" d="M169,52.5v3h-3v-3H169 M170,51.5h-5v5h5V51.5L170,51.5z"/>
	</g>
	<g>
		<path class="st0" d="M169,60.5v3h-3v-3H169 M170,59.5h-5v5h5V59.5L170,59.5z"/>
	</g>
	<g>
		<path class="st0" d="M169,68.5v3h-3v-3H169 M170,67.5h-5v5h5V67.5L170,67.5z"/>
	</g>
	<g>
		<path class="st0" d="M176,52.5v3h-3v-3H176 M177,51.5h-5v5h5V51.5L177,51.5z"/>
	</g>
	<g>
		<path class="st0" d="M176,60.5v3h-3v-3H176 M177,59.5h-5v5h5V59.5L177,59.5z"/>
	</g>
	<g>
		<path class="st0" d="M206,61.5v3h-3v-3H206 M207,60.5h-5v5h5V60.5L207,60.5z"/>
	</g>
	<g>
		<path class="st0" d="M206,69.5v3h-3v-3H206 M207,68.5h-5v5h5V68.5L207,68.5z"/>
	</g>
	<path class="st0" d="M349,83.5h1c0.6,0,1-0.4,1-1l0,0v-1l0,0c0-0.1,0-0.1,0-0.1c-0.1-0.3-0.3-0.6-0.6-0.8c-0.1-0.1-0.3-0.1-0.4-0.1
		h-1c-0.1,0-0.3,0-0.4,0.1c-0.3,0.1-0.5,0.4-0.6,0.8v0.1l0,0v1l0,0C348,83.1,348.4,83.5,349,83.5z"/>
	<path class="st0" d="M394,83.5h1c0.6,0,1-0.4,1-1l0,0v-1l0,0c0-0.1,0-0.1,0-0.2s0-0.1,0-0.2l0,0c0-0.1-0.1-0.2-0.2-0.3
		c-0.2-0.2-0.4-0.3-0.7-0.3h-1c-0.3,0-0.5,0.1-0.7,0.3c-0.1,0.1-0.1,0.2-0.2,0.3l0,0c0,0.1,0,0.1,0,0.2s0,0.1,0,0.2l0,0v1l0,0
		C393,83.1,393.4,83.5,394,83.5z"/>
	<path class="st0" d="M380,83.5h1c0.6,0,1-0.4,1-1l0,0v-1l0,0c0-0.1,0-0.1,0-0.1c-0.1-0.3-0.3-0.6-0.6-0.8c-0.1-0.1-0.3-0.1-0.4-0.1
		h-1c-0.1,0-0.3,0-0.4,0.1c-0.3,0.1-0.5,0.4-0.6,0.8v0.1l0,0v1l0,0C379,83.1,379.4,83.5,380,83.5z"/>
	<path class="st0" d="M363,83.5h1c0.6,0,1-0.4,1-1l0,0v-1l0,0c0-0.1,0-0.1,0-0.1c-0.1-0.3-0.3-0.6-0.6-0.8c-0.1-0.1-0.3-0.1-0.4-0.1
		h-1c-0.1,0-0.3,0-0.4,0.1c-0.3,0.1-0.5,0.4-0.6,0.8v0.1l0,0v1l0,0C362,83.1,362.4,83.5,363,83.5z"/>
	<path class="st0" d="M349,87.5h1c0.6,0,1-0.4,1-1l0,0v-1l0,0c0-0.1,0-0.1,0-0.1c-0.1-0.3-0.3-0.6-0.6-0.8c-0.1-0.1-0.3-0.1-0.4-0.1
		h-1c-0.1,0-0.3,0-0.4,0.1c-0.3,0.1-0.5,0.4-0.6,0.8v0.1l0,0v1l0,0C348,87.1,348.4,87.5,349,87.5z"/>
	<path class="st0" d="M394,87.5h1c0.6,0,1-0.4,1-1l0,0v-1l0,0c0-0.1,0-0.1,0-0.2s0-0.1,0-0.2l0,0c0-0.1-0.1-0.2-0.2-0.3
		c-0.2-0.2-0.4-0.3-0.7-0.3h-1c-0.3,0-0.5,0.1-0.7,0.3c-0.1,0.1-0.1,0.2-0.2,0.3l0,0c0,0.1,0,0.1,0,0.2s0,0.1,0,0.2l0,0v1l0,0
		C393,87.1,393.4,87.5,394,87.5z"/>
	<path class="st0" d="M380,87.5h1c0.6,0,1-0.4,1-1l0,0v-1l0,0c0-0.1,0-0.1,0-0.1c-0.1-0.3-0.3-0.6-0.6-0.8c-0.1-0.1-0.3-0.1-0.4-0.1
		h-1c-0.1,0-0.3,0-0.4,0.1c-0.3,0.1-0.5,0.4-0.6,0.8v0.1l0,0v1l0,0C379,87.1,379.4,87.5,380,87.5z"/>
	<path class="st0" d="M363,87.5h1c0.6,0,1-0.4,1-1l0,0v-1l0,0c0-0.1,0-0.1,0-0.1c-0.1-0.3-0.3-0.6-0.6-0.8c-0.1-0.1-0.3-0.1-0.4-0.1
		h-1c-0.1,0-0.3,0-0.4,0.1c-0.3,0.1-0.5,0.4-0.6,0.8v0.1l0,0v1l0,0C362,87.1,362.4,87.5,363,87.5z"/>
	<path class="st0" d="M349,79.5h1c0.6,0,1-0.4,1-1l0,0v-1l0,0c0-0.1,0-0.1,0-0.1c-0.1-0.3-0.3-0.6-0.6-0.8c-0.1-0.1-0.3-0.1-0.4-0.1
		h-1c-0.1,0-0.3,0-0.4,0.1c-0.3,0.1-0.5,0.4-0.6,0.8v0.1l0,0v1l0,0C348,79.1,348.4,79.5,349,79.5z"/>
	<path class="st0" d="M394,79.5h1c0.6,0,1-0.4,1-1l0,0v-1l0,0c0-0.1,0-0.1,0-0.2s0-0.1,0-0.2l0,0c0-0.1-0.1-0.2-0.2-0.3
		c-0.2-0.2-0.4-0.3-0.7-0.3h-1c-0.3,0-0.5,0.1-0.7,0.3c-0.1,0.1-0.1,0.2-0.2,0.3l0,0c0,0.1,0,0.1,0,0.2s0,0.1,0,0.2l0,0v1l0,0
		C393,79.1,393.4,79.5,394,79.5z"/>
	<path class="st0" d="M380,79.5h1c0.6,0,1-0.4,1-1l0,0v-1l0,0c0-0.1,0-0.1,0-0.1c-0.1-0.3-0.3-0.6-0.6-0.8c-0.1-0.1-0.3-0.1-0.4-0.1
		h-1c-0.1,0-0.3,0-0.4,0.1c-0.3,0.1-0.5,0.4-0.6,0.8v0.1l0,0v1l0,0C379,79.1,379.4,79.5,380,79.5z"/>
	<path class="st0" d="M363,79.5h1c0.6,0,1-0.4,1-1l0,0v-1l0,0c0-0.1,0-0.1,0-0.1c-0.1-0.3-0.3-0.6-0.6-0.8c-0.1-0.1-0.3-0.1-0.4-0.1
		h-1c-0.1,0-0.3,0-0.4,0.1c-0.3,0.1-0.5,0.4-0.6,0.8v0.1l0,0v1l0,0C362,79.1,362.4,79.5,363,79.5z"/>
	<path class="st0" d="M371.9,59.1c-0.2-0.2-0.5-0.2-0.7,0l-1,1c-0.1,0.1-0.1,0.2-0.1,0.4V64c0,0.3,0.2,0.5,0.5,0.5h2
		c0.3,0,0.5-0.2,0.5-0.5v-3.5c0-0.1-0.1-0.3-0.1-0.4L371.9,59.1z M372,63.5h-1v-2.8l0.5-0.5l0.5,0.5V63.5z"/>
	<path class="st0" d="M353,85.5h6c0.3,0,0.5-0.2,0.5-0.5v-5.5c0-0.2-0.1-0.3-0.2-0.4l-3-2c-0.2-0.1-0.4-0.1-0.6,0l-3,2
		c-0.1,0.1-0.2,0.2-0.2,0.4V85C352.5,85.2,352.7,85.5,353,85.5z M355.2,84.4v-3.7l0.8-0.6l1,0.7v3.7L355.2,84.4L355.2,84.4z
		 M353.5,79.8l2.5-1.7l2.5,1.7v4.7H358v-4c0-0.2-0.1-0.3-0.2-0.4l-1.5-1c-0.2-0.1-0.4-0.1-0.6,0l-1.3,1c-0.1,0.1-0.2,0.2-0.2,0.4v4
		h-0.7L353.5,79.8L353.5,79.8z"/>
	<path class="st0" d="M385,85.5h6c0.3,0,0.5-0.2,0.5-0.5v-5.5c0-0.2-0.1-0.3-0.2-0.4l-3-2c-0.2-0.1-0.4-0.1-0.6,0l-3,2
		c-0.1,0.1-0.2,0.2-0.2,0.4V85C384.5,85.2,384.7,85.5,385,85.5z M387.2,84.4v-3.7l0.8-0.6l1,0.7v3.7L387.2,84.4L387.2,84.4z
		 M385.5,79.8l2.5-1.7l2.5,1.7v4.7H390v-4c0-0.2-0.1-0.3-0.2-0.4l-1.5-1c-0.2-0.1-0.4-0.1-0.6,0l-1.3,1c-0.1,0.1-0.2,0.2-0.2,0.4v4
		h-0.7L385.5,79.8L385.5,79.8z"/>
	<path class="st0" d="M367,48.4c-0.1-0.3-0.3-0.6-0.6-0.8c-0.1-0.1-0.3-0.1-0.4-0.1s-0.3,0-0.4,0.1c-0.3,0.1-0.5,0.4-0.6,0.8v0.1
		l0,0v5l0,0c0,0.6,0.4,1,1,1s1-0.4,1-1l0,0V48.4L367,48.4C367,48.4,367,48.4,367,48.4z"/>
	<path class="st0" d="M372.4,47.6c-0.1-0.1-0.3-0.1-0.4-0.1s-0.3,0-0.4,0.1c-0.3,0.1-0.5,0.4-0.6,0.8v0.1l0,0v5l0,0c0,0.6,0.4,1,1,1
		s1-0.4,1-1l0,0v-5l0,0c0-0.1,0-0.1,0-0.1C372.9,48,372.7,47.7,372.4,47.6z"/>
	<path class="st0" d="M378.4,47.6c-0.1-0.1-0.3-0.1-0.4-0.1s-0.3,0-0.4,0.1c-0.3,0.1-0.5,0.4-0.6,0.8v0.1l0,0v5l0,0c0,0.6,0.4,1,1,1
		s1-0.4,1-1l0,0v-5l0,0c0-0.1,0-0.1,0-0.1C378.9,48,378.7,47.7,378.4,47.6z"/>
	<path class="st0" d="M548.5,52.5h3c0.3,0,0.5-0.2,0.5-0.5s-0.2-0.5-0.5-0.5l0,0h-3l0,0c-0.3,0-0.5,0.2-0.5,0.5
		S548.2,52.5,548.5,52.5z"/>
	<path class="st0" d="M555.5,55.5h2c0.3,0,0.5-0.2,0.5-0.5s-0.2-0.5-0.5-0.5l0,0h-2l0,0c-0.3,0-0.5,0.2-0.5,0.5
		S555.2,55.5,555.5,55.5z"/>
	<path class="st0" d="M548.5,57.5h3c0.3,0,0.5-0.2,0.5-0.5s-0.2-0.5-0.5-0.5l0,0h-3l0,0c-0.3,0-0.5,0.2-0.5,0.5
		S548.2,57.5,548.5,57.5z"/>
	<path class="st0" d="M555.5,60.5h2c0.3,0,0.5-0.2,0.5-0.5s-0.2-0.5-0.5-0.5l0,0h-2l0,0c-0.3,0-0.5,0.2-0.5,0.5
		S555.2,60.5,555.5,60.5z"/>
	<path class="st0" d="M548.5,62.5h3c0.3,0,0.5-0.2,0.5-0.5s-0.2-0.5-0.5-0.5l0,0h-3l0,0c-0.3,0-0.5,0.2-0.5,0.5
		S548.2,62.5,548.5,62.5z"/>
	<path class="st0" d="M555.5,65.5h2c0.3,0,0.5-0.2,0.5-0.5s-0.2-0.5-0.5-0.5l0,0h-2l0,0c-0.3,0-0.5,0.2-0.5,0.5
		S555.2,65.5,555.5,65.5z"/>
	<path class="st0" d="M548.5,73.5h3c0.3,0,0.5-0.2,0.5-0.5s-0.2-0.5-0.5-0.5l0,0h-3l0,0c-0.3,0-0.5,0.2-0.5,0.5
		S548.2,73.5,548.5,73.5z"/>
	<path class="st0" d="M555.5,76.5h2c0.3,0,0.5-0.2,0.5-0.5s-0.2-0.5-0.5-0.5l0,0h-2l0,0c-0.3,0-0.5,0.2-0.5,0.5
		S555.2,76.5,555.5,76.5z"/>
	<path class="st0" d="M548.5,67.5h3c0.3,0,0.5-0.2,0.5-0.5s-0.2-0.5-0.5-0.5l0,0h-3l0,0c-0.3,0-0.5,0.2-0.5,0.5
		S548.2,67.5,548.5,67.5z"/>
	<path class="st0" d="M555.5,70.5h2c0.3,0,0.5-0.2,0.5-0.5s-0.2-0.5-0.5-0.5l0,0h-2l0,0c-0.3,0-0.5,0.2-0.5,0.5
		S555.2,70.5,555.5,70.5z"/>
	<path class="st0" d="M548.5,78.5h3c0.3,0,0.5-0.2,0.5-0.5s-0.2-0.5-0.5-0.5l0,0h-3l0,0c-0.3,0-0.5,0.2-0.5,0.5
		S548.2,78.5,548.5,78.5z"/>
	<path class="st0" d="M557.5,80.5L557.5,80.5h-2l0,0c-0.3,0-0.5,0.2-0.5,0.5s0.2,0.5,0.5,0.5h2c0.3,0,0.5-0.2,0.5-0.5
		S557.8,80.5,557.5,80.5z"/>
	<path class="st0" d="M548.5,84.5h3c0.3,0,0.5-0.2,0.5-0.5s-0.2-0.5-0.5-0.5l0,0h-3l0,0c-0.3,0-0.5,0.2-0.5,0.5
		S548.2,84.5,548.5,84.5z"/>
	<path class="st0" d="M552,21.5c-1.7,0-3,1.3-3,3s1.3,3,3,3s3-1.3,3-3S553.7,21.5,552,21.5z M552,26.5c-1.1,0-2-0.9-2-2s0.9-2,2-2
		s2,0.9,2,2S553.1,26.5,552,26.5z"/>
	<path class="st0" d="M570,57.5h-5v5h5V57.5z M569,61.5h-3v-3h3V61.5z"/>
	<path class="st0" d="M595,57.5h-5v5h5V57.5z M594,61.5h-3v-3h3V61.5z"/>
	<path class="st0" d="M620,57.5h-5v5h5V57.5z M619,61.5h-3v-3h3V61.5z"/>
	<path class="st0" d="M570,65.5h-5v5h5V65.5z M569,69.5h-3v-3h3V69.5z"/>
	<path class="st0" d="M595,65.5h-5v5h5V65.5z M594,69.5h-3v-3h3V69.5z"/>
	<path class="st0" d="M620,65.5h-5v5h5V65.5z M619,69.5h-3v-3h3V69.5z"/>
	<path class="st0" d="M570,73.5h-5v5h5V73.5z M569,77.5h-3v-3h3V77.5z"/>
	<path class="st0" d="M595,73.5h-5v5h5V73.5z M594,77.5h-3v-3h3V77.5z"/>
	<path class="st0" d="M620,73.5h-5v5h5V73.5z M619,77.5h-3v-3h3V77.5z"/>
	<path class="st0" d="M577,57.5h-5v5h5V57.5z M576,61.5h-3v-3h3V61.5z"/>
	<path class="st0" d="M602,57.5h-5v5h5V57.5z M601,61.5h-3v-3h3V61.5z"/>
	<path class="st0" d="M627,57.5h-5v5h5V57.5z M626,61.5h-3v-3h3V61.5z"/>
	<path class="st0" d="M577,65.5h-5v5h5V65.5z M576,69.5h-3v-3h3V69.5z"/>
	<path class="st0" d="M602,65.5h-5v5h5V65.5z M601,69.5h-3v-3h3V69.5z"/>
	<path class="st0" d="M627,65.5h-5v5h5V65.5z M626,69.5h-3v-3h3V69.5z"/>
	<path class="st0" d="M577,73.5h-5v5h5V73.5z M576,77.5h-3v-3h3V77.5z"/>
	<path class="st0" d="M602,73.5h-5v5h5V73.5z M601,77.5h-3v-3h3V77.5z"/>
	<path class="st0" d="M627,73.5h-5v5h5V73.5z M626,77.5h-3v-3h3V77.5z"/>
	<path class="st0" d="M584,57.5h-5v5h5V57.5z M583,61.5h-3v-3h3V61.5z"/>
	<path class="st0" d="M609,57.5h-5v5h5V57.5z M608,61.5h-3v-3h3V61.5z"/>
	<path class="st0" d="M634,57.5h-5v5h5V57.5z M633,61.5h-3v-3h3V61.5z"/>
	<path class="st0" d="M584,65.5h-5v5h5V65.5z M583,69.5h-3v-3h3V69.5z"/>
	<path class="st0" d="M609,65.5h-5v5h5V65.5z M608,69.5h-3v-3h3V69.5z"/>
	<path class="st0" d="M634,65.5h-5v5h5V65.5z M633,69.5h-3v-3h3V69.5z"/>
	<path class="st0" d="M584,73.5h-5v5h5V73.5z M583,77.5h-3v-3h3V77.5z"/>
	<path class="st0" d="M609,73.5h-5v5h5V73.5z M608,77.5h-3v-3h3V77.5z"/>
	<path class="st0" d="M634,73.5h-5v5h5V73.5z M633,77.5h-3v-3h3V77.5z"/>
	<path class="st0" d="M616,48.5h-33V53h-22v-4.5V42c0-0.3-0.2-0.5-0.5-0.5l0,0c0-0.1,0-0.2-0.1-0.3l-2-3c-0.1-0.1-0.2-0.2-0.4-0.2
		v-8.5h-1v-12h-0.5c0-0.1,0-0.1,0-0.2l-0.6-1.3h0.1c0.3,0,0.5-0.2,0.5-0.5S556.3,15,556,15h-0.6l-2.9-6.6V0.5c0-0.3-0.2-0.5-0.5-0.5
		s-0.5,0.2-0.5,0.5v7.9l-2.9,6.6H548c-0.3,0-0.5,0.2-0.5,0.5s0.2,0.5,0.5,0.5h0.1l-0.6,1.3c0,0.1,0,0.1,0,0.2H547v12h-1V38
		c-0.2,0-0.3,0.1-0.4,0.2l-2,3c-0.1,0.1-0.1,0.2-0.1,0.3l0,0c-0.3,0-0.5,0.2-0.5,0.5v28.9l-8.7-2.3c-1.8-3.4-4.9-6.1-8.3-6.1
		c-2.1,0-4,1-5.6,2.5c-2.5-0.8-25.3-6.8-39.9-8.7v-0.7h-2v-6.4l-0.1-0.1l-4.2-10.3c0.5-0.2,0.8-0.6,0.8-1.3c0-1.1-1-1-1.5-3
		c-0.1,0.2-0.1,0.5-0.2,0.7c-0.5,1.3-1.3,1.4-1.3,2.3c0,0.8,0.3,1.2,0.8,1.3l-4.2,10.3l-0.1,0.1v6.4h-2v0.7c-14.9,2-69.5,12-73,12.7
		l-9.8-1.9l-1.5-1.5H382v-7.2l2-2c0.1-0.1,0.2-0.4,0.1-0.5s-0.3-0.3-0.5-0.3H381v-11h-0.2c-0.4-0.9-1.5-3.1-3.5-3.1H377v-4h2
		c0.2,0,0.4-0.1,0.5-0.3s0-0.4-0.1-0.5l-2.3-2.2v-4.8l0,0l0,0c0-2-1.2-3.8-3-4.6V22c0.6-0.5,1-1.1,1-1.9c0-1.2-1.1-3.1-2.5-3.4V12
		h1.5v-1h-1.5V9.5h-1V11H370v1h1.5v4.6c-1.4,0.4-2.5,2.2-2.5,3.4c0,0.7,0.4,1.4,1,1.9V25c-1.8,0.8-3,2.5-3,4.6l0,0v4.8l-2.3,2.2
		c-0.1,0.1-0.2,0.4-0.1,0.5c0.1,0.2,0.3,0.3,0.5,0.3h2v4h-0.3c-2.1,0-3.1,2.1-3.5,3.1H363v11h-2.4c-0.2,0-0.4,0.1-0.5,0.3
		s0,0.4,0.1,0.5l1.8,1.8v7.6l-1.2,1.2L348,69.3l0,0h-1c-0.6,0-1,0.4-1,1v2c0,0.2,0.1,0.4,0.2,0.5H345c-0.2,0-0.4,0.1-0.5,0.3
		c-0.1,0.2,0,0.4,0.2,0.6l1.3,0.9v14.7h23v0.1h6.1v-0.1H398V74.8l1.3-0.9c0.2-0.1,0.2-0.4,0.2-0.6c-0.1-0.2-0.3-0.3-0.5-0.3h-1.2
		c0.1-0.1,0.2-0.3,0.2-0.5v-2c0-0.6-0.4-1-1-1h-0.7c12.8-2.3,67.6-12.3,73.4-12.5h8.3c13.7,1.4,37.5,7.5,41.6,8.8
		c-2.2,2.5-3.6,5.9-3.6,8.9c0,5.1,4.2,9.3,9.5,9.5v5.3h1v-5.3c5.3-0.3,9.5-4.4,9.5-9.5c0-1.6-0.4-3.3-1.1-4.9l8.1,2.1V89
		c0,0.3,0.2,0.5,0.5,0.5h17h0.5l0,0h77l0,0h0.5V53H616V48.5z M584,49.5h31v3h-31V49.5z M552,9.7l2.3,5.3h-4.7L552,9.7z M554.8,16
		l0.4,1h-6.5l0.4-1H554.8z M471.5,49h4v6.6h-4V49z M476.5,55.6v-6.3l1,0.5v5.8H476.5z M473.5,39.8l3.5,8.6l-0.8-0.4h-0.1l0,0
		l-0.1-0.1l0,0h-5h-0.1l-0.1,0.1l0,0h-0.1l-0.8,0.4L473.5,39.8z M469.5,49.8l1-0.5v6.3h-1V49.8z M395,72.5h-1v-2h1V72.5z
		 M396.8,74.4h-49.7l-0.6-0.4h50.9L396.8,74.4z M393,72.5h-11v-2h11V72.5z M351,70.5h11v2h-11V70.5z M381,72.5h-1v-2h1V72.5z
		 M363,70.5h1v2h-1V70.5z M379,72.5h-14v-2h14V72.5z M349,70.5h1v2h-1V70.5z M362.2,67l0.4-0.4h19.2l0.4,0.4H362.2z M365,58.6h1v6.9
		h-1V58.6z M367,65.5v-6.9h10v6.9H367z M378,65.5v-6.9h1v6.9H378z M380,58.6h1v6.9h-1V58.6z M364,58.6v6.9h-1v-6.9H364z M364,45.6h4
		v9.9h-4V45.6z M369,40.5h-1v-3h1V40.5z M370,37.5h4v3h-4V37.5z M375,37.5h1v3h-1V37.5z M370.5,42.4h2.4c0.8,0,1.5,1.1,1.8,2.1h-6
		C369.1,43.6,369.7,42.4,370.5,42.4z M376,45.6h4v9.9h-4V45.6z M369,45.6h6v9.9h-6V45.6z M379.7,44.5H376h-0.2
		c-0.2-0.5-0.5-1.4-1.1-2.1h2.5C378.5,42.4,379.3,43.7,379.7,44.5z M371.4,26.6c0.2-0.7,0.5-1,0.6-1.1c0.1,0.1,0.4,0.4,0.6,1.1
		c0.2,0.5,0.3,1.2,0.4,1.9h-2C371.1,27.8,371.2,27.1,371.4,26.6z M371,30.5h2v3h-2V30.5z M376,30.5v3h-2v-3H376z M370,33.5h-2v-3h2
		V33.5z M375.9,28.5H374c-0.1-1.1-0.3-2.1-0.7-2.8C374.6,26.2,375.5,27.2,375.9,28.5z M371,24.5v-2h2v2H371z M372,17.5
		c1,0,2,1.6,2,2.5c0,0.8-0.9,1.5-2,1.5s-2-0.7-2-1.5C370,19.1,371,17.5,372,17.5z M370.7,25.7c-0.3,0.7-0.6,1.7-0.7,2.8h-1.9
		C368.5,27.2,369.4,26.2,370.7,25.7z M367.7,35h8.6l1.5,1.4h-11.5L367.7,35z M366.7,42.4h2c-0.5,0.7-0.9,1.5-1.1,2.1h-3.3
		C364.7,43.7,365.5,42.4,366.7,42.4z M382.5,56.5l-1,1H380h-2h-12h-2h-1.3l-1-1H382.5z M361,68h22l7.7,1.5h-37.4L361,68z M348,70.5
		v2h-1v-2H348z M347,70v0.5l0,0V70z M371,80.9v-1.7l1-1l1,1v1.7H371z M370,82.6l0.9-0.7h2.2l0.9,0.7v5.9h-4V82.6z M397,88.5h-20.5
		v-11c0-0.3-0.2-0.5-0.5-0.5s-0.5,0.2-0.5,0.5v11h-0.4v-6.4l-1.1-0.9v-2.4l-2-2l-2,2v2.5l-1,0.8v6.4h-0.5v-11c0-0.3-0.2-0.5-0.5-0.5
		s-0.5,0.2-0.5,0.5v11H347v-13h50V88.5z M397,72.5h-1v-2h1V72.5z M526.5,83.2v-3.9l4.8-3.4l-0.6-0.8l-4.2,2.9v-2.3l2.8-1.9l-0.6-0.8
		l-2.2,1.5v-1.8l1.7-0.9l-0.4-0.9l-1.3,0.6v-1.2h-1v1.2l-1.3-0.6l-0.4,0.9l1.7,0.9v1.8l-2.2-1.5l-0.6,0.8l2.8,1.9V78l-4.2-2.9
		l-0.6,0.8l4.8,3.4v3.9c-4.7-0.2-8.5-4-8.5-8.5c0-2.4,1-5.2,2.7-7.5c0.9-1.1,1.9-2.1,2.9-2.7c1.1-0.7,2.2-1,3.4-1s2.3,0.3,3.4,1
		c1,0.6,2,1.6,2.9,2.7c1.7,2.2,2.7,5.1,2.7,7.5C535,79.2,531.2,83,526.5,83.2z M554.5,41h-1v-2h1V41z M551.5,39h1v2h-1V39z
		 M550.5,39v2h-1v-2H550.5z M555.5,41v-2h1v2H555.5z M547.5,39h1v2h-1V39z M559.1,41h-1.6v-2h0.2L559.1,41z M548,18.5h8v11h-8V18.5z
		 M547,30.5h10v7h-0.5v-6c0-0.3-0.2-0.5-0.5-0.5s-0.5,0.2-0.5,0.5v6h-1v-6c0-0.3-0.2-0.5-0.5-0.5s-0.5,0.2-0.5,0.5v6h-1v-6
		c0-0.3-0.2-0.5-0.5-0.5s-0.5,0.2-0.5,0.5v6h-1v-6c0-0.3-0.2-0.5-0.5-0.5s-0.5,0.2-0.5,0.5v6h-1v-6c0-0.3-0.2-0.5-0.5-0.5
		s-0.5,0.2-0.5,0.5v6H547V30.5z M546.3,39h0.2v2h-1.6L546.3,39z M544,42.5h16V48h-13c-0.3,0-0.5,0.2-0.5,0.5v40H544V42.5z M553.5,49
		v39.4h-6V49H553.5z M560,88.4h-5.5V49h5.5V88.4z M637.5,88h-76V54h76V88z"/>
	<path class="st0" d="M63,81.5h-1V61.9l0.8-1c0.1-0.1,0.1-0.4,0.1-0.5s-0.1-0.1-0.2-0.2c0.1-0.2,0.2-0.4,0.2-0.6v-1c0-0.6-0.4-1-1-1
		h-4c-0.6,0-1,0.4-1,1v0.8H56c-0.2-0.9-0.8-2-2.3-2s-2.1,1.1-2.3,2H51v-3.8c0-0.6-0.4-1-1-1h-3c0.2,0,0.5,0,0.7-0.1
		c1.3-0.2,2.3-1,2.3-1.9l0,0l0,0h-6l0,0l0,0c0,0.9,1,1.7,2.2,1.9c0.2,0,0.5,0.1,0.8,0.1h-3v-1h-5c-0.3-3.4-3.3-6-7-6s-6.7,2.6-7,6
		h-5v1h-3c0.2,0,0.5,0,0.7-0.1c1.3-0.2,2.3-1,2.3-1.9l0,0l0,0h-6l0,0l0,0c0,0.9,1,1.7,2.2,1.9c0.2,0,0.5,0.1,0.8,0.1h-3
		c-0.6,0-1,0.4-1,1v3.8h-0.5c-0.2-1.2-1.3-2-2.6-2c-1.2,0-2.2,0.9-2.4,2H7v-0.8c0-0.6-0.4-1-1-1H2c-0.6,0-1,0.4-1,1v1
		c0,0.2,0.1,0.4,0.2,0.6c-0.1,0-0.1,0.1-0.1,0.2c-0.1,0.1-0.1,0.3,0,0.4l0.9,1v19.6H1v6H0l0,0v2l0,0h3h2h3l0,0v-2l0,0H7v-6H6V67h8
		v11.5h-1v9h-1l0,0v2l0,0h10l0,0v-2l0,0h-1v-9h-1v-14h24v14h-1v9h-1l0,0v2l0,0h10l0,0v-2l0,0h-1v-9h-1V67h8v14.5h-1v6h-1l0,0v2l0,0
		h3h2h3l0,0v-2l0,0h-1V81.5z M57.2,60C57.2,60.1,57.2,60.1,57.2,60C57.2,60.1,57.2,60.1,57.2,60L57.2,60z M58.6,61h2.8L61,61.5h-2
		L58.6,61z M58,58.5h4v1h-4V58.5z M58,58v0.5l0,0V58z M52.4,60.3v-0.5c0-0.3,0.1-1.5,1.4-1.5s1.4,1.3,1.4,1.5v0.5h2
		c-0.1,0.2,0,0.3,0.1,0.5l0.9,1V64h-8v-2.4l0.8-0.7c0.2-0.1,0.2-0.4,0.1-0.6l0,0H52.4z M45.5,61.5L44.9,61h4.2l-0.6,0.5H45.5z
		 M44,62H20v-0.4l0.8-0.7c0.1-0.1,0.2-0.2,0.2-0.4h11h11.1c0,0.1,0,0.3,0.2,0.4l0.8,0.7L44,62L44,62z M15.5,61.5L14.9,61h4.2
		l-0.6,0.5H15.5z M50,55.5v4h-6v-4H50z M25,54.5h0.9l0.1-0.9c0.1-1.4,0.8-2.6,1.9-3.6s2.6-1.5,4.1-1.5s3,0.5,4.1,1.5
		c1.1,0.9,1.8,2.2,1.9,3.6l0.1,0.9H39h4v1l0,0v4l0,0H32H21l0,0v-4l0,0v-1H25z M14,55.5h6v4h-6V55.5z M14,55v0.5l0,0V55z M8.5,60.3
		v-0.5c0-0.8,0.6-1.5,1.5-1.5c0.8,0,1.5,0.6,1.5,1.5v0.5h1.6c-0.1,0.2,0,0.4,0.1,0.5l0.8,0.7V64H6v-2.1l0.8-1
		C7,60.7,7,60.5,6.9,60.3H8.5z M2.6,61h2.8L5,61.5H3L2.6,61z M2,58.5h4v1H2V58.5z M2,58v0.5l0,0V58z M6,87.5H5v-4l0,0H3l0,0v4H2v-5
		h4V87.5z M3,81.5v-19h2v19H3z M6,66v-1h8v1H6z M20,86.5h-6v-7h6V86.5z M15,78.5v-16h0.1c0.1,0,0.1,0,0.2,0h3.4c0.1,0,0.1,0,0.2,0
		H19v16H15z M20,63.5V63h24v0.5H20z M50,86.5h-6v-7h6V86.5z M45,78.5v-16h0.1c0.1,0,0.1,0,0.2,0h3.4c0.1,0,0.1,0,0.2,0H49v16H45z
		 M50,66v-1h8v1H50z M59,62.5h2v19h-2V62.5z M58,82.5h4v5h-1v-4l0,0h-2l0,0v4h-1V82.5z"/>
	<polygon class="st0" points="19,85.5 19,80.5 19,80.5 15,80.5 15,80.5 15,85.5 15,85.5 	"/>
	<polygon class="st0" points="49,85.5 49,80.5 49,80.5 45,80.5 45,80.5 45,85.5 45,85.5 	"/>
	<path class="st0" d="M13,60.5H7v3h6V60.5z M12,62.5H8v-1h4V62.5z"/>
	<path class="st0" d="M57,60.5h-6v3h6V60.5z M56,62.5h-4v-1h4V62.5z"/>
	<path class="st0" d="M32,54.5c1.1,0,2-0.9,2-2l0,0l0,0v-0.1c-0.1-0.8-0.6-1.5-1.3-1.7c-0.2-0.1-0.4-0.1-0.7-0.1s-0.5,0-0.7,0.1
		C30.6,51,30,51.6,30,52.4v0.1l0,0l0,0C30,53.6,30.9,54.5,32,54.5z"/>
	<rect x="25.9" y="57" class="st0" width="5.1" height="1"/>
	<rect x="33" y="57" class="st0" width="5.1" height="1"/>
	<path class="st0" d="M474,51c0-0.3-0.2-0.5-0.5-0.5S473,50.7,473,51l0,0l0,0v3l0,0c0,0.3,0.2,0.5,0.5,0.5s0.5-0.2,0.5-0.5l0,0V51
		L474,51L474,51z"/>
</g>
</svg>
