<?xml version="1.0" encoding="utf-8"?>
<!-- Generator: Adobe Illustrator 23.1.0, SVG Export Plug-In . SVG Version: 6.00 Build 0)  -->
<svg version="1.1" id="Слой_1" xmlns="http://www.w3.org/2000/svg" xmlns:xlink="http://www.w3.org/1999/xlink" x="0px" y="0px"
	 viewBox="0 0 211 31" style="enable-background:new 0 0 211 31;" xml:space="preserve">
<style type="text/css">
	.st0{enable-background:new    ;}
	.st1{fill:#FFFFFF;}
</style>
<g id="Сгруппировать_1236" transform="translate(20525 -5776)">
	<g id="Сгруппировать_1235" transform="translate(-20525 5779.852)">
		<g class="st0">
			<path class="st1" d="M27,21.8h-3.8V7.3c-1.4,1.3-3.1,2.3-5,2.9V6.7c1-0.3,2.1-1,3.3-1.9s2-2,2.4-3.2H27V21.8z"/>
			<path class="st1" d="M41,21.8h-3.8V7.3c-1.4,1.3-3.1,2.3-5,2.9V6.7c1-0.3,2.1-1,3.3-1.9s2-2,2.4-3.2H41V21.8z"/>
			<path class="st1" d="M59.8,18.2v3.6H46.3c0.1-1.3,0.6-2.6,1.3-3.8c0.7-1.2,2.2-2.8,4.3-4.8c1.7-1.6,2.8-2.7,3.2-3.3
				c0.5-0.8,0.8-1.6,0.8-2.4c0-0.9-0.2-1.5-0.7-2c-0.5-0.5-1.1-0.7-1.9-0.7c-0.8,0-1.4,0.2-1.9,0.7c-0.5,0.5-0.7,1.3-0.8,2.4
				l-3.8-0.4C47,5.4,47.7,3.9,48.9,3s2.7-1.4,4.5-1.4c2,0,3.5,0.5,4.7,1.6c1.1,1.1,1.7,2.4,1.7,4c0,0.9-0.2,1.8-0.5,2.6
				c-0.3,0.8-0.8,1.7-1.5,2.6c-0.5,0.6-1.3,1.4-2.5,2.6c-1.2,1.1-2,1.9-2.3,2.2c-0.3,0.4-0.6,0.7-0.8,1.1H59.8z"/>
		</g>
		<g id="phone-volume">
			<path class="st1" d="M8.2,23.2c-6.4-5.6-7-15.4-1.4-21.7c0.4-0.5,0.9-1,1.4-1.4C8.5-0.2,9-0.3,9.4,0l3.5,2c0.4,0.2,0.5,0.6,0.4,1
				l-1.7,4c-0.2,0.4-0.6,0.6-0.9,0.5l-3-0.3c-1.1,2.8-1.1,6,0,8.8l3-0.3c0.4,0,0.8,0.2,0.9,0.5l1.7,4c0.2,0.4,0,0.8-0.4,1l-3.5,2
				C9,23.5,8.5,23.5,8.2,23.2z"/>
		</g>
	</g>
	<g class="st0">
		<path class="st1" d="M-20447.7,5786l1.4,0.4c-0.2,0.8-0.6,1.4-1.1,1.7c-0.5,0.4-1.1,0.6-1.9,0.6c-0.9,0-1.7-0.3-2.3-1
			c-0.6-0.7-0.9-1.5-0.9-2.7c0-1.2,0.3-2.1,0.9-2.8c0.6-0.7,1.4-1,2.4-1c0.9,0,1.6,0.3,2.1,0.8c0.3,0.3,0.6,0.7,0.7,1.3l-1.4,0.3
			c-0.1-0.4-0.3-0.7-0.5-0.9c-0.3-0.2-0.6-0.3-1-0.3c-0.5,0-1,0.2-1.3,0.6s-0.5,1-0.5,1.9c0,0.9,0.2,1.5,0.5,1.9s0.7,0.6,1.3,0.6
			c0.4,0,0.7-0.1,1-0.4C-20448,5786.9-20447.8,5786.5-20447.7,5786z"/>
		<path class="st1" d="M-20444.4,5781.4h1.4v4.8l2.9-4.8h1.4v7.2h-1.4v-4.7l-2.9,4.7h-1.4V5781.4z"/>
		<path class="st1" d="M-20431.9,5786l1.4,0.4c-0.2,0.8-0.6,1.4-1.1,1.7c-0.5,0.4-1.1,0.6-1.9,0.6c-1,0-1.7-0.3-2.3-1
			c-0.6-0.7-0.9-1.5-0.9-2.7c0-1.2,0.3-2.1,0.9-2.8c0.6-0.7,1.4-1,2.4-1c0.9,0,1.6,0.3,2.1,0.8c0.3,0.3,0.6,0.7,0.7,1.3l-1.4,0.3
			c-0.1-0.4-0.3-0.7-0.5-0.9c-0.3-0.2-0.6-0.3-1-0.3c-0.5,0-1,0.2-1.3,0.6c-0.3,0.4-0.5,1-0.5,1.9c0,0.9,0.2,1.5,0.5,1.9
			c0.3,0.4,0.8,0.6,1.3,0.6c0.4,0,0.7-0.1,1-0.4S-20432.1,5786.5-20431.9,5786z"/>
		<path class="st1" d="M-20427.3,5788.6v-5.9h-2.1v-1.2h5.7v1.2h-2.1v5.9H-20427.3z"/>
		<path class="st1" d="M-20422.1,5788.6v-7.2h5.3v1.2h-3.9v1.6h3.6v1.2h-3.6v1.9h4v1.2H-20422.1z"/>
		<path class="st1" d="M-20414.8,5788.6v-7.2h2.2l1.3,4.9l1.3-4.9h2.2v7.2h-1.3v-5.6l-1.4,5.6h-1.4l-1.4-5.6v5.6H-20414.8z"/>
		<path class="st1" d="M-20399.3,5788.6h-1.6l-0.6-1.6h-2.9l-0.6,1.6h-1.5l2.8-7.2h1.5L-20399.3,5788.6z M-20402,5785.8l-1-2.7
			l-1,2.7H-20402z"/>
		<path class="st1" d="M-20394.7,5785.1c0-0.7,0.1-1.3,0.3-1.8c0.2-0.4,0.4-0.7,0.7-1c0.3-0.3,0.6-0.5,0.9-0.6
			c0.4-0.2,1-0.3,1.5-0.3c1.1,0,1.9,0.3,2.5,1c0.6,0.7,1,1.6,1,2.7c0,1.2-0.3,2.1-0.9,2.7c-0.6,0.7-1.5,1-2.5,1
			c-1.1,0-1.9-0.3-2.5-1C-20394.4,5787.1-20394.7,5786.2-20394.7,5785.1z M-20393.2,5785c0,0.8,0.2,1.4,0.6,1.8
			c0.4,0.4,0.8,0.6,1.4,0.6s1-0.2,1.4-0.6c0.4-0.4,0.6-1,0.6-1.9c0-0.8-0.2-1.4-0.5-1.8c-0.4-0.4-0.8-0.6-1.4-0.6s-1.1,0.2-1.4,0.6
			C-20393,5783.6-20393.2,5784.2-20393.2,5785z"/>
		<path class="st1" d="M-20386,5781.4h5.7v7.2h-1.4v-6h-2.8v6h-1.4V5781.4z"/>
		<path class="st1" d="M-20378.4,5785.1c0-0.7,0.1-1.3,0.3-1.8c0.2-0.4,0.4-0.7,0.7-1c0.3-0.3,0.6-0.5,0.9-0.6
			c0.4-0.2,1-0.3,1.5-0.3c1.1,0,1.9,0.3,2.5,1c0.6,0.7,1,1.6,1,2.7c0,1.2-0.3,2.1-0.9,2.7c-0.6,0.7-1.5,1-2.5,1
			c-1.1,0-1.9-0.3-2.5-1C-20378.1,5787.1-20378.4,5786.2-20378.4,5785.1z M-20376.9,5785c0,0.8,0.2,1.4,0.6,1.8
			c0.4,0.4,0.9,0.6,1.4,0.6c0.6,0,1.1-0.2,1.4-0.6c0.4-0.4,0.6-1,0.6-1.9c0-0.8-0.2-1.4-0.5-1.8s-0.8-0.6-1.4-0.6
			c-0.6,0-1.1,0.2-1.4,0.6C-20376.7,5783.6-20376.9,5784.2-20376.9,5785z"/>
		<path class="st1" d="M-20369.7,5781.4h2.9c0.6,0,1,0,1.3,0.1c0.3,0,0.5,0.1,0.7,0.3c0.2,0.1,0.4,0.3,0.5,0.6
			c0.1,0.2,0.2,0.5,0.2,0.8c0,0.3-0.1,0.6-0.3,0.9c-0.2,0.3-0.4,0.5-0.7,0.6c0.4,0.1,0.8,0.3,1,0.6s0.4,0.7,0.4,1.1
			c0,0.3-0.1,0.6-0.2,1c-0.2,0.3-0.4,0.6-0.6,0.7c-0.3,0.2-0.6,0.3-1,0.3c-0.2,0-0.8,0-1.7,0h-2.4V5781.4z M-20368.2,5782.6v1.7h0.9
			c0.6,0,0.9,0,1,0c0.2,0,0.4-0.1,0.6-0.3c0.1-0.1,0.2-0.3,0.2-0.6c0-0.2-0.1-0.4-0.2-0.5c-0.1-0.1-0.3-0.2-0.5-0.3
			c-0.1,0-0.6,0-1.2,0H-20368.2z M-20368.2,5785.5v1.9h1.3c0.5,0,0.8,0,1,0c0.2,0,0.4-0.1,0.5-0.3c0.1-0.2,0.2-0.4,0.2-0.6
			c0-0.2-0.1-0.4-0.2-0.5c-0.1-0.1-0.3-0.3-0.5-0.3c-0.2-0.1-0.6-0.1-1.3-0.1H-20368.2z"/>
		<path class="st1" d="M-20361.8,5788.6v-7.2h5.3v1.2h-3.9v1.6h3.6v1.2h-3.6v1.9h4v1.2H-20361.8z"/>
		<path class="st1" d="M-20354.4,5781.4h1.4v6h2.1v-6h1.4v6h2.1v-6h1.4v6h0.6v2.8h-1.2v-1.6h-8V5781.4z"/>
		<path class="st1" d="M-20343.6,5788.6v-7.2h5.3v1.2h-3.9v1.6h3.6v1.2h-3.6v1.9h4v1.2H-20343.6z"/>
		<path class="st1" d="M-20336.2,5788.6v-7.2h1.4v2.8h2.8v-2.8h1.4v7.2h-1.4v-3.1h-2.8v3.1H-20336.2z"/>
		<path class="st1" d="M-20328.3,5781.4h1.4v4.8l2.9-4.8h1.4v7.2h-1.4v-4.7l-2.9,4.7h-1.4V5781.4z"/>
		<path class="st1" d="M-20316.2,5788.6v-3h-0.3c-0.5,0-0.8,0.1-1,0.2c-0.2,0.1-0.5,0.5-1,1.2l-1,1.6h-1.7l0.9-1.4
			c0.3-0.6,0.6-0.9,0.8-1.2c0.2-0.2,0.5-0.4,0.8-0.6c-0.7-0.1-1.1-0.3-1.4-0.7c-0.3-0.4-0.4-0.8-0.4-1.3c0-0.4,0.1-0.8,0.3-1.2
			c0.2-0.3,0.5-0.6,0.9-0.7c0.4-0.1,0.9-0.2,1.6-0.2h3v7.2H-20316.2z M-20316.2,5782.7h-1.1c-0.6,0-0.9,0-1.1,0s-0.3,0.1-0.5,0.3
			c-0.1,0.1-0.2,0.3-0.2,0.6c0,0.3,0.1,0.5,0.2,0.6c0.1,0.1,0.3,0.2,0.5,0.3c0.2,0,0.6,0.1,1.2,0.1h1.1V5782.7z"/>
	</g>
	<g class="st0">
		<path class="st1" d="M-20452.3,5795.2h1.3v2.7c0.3,0,0.5-0.1,0.6-0.2s0.3-0.5,0.5-1c0.3-0.7,0.5-1.1,0.8-1.3
			c0.3-0.2,0.7-0.3,1.3-0.3c0,0,0.1,0,0.2,0v1l-0.2,0c-0.3,0-0.5,0-0.6,0.1c-0.1,0.1-0.2,0.2-0.3,0.3c-0.1,0.1-0.2,0.4-0.3,0.8
			c-0.1,0.2-0.2,0.4-0.3,0.6c-0.1,0.2-0.3,0.3-0.5,0.4c0.3,0.1,0.5,0.2,0.7,0.5c0.2,0.2,0.4,0.6,0.6,1.1l0.9,1.8h-1.5l-0.8-1.7
			c0,0,0-0.1-0.1-0.1c0,0-0.1-0.1-0.2-0.3c-0.2-0.3-0.3-0.5-0.4-0.6c-0.1-0.1-0.3-0.1-0.5-0.1v2.8h-1.3V5795.2z"/>
		<path class="st1" d="M-20444.9,5801.6v-6.4h2.1c0.8,0,1.3,0,1.5,0.1c0.4,0.1,0.7,0.3,0.9,0.6c0.3,0.3,0.4,0.7,0.4,1.3
			c0,0.4-0.1,0.7-0.2,1c-0.1,0.3-0.3,0.5-0.5,0.6c-0.2,0.2-0.4,0.3-0.7,0.3c-0.3,0.1-0.8,0.1-1.3,0.1h-0.8v2.4H-20444.9z
			 M-20443.6,5796.3v1.8h0.7c0.5,0,0.9,0,1-0.1c0.2-0.1,0.3-0.2,0.4-0.3s0.1-0.3,0.1-0.5c0-0.2-0.1-0.4-0.2-0.6
			c-0.1-0.2-0.3-0.2-0.5-0.3c-0.2,0-0.5,0-0.9,0H-20443.6z"/>
		<path class="st1" d="M-20432,5801.6h-1.4l-0.6-1.5h-2.6l-0.5,1.5h-1.4l2.5-6.4h1.4L-20432,5801.6z M-20434.4,5799.1l-0.9-2.4
			l-0.9,2.4H-20434.4z"/>
		<path class="st1" d="M-20425.5,5799.2l1.3,0.4c-0.2,0.7-0.5,1.2-1,1.6c-0.4,0.3-1,0.5-1.7,0.5c-0.9,0-1.6-0.3-2.1-0.9
			c-0.6-0.6-0.8-1.4-0.8-2.4c0-1.1,0.3-1.9,0.8-2.5c0.6-0.6,1.3-0.9,2.2-0.9c0.8,0,1.4,0.2,1.9,0.7c0.3,0.3,0.5,0.7,0.7,1.2
			l-1.3,0.3c-0.1-0.3-0.2-0.6-0.5-0.8s-0.5-0.3-0.9-0.3c-0.5,0-0.9,0.2-1.2,0.5c-0.3,0.3-0.4,0.9-0.4,1.7c0,0.8,0.1,1.4,0.4,1.7
			s0.7,0.5,1.1,0.5c0.3,0,0.6-0.1,0.9-0.3C-20425.8,5800.1-20425.6,5799.7-20425.5,5799.2z"/>
		<path class="st1" d="M-20421.2,5801.6v-6.4h1.3v2.5h2.5v-2.5h1.3v6.4h-1.3v-2.8h-2.5v2.8H-20421.2z"/>
		<path class="st1" d="M-20413.1,5798.4c0-0.7,0.1-1.2,0.3-1.7c0.1-0.3,0.3-0.6,0.6-0.9s0.5-0.5,0.8-0.6c0.4-0.2,0.9-0.3,1.4-0.3
			c0.9,0,1.7,0.3,2.3,0.9s0.9,1.4,0.9,2.5c0,1-0.3,1.9-0.8,2.4c-0.6,0.6-1.3,0.9-2.3,0.9c-1,0-1.7-0.3-2.3-0.9
			C-20412.8,5800.3-20413.1,5799.4-20413.1,5798.4z M-20411.8,5798.4c0,0.7,0.2,1.3,0.5,1.7c0.3,0.4,0.8,0.6,1.3,0.6
			c0.5,0,0.9-0.2,1.3-0.6c0.3-0.4,0.5-0.9,0.5-1.7c0-0.7-0.2-1.3-0.5-1.7c-0.3-0.4-0.8-0.5-1.3-0.5c-0.5,0-1,0.2-1.3,0.6
			C-20411.6,5797.1-20411.8,5797.6-20411.8,5798.4z"/>
		<path class="st1" d="M-20400.2,5801.6v-2.7h-0.3c-0.4,0-0.7,0.1-0.9,0.2c-0.2,0.1-0.5,0.5-0.9,1.1l-0.9,1.4h-1.6l0.8-1.3
			c0.3-0.5,0.6-0.8,0.7-1c0.2-0.2,0.4-0.4,0.7-0.5c-0.6-0.1-1-0.3-1.3-0.6c-0.3-0.3-0.4-0.7-0.4-1.2c0-0.4,0.1-0.7,0.3-1
			c0.2-0.3,0.5-0.5,0.8-0.6c0.3-0.1,0.8-0.2,1.5-0.2h2.7v6.4H-20400.2z M-20400.2,5796.3h-1c-0.5,0-0.9,0-1,0
			c-0.2,0-0.3,0.1-0.4,0.2s-0.2,0.3-0.2,0.5c0,0.2,0.1,0.4,0.2,0.5c0.1,0.1,0.3,0.2,0.4,0.2c0.2,0,0.5,0,1.1,0h1V5796.3z"/>
		<path class="st1" d="M-20395.7,5801.6v-6.4h2.1c0.8,0,1.3,0,1.5,0.1c0.4,0.1,0.7,0.3,0.9,0.6c0.3,0.3,0.4,0.7,0.4,1.3
			c0,0.4-0.1,0.7-0.2,1s-0.3,0.5-0.5,0.6c-0.2,0.2-0.4,0.3-0.7,0.3c-0.3,0.1-0.8,0.1-1.3,0.1h-0.8v2.4H-20395.7z M-20394.4,5796.3
			v1.8h0.7c0.5,0,0.9,0,1-0.1c0.2-0.1,0.3-0.2,0.4-0.3c0.1-0.1,0.1-0.3,0.1-0.5c0-0.2-0.1-0.4-0.2-0.6c-0.1-0.2-0.3-0.2-0.5-0.3
			c-0.2,0-0.5,0-0.9,0H-20394.4z"/>
		<path class="st1" d="M-20383.8,5799.2l1.3,0.4c-0.2,0.7-0.5,1.2-1,1.6c-0.4,0.3-1,0.5-1.7,0.5c-0.9,0-1.6-0.3-2.1-0.9
			c-0.6-0.6-0.8-1.4-0.8-2.4c0-1.1,0.3-1.9,0.8-2.5c0.6-0.6,1.3-0.9,2.2-0.9c0.8,0,1.4,0.2,1.9,0.7c0.3,0.3,0.5,0.7,0.7,1.2
			l-1.3,0.3c-0.1-0.3-0.2-0.6-0.5-0.8s-0.5-0.3-0.9-0.3c-0.5,0-0.9,0.2-1.2,0.5c-0.3,0.3-0.4,0.9-0.4,1.7c0,0.8,0.1,1.4,0.4,1.7
			s0.7,0.5,1.1,0.5c0.3,0,0.6-0.1,0.9-0.3C-20384.1,5800.1-20384,5799.7-20383.8,5799.2z"/>
		<path class="st1" d="M-20379.5,5795.2h1.3v2.7c0.3,0,0.5-0.1,0.6-0.2c0.1-0.1,0.3-0.5,0.5-1c0.3-0.7,0.5-1.1,0.8-1.3
			c0.3-0.2,0.7-0.3,1.3-0.3c0,0,0.1,0,0.2,0v1l-0.2,0c-0.3,0-0.5,0-0.6,0.1c-0.1,0.1-0.2,0.2-0.3,0.3c-0.1,0.1-0.2,0.4-0.3,0.8
			c-0.1,0.2-0.2,0.4-0.3,0.6c-0.1,0.2-0.3,0.3-0.5,0.4c0.3,0.1,0.5,0.2,0.7,0.5s0.4,0.6,0.6,1.1l0.9,1.8h-1.5l-0.8-1.7
			c0,0,0-0.1-0.1-0.1c0,0-0.1-0.1-0.2-0.3c-0.2-0.3-0.3-0.5-0.4-0.6s-0.3-0.1-0.5-0.1v2.8h-1.3V5795.2z"/>
		<path class="st1" d="M-20372.4,5798.4c0-0.7,0.1-1.2,0.3-1.7c0.1-0.3,0.3-0.6,0.6-0.9s0.5-0.5,0.8-0.6c0.4-0.2,0.9-0.3,1.4-0.3
			c0.9,0,1.7,0.3,2.3,0.9s0.9,1.4,0.9,2.5c0,1-0.3,1.9-0.8,2.4c-0.6,0.6-1.3,0.9-2.3,0.9c-1,0-1.7-0.3-2.3-0.9
			C-20372.1,5800.3-20372.4,5799.4-20372.4,5798.4z M-20371.1,5798.4c0,0.7,0.2,1.3,0.5,1.7c0.3,0.4,0.8,0.6,1.3,0.6
			c0.5,0,0.9-0.2,1.3-0.6c0.3-0.4,0.5-0.9,0.5-1.7c0-0.7-0.2-1.3-0.5-1.7c-0.3-0.4-0.8-0.5-1.3-0.5c-0.5,0-1,0.2-1.3,0.6
			C-20370.9,5797.1-20371.1,5797.6-20371.1,5798.4z"/>
		<path class="st1" d="M-20363.2,5795.2h4.4v1.1h-3.1v5.4h-1.3V5795.2z"/>
		<path class="st1" d="M-20356.6,5798.4c0-0.7,0.1-1.2,0.3-1.7c0.1-0.3,0.3-0.6,0.6-0.9c0.3-0.3,0.5-0.5,0.8-0.6
			c0.4-0.2,0.9-0.3,1.4-0.3c0.9,0,1.7,0.3,2.3,0.9c0.6,0.6,0.9,1.4,0.9,2.5c0,1-0.3,1.9-0.8,2.4c-0.6,0.6-1.3,0.9-2.3,0.9
			c-1,0-1.7-0.3-2.3-0.9C-20356.3,5800.3-20356.6,5799.4-20356.6,5798.4z M-20355.3,5798.4c0,0.7,0.2,1.3,0.5,1.7
			c0.3,0.4,0.8,0.6,1.3,0.6c0.5,0,0.9-0.2,1.3-0.6c0.3-0.4,0.5-0.9,0.5-1.7c0-0.7-0.2-1.3-0.5-1.7s-0.8-0.5-1.3-0.5
			c-0.5,0-1,0.2-1.3,0.6C-20355.1,5797.1-20355.3,5797.6-20355.3,5798.4z"/>
		<path class="st1" d="M-20343,5795.2h1.3v2.7c0.3,0,0.5-0.1,0.6-0.2c0.1-0.1,0.3-0.5,0.5-1c0.3-0.7,0.5-1.1,0.8-1.3
			c0.3-0.2,0.7-0.3,1.3-0.3c0,0,0.1,0,0.2,0v1l-0.2,0c-0.3,0-0.5,0-0.6,0.1c-0.1,0.1-0.2,0.2-0.3,0.3c-0.1,0.1-0.2,0.4-0.3,0.8
			c-0.1,0.2-0.2,0.4-0.3,0.6c-0.1,0.2-0.3,0.3-0.5,0.4c0.3,0.1,0.5,0.2,0.7,0.5c0.2,0.2,0.4,0.6,0.6,1.1l0.9,1.8h-1.5l-0.8-1.7
			c0,0,0-0.1-0.1-0.1c0,0-0.1-0.1-0.2-0.3c-0.2-0.3-0.3-0.5-0.4-0.6s-0.3-0.1-0.5-0.1v2.8h-1.3V5795.2z"/>
		<path class="st1" d="M-20335.6,5801.6v-6.4h2.1c0.8,0,1.3,0,1.5,0.1c0.4,0.1,0.7,0.3,0.9,0.6c0.2,0.3,0.4,0.7,0.4,1.3
			c0,0.4-0.1,0.7-0.2,1s-0.3,0.5-0.5,0.6c-0.2,0.2-0.4,0.3-0.7,0.3c-0.3,0.1-0.8,0.1-1.3,0.1h-0.8v2.4H-20335.6z M-20334.3,5796.3
			v1.8h0.7c0.5,0,0.9,0,1-0.1c0.2-0.1,0.3-0.2,0.4-0.3c0.1-0.1,0.1-0.3,0.1-0.5c0-0.2-0.1-0.4-0.2-0.6c-0.1-0.2-0.3-0.2-0.5-0.3
			c-0.2,0-0.5,0-0.9,0H-20334.3z"/>
		<path class="st1" d="M-20322.7,5801.6h-1.4l-0.6-1.5h-2.6l-0.5,1.5h-1.4l2.5-6.4h1.4L-20322.7,5801.6z M-20325.1,5799.1l-0.9-2.4
			l-0.9,2.4H-20325.1z"/>
		<path class="st1" d="M-20316.3,5801.6v-2.7h-0.3c-0.4,0-0.7,0.1-0.9,0.2c-0.2,0.1-0.5,0.5-0.9,1.1l-0.9,1.4h-1.6l0.8-1.3
			c0.3-0.5,0.6-0.8,0.7-1c0.2-0.2,0.4-0.4,0.7-0.5c-0.6-0.1-1-0.3-1.3-0.6c-0.3-0.3-0.4-0.7-0.4-1.2c0-0.4,0.1-0.7,0.3-1
			c0.2-0.3,0.5-0.5,0.8-0.6c0.3-0.1,0.8-0.2,1.5-0.2h2.7v6.4H-20316.3z M-20316.3,5796.3h-1c-0.5,0-0.9,0-1,0s-0.3,0.1-0.4,0.2
			s-0.2,0.3-0.2,0.5c0,0.2,0.1,0.4,0.2,0.5c0.1,0.1,0.3,0.2,0.4,0.2c0.2,0,0.5,0,1.1,0h1V5796.3z"/>
	</g>
</g>
</svg>
