<?xml version="1.0" encoding="utf-8"?>
<!-- Generator: Adobe Illustrator 23.1.0, SVG Export Plug-In . SVG Version: 6.00 Build 0)  -->
<svg version="1.1" id="Слой_1" xmlns="http://www.w3.org/2000/svg" xmlns:xlink="http://www.w3.org/1999/xlink" x="0px" y="0px"
	 viewBox="0 0 62.2 31" style="enable-background:new 0 0 62.2 31;" xml:space="preserve">
<style type="text/css">
	.st0{enable-background:new    ;}
	.st1{fill:#FFFFFF;}
</style>
<g id="Сгруппировать_1045" transform="translate(0.232 3.852)">
	<g class="st0">
		<path class="st1" d="M27,21.1h-3.8V6.7c-1.4,1.3-3.1,2.3-5,2.9V6.1c1-0.3,2.1-1,3.3-1.9s2-2,2.4-3.2H27V21.1z"/>
		<path class="st1" d="M41,21.1h-3.8V6.7c-1.4,1.3-3.1,2.3-5,2.9V6.1c1-0.3,2.1-1,3.3-1.9s2-2,2.4-3.2H41V21.1z"/>
		<path class="st1" d="M59.8,17.6v3.6H46.3c0.1-1.3,0.6-2.6,1.3-3.8c0.7-1.2,2.2-2.8,4.3-4.8c1.7-1.6,2.8-2.7,3.2-3.3
			c0.5-0.8,0.8-1.6,0.8-2.4c0-0.9-0.2-1.5-0.7-2c-0.5-0.5-1.1-0.7-1.9-0.7c-0.8,0-1.4,0.2-1.9,0.7c-0.5,0.5-0.7,1.3-0.8,2.4L46.7,7
			c0.2-2.1,0.9-3.6,2.1-4.6S51.6,1,53.4,1c2,0,3.5,0.5,4.7,1.6c1.1,1.1,1.7,2.4,1.7,4c0,0.9-0.2,1.8-0.5,2.6
			c-0.3,0.8-0.8,1.7-1.5,2.6c-0.5,0.6-1.3,1.4-2.5,2.6c-1.2,1.1-2,1.9-2.3,2.2c-0.3,0.4-0.6,0.7-0.8,1.1H59.8z"/>
	</g>
	<g id="phone-volume">
		<path class="st1" d="M5,23.1C-1.4,17.6-2,8,3.5,1.6c0.5-0.5,1-1,1.5-1.5c0.3-0.3,0.6-0.2,1,0l4,2c0.4,0.2,0.2,0.6,0,1l-2,4
			c-0.2,0.3,0.4,1,0,1l-3-1c-1.1,2.9-1.1,6.1,0,9h3c0.4,0-0.2-0.3,0,0l2,4c0.2,0.4,0.4,0.8,0,1l-4,2C5.6,23.4,5.3,23.4,5,23.1z"/>
	</g>
</g>
</svg>
