<?xml version="1.0" standalone="no"?>
<!DOCTYPE svg PUBLIC "-//W3C//DTD SVG 20010904//EN"
 "http://www.w3.org/TR/2001/REC-SVG-20010904/DTD/svg10.dtd">
<svg version="1.0" xmlns="http://www.w3.org/2000/svg"
 width="700.000000pt" height="700.000000pt" viewBox="0 0 700.000000 700.000000"
 preserveAspectRatio="xMidYMid meet">
<metadata>
Created by potrace 1.11, written by Peter Selinger 2001-2013
</metadata>
<g transform="translate(0.000000,700.000000) scale(0.100000,-0.100000)"
fill="#000000" stroke="none">
<path d="M0 3500 l0 -3500 3500 0 3500 0 0 3500 0 3500 -3500 0 -3500 0 0
-3500z m2698 1780 l-2 -40 -90 0 c-113 0 -161 -13 -203 -55 -28 -28 -33 -40
-33 -83 0 -27 7 -69 15 -93 9 -23 131 -220 273 -436 l257 -393 658 0 c361 0
657 -3 657 -7 -1 -5 -27 -55 -58 -113 l-57 -105 -523 1 c-287 0 -522 -3 -522
-6 0 -13 906 -1393 915 -1394 5 -1 44 60 86 134 42 74 331 582 642 1128 353
620 574 1019 588 1060 28 82 30 183 6 228 -22 43 -88 98 -134 113 -21 7 -84
15 -140 18 l-103 6 0 38 0 39 615 0 615 0 0 -40 0 -40 -60 0 c-165 0 -329 -80
-449 -220 -49 -57 -37 -39 -1130 -1922 l-794 -1368 -103 0 -102 0 -1081 1609
c-595 884 -1105 1635 -1134 1668 -134 155 -275 233 -419 233 l-48 0 0 40 0 40
930 0 931 0 -3 -40z"/>
</g>
</svg>
