<svg xmlns="http://www.w3.org/2000/svg" xmlns:xlink="http://www.w3.org/1999/xlink" width="7" height="11" viewBox="0 0 7 11"><defs><path id="4hg0a" d="M1388.91 868.502l-3.186-3.664c-.32-.256-.32-.67 0-.928l.29-.23a.97.97 0 0 1 1.16 0l3.749 4.114c.006.003.014.004.019.01l.29.231c.161.13.24.296.24.467a.588.588 0 0 1-.24.464l-.29.234c-.005.004-.014.006-.02.01l-3.749 4.115a.973.973 0 0 1-1.158 0l-.29-.232c-.321-.258-.321-.672 0-.929z"/></defs><g><g transform="translate(-1385 -863)"><use fill="#cc9e4a" xlink:href="#4hg0a"/></g></g></svg>