<svg xmlns="http://www.w3.org/2000/svg" xmlns:xlink="http://www.w3.org/1999/xlink" width="10" height="6" viewBox="0 0 10 6"><defs><path id="iflra" d="M1084.982 829.425l3.664-3.185c.257-.32.67-.32.928 0l.231.29a.97.97 0 0 1 0 1.159l-4.115 3.75c-.003.006-.004.013-.01.019l-.231.29a.593.593 0 0 1-.467.24.589.589 0 0 1-.464-.24l-.234-.29-.01-.02-4.114-3.75a.973.973 0 0 1 0-1.158l.232-.29c.257-.32.672-.32.928 0z"/></defs><g><g transform="translate(-1080 -826)"><use fill="#cc9e4a" xlink:href="#iflra"/></g></g></svg>