<svg xmlns="http://www.w3.org/2000/svg" xmlns:xlink="http://www.w3.org/1999/xlink" width="105" height="105" viewBox="0 0 105 105"><defs><path id="dpgpa" d="M298.673 576.843c0 .54-.22 1.068-.601 1.45-.382.381-.911.6-1.45.6-.54 0-1.07-.219-1.45-.6a2.065 2.065 0 0 1-.602-1.45c0-.54.22-1.069.601-1.45.382-.381.911-.6 1.45-.6.54 0 1.07.219 1.45.6.382.381.602.91.602 1.45zm71.327 9.1c0 3.13-1.219 6.072-3.432 8.284l-3.908 3.908c-6.363 6.361-14.823 9.865-23.822 9.865-8.998 0-17.458-3.504-23.821-9.865l-14.615-14.612a2.05 2.05 0 1 1 2.9-2.9l14.616 14.611c5.588 5.587 13.018 8.664 20.92 8.664 6.609 0 12.886-2.153 18.033-6.125l-25.425-25.418-2.066 2.065c-.8.801-2.1.801-2.9 0l-27.927-27.92a2.05 2.05 0 0 1 0-2.9l8.689-8.686c2.969-2.968 2.969-7.798 0-10.767l-14.816-14.813c-2.97-2.969-7.8-2.968-10.77 0l-3.72 3.72 15.752 15.75a2.05 2.05 0 1 1-2.901 2.9L275.21 516.13c-8.923 11.59-8.078 28.33 2.538 38.943l14.41 14.407a2.05 2.05 0 1 1-2.9 2.9l-14.41-14.406c-13.136-13.133-13.136-34.5 0-47.633l3.907-3.907c4.57-4.567 12.003-4.567 16.572 0l14.816 14.813c4.568 4.568 4.568 12 0 16.568l-7.238 7.236 25.025 25.02 2.065-2.066h.001v-.001l5.172-5.17a11.642 11.642 0 0 1 8.285-3.431c3.13 0 6.073 1.218 8.286 3.431l14.829 14.826a11.638 11.638 0 0 1 3.432 8.284zm-4.102 0a7.563 7.563 0 0 0-2.231-5.383l-14.829-14.826a7.565 7.565 0 0 0-5.385-2.23 7.566 7.566 0 0 0-5.384 2.23l-3.722 3.72 25.599 25.594 3.721-3.72a7.561 7.561 0 0 0 2.23-5.384zm-66.628-50.709c0 .54-.22 1.068-.602 1.45-.381.381-.91.6-1.45.6-.54 0-1.068-.219-1.45-.6-.381-.382-.6-.91-.6-1.45 0-.541.219-1.069.6-1.45.382-.383.91-.6 1.45-.6.54 0 1.069.217 1.45.6.382.381.602.91.602 1.45zm47.141-10.108v3.196a2.051 2.051 0 0 1-4.102 0v-3.693c0-1.631 1.116-3.02 2.713-3.377a2.996 2.996 0 0 0 2.34-3.154 3.009 3.009 0 0 0-5.054-1.982 2.98 2.98 0 0 0-.957 2.2 2.051 2.051 0 0 1-4.102 0c0-1.964.824-3.859 2.26-5.199a7.06 7.06 0 0 1 5.351-1.894c3.517.242 6.353 3.076 6.594 6.593.233 3.367-1.865 6.362-5.043 7.31zm0 10.495c0 .54-.219 1.069-.6 1.45-.382.382-.911.601-1.45.601-.54 0-1.07-.22-1.45-.6a2.066 2.066 0 0 1-.602-1.45c0-.542.22-1.069.601-1.452.382-.382.91-.6 1.45-.6.54 0 1.069.218 1.45.6.382.383.602.91.602 1.451zM370 513.256v23.373c0 5.654-4.601 10.254-10.256 10.254h-7.77l-5.956 7.81a2.052 2.052 0 0 1-1.628.808h-.003a2.051 2.051 0 0 1-1.627-.801l-6.004-7.817h-7.78c-5.655 0-10.255-4.6-10.255-10.254v-23.373c0-5.654 4.6-10.253 10.256-10.253h30.767c5.655 0 10.256 4.6 10.256 10.253zm-4.102 0a6.16 6.16 0 0 0-6.153-6.152h-30.768a6.16 6.16 0 0 0-6.153 6.152v23.373a6.16 6.16 0 0 0 6.153 6.152h8.79c.637 0 1.239.296 1.627.802l4.987 6.493 4.945-6.487a2.05 2.05 0 0 1 1.632-.808h8.786a6.16 6.16 0 0 0 6.154-6.152z"/></defs><g><g transform="translate(-265 -503)"><use fill="#4ed7bf" xlink:href="#dpgpa"/></g></g></svg>