<svg xmlns="http://www.w3.org/2000/svg" xmlns:xlink="http://www.w3.org/1999/xlink" width="79" height="70" viewBox="0 0 79 70"><defs><path id="we9na" d="M1283.259 1637.193c-3.226.532-6.49.797-9.76.789a48.143 48.143 0 0 1-19.635-3.688l1.136-2.5a46.075 46.075 0 0 0 18.5 3.437 56.223 56.223 0 0 0 9.31-.752zm-30.8-6.802l-1.498 2.3a13.044 13.044 0 0 1-3.04-2.694l2.125-1.722a10.386 10.386 0 0 0 2.414 2.116zm59.786-39.298l-4.695 2.363v20.029a4.064 4.064 0 0 1 1.536.972 4.135 4.135 0 0 1 .002 5.81l2.451 6.205c.065.162.098.335.098.51 0 .76-.61 1.375-1.363 1.375h-8.172a1.36 1.36 0 0 1-.5-.099 1.38 1.38 0 0 1-.759-1.786l2.452-6.206a4.115 4.115 0 0 1-.964-1.548c-.743-2.14.374-4.484 2.495-5.233v-18.654l-6.81 3.437v21.839c0 6.94-10.77 12.375-24.516 12.375-13.747 0-24.516-5.435-24.516-12.375v-21.839l-14.229-7.181a1.382 1.382 0 0 1 0-2.461l38.136-19.251a1.351 1.351 0 0 1 1.218 0l38.136 19.25v.007a1.381 1.381 0 0 1 0 2.461zm-16.953 27.878c-4.036 3.972-12.178 6.636-21.792 6.636-9.615 0-17.757-2.664-21.792-6.636v1.136c0 4.648 8.756 9.625 21.792 9.625 13.036 0 21.792-4.977 21.792-9.625zm0-19.328l-21.183 10.7a1.35 1.35 0 0 1-1.218 0l-21.183-10.7v13.588c0 4.65 8.756 9.626 21.792 9.626 13.036 0 21.792-4.977 21.792-9.626zm9.534 17.713c0 .76.61 1.376 1.362 1.376.752 0 1.362-.616 1.362-1.376 0-.759-.61-1.375-1.362-1.375-.752 0-1.362.616-1.362 1.375zm1.784 4.083c-.14.014-.272.042-.422.042-.15 0-.286-.028-.422-.042l-1.653 4.168h4.15zm1.98-31.583l-35.09-17.713-35.09 17.713 35.09 17.713 27.868-14.068-21.497-2.17c-.942 1.576-3.36 2.65-6.371 2.65-3.883 0-6.81-1.774-6.81-4.125 0-2.352 2.927-4.125 6.81-4.125 3.132 0 5.614 1.164 6.467 2.846l25.965 2.62zm-35.09-1.375c-2.637 0-4.086 1.032-4.086 1.375 0 .342 1.449 1.375 4.086 1.375 2.637 0 4.086-1.033 4.086-1.375 0-.343-1.45-1.375-4.086-1.375zm30.716-6.339l1.218-2.46 2.724 1.376-1.219 2.46zm-23.154-11.683l1.218-2.46 20.43 10.314-1.218 2.46z"/></defs><g><g transform="translate(-1234 -1568)"><use fill="#4ed7bf" xlink:href="#we9na"/></g></g></svg>