<svg xmlns="http://www.w3.org/2000/svg" xmlns:xlink="http://www.w3.org/1999/xlink" width="20" height="20" viewBox="0 0 20 20"><defs><path id="l0dla" d="M1174.998 483c0 1.1-.9 2-1.999 2-1.099 0-1.998-.9-1.998-2s.9-2 1.998-2c1.1 0 1.999.9 1.999 2zm9.993 0c0 1.1-.9 2-1.998 2-1.1 0-1.999-.9-1.999-2s.9-2 1.999-2c1.099 0 1.998.9 1.998 2zm2.009-13.008c0 .1-.025.21-.055.31l-.032.08-2.57 7.778-.003.008a.499.499 0 0 1-.035.112l-.013.04a1.029 1.029 0 0 1-.356.498l-.004.002c-.17.111-.37.18-.58.18H1172c-.51 0-.94-.389-.99-.889-.02-.04-.02-.07-.03-.11l-1.818-11h-1.16c-.549 0-.999-.449-.999-.999s.45-1 1-1H1170c.12 0 .24.02.35.07.06.02.11.04.17.08.05.03.1.06.14.1.03.02.06.05.09.09.03.02.06.06.08.1a.95.95 0 0 1 .132.3c.012.04.04.07.048.11l1.848 11.149h9.784l1.979-6h-9.634c-.54 0-.99-.454-.99-1.004 0-.54.45-.995.99-.995h10.853c.16-.021.32-.01.47.04.09.03.17.07.24.13l.15.12c.09.09.17.2.22.32.03.05.069.11.069.17v.01c0 .07.01.13.01.2z"/></defs><g><g transform="translate(-1167 -465)"><use fill="#cc9e4a" xlink:href="#l0dla"/></g></g></svg>