<svg xmlns="http://www.w3.org/2000/svg" xmlns:xlink="http://www.w3.org/1999/xlink" width="73" height="72" viewBox="0 0 73 72"><defs><path id="ql2ba" d="M1290.346 1506.288v4.356c0 .77-.628 1.393-1.404 1.393h-30.89a1.399 1.399 0 0 1-1.404-1.393v-4.356c0-.769.629-1.392 1.404-1.392h30.89c.776 0 1.404.623 1.404 1.392zm-2.808 1.393h-28.082v1.57h28.082zm-30.892-48.048l2.803-.174.175 2.78-2.802.174zm11.111 19.542l-1.19 2.522c-5.418-2.513-9.02-7.76-9.394-13.681l-.177-2.813 2.809-.172.176 2.811c.31 4.904 3.29 9.249 7.776 11.333zm36.983-3.771l-11.514 5.331a2.523 2.523 0 0 0-.723.502 2.492 2.492 0 0 0 .003 3.545l3.05 3.025-1.985 1.97-3.05-3.026a5.265 5.265 0 0 1-1.521-4.33 21.82 21.82 0 0 1-7.863 4.997l3.274 10.515h5.935c.373 0 .73.146.993.408l5.616 5.57c.264.261.412.615.412.985v12.711c0 .77-.629 1.393-1.404 1.393h-44.931a1.399 1.399 0 0 1-1.404-1.393v-12.711c0-.37.148-.724.411-.985l5.616-5.57a1.41 1.41 0 0 1 .993-.408h5.935l3.276-10.515a21.82 21.82 0 0 1-7.863-4.996 5.265 5.265 0 0 1-1.52 4.33l-3.052 3.024-1.985-1.97 3.051-3.024a2.498 2.498 0 0 0-.72-4.047l-11.514-5.331a9.047 9.047 0 0 1-5.257-8.19c-.005-5 4.078-9.056 9.119-9.06h5.088l-.117-2.786h-2.865a1.398 1.398 0 0 1-1.404-1.393v-5.57c0-.769.628-1.393 1.404-1.393h50.547c.775 0 1.404.624 1.404 1.393v5.57c0 .77-.629 1.393-1.404 1.393h-2.866l-.116 2.786h5.088c3.54.002 6.759 2.034 8.26 5.214 2.136 4.528.168 9.917-4.397 12.036zm-48.092-22.82c.373 0 .73.146.993.407l1.815 1.8 1.816-1.8a1.41 1.41 0 0 1 .993-.408h8.424c.373 0 .73.147.993.408l1.815 1.8 1.816-1.8a1.41 1.41 0 0 1 .992-.408h8.425c.372 0 .73.147.993.408l1.815 1.8 1.816-1.8a1.41 1.41 0 0 1 .992-.408h7.02v-2.785h-47.738v2.785zm-2.07 25.448a21.57 21.57 0 0 1-2.956-10.055l-.295-7.038h-5.21a6.322 6.322 0 0 0-5.707 3.605c-1.482 3.134-.122 6.865 3.037 8.335zm2.651 22.686l-4.793 4.754v10.743h42.123v-10.743l-4.794-4.754zm21.216-12.502a21.575 21.575 0 0 1-9.896 0l-3.066 9.717h16.029zm14.125-20.354l.526-12.494h-2.168l-2.397 2.378a1.412 1.412 0 0 1-1.986 0l-2.396-2.378h-7.262l-2.397 2.378a1.412 1.412 0 0 1-1.986 0l-2.396-2.378h-7.262l-2.397 2.378a1.412 1.412 0 0 1-1.985 0l-2.397-2.378h-2.168l.525 12.494c.403 10.151 8.83 18.168 19.073 18.144 10.243.023 18.67-7.993 19.073-18.144zm14.613-.644c.007-3.461-2.817-6.272-6.306-6.28h-5.206l-.3 7.04a21.57 21.57 0 0 1-2.956 10.055l11.13-5.152a6.263 6.263 0 0 0 3.638-5.663zm-56.563 31.7l-3.8 3.769v7.957h-2.809v-8.534c0-.369.149-.723.412-.984l4.212-4.178zm-6.609 14.511h2.809v2.786h-2.809z"/></defs><g><g transform="translate(-1237 -1447)"><use fill="#4ed7bf" xlink:href="#ql2ba"/></g></g></svg>