<svg xmlns="http://www.w3.org/2000/svg" xmlns:xlink="http://www.w3.org/1999/xlink" width="20" height="20" viewBox="0 0 20 20"><defs><path id="j2pea" d="M1557 473.586l2.294-2.293a1 1 0 0 1 1.413 1.414l-6 6a1 1 0 1 1-1.413-1.414l2.293-2.293-2.293-2.293a1 1 0 0 1 1.414-1.414zm0-6.586a1 1 0 0 1 0-2c5.523 0 10 4.477 10 10s-4.477 10-10 10c-5.522 0-9.999-4.477-9.999-10a9.997 9.997 0 0 1 5.26-8.807 1 1 0 0 1 .95 1.76A8 8 0 1 0 1557 467zm1.294 10.707a1 1 0 0 1 1.413-1.414l1 1a1 1 0 0 1-1.413 1.414z"/></defs><g><g transform="translate(-1547 -465)"><use fill="#cc9e4a" xlink:href="#j2pea"/></g></g></svg>