<svg xmlns="http://www.w3.org/2000/svg" xmlns:xlink="http://www.w3.org/1999/xlink" width="80" height="80" viewBox="0 0 80 80"><defs><path id="3vk0a" d="M221.57 1005.33a1.56 1.56 0 0 1 0-2.21 1.56 1.56 0 0 1 2.21 0 1.56 1.56 0 0 1 0 2.21c-.61.609-1.599.609-2.21 0zm11.048 2.21a4.683 4.683 0 0 1 0-6.629 4.685 4.685 0 0 1 6.63 0 4.692 4.692 0 0 1 0 6.628 4.693 4.693 0 0 1-6.63 0zm2.21-2.21c.609.609 1.6.608 2.21 0a1.563 1.563 0 1 0-2.21 0zm4.42 13.256a4.693 4.693 0 0 1 0 6.63 4.685 4.685 0 0 1-6.63 0 4.685 4.685 0 0 1 0-6.63 4.686 4.686 0 0 1 6.63 0zm-2.21 2.21a1.563 1.563 0 1 0-2.21 2.21 1.563 1.563 0 0 0 2.21-2.21zm-12.46-7.055l22.095-4.42a1.562 1.562 0 1 1 .613 3.064l-22.095 4.42a1.562 1.562 0 1 1-.613-3.064zm20.025-31.445l22.095 22.095c.61.611.61 1.6 0 2.21l-37.286 37.287c-.61.61-1.599.61-2.21 0l-22.095-22.095c-.61-.61-.61-1.6 0-2.21l12.044-12.044a1.564 1.564 0 0 1 2.21 2.209l-10.94 10.94 19.886 19.886 35.077-35.077-19.886-19.886-15.298 15.299a1.561 1.561 0 1 1-2.21-2.21l16.404-16.404a1.562 1.562 0 0 1 2.209 0zm30.934-8.838c.61.61.61 1.6 0 2.21l-6.705 6.706c2.982 3.937 2.993 9.343.122 13.197l5.652 5.492.016.015a4.684 4.684 0 0 1 0 6.628l-44.108 43.919a4.686 4.686 0 0 1-6.626-.003l-6.198-6.196c-3.961 1.383-8.453.385-11.479-2.642-3.026-3.026-4.025-7.517-2.64-11.479l-6.198-6.196a4.686 4.686 0 0 1 0-6.63l43.914-44.103a4.684 4.684 0 0 1 6.63-.003l.016.016 5.493 5.653c3.88-2.881 9.283-2.833 13.196.121l6.706-6.705c.61-.61 1.599-.61 2.21 0zm-8.944 11.153l-2.291 2.292a4.69 4.69 0 0 1-7.547 5.336 4.694 4.694 0 0 1 0-6.63 4.696 4.696 0 0 1 5.335-.914l2.292-2.292c-3.085-2.075-7.273-1.79-9.948.886a1.56 1.56 0 0 1-2.226-.016l-6.507-6.697a1.561 1.561 0 0 0-2.202.007l-43.914 44.103a1.566 1.566 0 0 0-.002 2.213l6.93 6.929c.465.465.588 1.172.309 1.768-1.41 3.005-.767 6.613 1.6 8.978 2.364 2.366 5.973 3.01 8.977 1.6a1.565 1.565 0 0 1 1.768.31l6.93 6.928c.609.61 1.6.61 2.21 0l44.107-43.918a1.56 1.56 0 0 0 .004-2.2l-6.696-6.508a1.563 1.563 0 0 1-.016-2.225c2.71-2.709 2.947-6.9.887-9.95zm-7.628 3.209a1.562 1.562 0 1 0 2.211 2.212 1.562 1.562 0 0 0-2.211-2.212z"/></defs><g><g transform="translate(-196 -973)"><use fill="#cc9e4a" xlink:href="#3vk0a"/></g></g></svg>