<svg xmlns="http://www.w3.org/2000/svg" xmlns:xlink="http://www.w3.org/1999/xlink" width="68" height="80" viewBox="0 0 68 80"><defs><path id="9rw4a" d="M639.466 977.688v58.125c0 2.584-2.108 4.687-4.7 4.687H588.7c-2.591 0-4.7-2.103-4.7-4.687v-29.01c0-.864.702-1.564 1.567-1.564s1.567.7 1.567 1.563v29.01c0 .862.703 1.563 1.566 1.563h46.066c.864 0 1.3-.356 1.3-1.217v-58.105c0-.862-.436-1.928-1.3-1.928H588.7c-.863 0-1.566.7-1.566 1.563v15.937c0 .863-.702 1.563-1.567 1.563s-1.567-.7-1.567-1.563v-15.937c0-2.585 2.109-4.688 4.7-4.688h46.066c2.592 0 4.7 2.103 4.7 4.688zm-52.332 22.932c0 .413-.168.816-.46 1.107-.291.29-.695.457-1.107.457-.412 0-.817-.167-1.108-.457a1.575 1.575 0 0 1-.459-1.107c0-.41.167-.812.459-1.104.291-.29.696-.457 1.108-.457.412 0 .816.166 1.107.457.292.292.46.693.46 1.104zm6.276 44.577a1.567 1.567 0 0 1-3.133 0c0-.41.167-.814.459-1.105a1.58 1.58 0 0 1 1.107-.457c.414 0 .817.167 1.108.457.292.29.46.694.46 1.105zm52.732-63.776v61.474c0 2.585-2.507 3.865-5.099 3.865h-42.932c-.865 0-1.566-.7-1.566-1.563s.701-1.562 1.566-1.562h42.932c.864 0 1.74.121 1.74-.74v-60.631c0-.864.529-3.004 1.394-3.004.865 0 1.965 1.298 1.965 2.161zm5.879 5.642v61.25c0 2.584-2.109 4.687-4.7 4.687h-49.2c-.865 0-1.566-.7-1.566-1.563 0-.862.701-1.562 1.566-1.562h49.2c.863 0 1.34-.224 1.34-1.086v-61.473c0-.863.928-1.816 1.793-1.816.865 0 1.567.7 1.567 1.563zm-41.071-.938v15c0 .863-.052 1.349-.917 1.349h-15.116c-.865 0-2.52-.822-2.52-1.684v-14.316c0-.863.815-1.685 1.68-1.685h15.116c.865 0 1.757.473 1.757 1.336zm-2.597 1.191h-13.436v12.631h13.436zm-4.012 24.675l-5.273 5.259a1.568 1.568 0 0 1-2.216 0l-3.044-3.037a1.559 1.559 0 0 1 0-2.209 1.57 1.57 0 0 1 2.216 0l1.936 1.93 4.165-4.152a1.57 1.57 0 0 1 2.216 0c.612.61.612 1.6 0 2.209zm27.239 1.478c0 .862-.702 1.562-1.567 1.562h-18.28c-.865 0-1.567-.7-1.567-1.562 0-.864.702-1.563 1.567-1.563h18.28c.865 0 1.567.7 1.567 1.563zm-.888-27.344c0 .863-.48 2.033-1.345 2.033H618.43c-.865 0-1.84-1.17-1.84-2.033s.975-1.336 1.84-1.336h10.917c.865 0 1.345.473 1.345 1.336zm0 7.5c0 .863-.48 2.112-1.345 2.112H618.43c-.865 0-1.84-1.249-1.84-2.112s.975-1.256 1.84-1.256h10.917c.865 0 1.345.393 1.345 1.256zm0 7.5c0 .863-.48 1.349-1.345 1.349H618.43c-.865 0-1.84-.486-1.84-1.349s.135-2.02 1-2.02h10.917c.866 0 2.185 1.157 2.185 2.02zm-26.35 22.798l-5.274 5.259a1.567 1.567 0 0 1-2.216 0l-3.044-3.036a1.56 1.56 0 0 1 0-2.21 1.57 1.57 0 0 1 2.216 0l1.936 1.931 4.165-4.153a1.57 1.57 0 0 1 2.216 0c.612.61.612 1.6 0 2.21zm27.238 1.421c0 .862-.702 1.562-1.567 1.562h-18.28c-.865 0-1.567-.7-1.567-1.562 0-.863.702-1.563 1.567-1.563h18.28c.865 0 1.567.7 1.567 1.563z"/></defs><g><g transform="translate(-584 -973)"><use fill="#cc9e4a" xlink:href="#9rw4a"/></g></g></svg>