<svg xmlns="http://www.w3.org/2000/svg" xmlns:xlink="http://www.w3.org/1999/xlink" width="59" height="80" viewBox="0 0 59 80"><defs><path id="35zra" d="M1035 1002.168c-.054 7.264-2.693 14.63-7.63 21.302-.898 1.213-2.157 2.768-3.742 4.625a1.55 1.55 0 0 1-2.194.168 1.568 1.568 0 0 1-.168-2.202c1.54-1.802 2.752-3.301 3.607-4.456 9.566-12.925 9.367-27.684-.507-37.6-4.99-5.078-11.65-7.874-18.76-7.88-7.105.006-13.764 2.802-18.748 7.872-9.881 9.924-10.08 24.683-.514 37.608 4.15 5.608 15.287 17.382 19.264 21.545a665.598 665.598 0 0 0 6.94-7.37 1.552 1.552 0 0 1 2.199-.08c.628.59.664 1.577.078 2.209a513.04 513.04 0 0 1-1.552 1.669c5.06 1.164 8.096 3.48 8.096 6.313 0 4.667-7.928 7.11-15.76 7.11-7.833 0-15.761-2.443-15.761-7.11 0-2.833 3.035-5.148 8.095-6.313-4.982-5.334-11.142-12.119-14.096-16.108-4.937-6.671-7.576-14.038-7.63-21.302-.058-7.728 2.858-14.773 8.435-20.374 5.564-5.661 13.009-8.787 20.955-8.794 7.95.007 15.394 3.133 20.966 8.801 5.569 5.594 8.485 12.64 8.427 20.367zm-30.637 44.188a673.477 673.477 0 0 1-3.888-4.082c-5.123.789-7.516 2.596-7.516 3.617 0 1.353 4.465 3.984 12.65 3.984 8.184 0 12.649-2.631 12.649-3.984 0-1.021-2.393-2.828-7.517-3.617a670.656 670.656 0 0 1-3.884 4.08l-.124.129a1.553 1.553 0 0 1-2.248 0zm1.26-21.615c-11.883 0-21.55-9.71-21.55-21.646 0-11.937 9.667-21.647 21.55-21.647 11.885 0 21.553 9.71 21.553 21.647 0 11.936-9.668 21.646-21.552 21.646zm0-40.168c-10.168 0-18.44 8.309-18.44 18.522 0 10.212 8.272 18.521 18.44 18.521 10.17 0 18.442-8.309 18.442-18.521 0-10.213-8.273-18.522-18.441-18.522zm11.513 16.71a1.547 1.547 0 0 1-2.197.117l-9.315-8.42-9.315 8.42a1.55 1.55 0 0 1-2.197-.116 1.568 1.568 0 0 1 .116-2.207l10.356-9.36a1.55 1.55 0 0 1 2.08 0l5.182 4.684a1.558 1.558 0 0 1 1.544-1.374c.86 0 1.556.699 1.556 1.561v2.615l2.074 1.874c.639.578.69 1.565.116 2.207zm-7.596 13.655c-.355 0-.711-.075-1.045-.228l-2.867-1.317-2.868 1.317a2.513 2.513 0 0 1-2.525-.253 2.538 2.538 0 0 1-1.021-2.335l.36-3.146-2.132-2.333a2.54 2.54 0 0 1-.54-2.49 2.525 2.525 0 0 1 1.895-1.698l3.09-.627 1.55-2.758a2.518 2.518 0 0 1 2.191-1.286c.907 0 1.746.493 2.192 1.286l1.55 2.758 3.09.628c.888.18 1.613.83 1.894 1.697a2.54 2.54 0 0 1-.54 2.49l-2.133 2.333.36 3.146a2.537 2.537 0 0 1-1.02 2.335 2.513 2.513 0 0 1-1.48.481zm-3.912-4.825c.22 0 .441.047.647.141l2.556 1.173-.322-2.803a1.568 1.568 0 0 1 .4-1.236l1.9-2.08-2.754-.559a1.552 1.552 0 0 1-1.046-.763l-1.38-2.459-1.382 2.459a1.555 1.555 0 0 1-1.046.764l-2.755.559 1.902 2.08c.305.333.451.784.4 1.235l-.322 2.803 2.555-1.172c.205-.095.426-.142.647-.142zm12.513 23.422c-.1 0-.202-.011-.303-.032-.1-.02-.198-.05-.29-.09a1.538 1.538 0 0 1-.506-.337 1.577 1.577 0 0 1-.456-1.104 1.576 1.576 0 0 1 .692-1.3 1.598 1.598 0 0 1 .56-.233 1.554 1.554 0 0 1 1.859 1.533 1.576 1.576 0 0 1-.691 1.298 1.604 1.604 0 0 1-.865.265z"/></defs><g><g transform="translate(-976 -973)"><use fill="#cc9e4a" xlink:href="#35zra"/></g></g></svg>