<svg xmlns="http://www.w3.org/2000/svg" xmlns:xlink="http://www.w3.org/1999/xlink" width="88" height="64" viewBox="0 0 88 64"><defs><path id="99zxa" d="M1442.688 1034.895c0 1.86-1.539 3.368-3.438 3.368-1.9 0-3.438-1.507-3.438-3.368s1.539-3.369 3.438-3.369c1.9 0 3.438 1.508 3.438 3.369zm-3.438-15.158c0 .93-.77 1.684-1.719 1.684-.948 0-1.719-.755-1.719-1.684 0-.93.77-1.684 1.72-1.684.948 0 1.718.754 1.718 1.684zm-49.156 15.158c0 1.86-1.538 3.368-3.438 3.368-1.9 0-3.437-1.507-3.437-3.368s1.538-3.369 3.437-3.369c1.9 0 3.438 1.508 3.438 3.369zm62.906-15.158v10.105c0 2.198-1.44 4.073-3.445 4.765.003.096.007.192.007.288 0 5.572-4.625 10.105-10.312 10.105-5.687 0-10.313-4.533-10.313-10.105h-31.968c0 5.572-4.626 10.105-10.313 10.105-5.686 0-10.312-4.533-10.312-10.105h-6.188c-2.843 0-5.156-2.267-5.156-5.053v-43.79c0-2.786 2.313-5.052 5.156-5.052h50.188c2.843 0 5.156 2.266 5.156 5.053v5.052h13.75c2.843 0 5.156 2.267 5.156 5.053 0 1.352-.54 2.662-1.594 3.65l2.964 11.616c4.09.644 7.224 4.126 7.224 8.313zm-27.5-18.526v7.723l3.941-3.862a1.743 1.743 0 0 1 2.43 0 1.66 1.66 0 0 1 0 2.382l-3.94 3.862h14.274l-2.578-10.105zm13.75-6.737h-13.75v3.368h13.75c.949 0 1.719-.755 1.719-1.684 0-.93-.771-1.684-1.72-1.684zm-45.719 40.42c0-3.756-3.131-6.736-6.875-6.736-3.735 0-6.875 2.971-6.875 6.737 0 3.714 3.085 6.737 6.875 6.737s6.875-3.023 6.875-6.737zm28.532-3.368v-45.473c0-.93-.771-1.684-1.72-1.684h-50.187c-.948 0-1.719.755-1.719 1.684v43.789c0 .929.771 1.684 1.72 1.684h6.776c1.433-3.972 5.32-6.736 9.723-6.736 4.402 0 8.287 2.762 9.723 6.736zm24.062 3.369c0-3.757-3.131-6.737-6.875-6.737-3.735 0-6.875 2.971-6.875 6.737 0 3.714 3.084 6.737 6.875 6.737 3.79 0 6.875-3.023 6.875-6.737zm3.437-5.053v-8.421h-5.156c-.95 0-1.718-.754-1.718-1.684 0-.93.769-1.684 1.718-1.684h4.861c-.71-1.96-2.62-3.369-4.86-3.369H1425.5v16.842h4.027c1.433-3.972 5.32-6.736 9.723-6.736 4.282 0 8.075 2.613 9.6 6.415.43-.307.712-.803.712-1.363zm-38.843-23.579c0 8.358-6.94 15.158-15.469 15.158-8.53 0-15.469-6.8-15.469-15.158s6.94-15.158 15.47-15.158c8.528 0 15.468 6.8 15.468 15.158zm-3.438 0c0-6.5-5.397-11.79-12.03-11.79-6.635 0-12.032 5.29-12.032 11.79 0 6.5 5.397 11.79 12.031 11.79s12.031-5.29 12.031-11.79zm-3.437 0c0 .93-.77 1.684-1.719 1.684h-6.875c-.95 0-1.719-.754-1.719-1.684v-6.737c0-.93.77-1.684 1.72-1.684.948 0 1.718.754 1.718 1.684v5.053h5.156c.95 0 1.719.754 1.719 1.684z"/></defs><g><g transform="translate(-1365 -981)"><use fill="#cc9e4a" xlink:href="#99zxa"/></g></g></svg>