<svg xmlns="http://www.w3.org/2000/svg" xmlns:xlink="http://www.w3.org/1999/xlink" width="105" height="105" viewBox="0 0 105 105"><defs><path id="hk26a" d="M940.673 460.843c0 .54-.22 1.069-.601 1.45-.382.381-.911.6-1.45.6-.54 0-1.07-.219-1.45-.6a2.064 2.064 0 0 1-.602-1.45c0-.54.22-1.069.601-1.45.382-.381.911-.6 1.45-.6.54 0 1.07.219 1.45.6.382.381.602.91.602 1.45zm71.327 9.1c0 3.13-1.219 6.072-3.432 8.284l-3.908 3.908c-6.363 6.362-14.823 9.865-23.822 9.865-8.998 0-17.458-3.503-23.821-9.865l-14.615-14.612a2.05 2.05 0 1 1 2.9-2.9l14.616 14.611c5.588 5.587 13.018 8.664 20.92 8.664 6.609 0 12.886-2.153 18.033-6.125l-25.425-25.418-2.066 2.065c-.8.801-2.1.801-2.9 0l-27.926-27.92a2.05 2.05 0 0 1 0-2.9l8.688-8.686c2.969-2.968 2.969-7.798 0-10.767l-14.816-14.813c-2.97-2.969-7.8-2.968-10.77 0l-3.72 3.72 15.752 15.75a2.05 2.05 0 1 1-2.901 2.9L917.21 400.13c-8.923 11.59-8.078 28.33 2.538 38.943l14.41 14.407a2.051 2.051 0 1 1-2.9 2.9l-14.41-14.406c-13.136-13.132-13.136-34.5 0-47.633l3.907-3.907c4.57-4.567 12.003-4.567 16.572 0l14.816 14.813c4.568 4.568 4.568 12 0 16.568l-7.238 7.236 25.025 25.02 2.065-2.066h.001v-.001l5.172-5.17a11.641 11.641 0 0 1 8.285-3.431c3.13 0 6.073 1.218 8.286 3.431l14.829 14.826a11.638 11.638 0 0 1 3.432 8.284zm-4.102 0a7.563 7.563 0 0 0-2.23-5.383l-14.83-14.826a7.564 7.564 0 0 0-5.385-2.23 7.565 7.565 0 0 0-5.384 2.23l-3.722 3.72 25.599 25.594 3.721-3.72a7.561 7.561 0 0 0 2.23-5.384zm-66.628-50.709c0 .54-.22 1.069-.601 1.45-.382.381-.911.6-1.45.6-.54 0-1.07-.219-1.45-.6-.382-.381-.602-.91-.602-1.45 0-.541.22-1.068.601-1.45.382-.383.91-.601 1.45-.601.54 0 1.069.218 1.45.601.382.382.602.91.602 1.45z"/></defs><g><g transform="translate(-907 -387)"><use fill="#4ed7bf" xlink:href="#hk26a"/></g></g></svg>