<svg xmlns="http://www.w3.org/2000/svg" xmlns:xlink="http://www.w3.org/1999/xlink" width="44" height="50" viewBox="0 0 44 50"><defs><path id="er9ga" d="M239 1143.74v15.43c0 4.3-1.23 8.63-3.556 12.522a1.97 1.97 0 0 1-2.692.682 1.947 1.947 0 0 1-.686-2.677c1.966-3.29 3.005-6.93 3.005-10.526v-14.155l-18.165-7.93-17.977 7.925v14.16c0 10.427 8.613 19.923 18.071 19.923 3.343 0 6.611-1.087 9.451-3.142a1.972 1.972 0 0 1 2.744.43 1.946 1.946 0 0 1-.432 2.728c-3.516 2.545-7.584 3.89-11.763 3.89-2.985 0-5.904-.699-8.677-2.077-2.589-1.286-4.932-3.102-6.965-5.397-4.04-4.563-6.358-10.523-6.358-16.355v-15.43c0-.773.458-1.473 1.168-1.786l19.938-8.79a1.974 1.974 0 0 1 1.585-.002l20.134 8.79a1.953 1.953 0 0 1 1.175 1.788zm-9.87 4.335c.846.674.983 1.903.305 2.745l-12.317 15.305a3.798 3.798 0 0 1-2.921 1.347c-.983 0-1.911-.368-2.628-1.046l-.008-.008-6.923-6.62a1.945 1.945 0 0 1-.054-2.762 1.972 1.972 0 0 1 2.778-.054l6.827 6.53 12.18-15.132a1.972 1.972 0 0 1 2.76-.305z"/></defs><g><g transform="translate(-195 -1133)"><use fill="#4ed7bf" xlink:href="#er9ga"/></g></g></svg>