<svg xmlns="http://www.w3.org/2000/svg" xmlns:xlink="http://www.w3.org/1999/xlink" width="14" height="20" viewBox="0 0 14 20"><defs><path id="6wg5a" d="M294.002 1532.086c0-.355.191-.683.5-.86a4.959 4.959 0 0 0 1.833-6.795c-1.381-2.38-4.441-3.195-6.834-1.822a4.959 4.959 0 0 0 0 8.617.992.992 0 0 1 .402 1.349 1.003 1.003 0 0 1-1.404.372c-3.35-1.923-4.498-6.182-2.564-9.513 1.933-3.33 6.217-4.472 9.567-2.55 3.35 1.923 4.498 6.183 2.564 9.513a6.978 6.978 0 0 1-2.063 2.233v.753a.995.995 0 0 1-.684.944l-6.003 1.99a1.002 1.002 0 0 1-1.266-.63.994.994 0 0 1 .634-1.259l5.319-1.762zm.685 3.834a1.002 1.002 0 0 1 1.266.63.994.994 0 0 1-.634 1.259l-6.003 1.99a1.002 1.002 0 0 1-1.266-.63.994.994 0 0 1 .634-1.259z"/></defs><g><g transform="translate(-285 -1520)"><use fill="#8f9ba7" xlink:href="#6wg5a"/></g></g></svg>