<svg xmlns="http://www.w3.org/2000/svg" xmlns:xlink="http://www.w3.org/1999/xlink" width="50" height="50" viewBox="0 0 50 50"><defs><path id="36nma" d="M926 1168l-.234 11.094h7.422a3.91 3.91 0 0 0 3.906-3.907 1.953 1.953 0 0 1 3.906 0c0 4.308-3.505 7.813-7.812 7.813h-34.376c-4.307 0-7.812-3.505-7.812-7.813v-30.468c0-4.308 3.505-7.813 7.812-7.813h2.442v-1.953a1.953 1.953 0 1 1 3.906 0v1.953h8.79v-1.953a1.953 1.953 0 1 1 3.905 0v1.953h8.887v-1.953a1.953 1.953 0 1 1 3.906 0v1.953h2.54c4.307 0 7.812 3.505 7.812 7.813v20.703c0 1.079-.921 2.578-2 2.578zm11.094-16.25h-11.328L926 1164h11zM906 1168h-11l-.094 7.187a3.91 3.91 0 0 0 3.906 3.907h7.422zm.234-16.25h-11.328L895 1164h11zM922 1168h-12l.14 11.094h11.72zm-.14-16.25h-11.72L910 1164h12zM937 1148l.094-3.281a3.91 3.91 0 0 0-3.906-3.907h-2.54v1.954a1.953 1.953 0 1 1-3.906 0v-1.954h-8.887v1.954a1.953 1.953 0 1 1-3.906 0v-1.954h-8.789v1.954a1.953 1.953 0 1 1-3.906 0v-1.954h-2.442a3.91 3.91 0 0 0-3.906 3.907L895 1148z"/></defs><g><g transform="translate(-891 -1133)"><use fill="#4ed7bf" xlink:href="#36nma"/></g></g></svg>