<svg xmlns="http://www.w3.org/2000/svg" xmlns:xlink="http://www.w3.org/1999/xlink" width="12" height="20" viewBox="0 0 12 20"><defs><path id="fn56a" d="M1092.103 2093.032l-3.584-1.413a.977.977 0 0 1-.565-1.233l1.756-4.984a.983.983 0 0 1 1.252-.598c.512.179.78.737.6 1.247l-1.443 4.095 3.588 1.415c.492.194.74.742.562 1.238l-.895 2.504 3.687-4.286-3.185-1.256a.977.977 0 0 1-.495-1.388l2.842-5.048h-4.395a.98.98 0 0 1-.982-.978c0-.54.44-.978.982-.978h6.071a.98.98 0 0 1 .857 1.456l-3.112 5.527 3.42 1.35a.977.977 0 0 1 .384 1.546l-8.034 9.34c-.71.824-2.037.058-1.672-.965l2.36-6.592z"/></defs><g><g transform="translate(-1088 -2081)"><use fill="#cc9e4a" xlink:href="#fn56a"/></g></g></svg>