<svg xmlns="http://www.w3.org/2000/svg" xmlns:xlink="http://www.w3.org/1999/xlink" width="76" height="80" viewBox="0 0 76 80"><defs><path id="xoh2a" d="M210 65l3.17-.253c.28-2.191.862-4.29 1.748-6.294 1.211-2.937 2.96-5.57 5.243-7.903 2.19-2.19 4.824-3.961 7.9-5.314 2.936-1.305 6.152-1.958 9.648-1.958 3.448 0 6.641.653 9.578 1.958a26.217 26.217 0 0 1 7.9 5.314 26.213 26.213 0 0 1 5.313 7.903c1.304 2.937 1.957 6.13 1.957 9.58s-.653 6.643-1.957 9.58c-1.353 3.077-3.123 5.712-5.313 7.903-2.238 2.238-4.848 4.01-7.83 5.314-2.937 1.306-6.153 1.958-9.648 1.958-3.403 0-6.572-.652-9.508-1.958a27.343 27.343 0 0 1-4.23-2.308 21.919 21.919 0 0 1-3.67-3.076 21.936 21.936 0 0 1-3.076-3.672 27.298 27.298 0 0 1-2.307-4.23c-1.166-2.611-1.818-5.408-1.958-8.393l-2.96-.15v28.098c4.966 3.645 12.406 7.266 22.437 7.382.178.002.352.003.529.003 12.244 0 20.574-4.893 25.406-8.997 6.092-5.174 8.086-10.211 8.115-11.196-.376-7.805-.532-22.988-.565-30.733-.012-2.969-3.14-8.496-9.094-13.317-4.025-3.258-12.55-8.725-24.431-8.725 0 0 11.84 0 0 0-10.21 0-17.991 4.127-22.542 7.384zm27.709 23.453c2.75 0 5.359-.56 7.83-1.679 2.423-1.024 4.59-2.493 6.502-4.405 1.817-1.772 3.308-3.917 4.474-6.434a19.967 19.967 0 0 0 1.608-7.902c0-2.703-.537-5.337-1.608-7.902a23.933 23.933 0 0 0-4.405-6.504 21.878 21.878 0 0 0-6.501-4.475 19.953 19.953 0 0 0-7.9-1.608c-3.356 0-6.526.793-9.508 2.378-3.076 1.632-5.57 3.892-7.48 6.782-2.332 3.451-3.496 7.227-3.496 11.33 0 2.703.535 5.314 1.608 7.832 1.072 2.517 2.517 4.685 4.334 6.503a19.318 19.318 0 0 0 6.502 4.405c2.423 1.12 5.104 1.679 8.04 1.679zm-2.443-9.378v-16.98l-4.418 3.469-4.419-3.468v16.979h-2.293V57.396l6.712 5.26 6.711-5.26v21.679zm13.45-18.658a7.58 7.58 0 0 0-2.74.965 8.471 8.471 0 0 0-3.635 4.294 7.822 7.822 0 0 0-.532 2.853v10.546h-2.32V68.529c0-1.417.274-2.764.824-4.042a10.901 10.901 0 0 1 2.237-3.356c.941-.96 2.037-1.72 3.286-2.28a9.664 9.664 0 0 1 3.999-.84h1.175v21.064h-2.293zm-47.785-12.399C199.491 50.26 199.05 52.48 199 54c-.132 4.091-.18 14.383 0 30 .145.934 2.219 5.139 7 9.728V42.053c-2.027 1.89-3.756 3.92-5.069 5.965zM232.397 28c21.697 0 37.003 16.842 37.174 26.005.544 10.13.453 21.725.603 29.707.066 5.44-12.33 24.288-37.208 24.288l-.57-.003c-24.413-.281-36.516-19.648-36.76-23.859-.746-12.902-.688-26.372-.561-30.314C195.355 45.122 210.7 28 232.397 28z"/></defs><g><g transform="translate(-195 -28)"><use fill="#cc9e4a" xlink:href="#xoh2a"/></g></g></svg>