<svg xmlns="http://www.w3.org/2000/svg" xmlns:xlink="http://www.w3.org/1999/xlink" width="20" height="17" viewBox="0 0 20 17"><defs><path id="jnc9a" d="M208.535 1503.065L203 1500.34l-5.553 2.733a1.007 1.007 0 0 1-1.342-.44.972.972 0 0 1-.105-.44v-10.83c0-.373.214-.714.553-.88l5.982-2.945c.29-.152.64-.152.93 0l5.535 2.724 5.553-2.733a1.008 1.008 0 0 1 1.342.44c.069.137.105.287.105.44v10.83a.983.983 0 0 1-.553.88l-5.982 2.946a1.012 1.012 0 0 1-.93 0zM208 1500.6v-6.283a.993.993 0 0 1 1-.985c.552 0 1 .441 1 .985v6.283l4-1.969v-8.629l-4.553 2.24a1.012 1.012 0 0 1-.894 0l-4.553-2.24v6.284a.992.992 0 0 1-1 .984c-.552 0-1-.44-1-.984v-6.284l-4 1.97v8.628l4.553-2.24c.281-.139.613-.139.894 0z"/></defs><g><g transform="translate(-196 -1487)"><use fill="#cc9e4a" xlink:href="#jnc9a"/></g></g></svg>