<svg xmlns="http://www.w3.org/2000/svg" xmlns:xlink="http://www.w3.org/1999/xlink" width="64" height="64" viewBox="0 0 64 64"><defs><path id="h5rpa" d="M707 1979h-64v-2h3v-62h58v62h3zm-5-62h-38v6h38zm-54 0v6h14v-6zm0 60h54v-52h-54zm4-56h-2v-2h2zm4 0h-2v-2h2zm4 0h-2v-2h2zm40 0h-34v-2h34zm0 20h-50v-14h50zm-48-2h46v-10h-46zm24-4h-2v-2h2zm-4 0h-2v-2h2zm8 0h-2v-2h2zm-15 20h-15v-10h15zm-13-2h11v-6h-11zm31 2h-16v-10h16zm-14-2h12v-6h-12zm31 2h-15v-10h15zm-13-2h11v-6h-11zm-22 6h-15v-2h15zm0 4h-15v-2h15zm0 4h-15v-2h15zm17-8h-15v-2h15zm0 4h-15v-2h15zm0 4h-15v-2h15zm18-8h-15v-2h15zm0 4h-15v-2h15zm0 4h-15v-2h15zm0 8h-50v-2h50z"/></defs><g><g transform="translate(-643 -1915)"><use fill="#cc9e4a" xlink:href="#h5rpa"/></g></g></svg>