<svg xmlns="http://www.w3.org/2000/svg" xmlns:xlink="http://www.w3.org/1999/xlink" width="48" height="64" viewBox="0 0 48 64"><defs><path id="lub4a" d="M707 1979h-43a1 1 0 0 1-1-1v-62a1 1 0 0 1 1-1h38a1 1 0 0 1 .707.293l8 8a.999.999 0 0 1 .293.707v51a.999.999 0 0 1-1.707.707l-8.707-8.707H699v1.586l8.707 8.707A.999.999 0 0 1 707 1979zm-42-2h39.586l-7.293-7.293A1 1 0 0 1 697 1969v-2.586l-.837-.837A13.94 13.94 0 0 1 687 1969c-7.72 0-14-6.28-14-14s6.28-14 14-14v2c-6.617 0-12 5.383-12 12s5.383 12 12 12 12-5.383 12-12h2c0 3.5-1.292 6.705-3.423 9.163l.837.837H701a1 1 0 0 1 .707.293l7.293 7.293V1925h-8v-8h-36zm38-54h4.586l-4.586-4.586zm-16 41c-4.963 0-9-4.037-9-9s4.037-9 9-9v2c-3.52 0-6.442 2.612-6.929 6h7.343l5.19 5.19A6.963 6.963 0 0 0 694 1955h2c0 4.963-4.037 9-9 9zm0-2c1.57 0 3.021-.52 4.19-1.396l-4.604-4.604h-6.515c.487 3.388 3.41 6 6.93 6zm-16-41h-2v-2h2zm4 0h-2v-2h2zm4 0h-2v-2h2zm26 10h-36v-2h36zm0 4h-11v-2h11zm-13 0h-7v-2h7zm-9 0h-14v-2h14zm-4 4h-10v-2h10zm18-14h-28v-2h28zm4 28h-12v-12h1c6.065 0 11 4.935 11 11zm-10-2h7.944a9.016 9.016 0 0 0-7.944-7.944z"/></defs><g><g transform="translate(-663 -1915)"><use fill="#cc9e4a" xlink:href="#lub4a"/></g></g></svg>