<svg xmlns="http://www.w3.org/2000/svg" xmlns:xlink="http://www.w3.org/1999/xlink" width="64" height="48" viewBox="0 0 64 48"><defs><path id="5pfya" d="M747 1931h-2v-4.586l-20 20-8-8-16.293 16.293-1.414-1.414L717 1935.586l8 8L743.586 1925H739v-2h8zm-.586 40h-54.828l-4.586-4.586V1963h25.414l2 2h9.172l2-2H751v3.414zm-54-2h53.172l3.414-3.414V1965h-22.586l-2 2h-10.828l-2-2H689v.586zm.586-8h-2v-34c0-2.206 1.794-4 4-4h40v2h-40c-1.103 0-2 .898-2 2zm54 0h-2v-26h2zm-4-2h-48v-32h40v2h-38v28h44v-22h2zm-31-4h-2v-6h2zm-4 0h-2v-2h2zm8 0h-2v-10h2zm4 0h-2v-10h2zm4 0h-2v-6h2zm4 0h-2v-6h2zm4 0h-2v-10h2zm4 0h-2v-14h2z"/></defs><g><g transform="translate(-687 -1923)"><use fill="#cc9e4a" xlink:href="#5pfya"/></g></g></svg>