<svg xmlns="http://www.w3.org/2000/svg" xmlns:xlink="http://www.w3.org/1999/xlink" width="56" height="64" viewBox="0 0 56 64"><defs><path id="bxkia" d="M674 1947c-1.025 0-2.028-.097-3-.282V1966c0 1.654 1.346 3 3 3s3-1.346 3-3v-19.282c-.972.185-1.975.282-3 .282zm-16-16c0-8.822 7.178-16 16-16s16 7.178 16 16c0 7.077-4.619 13.096-11 15.2v19.8c0 2.757-2.243 5-5 5s-5-2.243-5-5v-19.8c-6.381-2.104-11-8.123-11-15.2zm16-14c-7.72 0-14 6.28-14 14s6.28 14 14 14 14-6.28 14-14-6.28-14-14-14zm1 40h-2v-2h2zm0 4h-2v-2h2zm0 4h-2v-2h2zm29.414 14H673v-6h2v4h28v-9h9v-45h-22v-2h24v48.414zm.586-9v5.586l5.586-5.586zm-23-31h-16v-16h12v2h-10v12h12v-6h2zm-8-4.586l-3.707-3.707 1.414-1.414 2.293 2.293 6.293-6.293 1.414 1.414zM687 1954h-6v-6h6zm-4-2h2v-2h-2zm4 10h-6v-6h6zm-4-2h2v-2h-2zm4 10h-6v-6h6zm-4-2h2v-2h-2zm25-18h-19v-2h19zm0 4h-19v-2h19zm0 4h-19v-2h19zm0 4h-19v-2h19zm-9 8h-10v-2h10zm9-4h-19v-2h19zm0-22h-19v-2h17v-8h-14v-2h16zm0-14h-2v-2h2zm-4 0h-2v-2h2zm-4 0h-2v-2h2z"/></defs><g><g transform="translate(-658 -1915)"><use fill="#cc9e4a" xlink:href="#bxkia"/></g></g></svg>