<svg xmlns="http://www.w3.org/2000/svg" xmlns:xlink="http://www.w3.org/1999/xlink" width="64" height="64" viewBox="0 0 64 64"><defs><path id="p6nea" d="M685.693 1935.678a29.929 29.929 0 0 0-3.447-6.186 4.86 4.86 0 0 1-2.3.575 4.997 4.997 0 0 1-4.988-4.993c0-.81.196-1.592.574-2.302a29.88 29.88 0 0 0-5.318-3.078 4.978 4.978 0 0 1-4.236 2.384 4.996 4.996 0 0 1-4.986-4.836 28.88 28.88 0 0 0-5.991 0 4.997 4.997 0 0 1-4.987 4.836 4.978 4.978 0 0 1-4.236-2.384 29.878 29.878 0 0 0-5.318 3.078c.378.71.575 1.491.575 2.302a4.997 4.997 0 0 1-4.989 4.993 4.86 4.86 0 0 1-2.3-.575 29.928 29.928 0 0 0-3.447 6.186l-1.845-.758a31.94 31.94 0 0 1 4.27-7.393l.63-.817.795.658c.386.32 1.03.702 1.897.702a2.998 2.998 0 0 0 2.993-2.996 2.97 2.97 0 0 0-.7-1.899l-.659-.795.817-.632a31.908 31.908 0 0 1 7.386-4.273l.974-.4.347.994a2.989 2.989 0 0 0 2.81 2.012 2.998 2.998 0 0 0 2.994-2.996c0-.16-.019-.338-.057-.54l-.193-1.035 1.044-.138a31.302 31.302 0 0 1 8.389 0l1.043.138-.193 1.035c-.038.202-.056.38-.056.54a2.998 2.998 0 0 0 2.993 2.996 2.99 2.99 0 0 0 2.81-2.012l.348-.994.973.4a31.905 31.905 0 0 1 7.387 4.273l.816.632-.658.795a2.97 2.97 0 0 0-.701 1.9 2.998 2.998 0 0 0 2.993 2.995c.868 0 1.51-.382 1.897-.702l.795-.658.631.817a31.936 31.936 0 0 1 4.27 7.393zm-27.697 43.32c-1.356 0-2.767-.095-4.194-.284l-1.044-.137.193-1.036c.038-.202.057-.379.057-.54a2.998 2.998 0 0 0-2.994-2.996 2.99 2.99 0 0 0-2.81 2.013l-.347.993-.974-.4a31.907 31.907 0 0 1-7.386-4.273l-.817-.632.658-.795a2.97 2.97 0 0 0 .701-1.899 2.998 2.998 0 0 0-2.993-2.995 2.96 2.96 0 0 0-1.897.702l-.795.658-.63-.817a31.944 31.944 0 0 1-4.27-7.393l1.845-.759a29.924 29.924 0 0 0 3.447 6.187 4.856 4.856 0 0 1 2.3-.576c2.75 0 4.989 2.24 4.989 4.993a4.87 4.87 0 0 1-.575 2.302 29.894 29.894 0 0 0 5.318 3.079 4.977 4.977 0 0 1 4.236-2.385 4.997 4.997 0 0 1 4.987 4.837 28.88 28.88 0 0 0 5.99 0 4.996 4.996 0 0 1 4.987-4.837c1.747 0 3.343.926 4.236 2.385a29.898 29.898 0 0 0 5.318-3.079 4.87 4.87 0 0 1-.574-2.302 4.997 4.997 0 0 1 4.988-4.993c.81 0 1.59.197 2.3.576a29.924 29.924 0 0 0 3.447-6.187l1.845.759a31.94 31.94 0 0 1-4.269 7.393l-.631.817-.795-.658a2.96 2.96 0 0 0-1.897-.702 2.998 2.998 0 0 0-2.993 2.995c0 .869.381 1.512.701 1.9l.658.794-.816.632a31.905 31.905 0 0 1-7.387 4.273l-.973.4-.347-.993a2.99 2.99 0 0 0-2.811-2.013 2.998 2.998 0 0 0-2.993 2.996c0 .161.018.338.056.54l.193 1.036-1.043.137a32.196 32.196 0 0 1-4.195.284zm0-13.98c-17.356 0-31.125-16.635-31.702-17.343a.998.998 0 0 1 0-1.263c.577-.709 14.346-17.344 31.702-17.344s31.125 16.635 31.702 17.344c.3.367.3.895 0 1.263-.577.708-14.346 17.343-31.702 17.343zm-29.61-17.975c1.891 2.128 8.53 9.122 17.342 13.116-3.5-3.282-5.691-7.948-5.691-13.116 0-5.171 2.193-9.84 5.698-13.122-8.82 3.992-15.458 10.991-17.35 13.122zm59.22 0c-1.891-2.128-8.53-9.122-17.341-13.115 3.5 3.282 5.69 7.947 5.69 13.115 0 5.172-2.193 9.84-5.698 13.123 8.82-3.992 15.458-10.992 17.35-13.122zm-29.61-15.977c-8.802 0-15.963 7.167-15.963 15.977s7.16 15.978 15.963 15.978c8.802 0 15.964-7.168 15.964-15.978 0-8.81-7.162-15.977-15.964-15.977zm0 27.96c-6.602 0-11.973-5.375-11.973-11.983 0-6.607 5.372-11.983 11.973-11.983 6.602 0 11.973 5.376 11.973 11.983 0 6.608-5.371 11.984-11.973 11.984zm0-21.969c-5.501 0-9.977 4.48-9.977 9.986 0 5.507 4.476 9.986 9.977 9.986 5.502 0 9.977-4.48 9.977-9.986s-4.475-9.986-9.977-9.986zm-4.988 9.986h-1.996c0-3.854 3.133-6.99 6.984-6.99v1.997a4.997 4.997 0 0 0-4.988 4.993zm5.986-22.968h-1.996v-1.997h1.996zm11.973 2.996h-1.996v-1.997h1.996zm-23.946 0h-1.995v-1.997h1.995zm11.973 44.937h-1.996v-1.997h1.996zm11.973-2.996h-1.996v-1.997h1.996zm-23.946 0h-1.995v-1.997h1.995z"/></defs><g><g transform="translate(-626 -1915)"><use fill="#cc9e4a" xlink:href="#p6nea"/></g></g></svg>