<svg xmlns="http://www.w3.org/2000/svg" xmlns:xlink="http://www.w3.org/1999/xlink" width="64" height="64" viewBox="0 0 64 64"><defs><path id="pc19a" d="M260 651v38c0 2.21-1.79 4-4 4h-19.888l5.486 9.5a3 3 0 1 1-5.196 3l-7.217-12.5h-2.37l-7.217 12.5a3 3 0 0 1-5.196-3l5.486-9.5H200c-2.21 0-4-1.79-4-4v-38c0-2.211 1.79-4 4-4h25v-1a3 3 0 1 1 6 0v1h25c2.21 0 4 1.789 4 4zm-33-4h2v-1a1 1 0 1 0-2 0zm-2.494 46h-2.309l-6.062 10.5a.997.997 0 0 0 .365 1.365.998.998 0 0 0 1.366-.366zm9.297 0h-2.309l6.64 11.5a1 1 0 1 0 1.731-1zM258 651a2 2 0 0 0-2-2h-56a2 2 0 0 0-2 2v38a2 2 0 0 0 2 2h56a2 2 0 0 0 2-2zm-26 11v25h-8v-25a1 1 0 0 1 1-1h6a1 1 0 0 1 1 1zm-2 15h-4v8h4zm0-14h-4v12h4zm14-9v33h-8v-33a1 1 0 0 1 1-1h6a1 1 0 0 1 1 1zm-2 21h-4v10h4zm0-20h-4v18h4zm-22 15v17h-8v-17a1 1 0 0 1 1-1h6a1 1 0 0 1 1 1zm-2 9h-4v6h4zm0-8h-4v6h4z"/></defs><g><g transform="translate(-196 -643)"><use fill="#5bdac4" xlink:href="#pc19a"/></g></g></svg>