<svg xmlns="http://www.w3.org/2000/svg" xmlns:xlink="http://www.w3.org/1999/xlink" width="64" height="64" viewBox="0 0 64 64"><defs><path id="5rh6a" d="M566 647v56c0 2.21-1.789 4-4 4h-56c-2.21 0-4-1.79-4-4v-56c0-2.21 1.79-4 4-4h56c2.211 0 4 1.79 4 4zm-2 0a2 2 0 0 0-2-2h-56a2 2 0 0 0-2 2v56a2 2 0 0 0 2 2h56a2 2 0 0 0 2-2zm-2 1v38a1 1 0 0 1-1 1h-13v5a1 1 0 0 1-1 1h-26a1 1 0 0 1-1-1v-5h-13a1 1 0 0 1-1-1v-38a1 1 0 0 1 1-1h54a1 1 0 0 1 1 1zm-2 1h-52v36h13a1 1 0 0 1 1 1v5h24v-5a1 1 0 0 1 1-1h13zm-44 9a1 1 0 0 1 1-1h34a1 1 0 1 1 0 2h-34a1 1 0 0 1-1-1zm0 12a1 1 0 0 1 1-1h34a1 1 0 1 1 0 2h-34a1 1 0 0 1-1-1zm0 6a1 1 0 0 1 1-1h34a1 1 0 1 1 0 2h-34a1 1 0 0 1-1-1zm0-12a1 1 0 0 1 1-1h34a1 1 0 1 1 0 2h-34a1 1 0 0 1-1-1z"/></defs><g><g transform="translate(-502 -643)"><use fill="#5bdac4" xlink:href="#5rh6a"/></g></g></svg>