<svg xmlns="http://www.w3.org/2000/svg" xmlns:xlink="http://www.w3.org/1999/xlink" width="64" height="64" viewBox="0 0 64 64"><defs><path id="4p9sa" d="M872 647v54a6 6 0 0 1-6 6h-52a6 6 0 0 1-6-6v-23c0-2.211 1.79-4 4-4h6v-27c0-2.21 1.79-4 4-4h46c2.21 0 4 1.79 4 4zm-58 58a4 4 0 0 0 4-4v-25h-6a2 2 0 0 0-2 2v23a4 4 0 0 0 4 4zm56-4v-54a2 2 0 0 0-2-2h-46a2 2 0 0 0-2 2v54c0 1.54-.584 2.938-1.537 4H866a4 4 0 0 0 4-4zm-8-32a1 1 0 0 1-1 1h-32a1 1 0 1 1 0-2h32a1 1 0 0 1 1 1zm0-6a1 1 0 0 1-1 1h-32a1 1 0 1 1 0-2h32a1 1 0 0 1 1 1zm0 18a1 1 0 0 1-1 1h-32a1 1 0 1 1 0-2h32a1 1 0 0 1 1 1zm0 6a1 1 0 0 1-1 1h-32a1 1 0 1 1 0-2h32a1 1 0 0 1 1 1zm0 6a1 1 0 0 1-1 1h-32a1 1 0 1 1 0-2h32a1 1 0 0 1 1 1zm0-18a1 1 0 0 1-1 1h-32a1 1 0 1 1 0-2h32a1 1 0 0 1 1 1zm-34-18a1 1 0 0 1 1-1h15a1 1 0 1 1 0 2h-15a1 1 0 0 1-1-1z"/></defs><g><g transform="translate(-808 -643)"><use fill="#5bdac4" xlink:href="#4p9sa"/></g></g></svg>