<svg xmlns="http://www.w3.org/2000/svg" xmlns:xlink="http://www.w3.org/1999/xlink" width="64" height="64" viewBox="0 0 64 64"><defs><path id="mazta" d="M1131.695 676.274a1.001 1.001 0 0 1-1.236.687l-14.467-4.133a1.001 1.001 0 0 1-.687-1.237c.152-.532.709-.833 1.236-.687l14.467 4.134c.531.152.839.706.687 1.236zm0 7a1.001 1.001 0 0 1-1.236.688l-14.467-4.133a1 1 0 0 1-.687-1.237c.152-.532.709-.833 1.236-.687l14.467 4.133a1 1 0 0 1 .687 1.236zm0-14a1 1 0 0 1-1.236.687l-14.467-4.133a1 1 0 0 1-.687-1.237c.152-.532.709-.834 1.236-.687l14.467 4.134c.531.152.839.706.687 1.236zm0-7a1.001 1.001 0 0 1-1.236.688l-14.467-4.134a1 1 0 0 1-.687-1.237c.152-.532.709-.833 1.236-.687l14.467 4.134c.531.152.839.706.687 1.236zm14.307 13.962a1.001 1.001 0 0 1 .688-1.236l14.466-4.134a1.007 1.007 0 0 1 1.237.687 1 1 0 0 1-.688 1.236l-14.467 4.134a1 1 0 0 1-1.236-.688zm16.693 2.356a1 1 0 0 1-.687 1.237l-14.467 4.133a1.001 1.001 0 0 1-.549-1.924l14.467-4.133a1.007 1.007 0 0 1 1.236.687zm0-14a1.001 1.001 0 0 1-.687 1.236l-14.467 4.133a1.001 1.001 0 0 1-.549-1.924l14.467-4.133a1.005 1.005 0 0 1 1.236.687zm0-7a1.001 1.001 0 0 1-.687 1.236l-14.467 4.134a1.001 1.001 0 0 1-.549-1.924l14.467-4.134a1.007 1.007 0 0 1 1.236.687zM1171 645v49.999a2 2 0 0 1-1.484 1.932l-25.873 6.9A4.992 4.992 0 0 1 1139 707a4.992 4.992 0 0 1-4.643-3.17l-25.873-6.899A2 2 0 0 1 1107 695v-50a2.002 2.002 0 0 1 2.516-1.932L1139 650.93l29.484-7.862a2.003 2.003 0 0 1 1.734.347c.493.379.782.965.782 1.586zm-32.516 51.932L1109 689.07v1.954l30 7.941 30-7.94v-1.955l-29.484 7.862a2.01 2.01 0 0 1-1.032 0zM1109 687l29 7.733v-42L1109.001 645h-.003zm60 7.999v-1.907l-29.744 7.874a.988.988 0 0 1-.512 0L1109 693.092V695l25.033 6.675 1.988.53a2.993 2.993 0 0 0 1.788 2.547l.675.18a1.999 1.999 0 0 0 1.032 0l.675-.18a2.993 2.993 0 0 0 1.789-2.546l1.987-.53zm0-8v-42l-29 7.734v42z"/></defs><g><g transform="translate(-1107 -643)"><use fill="#5bdac4" xlink:href="#mazta"/></g></g></svg>