<svg xmlns="http://www.w3.org/2000/svg" xmlns:xlink="http://www.w3.org/1999/xlink" width="48" height="64" viewBox="0 0 48 64"><defs><path id="m6v0a" d="M1453 688.8V703c0 2.211-1.789 4-4 4h-12c-2.211 0-4-1.789-4-4v-14.2c-8.257-3.794-14-12.117-14-21.8 0-13.255 10.745-24 24-24s24 10.745 24 24c0 9.683-5.743 18.006-14 21.8zm-2 12.2h-16v2a2 2 0 0 0 2 2h12a2 2 0 0 0 2-2zm0-6h-16v4h16zm0-6h-16v4h16zm-6-21a2 2 0 0 0-4 0v19h4zm20-1c0-12.15-9.85-22-22-22s-22 9.85-22 22c0 8.883 5.27 16.526 12.85 20h5.15v-19a2 2 0 0 0-4 0 1 1 0 1 1-2 0 4 4 0 0 1 4-4c1.201 0 2.267.541 3 1.38a3.975 3.975 0 0 1 3-1.38c1.201 0 2.267.541 3 1.38a3.974 3.974 0 0 1 3-1.38 4 4 0 0 1 4 4 1 1 0 1 1-2 0 2 2 0 0 0-4 0v19h5.15c7.58-3.474 12.85-11.117 12.85-20zm-9.271-12.728s1.013.986.271 1.728c-.742.742-1.687-.313-1.687-.313A15.95 15.95 0 0 0 1443 651a1 1 0 1 1 0-2c4.97 0 9.47 2.015 12.729 5.272z"/></defs><g><g transform="translate(-1419 -643)"><use fill="#5bdac4" xlink:href="#m6v0a"/></g></g></svg>