<svg xmlns="http://www.w3.org/2000/svg" xmlns:xlink="http://www.w3.org/1999/xlink" width="20" height="21" viewBox="0 0 20 21"><defs><path id="av5wa" d="M1005.01 1192.128c-1.563-.58-2.382-2.377-1.83-4.015.552-1.639 2.267-2.498 3.83-1.918 1.563.579 2.382 2.376 1.83 4.015a3.078 3.078 0 0 1-1.83 1.918v9.614c0 .58-.448 1.049-1 1.049h-4.32l-2.901 3.8a.97.97 0 0 1-1.56 0l-2.9-3.8h-4.321c-.553 0-1-.47-1-1.049v-12.581c0-.58.447-1.049 1-1.049h11.001c.552 0 1 .47 1 1.049s-.448 1.048-1 1.048h-10.001v10.485h3.8c.304 0 .59.145.78.393l2.42 3.172 2.421-3.171a.983.983 0 0 1 .78-.394h3.8zm1-1.919c.552 0 1-.47 1-1.048 0-.58-.448-1.049-1-1.049-.553 0-1 .47-1 1.049s.447 1.048 1 1.048zm-12.002 4.194c-.552 0-1-.47-1-1.048 0-.58.448-1.049 1-1.049h8.001c.553 0 1 .47 1 1.049s-.447 1.048-1 1.048zm0 4.194c-.552 0-1-.47-1-1.049s.448-1.048 1-1.048h5c.553 0 1.001.47 1.001 1.048 0 .58-.448 1.049-1 1.049z"/></defs><g><g transform="translate(-989 -1186)"><use fill="#778694" xlink:href="#av5wa"/></g></g></svg>