<svg xmlns="http://www.w3.org/2000/svg" xmlns:xlink="http://www.w3.org/1999/xlink" width="20" height="17" viewBox="0 0 20 17"><defs><path id="gnt2a" d="M1459.535 7551.065l-5.535-2.724-5.553 2.733a1.007 1.007 0 0 1-1.341-.441.97.97 0 0 1-.106-.44v-10.83c0-.373.214-.714.553-.88l5.982-2.945a1.01 1.01 0 0 1 .93 0l5.535 2.724 5.553-2.733a1.008 1.008 0 0 1 1.342.44c.069.137.105.288.105.44v10.83a.983.983 0 0 1-.553.881l-5.982 2.945c-.291.15-.639.15-.93 0zm-.535-2.465v-6.284a.993.993 0 0 1 1-.984c.552 0 1 .441 1 .984v6.284l4-1.969v-8.629l-4.553 2.24a1.012 1.012 0 0 1-.894 0l-4.553-2.24v6.284a.992.992 0 0 1-1 .984c-.552 0-1-.44-1-.984v-6.284l-4 1.97v8.628l4.553-2.24c.281-.139.613-.139.894 0z"/></defs><g><g transform="translate(-1447 -7535)"><use fill="#fff" xlink:href="#gnt2a"/></g></g></svg>