<svg xmlns="http://www.w3.org/2000/svg" xmlns:xlink="http://www.w3.org/1999/xlink" width="15" height="15" viewBox="0 0 15 15"><defs><path id="ih8va" d="M1297.784 55.789l-1.149 1.149a.829.829 0 0 1-1.176 0 .834.834 0 0 1 0-1.178l1.464-1.465a.83.83 0 0 1 .75-.227l3.658.732c.39.078.67.42.669.817v4.395c0 .386-.265.72-.64.81-2.82.672-6.847-.437-10.29-3.884-3.442-3.446-4.547-7.48-3.876-10.306a.831.831 0 0 1 .81-.64h4.39c.395 0 .736.28.815.67l.73 3.662a.833.833 0 0 1-.226.752l-1.027 1.028a8.713 8.713 0 0 0 1.828 2.235.834.834 0 0 1 .082 1.176.831.831 0 0 1-1.173.082 10.373 10.373 0 0 1-2.506-3.275.834.834 0 0 1 .156-.96l1.149-1.15-.51-2.554h-3.008c-.244 2.243.784 5.342 3.542 8.102 2.758 2.762 5.85 3.793 8.09 3.55V56.3zm4.216-4.8a.832.832 0 1 1-1.664 0 3.33 3.33 0 0 0-3.326-3.331.832.832 0 0 1 0-1.666 4.993 4.993 0 0 1 4.99 4.996zm-2.495 0a.832.832 0 1 1-1.663 0 .831.831 0 0 0-.83-.832h-.002a.833.833 0 0 1 0-1.667 2.497 2.497 0 0 1 2.495 2.498v.002z"/></defs><g><g transform="translate(-1287 -46)"><use fill="#cc9e4a" xlink:href="#ih8va"/></g></g></svg>