<svg xmlns="http://www.w3.org/2000/svg" xmlns:xlink="http://www.w3.org/1999/xlink" width="18" height="18" viewBox="0 0 18 18"><defs><path id="ql5ya" d="M1279.478 760.892l-1.287-1.28a.986.986 0 0 1 .024-1.4.999.999 0 0 1 1.383 0l2.986 2.97a.986.986 0 0 1 0 1.4l-2.986 2.969a.999.999 0 0 1-1.407-.025.986.986 0 0 1 0-1.375l1.287-1.28h-2.574a.997.997 0 0 1-.776-.37l-3.204-3.985-3.205 3.983a.997.997 0 0 1-.776.372h-2.986a.992.992 0 0 1-.995-.99c0-.546.446-.99.995-.99h2.508l3.668-4.56.026-.032 3.968-4.934a.997.997 0 0 1 .777-.371h2.574l-1.287-1.28a.986.986 0 0 1-.025-1.4.999.999 0 0 1 1.432 0l2.986 2.97a.986.986 0 0 1 0 1.4l-2.986 2.969a.999.999 0 0 1-1.407-.025.986.986 0 0 1 0-1.375l1.287-1.28h-2.096l-3.185 3.96 3.185 3.959zm-11.014-7.919h-2.507a.992.992 0 0 1-.995-.99c0-.546.446-.99.995-.99h2.986c.302 0 .587.137.776.372l1.422 1.767a.986.986 0 0 1-.135 1.393.999.999 0 0 1-1.418-.156z"/></defs><g><g transform="translate(-1265 -748)"><use fill="#cc9e4a" xlink:href="#ql5ya"/></g></g></svg>