<svg xmlns="http://www.w3.org/2000/svg" xmlns:xlink="http://www.w3.org/1999/xlink" width="20" height="21" viewBox="0 0 20 21"><defs><path id="74uia" d="M1580.295 759.75c-.127-.421.022-.879.37-1.133l1.554-1.137a.964.964 0 0 1 1.37.253 1.039 1.039 0 0 1-.233 1.406l-.97.71 1.894 6.292c.285.947-.777 1.712-1.538 1.108l-4.871-3.864-4.872 3.864c-.762.604-1.823-.161-1.538-1.108l1.902-6.317-4.939-3.882c-.751-.59-.346-1.828.597-1.826l6.045.015 1.864-6.286a.974.974 0 0 1 1.88 0l1.865 6.286 6.045-.015c.543-.001.984.453.985 1.014.001.562-.438 1.018-.981 1.019l-6.773.017a.989.989 0 0 1-.942-.72l-1.138-3.836-1.14 3.837a.989.989 0 0 1-.941.719l-3.844-.01 3.157 2.481c.33.26.467.704.343 1.112l-1.186 3.937 3.012-2.39a.958.958 0 0 1 1.197 0l3.012 2.39z"/></defs><g><g transform="translate(-1568 -747)"><use fill="#cc9e4a" xlink:href="#74uia"/></g></g></svg>