<svg xmlns="http://www.w3.org/2000/svg" xmlns:xlink="http://www.w3.org/1999/xlink" width="50" height="50" viewBox="0 0 50 50"><defs><path id="vuv7a" d="M1615.105 1164.737a8.968 8.968 0 0 1-3.222 6.888v9.42a1.953 1.953 0 0 1-2.717 1.798l-3.143-1.336-3.143 1.335a1.953 1.953 0 0 1-2.716-1.798v-9.587a8.965 8.965 0 0 1-3.027-6.72c0-4.953 4.03-8.984 8.984-8.984s8.984 4.03 8.984 8.984zm-7.128 8.791a8.988 8.988 0 0 1-3.907-.043v4.608l1.19-.505a1.954 1.954 0 0 1 1.527 0l1.19.505zm3.222-8.79c0-2.8-2.278-5.079-5.078-5.079a5.084 5.084 0 0 0-5.078 5.078c0 2.8 2.278 5.079 5.078 5.079 2.8 0 5.078-2.279 5.078-5.079zm20.801-.088v5.921a6.282 6.282 0 0 1-6.224 6.274l-.026.002h-8.008a1.953 1.953 0 1 1 0-3.907h2.029c-.3-.731-.771-1.102-.771-1.94v-32c0-1.307-.758-2.094-2.065-2.094h-.144c-1.306 0-2.791.787-2.791 2.094v6c0 1.079-.453 1.758-1.531 1.758L1593 1147v22c0 1.585.688 3.036 2.152 3.644a1.953 1.953 0 0 1-1.499 3.607c-2.926-1.215-4.653-4.082-4.653-7.25V1147l-5.047-.242a1.953 1.953 0 0 1-1.953-1.953v-3.993c0-4.307 3.505-7.812 7.813-7.812h27.122c3.46 0 6.065 2.54 6.065 6v23h7c1.079 0 2 1.572 2 2.65zm-21.02-27.744h-21.167a3.91 3.91 0 0 0-3.907 3.906L1586 1143h24v-3c0-.838.68-2.362.98-3.094zM1628 1166h-5l.211 4.571a2.372 2.372 0 0 0 2.37 2.37h.143a2.372 2.372 0 0 0 2.37-2.37z"/></defs><g><g transform="translate(-1582 -1133)"><use fill="#4ed7bf" xlink:href="#vuv7a"/></g></g></svg>