<?xml version="1.0" standalone="no"?>
<!DOCTYPE svg PUBLIC "-//W3C//DTD SVG 1.1//EN" "http://www.w3.org/Graphics/SVG/1.1/DTD/svg11.dtd" >
<svg xmlns="http://www.w3.org/2000/svg">
<metadata>Generated by IcoMoon</metadata>
<defs>
<font id="icomoon" horiz-adv-x="1024">
<font-face units-per-em="1024" ascent="960" descent="-64" />
<missing-glyph horiz-adv-x="1024" />
<glyph unicode="&#x20;" horiz-adv-x="512" d="" />
<glyph unicode="&#xe900;" glyph-name="Motorcycles" horiz-adv-x="1652" d="M0 233.29c0 164.236 133.054 297.29 297.29 297.29s297.29-133.054 297.29-297.29c0-164.236-133.054-297.29-297.29-297.29s-297.29 133.054-297.29 297.29zM528.516 233.29c0 127.471-103.721 231.226-231.226 231.226s-231.226-103.754-231.226-231.226c0-127.471 103.721-231.226 231.226-231.226s231.226 103.754 231.226 231.226zM132.129 233.29c0 91.235 73.959 165.161 165.161 165.161s165.161-73.926 165.161-165.161c0-91.202-73.959-165.161-165.161-165.161s-165.161 73.959-165.161 165.161zM396.387 233.29c0 54.635-44.461 99.097-99.097 99.097s-99.097-44.461-99.097-99.097c0-54.635 44.461-99.097 99.097-99.097s99.097 44.461 99.097 99.097zM1057.032 233.29c0 164.236 133.054 297.29 297.29 297.29s297.29-133.054 297.29-297.29c0-164.236-133.054-297.29-297.29-297.29s-297.29 133.054-297.29 297.29zM1585.548 233.29c0 127.471-103.754 231.226-231.226 231.226s-231.226-103.754-231.226-231.226c0-127.471 103.754-231.226 231.226-231.226s231.226 103.754 231.226 231.226zM1189.161 233.29c0 91.235 73.959 165.161 165.161 165.161s165.161-73.926 165.161-165.161c0-91.202-73.959-165.161-165.161-165.161s-165.161 73.959-165.161 165.161zM1453.419 233.29c0 54.635-44.461 99.097-99.097 99.097s-99.097-44.461-99.097-99.097c0-54.635 44.461-99.097 99.097-99.097s99.097 44.461 99.097 99.097z" />
<glyph unicode="&#xe901;" glyph-name="animals" horiz-adv-x="1107" d="M0 691.368c1.136 25.098 20.45 45.416 45.443 45.416s45.443-21.514 45.443-46.612l-1.136-74.101c0-19.124 14.769-34.661 32.947-34.661h380.589l347.643 365.726c17.041 17.928 45.442 16.733 62.484-1.195s17.041-47.807 0-66.93l-46.579-49.002 219.265-222.305c28.401-28.684 27.265-80.077-3.409-115.932l-59.077-68.126c-30.674-34.661-79.527-40.636-107.928-11.953 0 0-44.308 43.028-89.75 89.64-5.682 5.976-10.225 8.365-17.041 8.365-5.682 0-28.403-26.294-40.901-43.026v-457.754c-1.135-40.636-32.946-72.919-71.573-72.919-39.763 0-71.573 33.477-71.573 75.309v117.127c0 31.075-22.723 54.979-51.124 54.979h-378.317c-29.539 0-51.124-25.1-51.124-54.979v-117.127c0-41.832-31.81-75.309-71.573-75.309s-71.573 32.282-72.709 72.919v682.45z" />
<glyph unicode="&#xe902;" glyph-name="Appliances" horiz-adv-x="793" d="M0-64h787.692v1024h-787.692v-1024zM39.385 763.037v157.578h708.923v-157.578h-708.923zM748.308-24.616h-708.923v748.308h708.923v-748.308zM157.538 881.23c21.74 0 39.385-17.644 39.385-39.385s-17.644-39.385-39.385-39.385c-21.74 0-39.385 17.644-39.385 39.385s17.644 39.385 39.385 39.385zM315.077 881.23c21.74 0 39.385-17.644 39.385-39.385s-17.644-39.385-39.385-39.385c-21.74 0-39.385 17.644-39.385 39.385s17.644 39.385 39.385 39.385zM472.614 881.23c21.78 0 39.385-17.644 39.385-39.385s-17.605-39.385-39.385-39.385c-21.78 0-39.385 17.644-39.385 39.385s17.605 39.385 39.385 39.385zM630.153 881.23c21.78 0 39.385-17.644 39.385-39.385s-17.605-39.385-39.385-39.385c-21.78 0-39.385 17.644-39.385 39.385s17.605 39.385 39.385 39.385zM118.153 369.231c0 152.261 123.431 275.692 275.692 275.692s275.692-123.431 275.692-275.692c0-152.261-123.432-275.692-275.692-275.692s-275.692 123.432-275.692 275.692zM157.538 369.231c0-130.481 105.826-236.308 236.307-236.308s236.308 105.827 236.308 236.308c0 130.481-105.827 236.307-236.308 236.307s-236.307-105.826-236.307-236.307zM236.306 369.232c0 87.001 70.538 157.538 157.538 157.538s157.538-70.538 157.538-157.538c0-87.001-70.537-157.538-157.538-157.538s-157.538 70.537-157.538 157.538zM275.691 369.232c0-65.261 52.893-118.154 118.154-118.154s118.154 52.893 118.154 118.154c0 65.26-52.893 118.154-118.154 118.154s-118.154-52.893-118.154-118.154z" />
<glyph unicode="&#xe903;" glyph-name="aquarium" horiz-adv-x="976" d="M753.206 297.287v-111.333c0-11.126-10.79-6.257-17.093-2.808l-66.648 41.908c-95.979-106.403-248.396-103.275-331.45 19.871 0 0 151.776 180.376 334.976 12.591l55.475 39.756c0 0 0.336 0 0.702 0.336l1.037 0.687c5.205 3.846 23 15.384 23-1.007zM416.706 504.242c33.087 0 59.917-26.815 59.917-59.917 0-33.087-26.83-59.917-59.917-59.917s-59.917 26.83-59.917 59.917c0 33.102 26.83 59.917 59.917 59.917zM569.48 571.442c18.573 0 33.621-15.048 33.621-33.621s-15.048-33.621-33.621-33.621c-18.573 0-33.621 15.048-33.621 33.621s15.048 33.621 33.621 33.621zM535.861 722.867c0-24.785-20.115-44.884-44.976-44.884-24.754 0-44.869 20.099-44.869 44.884 0 24.846 20.13 44.93 44.869 44.93 24.831 0 44.976-20.084 44.976-44.93zM308.042 670.062c0 0 27.533 24.312 46.122 7.936 11.629-13.766 13.23-31.24-4.762-41.847-18.040-10.607-96.515-55.659-142.635-163.803-24.892-64.174-39.71-154.278 3.724-255.509 10.592-26.555 41.344-68.096 41.344-68.096s15.948-24.205-4.227-36.384c-20.176-12.179-30.218-3.128-36.078 3.723-5.815 6.914-53.522 67.838-70.478 147.901-17.001 80.016-12.224 178.147 32.309 258.744 44.518 80.565 84.274 111.76 134.683 147.334zM699.184 766.19c1.256-0.635 1.659-0.976 1.968-1.301 158.259-79.541 267.099-243.288 267.099-432.365 0-153.934-71.93-291.235-183.962-379.782h-600.344c-28.213 22.555-54.070 48.149-76.672 76.067-67.139 83.2-107.273 188.706-107.273 303.715 0 192.178 112.327 358.125 274.926 436.162 0.341 0.28 0.542 0.542 1.054 0.806 7.938 3.861 1.566 11.099 1.52 11.146l-105.166 116.854c-11.456 13.425-36.351 47.25 4.899 47.25h611.955c0 0 45.28-3.038 0.077-54.381l-90.082-102.313c0 0-12.587-15.378 0-21.858zM714.578 5.542h47.808c0 0 268.416 233.133 80.672 560.006-0.155 0.109-0.264 0.125-0.403 0.202-38.723 79.51-102.685 144.386-182.349 182.846l-8.883 4.2h-0.046c-24.291 12.046 0 42.724 0 42.724l59.31 69.79c23.438 27.624 0 27.097 0 27.097h-437.123c-4.899-0.062-21.254-1.147-10.914-13.797l73.355-89.338c6.51-9.053 13.936-24.989-5.597-34.585-0.046-0.014-0.046-0.030-0.046-0.030-1.518-0.651-3.022-1.318-4.496-2.016l0.046-0.046c-59.31-26.91-110.405-68.394-149.624-119.426-0.046 0.123-0.109 0.216-0.202 0.325-1.72-2.48-3.178-4.837-4.899-7.317-9.13-12.478-17.516-25.438-25.19-38.971-214.252-353.739 64.566-581.664 64.566-581.664h504.014z" />
<glyph unicode="&#xe904;" glyph-name="Audio-and-video" horiz-adv-x="853" d="M837.154 917.622v-733.366c0 0-2.619-125.622-146.323-125.622-157.342 0-167.943 102.094-167.943 125.705 0 50.492 19.736 105.531 167.608 105.531 68.071 0 83.804 17.494 83.804 62.078v351.557c0 27.591-1.676 37.565-32.327 30.629-52.734-11.92-397.169-86.59-410.912-89.878-13.745-3.29-17.683-11.44-17.683-35.659v-529.010c0-47.202-36.497-125.706-167.608-125.706s-146.657 83.762-146.657 125.706c0 62.287 47.14 102.471 146.804 102.471 92.834 0 104.609 26.167 104.609 65.136v565.675c0 20.113 8.191 33.71 28.618 38.215 34.172 7.5 519.167 107.499 519.167 107.499s38.844 8.862 38.844-40.959z" />
<glyph unicode="&#xe905;" glyph-name="auto" horiz-adv-x="1107" d="M891.412 960c40.268 0 74.694-26.88 87.298-64.64l127.871-383.36v-512c0-35.201-27.357-64-61.476-64h-61.476c-33.813 0-61.478 28.799-61.478 64v64h-737.719v-64c0-35.201-27.358-64-61.477-64h-61.477c-33.812 0-61.477 28.799-61.477 64v512l127.872 383.36c12.603 37.76 47.029 64.64 87.297 64.64h676.243zM215.169 864l-92.215-288h860.675l-92.216 288h-676.243zM215.169 256c51.025 0 92.215 42.881 92.215 96 0 53.121-41.19 96-92.215 96-51.026 0-92.215-42.879-92.215-96 0-53.119 41.189-96 92.215-96zM799.197 352c0-53.119 41.19-96 92.215-96 51.027 0 92.216 42.881 92.216 96 0 53.121-41.19 96-92.216 96-51.025 0-92.215-42.879-92.215-96z" />
<glyph unicode="&#xe906;" glyph-name="beauty-and-health" horiz-adv-x="764" d="M660.757 680.35c0-154.437-126.575-279.586-282.64-279.586-156.098 0-282.657 125.165-282.657 279.586 0 154.469 126.559 279.65 282.657 279.65 156.066 0 282.64-125.181 282.64-279.65zM615.446 680.35c0 129.684-106.267 234.805-237.329 234.805-131.047 0-237.33-105.105-237.33-234.805 0-129.653 106.283-234.789 237.33-234.789 131.062 0 237.329 105.136 237.329 234.789zM756.25 667.269c-1.942 13.699-14.976 13.116-14.976 13.116h-7.035c-13.704 0.016-16.457-16.407-16.935-20.675-0.094-0.661-0.094-1.024-0.094-1.024l-0.382 0.11c-15.136-172.261-160.618-307.614-338.695-307.614-175.801 0-319.993 131.904-338.185 301.048-0.191 0.882-0.35 1.669-0.525 2.692-3.008 21.21-12.573 24.942-17.252 25.477h-7.862c-10.52 0-13.544-7.967-14.308-13.888 7.114-192.259 160.283-347.215 353.129-359.687v-182.56l-171.837-170.072 0.652-0.614 392.537 0.252 0.494 0.457-171.855 169.977v182.56c193.086 12.519 346.366 167.9 353.13 360.443zM401.697 852.894c-7.735 0.976-15.566 1.653-23.572 1.653-101.906 0-184.554-81.722-184.554-182.576 0-27.256 6.191-53.032 17.045-76.257l191.080 257.18zM470.466 829.873l-217.085-292.199c12.987-11.81 27.661-21.792 43.704-29.587l214.936 289.287c-12.174 12.723-26.133 23.666-41.555 32.5zM391.222 490.025c95.794 6.692 171.424 85.469 171.424 181.945 0 14.455-1.877 28.485-5.061 41.963l-166.363-223.908z" />
<glyph unicode="&#xe907;" glyph-name="birds" horiz-adv-x="1321" d="M1144.731 912.697c-18.92 44.733-214.14 116.959-278.642-171.139l-340.566-255.414-509.462-305.026 25.517-8.836 67.689 19.752-107.493-63.483 35.25-12.204 364.651 108.358c0 0 164.512-22.469 292.694-22.548-6.037-12.101-12.075-24.175-18.125-36.263-6.102-12.217 45.503-134.407 64.567-192.595-32.141-4.879-64.281-9.771-96.433-14.65-11.49-1.743-6.585-19.139 4.801-17.409 33.871 5.139 67.703 10.278 101.548 15.419 33.843-5.141 67.701-10.28 101.533-15.419 11.385-1.73 16.29 15.666 4.814 17.409-32.426 4.945-64.851 9.863-97.278 14.781-1.47 5.010-2.953 10.018-4.436 15.015-5.752 19.49-11.503 38.969-17.268 58.46-10.761 36.407-21.495 72.826-32.244 109.231-0.090 0.247-0.168 0.404-0.234 0.625 3.905 7.834 126.959 63.913 126.959 63.913s-0.051 0-0.064 0.013c447.057 160.925 200.814 529.798 295.035 587.087 39.622 24.084 175.443 60.204 175.443 60.204 0 41.103-158.253 44.72-158.253 44.72z" />
<glyph unicode="&#xe908;" glyph-name="cats" horiz-adv-x="1338" d="M1317.804 959.983c-51.633 1.217-98.436-61.885-98.436-61.885h-114.159c0 0-46.831 63.102-98.451 61.885-15.621-50.963 26.411-138.329 26.411-138.329-41.885-42.459-24.487-62.493-57.504-95.871-91.83-92.827-374.057-22.766-511.721-9.705-137.665 13.059-318.99-67.584-349.394-243.119-27.204-156.94-21.419-210.143-96.792-281.199-15.503-14.618-22.697-37.295-14.064-52.923 8.618-15.641 32.768-25.466 52.294-17.022 142.744 61.737 162.593 265.394 162.593 265.394l54.422-215.189 91.815-209.965c3.229-7.361 12.288-13.312 20.231-13.312h54.422c67.224 0 44.014 64.72-20.819 64.72l-26.015 75.3 125.258 243.446 344.138-16.192 49.167-352.864c1.13-7.969 8.514-14.425 16.486-14.425h55.978c63.452 0 38.846 56.632-11.186 56.632l30.39 189.291 98.818-216.525c3.333-7.302 12.478-13.223 20.435-13.223h52.837c61.205 0 35.411 55.831-14.402 55.831-80.422 282.743 99.625 433.211 85.253 554.577 85.208 109.196 45.585 246.339 45.585 246.339s42.002 87.381 26.411 138.329z" />
<glyph unicode="&#xe909;" glyph-name="consumer-electronics" horiz-adv-x="1414" d="M131.445 155.076c24.186 0 43.815-19.585 43.815-43.815s-19.629-43.815-43.815-43.815c-24.186 0-43.815 19.585-43.815 43.815s19.629 43.815 43.815 43.815zM1270.636 242.705h-832.486v569.596h832.486v-569.596zM306.712 943.763h1095.365v-832.53h-482.005v-131.444h175.302v-43.772h-481.959v43.772h175.258v131.444h-262.932v-175.216h-525.731v920.072h306.703v87.674zM350.526 155.093h1007.692v744.811h-1007.692v-744.811zM306.712 680.829v131.445h-262.888v-131.445h262.888zM43.824 505.569h262.888v131.488h-262.888v-131.488zM306.712 461.754h-262.888v-481.964h438.146v131.444h-175.258v131.49h-219.073v175.216h219.073v43.814zM131.409 286.494h175.303v87.63h-175.303v-87.63zM876.301-20.211v131.444h-43.814v-131.444h43.814z" />
<glyph unicode="&#xe90a;" glyph-name="e-cigarettes" horiz-adv-x="875" d="M560.311 811.33c2.116-0.848 9.961-7.561 21.862-18.513l130.641 126.6 51.088-10.999 45.408 51.582 51.469-51.582-44.656-45.509 15.897-56.131-132.658-128.126c21.724-21.828 43.903-44.412 64.884-66.157l29.172 25.897 72.656-76.612-26.693-29.726c23.511-26.507 37.838-44.96 35.777-48.402-9.084-15.167-538.872-550.673-554.009-547.64-15.137 3.034-331.239 312.708-320.901 327.675 13.623 19.722 544.926 553.71 560.063 547.642z" />
<glyph unicode="&#xe90b;" glyph-name="Furniture-and-interior" horiz-adv-x="991" d="M716.8 333.781v-29.921c-36.269 12.964-106.435 29.921-225.28 29.921s-188.989-16.957-225.28-29.921v29.921c0 90.337-73.503 163.84-163.84 163.84-56.463 0-102.4-45.937-102.4-102.4 0-41.472 24.74-78.602 63.058-94.556 11.469-4.813 18.862-15.933 18.862-28.324l20.48-81.92c0-73.523 55.685-134.246 127.098-142.377-16.813-8.028-28.528-25.067-28.528-44.932 0-27.567 22.364-49.932 49.93-49.932s49.932 22.364 49.932 49.932c0 19.127-10.896 35.553-26.707 43.949h434.852c-15.811-8.377-26.705-24.801-26.705-43.949 0-27.567 22.363-49.932 49.93-49.932 27.565 0 49.93 22.364 49.93 49.932 0 19.866-11.715 36.904-28.528 44.932 71.351 8.131 127.037 68.854 127.037 142.377l20.48 81.92c0 12.41 7.393 23.511 18.861 28.324 38.319 15.933 63.059 53.084 63.059 94.556 0 56.463-45.936 102.4-102.4 102.4-90.337 0-163.84-73.503-163.84-163.84zM322.56 381.661c42.618 7.782 98.099 13.558 168.96 13.558s126.342-5.776 168.96-13.558c16.097 74.138 68.895 134.636 138.26 161.813v109.322c0 169.656-137.543 307.2-307.22 307.2-169.656 0-307.2-137.544-307.2-307.2v-109.343c69.366-27.176 122.143-87.674 138.24-161.792z" />
<glyph unicode="&#xe90c;" glyph-name="Game-items" horiz-adv-x="1486" d="M1486.452 142.838l-0.235-1.364c-0.099-0.537-9.997-56.72-12.367-94.778-1.32-20.206 2.854-45.954 6.208-66.626 3.506-21.425 5.208-32.874 2.938-38.184-1.686-3.913-5.691-5.886-11.935-5.886-12.853 0-33.65 8.237-44.917 13.172-2.737 1.201-5.825 1.812-9.163 1.812-13.654 0-27.508-9.941-27.658-10.030l-0.517-0.395-0.601-0.109c-11-2.063-21.132-3.067-31.014-3.067-27.691 0-53.813 8.326-79.836 25.39-71.84 47.173-98.664 134.991-65.163 213.549l0.026 0.094c0.642 2.119 11.93 39.332-16.985 85.408-28.477 45.398-79.72 47.462-80.237 47.479l-3.655 0.144 0.951 3.787c0.134 0.484 12.334 52.108-28.827 103.733-31.546 39.548-86.563 43.352-87.113 43.388l-2.837 0.18 0.134 3.051v0.023c0.046 1.453 1.888 59.739-30.763 96.479-17.826 20.060-42.747 30.198-74.043 30.198-2.471 0-5.041-0.053-7.662-0.178-35.771-5.688-81.656-37.574-101.25-51.212-6.043-4.182-8.179-5.653-9.365-6.065-0.785-0.306-1.635-0.449-2.52-0.449-5.074 0-9.33 4.988-9.781 5.563-0.201 0.251-11.819 15.486-24.47 35.852l-0.367 0.862-0.002 0.002c-0.251 0.935-0.811 3.026 4.458 16.81l-30.829 25.157 2.52 11.755c-12.602 11.322-116.374 100.628-299.38 144.878-28.259 8.057-59.99 12.148-94.375 12.148-148.639 0-305.089-75.992-306.658-76.745l-9.164-4.486 5.558 9.008c0.351 0.591 36.755 58.91 108.929 117.962 66.582 54.477 178.165 120.816 331.628 127.527 13.588 0.879 27.508 1.328 41.328 1.328 178.617 0 317.942-73.929 337.788-84.982 2.837 4.683 7.627 11.628 11.617 12.471 0.284 0.072 0.567 0.090 0.935 0.090 5.407 0 25.588-11.699 31.614-15.288l0.484-0.287 0.35-0.449c0.15-0.197 14.039-18.195 23.77-29.5 6.777-7.86 4.99-12.363 2.786-15.952-0.282-0.395-0.601-0.969-0.684-1.22 0.033-0.018 0.134-0.233 0.434-0.592 0.634-0.754 1.201-0.915 1.802-0.915 0.968 0 2.236 0.467 3.472 0.915 1.519 0.556 3.039 1.148 4.724 1.148 2.254 0 4.106-1.113 5.393-3.23 2.695-4.427 0.327-7.797-0.966-9.639l-0.036-0.051c-0.71-0.969-1.032-1.41-0.994-1.817 0.031-0.339 0.312-0.655 0.827-1.234 0.768-0.843 1.186-0.843 1.303-0.843 0.717 0 1.802 0.7 2.786 1.346 1.486 0.951 3.155 2.028 5.125 2.028 1.252 0 3.054-0.449 4.707-2.62 3.087-4.145 1.602-8.344 0.667-10.874-0.834-2.369-0.735-2.458-0.383-2.781 0.35-0.305 0.567-0.341 0.75-0.341 0.652 0 1.586 0.395 2.539 0.789 1.384 0.574 2.953 1.238 4.74 1.238 1.969 0 3.739-0.825 5.274-2.44 3.703-3.873 2.088-7.975 1.217-10.192l-0.015-0.036c-0.831-2.089-0.751-2.17-0.291-2.648l0.007-0.008c0.15-0.178 0.235-0.215 0.235-0.215 0.216 0.036 1.217 0.682 1.851 1.112 1.536 1.024 3.422 2.279 5.843 2.279 1.701 0 3.338-0.646 4.89-1.937 3.843-3.202 2.611-7.279 1.942-9.49l-0.007-0.020c-0.735-2.387-0.7-2.619 0.401-3.5 0.299-0.233 0.717-0.502 1.050-0.502 0.519 0 1.386 0.664 2.22 1.292 1.419 1.077 3.189 2.423 5.559 2.423 1.485 0 3.004-0.593 4.44-1.723 4.773-3.769 2.287-8.308 1.219-10.247-0.317-0.573-0.852-1.579-0.836-1.901 0 0 0.117-0.324 0.902-0.898 0.801-0.609 1.202-0.662 1.285-0.662 0.385 0 1.12 0.717 1.703 1.31 1.32 1.255 3.105 2.996 5.792 2.996 1.485 0 2.971-0.538 4.59-1.633 4.958-3.409 2.922-8.253 2.036-10.318l-0.079-0.2c-0.256-0.634-0.618-1.536-0.588-1.827 0.017-0.018 0.167-0.198 0.585-0.504 0.301-0.178 0.684-0.411 1.034-0.411 0.552 0 1.435 0.68 2.287 1.381 1.419 1.166 3.255 2.601 5.724 2.601 1.519 0 3.039-0.555 4.524-1.65 4.16-3.095 3.409-7.761 2.958-10.562l-0.003-0.025c-0.15-0.844-0.385-2.243-0.251-2.619l0.334-0.109c0.334 0.036 1.268 1.024 1.771 1.526 1.485 1.524 3.488 3.625 6.559 3.625 1.402 0 2.837-0.449 4.307-1.328 4.991-3.016 3.538-8.093 2.753-10.803-0.038-0.15-0.083-0.319-0.13-0.495-0.2-0.75-0.441-1.653-0.386-2.017 0.033 0 0.134-0.071 0.317-0.162 1.024-0.497 1.465-0.091 2.733 1.082l0.172 0.157c1.419 1.31 3.338 3.14 6.192 3.14 1.301 0 2.621-0.395 3.989-1.112 4.573-2.477 3.49-7.249 2.955-9.528l-0.008-0.036c-0.168-0.727-0.472-2.033-0.325-2.387 0 0 0.117-0.144 0.5-0.358 0.251-0.107 0.451-0.162 0.585-0.162 0.601 0 1.586 0.988 2.487 1.884 1.602 1.615 3.772 3.84 7.026 3.84 1.303 0 2.654-0.36 4.023-1.113 3.951-2.15 3.391-6.824 3.055-9.607v-0.010c-0.134-1.022-0.335-2.71-0.134-3.176 0.167-0.036 0.233-0.036 0.317-0.036 0.533 0 1.553 0.789 2.469 1.472 1.754 1.31 3.939 2.943 6.861 2.943 1.019 0 2.103-0.235 3.155-0.682 3.772-1.543 4.007-6.030 4.174-9.295 0.050-1.239 0.183-3.571 0.583-4.055 1.553 0.018 4.608 2.709 6.426 5.132l1.82 2.387 2.22-1.937c0.785-0.7 79.603-69.622 126.289-118.663 46.67-49.040 147.62-178.092 148.639-179.401l2.487-3.158-3.539-1.67c-0.084-0.053-2.638-1.364-3.521-4.737-1.003-3.696 0.282-8.739 3.738-14.589 3.64-6.154 6.677-6.962 8.947-6.962 1.637 0 3.356 0.484 5.041 0.933 1.754 0.484 3.605 0.986 5.426 0.986 3.354 0 5.959-1.579 7.979-4.826 4.122-6.603 0.984-11.305-1.303-14.732l-0.010-0.017c-2.515-3.759-4.34-6.488-0.289-12.759 4.334-6.75 9.626-6.418 14.321-6.124 0.225 0.013 0.446 0.028 0.667 0.041 1.118 0.071 2.22 0.142 3.272 0.142 3.521 0 7.862-0.68 10.265-5.957 2.915-6.357-0.753-10.356-3.191-13.011l-0.013-0.015-0.010-0.010c-3.183-3.44-5.277-5.703-1.108-12.982 4.339-7.573 8.963-7.607 13.854-7.607 4.339-0.036 9.764-0.073 12.968-6.73 3.255-6.765 0.15-10.874-2.136-13.816-2.572-3.356-4.573-5.994-0.951-13.566 3.054-6.37 6.392-6.891 9.28-6.891 1.118 0 2.269 0.126 3.354 0.198 1.186 0.144 2.403 0.251 3.505 0.251 2.889 0 7.044-0.664 9.665-6.083 3.338-6.98-0.517-11.915-3.356-15.522-3.204-4.018-5.29-6.674-2.185-12.255 3.054-5.419 7.728-8.166 13.903-8.166 3.305 0 5.759 0.826 5.776 0.826l2.354 0.789 1.102-2.368c3.589-7.698 15.373-33.285 15.789-38.202 0.284-3.392-2.302-6.927-6.61-12.382-1.419-1.757-3.472-4.324-4.172-5.706 3.103-4.091 11.768-16.149 12.151-16.741l0.785-1.095zM446.334 952.428c-151.927-6.639-262.359-72.26-328.257-126.127-10.282-8.398-19.83-16.795-28.676-25.014 180.971 148.001 392.752 138.472 526.468 103.123 76.549-20.223 117.826-14.427 139.692-3.876-60.789 24.242-156.783 53.203-268.199 53.203-13.705 0-27.508-0.449-41.028-1.31zM411.481 779.216c196.058-47.408 302.067-146.44 303.102-147.444l1.301-1.239-2.471-11.465 5.341-4.36 18.861 118.447c0 0 6.093 28.961-23.735 49.076-1.131 0.763-2.471 1.676-4.010 2.725-39.038 26.608-206.521 140.763-366.141 116.404-125.422-19.146-207.026-62.714-258.62-104.164-35.62-33.842-58.587-64.023-68.753-78.468 36.588 16.508 170.788 72.816 299.379 72.816 34.885 0 67.1-4.146 95.744-12.328zM1252.469 138.012c-10.882-25.821-11.751-54.657-2.42-81.233 9.33-26.538 27.691-47.586 51.743-59.286 12.935-6.261 26.589-9.455 40.661-9.455 38.757 0 74.11 24.528 90.084 62.444 22.434 53.402 0.317 116.437-49.34 140.572-12.919 6.279-26.589 9.474-40.661 9.474-38.758 0-74.093-24.528-90.067-62.515z" />
<glyph unicode="&#xe90d;" glyph-name="games" d="M512 960c-282.753 0-512-229.247-512-512s229.247-512 512-512c282.753 0 512 229.247 512 512s-229.247 512-512 512zM512 640c106.048 0 192-85.952 192-192s-85.952-192-192-192c-106.048 0-192 85.952-192 192s85.952 192 192 192zM384 448c0-70.656 57.344-128 128-128s128 57.344 128 128c0 70.656-57.344 128-128 128s-128-57.344-128-128zM512 512c35.328 0 64-28.672 64-64s-28.672-64-64-64c-35.328 0-64 28.672-64 64s28.672 64 64 64z" />
<glyph unicode="&#xe90e;" glyph-name="Goods-for-children-and-toys" horiz-adv-x="975" d="M854.57 259.328c-5.874 37.927-28.199 112.619-101.036 219.321-9.413 13.041-16.462 24.896-22.336 36.753 10.586-3.545 21.15-4.743 31.724-4.743h4.699c36.425 1.198 78.724 24.909 89.299 86.548 9.4 54.537 10.575 101.96 3.525 145.839h46.998c4.712 0 9.401 2.358 12.925 5.928 3.537 3.545 4.701 8.288 4.701 13.029 0 2.371-19.975 197.993-246.747 197.993-61.1 0-110.449-23.712-144.524-67.578 0 0 0-1.174-1.175-1.174-5.874-7.125-10.575-15.424-15.275-23.712-50.524-92.487-36.424-226.459-10.575-286.923h-92.823c-19.975 0-36.425-10.669-47-26.083-32.9 20.155-86.949 34.393-146.872-7.101-36.425-24.909-58.75-58.105-77.549-86.559-0.348-0.519-0.693-1.035-1.038-1.549-26.445-39.457-44.216-65.972-90.611-62.474-5.875 0-11.75-2.37-16.45-8.298-3.525-4.743-3.525-11.857-1.175-17.785 1.175-2.37 27.025-54.524 71.674-67.577 7.050-2.36 12.925-2.36 19.975-2.36h5.875c-5.875-16.61-10.575-32.011-14.1-42.693-31.724 10.682-68.149 3.556-91.649-21.34-17.625-18.957-27.025-43.866-24.675-69.949 2.35-26.071 15.275-49.783 36.425-64.010 77.549-55.735 238.523-150.582 446.495-150.582 209.146 0 370.132 93.673 446.506 150.582 21.137 15.401 34.062 39.112 36.412 64.010 3.525 24.908-4.701 50.992-23.5 69.949-23.5 23.711-57.575 32.022-88.124 22.538zM519.7 733.549h56.4c9.4 0 17.624 8.299 17.624 17.785 0 9.496-8.225 17.783-17.624 17.783h-52.874c4.699 28.454 12.937 56.919 25.849 80.631 1.175 1.174 2.35 2.359 2.35 4.731l39.951-33.196c3.535-2.371 7.049-3.557 11.748-3.557 4.701 0 10.575 2.383 14.1 5.928 5.876 7.114 4.701 18.969-2.35 24.897l-41.124 34.382c22.325 23.712 51.699 36.753 88.124 40.31v-42.681c0-9.485 8.225-17.784 17.624-17.784 9.413 0 17.626 8.299 17.626 17.784v42.681c140.998-7.113 179.784-103.134 190.347-145.826h-48.174c-5.876 0-10.575-2.371-14.1-7.114s-4.701-9.473-3.525-15.401c14.112-58.105 7.051-115.013 0-152.951-8.225-49.796-42.299-56.908-56.387-58.095-29.376-1.185-55.236 16.599-62.287 42.681v1.187c-14.264 65.326 10.412 104.801 14.703 111.665 0.304 0.486 0.505 0.808 0.584 0.965 5.874 8.299 4.688 18.981-3.537 24.909-8.213 5.928-18.799 4.73-24.675-3.569-3.524-3.556-77.536-103.133 34.086-264.385 81.063-117.36 95.162-193.25 97.512-216.961-19.975-14.227-45.825-29.639-76.374-46.226-22.325 35.569-89.298 123.29-198.571 149.372l12.937 123.301c28.188 2.371 50.512 26.083 50.512 55.722 0 30.837-24.675 55.722-55.224 55.722h-9.4c0 1.187-1.175 1.187-1.175 2.371-14.089 27.269-27.025 88.919-24.675 152.94zM557.3 543.855c10.575 0 19.986-11.856 19.986-25.177 0-13.353-9.411-25.21-21.161-25.21h-140.998c-10.575 0-19.975 11.857-19.975 25.21 0 13.322 9.4 25.177 21.15 25.177h140.998zM82.605 362.461c44.649 8.299 68.149 43.868 90.474 78.261 17.626 27.256 36.425 55.71 66.974 77.063 39.949 27.256 74.024 22.513 96.349 13.029-70.498-27.269-130.423-81.805-173.898-161.228-4.7-8.311-9.4-17.783-12.925-26.094-10.575-7.114-21.15-9.473-32.9-5.928-12.925 3.556-24.675 14.238-34.074 24.896zM412.776 467.979l17.624-122.103c-116.323-23.711-179.772-120.941-199.747-154.127-32.9 16.587-59.925 33.186-81.074 47.424 11.75 45.040 65.799 215.765 215.022 262.003 8.226-17.785 27.025-32.011 48.175-33.197zM449.201 467.979h76.374l-12.914-117.373c-9.411 1.198-17.637 1.198-27.037 1.198-7.049 0-12.925 0-19.975-1.198l-16.449 117.373zM712.41 179.893c-62.287-27.268-139.836-50.979-227.96-50.979-85.774 0-160.973 21.34-222.071 47.423 22.325 36.742 95.173 139.9 222.071 139.9 123.374 0 202.099-97.23 227.96-136.343zM484.45-13.357c-198.571 0-352.495 90.092-426.519 143.445-12.925 9.484-19.975 22.538-21.15 39.123-1.175 15.414 4.7 30.837 15.275 41.496 10.575 10.682 24.675 15.412 37.599 15.412 10.575 0 21.15-3.556 30.55-9.484 63.449-46.226 195.048-123.29 364.245-123.29 103.4 0 192.71 28.443 260.847 61.638h1.175c42.312 21.353 77.561 42.694 102.224 60.478 21.15 15.401 50.524 11.856 68.15-7.126 10.575-10.658 16.449-26.071 15.274-41.495 0-13.042-8.213-27.269-21.15-35.569-74.024-54.537-226.772-144.629-426.52-144.629zM774.278 690.135c1.665-1.665 4.994-3.33 8.323-4.995s6.658-1.665 9.987-1.665c3.329 0 6.658 0 9.987 1.665s4.994 3.33 8.323 4.995c1.665 1.665 3.329 4.995 4.994 8.326s1.665 6.661 1.665 9.991-3.329 13.321-6.658 18.316c-1.665 1.665-1.665 1.665-3.329 3.33s-3.329 1.665-4.994 1.665c-1.665 0-3.329 1.665-4.994 1.665-8.323 1.665-16.646-1.665-23.304-6.661-4.994-4.995-6.658-11.656-6.658-18.316 0-3.33 0-6.661 1.665-9.991s3.329-4.995 4.994-8.326z" />
<glyph unicode="&#xe90f;" glyph-name="Goods-for-pets" horiz-adv-x="1041" d="M528.64 955.995l503.174-463.64c5.718-5.242 6.388-13.862 1.891-19.968-0.050-0.061-0.135-0.172-0.159-0.22-0.306-0.415-0.573-0.842-0.903-1.219-0.17-0.159-0.353-0.256-0.499-0.415-0.134-0.147-0.208-0.292-0.353-0.415l-36.402-33.719c-0.097-0.097-0.243-0.147-0.353-0.22-2.841-2.487-6.364-3.815-9.911-3.815-3.693 0-7.374 1.328-10.299 3.999l-47.36 43.654v-465.87c0-8.375-6.767-15.142-15.142-15.142h-229.838c4.656-14.214 7.132-29.073 7.132-44.166 0-8.398-6.815-15.165-15.215-15.165h-312.173c-8.375 0-15.19 6.767-15.19 15.165 0 15.092 2.487 29.952 7.132 44.166h-229.851c-8.351 0-15.141 6.753-15.141 15.142v465.87l-47.372-43.654c-5.693-5.315-14.373-5.217-20.151-0.244-0.122 0.061-0.244 0.111-0.402 0.256l-36.389 33.695c-0.085 0.086-0.134 0.231-0.268 0.329-0.183 0.197-0.39 0.306-0.573 0.512-5.693 6.182-5.291 15.751 0.866 21.445l503.174 463.64c5.84 5.339 14.764 5.339 20.577 0zM528.64 888.765l456.473-420.62 14.105 12.995-480.865 443.1-480.829-443.1 14.056-12.995 456.484 420.62c5.84 5.339 14.764 5.339 20.577 0zM423.303 769.432h190.086l-95.050 87.577-95.035-87.577zM747.252 646.065l-100.975 93.037h-255.889l-100.961-93.037h457.825zM843.398 522.722l0.013 34.755-63.232 58.257h-523.654l-63.245-58.257v-34.755h650.118zM162.975 29.288v500.26l-23.491-21.626v-478.634h23.491zM873.705 29.288h23.502v478.634l-23.502 21.626v-500.26zM678.205 399.353h165.193v93.025h-650.118v-93.025h165.194c40.276 42.265 97.047 68.669 159.865 68.669 62.831 0 119.577-26.404 159.866-68.669zM668.636 29.288h40.339v217.782c0 105.119-85.529 190.623-190.636 190.623-105.094 0-190.623-85.504-190.623-190.623v-217.734h40.351c9.472 15.788 21.919 30.147 37.061 42.265 2.694 2.157 6.033 3.328 9.495 3.328h7.791l-11.655 11.667c-6.557-3.231-13.824-5.023-21.357-5.023-12.75 0-24.759 4.998-33.828 14.006-18.602 18.627-18.602 48.993 0 67.609 7.388 7.399 16.737 12.044 26.905 13.495 1.486 9.996 6.094 19.468 13.446 26.807 9.057 9.044 21.028 13.994 33.84 13.994 12.741 0 24.735-4.95 33.792-13.994 14.836-14.873 17.859-37.231 8.948-55.137l30.951-30.94 46.275 46.25c-4.255 7.753-6.521 16.567-6.521 25.686 0 14.323 5.558 27.782 15.713 37.924 10.118 10.143 23.625 15.713 37.924 15.713s27.807-5.596 37.924-15.713c8.79-8.778 14.105-20.188 15.385-32.122 12.141-1.341 23.405-6.668 32.159-15.433 20.931-20.931 20.931-54.931 0-75.887-10.106-10.093-23.602-15.713-37.913-15.713-9.132 0-17.908 2.256-25.686 6.522l-19.773-19.76h23.199c3.389 0 6.742-1.135 9.411-3.328 15.19-12.118 27.6-26.479 37.084-42.265zM193.28 369.025v-93.027h106.106c4.463 34.048 16.701 65.671 34.852 93.027h-140.959zM843.399 275.998l0.023 93.027h-140.945c18.176-27.356 30.403-58.979 34.852-93.027h106.070zM193.28 152.667h104.119v93.002h-104.119v-93.002zM843.398 152.667v93.002h-104.118v-93.002h104.118zM580.352 151.387l-76.531-76.494h52.211l50.409 50.407c5.911 5.949 15.505 5.949 21.443 0 8.813-8.79 24.198-8.813 33.011 0 9.094 9.119 9.094 23.905-0.025 33.024-5.9 5.901-14.787 8.205-22.905 5.901-5.254-1.5-10.96 0-14.812 3.876-3.876 3.888-5.34 9.545-3.853 14.835 2.292 8.131 0.038 16.932-5.936 22.881-8.838 8.815-24.223 8.815-33.012 0.025-4.436-4.425-6.815-10.276-6.815-16.518 0-6.217 2.39-12.082 6.815-16.506 2.841-2.841 4.426-6.644 4.426-10.702 0-4.012-1.586-7.9-4.426-10.729zM417.33 182.046c-4.425-4.449-6.157-11.067-4.402-17.188 1.475-5.279 0-10.947-3.901-14.871-3.899-3.853-9.606-5.328-14.871-3.853-6.047 1.719-12.691 0.025-17.152-4.425-6.851-6.826-6.851-17.92 0-24.759 6.618-6.595 18.126-6.595 24.771 0 2.95 2.975 6.851 4.425 10.716 4.425 3.876 0 7.739-1.45 10.727-4.425l39.886-39.9 18.908 18.883-39.9 39.924c-5.924 5.938-5.924 15.507 0 21.431 6.815 6.826 6.815 17.92 0 24.758-6.62 6.644-18.14 6.644-24.782 0zM297.399 29.288v93.073h-104.119v-93.073h104.119zM739.28 29.288h104.118v93.073h-104.118v-93.073zM378.418-30.020h279.833c-3.878 28.185-18.554 54.566-41.669 74.57h-196.522c-23.088-19.968-37.741-46.372-41.642-74.57z" />
<glyph unicode="&#xe910;" glyph-name="home" horiz-adv-x="1107" d="M984.72-51.474v563.473h121.861l-553.29 460.527-295.761-246.146v243.473h-26.834v-265.801l-230.696-192.053h122.968v-563.473h242.288v346.784h376.981v-346.784h242.483z" />
<glyph unicode="&#xe911;" glyph-name="hunting-and-fishing" d="M487.846 954.029v5.971h-19.975v-5.971h19.975zM408.723 922.773v31.257h-13.279v-31.257h13.279zM412.193 925.687v25.417h128.092v-25.417h-128.092zM1104.133 917.433h23.446l15.496-18.043h17.607v-19.185h-32c5.965-4.579 5.965-11.394 0-20.457l-324.145-16.52c-60.598-11.442-123.589-17.841-188.981-19.197-30.178-22.872-88.131-39.725-173.86-50.572 7.684 20.838 7.104 36.811-1.729 47.896-10.991-1.011-21.994-2.319-32.985-3.925-9.761-1.356-19.558-2.926-29.389-4.709-15.38-2.7-30.549-6.055-45.51-10.039l-240.064-69.125c-28.971-8.718-49.967-13.119-63.002-13.155-4.956 0-8.752 0.619-11.41 1.856-10.91 40.403-16.783 80.212-17.608 119.437 2.762 0.749 5.536 1.487 8.31 2.224 87.365 22.527 173.917 26.321 259.667 11.37 16.204-1.522 37.571 0.464 64.105 5.971 14.381 4.151-96.314 37.065 46.624 14.736v23.383h91.764v23.383h15.007v-23.383h20.463v23.383h15.008v-23.383l579.841 0.012 3.342 18.043zM805.385 853.005h12.663v36.597h-12.663v-36.597zM394.585 876.007h95.479l-0.488-22.753c-0.58-0.166-1.080-0.464-1.497-0.892-0.987-1.011-1.765-2.2-2.345-3.556-0.592-1.356-0.87-2.831-0.87-4.448 0-1.522 0.278-3.092 0.87-4.71 0.58-1.189 1.358-2.284 2.345-3.306 2.158-2.117 4.759-3.176 7.824-3.176 3.052 0 5.652 1.059 7.81 3.176 2.066 2.2 3.099 4.876 3.099 8.004s-1.033 5.804-3.099 8.004c-0.417 0.428-0.824 0.725-1.241 0.892l-0.859 22.753h58.661v11.834h-165.688v-11.822zM742.789 876.007v11.822h-168.773v-11.822h168.773zM66.728 909.428l173.858 50.572c-30.178-22.871-88.131-39.725-173.858-50.572zM2.612 948.689q-5.223-14.094 0-28.331c4.213-11.858 12.477-17.198 24.804-16.021l39.312 5.090-40.121 24.568 5.208 18.736 33.172 4.592c-10.992-1.011-21.995-2.319-32.987-3.925-9.761-1.356-19.546-2.926-29.388-4.71v0zM21.201 937.306l-18.59 11.383 27.631 3.825c-5.188-2.958-8.202-8.027-9.041-15.208zM21.201 937.306l5.405-3.31-4.043-14.542c-1.486 6.954-1.94 12.904-1.362 17.851zM30.242 952.514c0.561 0.32 1.147 0.615 1.758 0.885l-0.185-0.667-1.573-0.218zM42.284 941.957l-15.495 18.043h-23.434l-3.354-18.043z" />
<glyph unicode="&#xe912;" glyph-name="instruments" horiz-adv-x="1007" d="M279.697 352.346c-21.154 7.047-43.759 10.922-67.303 10.922-117.282 0-212.394-95.052-212.394-212.378 0-24.158 4.087-47.352 11.52-68.991l143.915 143.915 135.808-135.809-141.994-142.012c19.951-6.203 41.157-9.513 63.154-9.548 117.317 0 212.404 95.121 212.404 212.421 0 28.902-5.777 56.447-16.255 81.57l313.795 313.676c21.146-7.066 43.759-10.939 67.295-10.939 117.281 0 212.402 95.078 212.402 212.394 0 24.158-4.088 47.343-11.52 68.983l-143.915-143.906-135.815 135.816 142.002 141.986c-19.95 6.204-41.157 9.54-63.154 9.549-117.317 0-212.404-95.095-212.404-212.402 0-28.903 5.777-56.441 16.257-81.572l-313.797-313.676z" />
<glyph unicode="&#xe913;" glyph-name="Laptops" horiz-adv-x="1560" d="M156.349 141.6v731.086h1247.681v-731.086h83.948v745.482c0 38.495-31.208 69.791-69.593 69.791h-1276.392c-38.385 0-69.593-31.297-69.593-69.791v-745.482h83.948zM0 30.806v68.852h1560.381v-68.852c0-42.876-34.64-77.931-77.71-77.931h-1404.964c-42.754 0-77.707 34.742-77.707 77.931zM207.843-4.559c16.852 0 30.583 13.767 30.896 30.98 0 17.213-14.043 30.987-30.896 30.987-17.164 0-30.896-14.083-30.896-30.987 0-17.213 14.043-30.98 30.896-30.98zM259.647 26.421c0-17.213 14.043-30.98 30.896-30.98 17.164 0 30.896 13.767 30.896 30.98s-14.043 30.987-30.896 30.987c-17.164 0-30.896-14.083-30.896-30.987zM342.66 26.421c0-17.213 14.043-30.98 30.896-30.98s30.583 13.767 30.896 30.98c0 17.213-14.043 30.987-30.896 30.987-17.164 0-30.896-14.083-30.896-30.987z" />
<glyph unicode="&#xe914;" glyph-name="Magazines-and-books" horiz-adv-x="1123" d="M1105.015 640.667l-183.334-604c-8.445-28.446-25.445-52.335-51-71.667-25.555-19.334-52.777-29.001-81.666-29.001h-615.333c-34.223 0-67.223 11.888-99.001 35.667s-53.889 53-66.333 87.666c-10.667 29.779-11.111 58.001-1.333 84.667 0 1.778 0.667 7.779 2 18.001s2.222 18.445 2.667 24.667c0.445 3.554-0.222 8.332-2 14.333s-2.445 10.334-2 13c0.889 4.889 2.667 9.556 5.333 14.001s6.333 9.667 11 15.667c4.667 5.999 8.333 11.221 11 15.666 10.222 16.889 20.222 37.222 30 61.001s16.445 44.111 20 60.999c1.333 4.446 1.445 11.112 0.333 20.001s-1.222 15.111-0.333 18.667c1.333 4.889 5.111 11.11 11.333 18.667 6.222 7.554 10 12.666 11.333 15.334 9.333 15.999 18.667 36.444 28 61.333s14.889 44.889 16.667 60c0.445 4-0.111 11.112-1.667 21.334s-1.445 16.445 0.333 18.667c1.778 5.777 6.667 12.556 14.667 20.333 8 7.779 12.889 12.779 14.666 15 8.445 11.556 17.889 30.334 28.333 56.333 10.445 26.001 16.556 47.446 18.333 64.334 0.444 3.556-0.221 9.223-2 17-1.777 7.778-2.221 13.667-1.333 17.667 0.889 3.555 2.889 7.555 6 12s7.112 9.555 11.999 15.333c4.889 5.778 8.668 10.445 11.333 14 3.556 5.333 7.223 12.111 11.001 20.333s7.11 16 9.999 23.333 6.445 15.333 10.668 24c4.222 8.667 8.555 15.778 13 21.333s10.332 10.778 17.666 15.667c7.333 4.889 15.334 7.445 24.001 7.667s19.221-1 31.666-3.667l-0.667-2c16.889 4 28.223 6 34 6h507.333c32.89 0 58.223-12.445 76.001-37.333s21.778-53.778 12.001-86.667l-182.667-604c-16.001-52.89-31.889-87-47.667-102.334s-44.333-23-85.666-23h-579.334c-12 0-20.445-3.333-25.333-9.999-4.889-7.112-5.111-16.668-0.667-28.667 10.667-31.111 42.667-46.666 96-46.666h615.333c12.889 0 25.334 3.444 37.333 10.332 12.001 6.889 19.778 16.111 23.334 27.666l200 658.001c3.112 9.778 4.222 22.444 3.333 38 16.889-6.668 30-16.222 39.333-28.667 17.778-25.334 21.778-53.999 12.001-85.999zM383.681 725.334c-1.779-5.779-1.333-10.778 1.333-15 2.667-4.223 7.112-6.334 13.333-6.334h405.334c5.777 0 11.444 2.111 17 6.334 5.554 4.222 9.221 9.221 11 15l14.001 42.666c1.777 5.777 1.333 10.778-1.335 15-2.666 4.222-7.11 6.334-13.333 6.334h-405.332c-5.779 0-11.446-2.112-17-6.334-5.556-4.222-9.223-9.223-11-15l-14.001-42.666zM328.347 554.666c-1.777-5.777-1.333-10.777 1.335-15 2.666-4.222 7.11-6.332 13.333-6.332h405.332c5.779 0 11.446 2.111 17 6.332 5.556 4.223 9.223 9.223 11 15l14.001 42.668c1.779 5.777 1.333 10.777-1.333 15-2.667 4.222-7.112 6.332-13.333 6.332h-405.334c-5.777 0-11.444-2.111-17-6.332-5.554-4.223-9.223-9.223-11-15l-14.001-42.668z" />
<glyph unicode="&#xe915;" glyph-name="musical-instruments" d="M912.625 939.446c-16.652 16.653-41.631 16.653-58.284 0l-91.589-87.426c-16.653-16.653-16.653-41.632 0-58.284l-158.2-158.2c-79.101 41.632-174.853 29.143-241.463-37.468-16.653-20.815-33.306-41.631-41.632-62.447-79.099 4.164-162.363-24.979-220.647-83.263-112.405-112.404-112.405-299.746 0-412.152 112.405-112.363 299.746-112.363 412.151 0 62.447 62.447 87.426 141.548 83.263 220.689 20.817 8.284 45.796 24.938 62.447 41.632 66.611 66.568 79.142 166.484 37.51 245.583l153.995 154.038c16.653-16.653 41.632-16.653 58.285 0l87.425 87.425c16.653 20.816 16.653 45.795 4.164 62.447l-87.426 87.426zM791.894 822.878l87.426 87.426 87.468-87.426-87.468-87.426-87.426 87.426zM658.673 598.068c-4.121 4.164-12.489 8.327-16.652 12.489l149.872 149.874 29.184-29.143-149.915-149.872c-4.164 4.162-8.326 8.326-12.489 16.652zM600.39 360.769c-8.284-8.326-12.489-12.489-20.815-16.612-24.979-16.693-41.632-16.693-54.122-41.631-12.489-16.695-12.489-33.348-12.489-58.325 0-54.122-20.815-104.080-62.447-145.71-83.263-83.264-212.32-83.264-295.583 0s-83.263 212.32 0 295.583c41.631 41.632 91.589 58.284 145.711 62.447 29.141 0 49.958 0 62.447 8.326 16.652 16.653 24.979 33.306 41.631 58.284 4.164 8.327 8.326 16.653 16.653 20.817 49.958 49.958 129.057 49.958 174.851 0 45.796-49.958 49.958-133.221 4.164-183.179zM259.016 285.838c0 45.795 37.468 83.263 83.263 83.263 49.958 0 83.263-37.468 83.263-83.263s-37.468-83.263-83.263-83.263c-45.795 0-83.263 37.468-83.263 83.263zM300.647 285.838c0-24.979 16.653-41.632 41.631-41.632s41.632 16.653 41.632 41.632c0 24.979-16.653 41.631-41.632 41.631s-41.631-16.653-41.631-41.631z" />
<glyph unicode="&#xe916;" glyph-name="Office-equipment" d="M810.666 832h170.668c25.6 0 42.666-17.067 42.666-42.666v-554.668c0-25.6-17.066-42.666-42.666-42.666h-170.668v-213.334c0-25.6-17.066-42.666-42.666-42.666h-512c-25.6 0-42.666 17.066-42.666 42.666v213.334h-170.667c-25.6 0-42.667 17.066-42.667 42.666v554.668c0 25.6 17.067 42.666 42.667 42.666h170.667v85.333c0 25.6 17.066 42.667 42.666 42.667h512c25.6 0 42.666-17.067 42.666-42.667v-85.333zM256 832h512v85.333h-512v-85.333zM810.666 277.334h128v469.332h-853.333v-469.332h128v170.666h-42.668v85.334h682.668v-85.334h-42.668v-170.666zM256 448v-469.334h512v469.334h-512zM170.667 704c23.552 0 42.667-19.115 42.667-42.667s-19.115-42.667-42.667-42.667c-23.552 0-42.667 19.115-42.667 42.667s19.115 42.667 42.667 42.667zM298.667 704c23.552 0 42.667-19.115 42.667-42.667s-19.115-42.667-42.667-42.667c-23.552 0-42.667 19.115-42.667 42.667s19.115 42.667 42.667 42.667zM341.334 320h341.334v42.667h-341.334v-42.667zM341.334 192h341.334v42.667h-341.334v-42.667zM341.334 64h341.334v42.667h-341.334v-42.667z" />
<glyph unicode="&#xe917;" glyph-name="other-animals" horiz-adv-x="1041" d="M811.506 739.776c2.058-0.012 4.004-0.149 6.028-0.205-23.366 116.224-92.38 177.766-137.563 206.473-19.023 7.839-21.919-4.278-22.326-8.875 1.402-32.62 10.564-54.431 13.99-61.542 47.264-28.274 98.125-71.1 139.87-135.851zM853.803 607.306c3.63 0 6.571-2.958 6.571-6.61s-2.941-6.61-6.571-6.61c-3.619 0-6.56 2.958-6.56 6.61s2.941 6.61 6.56 6.61zM803.143 706.076l-9.726-0.398-5.112 8.329c-68.573 111.32-168.349 155.523-224.593 172.339-14.285 1.843-16.592-4.983-16.265-10.456 28.446-111.912 90.887-177.299 128.051-207.712l8.618-7.044c9.546-6.246 19.996-11.718 31.138-15.781 4.93-3.026 11.219-8.897 9.33-18.728-2.975-15.576-23.514-11.685-23.514-11.685s-0.012-0.021-0.033-0.056c-6.232 2.401-12.204 5.143-17.983 8.124-0.22-0.033-0.687 0.083-1.339 0.243-2.994 0.737-9.89 2.433-14.698-4.692-0.216-0.682-0.487-1.331-0.702-2.036l-0.747-1.832c-5.417-11.708-6.266-22.551-6.345-30.697l-0.079-1.366c-0.656-6.77-0.768-13.585-0.383-20.275l0.124-1.866-0.306-1.843c-1.199-7.554-4.309-8.032-9.161-12.414-29.79-26.441-83.297-33.734-163.667-33.734h-5.632c-31.26 0-305.403-13.619-307.043-293.229l-0.101-17.897-14.952-2.856c-0.026-0.002-0.101-0.010-0.223-0.021-3.536-0.352-46.846-4.664-97.247 7.247-6.956 1.103-13.662 1.297-19.894 1.297-11.898 0-27.63-2.253-35.106-12.174-7.069-9.365-7.385-26.533-0.973-49.494 21.964-65.638 58.326-98.975 108.067-98.975 14.002 0 29.361 2.581 45.67 7.668 11.072 3.049 24.667 9.591 36.679 15.383 18.853 9.102 30.931 14.665 41.122 14.665 5.067 0 9.535-1.331 13.279-4.015 17.349-12.665 23.795-43.806 14.838-71.009-1.901-5.723-4.264-11.627-6.56-17.352-4.139-10.296-11.796-29.468-9.015-34.6 0.411-0.78 0.824-0.7 1.232-0.623 0.401 0.076 0.796 0.15 1.178-0.595 5.926-11.378 8.142-12.288 33.229-12.288h361.682c24.429 0 27.121 9.66 27.2 14.734 0 0.276-0.012 0.276-0.025 0.276-0.012 0-0.026 0-0.033 0.294-0.010 0.126-0.021 0.107-0.030 0.053-0.254 6.010-1.158 12.478-3.307 19.529-10.382 34.486-57.567 41.13-95.287 41.13-15.958 0-33.817-1.501-53.179-4.119-7.589-0.273-23.491 0.694-25.73 13.142-1.843 10.24 7.181 16.407 14.308 19.638 113.913 25.451 206.179 99.123 215.364 152.143l-26.726 73.637c-0.735 5.939 0.431 13.403 9.682 16.328 13.391 4.21 19.963-6.828 21.942-11.14 25.527-69.928 105.792-278.447 114.095-300.544 10.811-15.553 33.341-38.661 50.262-38.661 3.234 0 7.137-0.079 11.173-0.126 4.615-0.056 9.806-0.147 15.167-0.147 46.359 0 70.914 7.27 70.914 21.025 0 34.714-41.733 39.891-66.672 39.891-3.031 0-6.073-0.069-9.173-0.228-31.225-1.49-47.253 28.411-48.96 57.093-4.738 15.52-24.599 95.665-11.558 313.436 3.054 28.512 28.58 28.682 43.802 28.796 25.425 0.114 112.082 22.63 127.215 55.342 16.275 35.009-15.223 108.453-73.233 170.848-51.608 55.615-88.206 82.569-150.049 80.077zM853.8 560.555c-21.986 0-39.878 18.011-39.878 40.129 0 22.14 17.892 40.152 39.878 40.152 21.998 0 39.891-18.012 39.891-40.152 0-22.118-17.894-40.129-39.891-40.129zM723.091 299.252c0.068-0.216 0.159-0.454 0.238-0.694h-0.238v0.694zM723.329 298.558h1.188l-1.075-0.375c-0.033 0.135-0.079 0.238-0.112 0.375z" />
<glyph unicode="&#xe918;" glyph-name="personal-things" horiz-adv-x="1239" d="M-1.9 641.31l293.703 320.847h126.094c0-121.818 86.742-220.75 193.301-220.75s193.097 98.932 193.097 220.75h126.102l293.699-320.847-180.647-216.457-112.854 123.142v-597.636h-638.791v597.636l-112.858-123.142-180.845 216.457zM611.197 754.284c-100.385 0-182.032 93.112-182.032 207.873h16.997c0-104.115 73.857-188.438 165.035-188.438 91.175 0 164.836 84.323 164.836 188.438h16.997c0-114.646-81.552-207.873-181.833-207.873z" />
<glyph unicode="&#xe919;" glyph-name="Photography-equipment" horiz-adv-x="1239" d="M937.67 796.8l-120.3 130.56c0 0-0.596 0.64-0.89 0.64l-0.6 0.64c-17.865 19.2-41.981 31.36-69.376 31.36h-250.124c-29.184 0-55.088-13.44-73.254-34.88v-0.32l-117.618-128h-205.459c-55.385 0-100.050-46.72-100.050-106.239v-646.72c0-59.521 44.665-107.84 100.050-107.84h1038.614c55.086 0 100.046 48.32 100.046 107.84v646.72c0 59.519-44.96 106.239-100.046 106.239h-200.993zM1119.901 625.6c-22.924 0-41.687 20.16-41.687 45.12s18.762 45.12 41.687 45.12c22.928 0 41.687-20.16 41.687-45.12s-18.759-45.12-41.687-45.12zM619.355 97.6c-151.564 0-275.137 133.12-275.137 296.319 0 163.521 123.574 296.321 275.137 296.321 151.861 0 275.139-132.8 275.139-296.321 0-163.199-123.278-296.319-275.139-296.319zM619.353 617.92c-114.937 0-207.841-100.16-207.841-224 0-123.521 92.903-224 207.841-224 114.64 0 207.842 100.16 207.842 224s-93.202 224-207.842 224z" />
<glyph unicode="&#xe91a;" glyph-name="plants" horiz-adv-x="504" d="M331.716 514.917c-4.198-20.995-20.994-33.592-37.79-46.189v-96.576h209.948l-41.989-377.905c0-25.194-16.797-41.989-41.991-41.989h-335.915c-25.194 0-41.99 16.795-41.99 41.989l-41.989 377.905h209.948v100.775c-16.797 8.398-33.592 25.194-37.79 46.189-29.393-16.795-71.383-12.597-96.576 12.597-29.393 25.194-33.592 62.984-16.796 96.576-33.592 12.597-58.785 41.989-58.785 79.779s25.194 67.183 58.785 79.779c-16.796 33.592-12.597 71.383 16.796 96.576 25.194 29.393 62.984 33.592 96.576 16.796 12.597 33.592 41.989 58.785 79.779 58.785s67.183-25.194 83.979-62.984c29.392 16.796 71.381 12.597 96.575-12.597s29.394-62.984 12.597-96.576c33.592-12.597 58.786-41.989 58.786-79.779s-25.194-67.183-62.984-83.979c16.795-29.392 12.597-71.381-12.597-96.575s-62.984-29.394-96.576-12.597zM163.759 561.104l46.189 46.189v-67.183c0-25.194 16.795-41.991 41.989-41.991s41.989 16.797 41.989 41.991v67.183l46.189-46.189c16.795-16.795 41.989-16.795 58.786 0 16.795 16.797 16.795 41.991 0 58.786l-46.189 46.189h67.183c25.194 0 41.991 16.795 41.991 41.989s-16.797 41.989-41.991 41.989h-67.183l46.189 46.189c16.795 16.796 16.795 41.989 0 58.785-16.797 16.796-41.991 16.796-58.786 0l-46.189-46.188v67.183c0 25.194-16.795 41.99-41.989 41.99s-41.989-16.796-41.989-41.99v-67.183l-46.189 46.188c-16.796 16.796-41.989 16.796-58.785 0s-16.796-41.99 0-58.785l46.188-46.189h-67.183c-25.194 0-41.99-16.795-41.99-41.989s16.796-41.989 41.99-41.989h67.183l-46.188-46.189c-16.796-16.795-16.796-41.989 0-58.786 16.796-16.795 41.99-16.795 58.785 0zM407.297 246.183l4.2 41.991h-319.12l4.199-41.991h310.721zM386.303 36.237l20.994 167.957h-302.323l12.597-167.957h268.733zM251.938 792.043c46.188 0 83.978-37.79 83.978-83.979s-37.79-83.978-83.978-83.978c-46.188 0-83.979 37.79-83.979 83.978s37.79 83.979 83.979 83.979zM251.938 750.054c-25.194 0-41.99-16.796-41.99-41.99s16.796-41.989 41.99-41.989c25.194 0 41.989 16.796 41.989 41.989s-16.796 41.99-41.989 41.99z" />
<glyph unicode="&#xe91b;" glyph-name="spare-parts" horiz-adv-x="1043" d="M954.144 193.965l-68.421 108.393 31.537 138.043 108.639 68.023-28.755 125.975-127.49 14.158-88.309 110.717 14.62 127.295-116.514 56.034-90.527-90.714h-141.671l-90.527 90.714-116.498-56.050 14.62-127.295-88.31-110.717-127.489-14.158-28.755-125.975 108.607-68.025 31.601-138.026-68.438-108.393 80.654-101.020 120.949 42.504 127.662-61.455 42.135-120.994h129.283l42.135 120.994 127.662 61.455 120.95-42.504 80.653 101.020zM282.282 450.268c0 130.218 105.557 235.702 235.829 235.702s235.829-105.484 235.829-235.702c0-130.218-105.557-235.702-235.829-235.702s-235.829 105.484-235.829 235.702zM353.030 450.268c0-90.981 74.051-164.992 165.080-164.992s165.080 74.010 165.080 164.992c0 90.981-74.051 164.992-165.080 164.992s-165.080-74.010-165.080-164.992z" />
<glyph unicode="&#xe91c;" glyph-name="Sport-recreation" horiz-adv-x="1041" d="M769.401 871.627c0 48.283-34.345 86.909-77.278 86.909s-77.278-38.626-77.278-86.909 34.347-86.909 77.278-86.909c42.934 0 77.278 38.626 77.278 86.909zM820.92 533.647v86.909h-137.383l-81.573 159.333c-12.88 24.142-34.345 38.627-64.399 38.627-21.465 0-38.639-9.656-51.519-24.141l-158.85-178.646c-12.88-14.485-21.467-33.798-21.467-57.941 0-28.97 12.88-57.939 34.347-72.424l145.97-96.566v-241.414h77.278v313.838l-94.451 82.081 98.745 111.052 72.984-120.707h180.316zM219.867 437.080c120.21 0 214.661-106.222 214.661-241.416 0-135.192-94.451-241.414-214.661-241.414-120.211 0-214.663 106.222-214.663 241.414 0 135.194 94.451 241.416 214.663 241.416zM606.259 195.664c0-135.192 94.451-241.414 214.661-241.414 120.212 0 214.663 106.222 214.663 241.414 0 135.194-94.451 241.416-214.663 241.416-120.21 0-214.661-106.222-214.661-241.416zM69.603 195.664c0-91.737 68.692-168.99 150.264-168.99 81.571 0 150.262 77.253 150.262 168.99 0 91.739-68.691 168.99-150.262 168.99-81.572 0-150.264-77.252-150.264-168.99zM820.92 26.674c-81.571 0-150.262 77.253-150.262 168.99 0 91.739 68.691 168.99 150.262 168.99 81.573 0 150.264-77.252 150.264-168.99 0-91.737-68.691-168.99-150.264-168.99z" />
<glyph unicode="&#xe91d;" glyph-name="tablets" horiz-adv-x="793" d="M790.954 920.763l0.035-941.243h-1.016c0.021-0.368 0.079-0.685 0.079-1.039 0-21.078-17.097-38.154-38.177-38.154-0.353 0-0.671 0.043-1.016 0.058h-710.736c-0.332-0.015-0.663-0.058-0.995-0.058-21.093 0-38.176 17.076-38.176 38.154 0 0.353 0.065 0.671 0.072 1.039h-1.024v941.236h0.050c-0.007 0.339-0.050 0.656-0.050 0.995 0 21.129 17.12 38.249 38.249 38.249 0.346 0 0.671-0.029 1.002-0.043h712.444c0.339 0.014 0.664 0.043 1.009 0.043 21.129 0 38.25-17.12 38.25-38.241 0-0.339-0.045-0.656-0.045-0.995h0.045zM81.228 30.857h628.498l-0.015 835.735h-628.484v-835.735zM370.594-16.817c0-13.766 11.142-24.9 24.865-24.9 13.751 0 24.878 11.119 24.878 24.9 0 13.723-11.134 24.844-24.878 24.844-13.738 0-24.865-11.114-24.865-24.844z" />
<glyph unicode="&#xe91e;" glyph-name="telephones" horiz-adv-x="644" d="M0-64v1024h644.129v-1024h-644.129zM120.774 384.031h402.581v447.969h-402.581v-447.969zM201.33 256v64h-80.556v-64h80.556zM281.806 256h80.516v64h-80.516v-64zM523.355 256v64h-80.516v-64h80.516zM120.774 128h80.556v64h-80.556v-64zM362.323 128v64h-80.516v-64h80.516zM442.839 128h80.516v64h-80.516v-64zM201.33-0.031v64.063h-80.556v-64.063h80.556zM362.323 0v64h-80.516v-64h80.516zM442.839 0h80.516v64h-80.516v-64z" />
<glyph unicode="&#xe91f;" glyph-name="Trucks" horiz-adv-x="1642" d="M24.605 955.421h1036.119c13.583 0 24.6-11.452 24.6-25.583v-796.133c0-14.131-11.017-25.587-24.6-25.587h-532.329c-1.022 45.545-18.742 88.672-49.802 120.97-32.006 33.283-75.072 51.839-120.336 51.839-45.274 0-88.34-18.556-120.346-51.839-31.053-32.298-48.78-75.43-49.801-120.97h-163.505c-13.589 0-24.606 11.456-24.606 25.587v796.133c0 14.131 11.017 25.583 24.606 25.583zM212.206 571.798c-6.792 0-12.298-5.73-12.298-12.794s5.506-12.794 12.298-12.794h640.706c6.796 0 12.303 5.73 12.303 12.794s-5.507 12.794-12.303 12.794h-640.706zM212.206 766.846c-6.792 0-12.298-5.73-12.298-12.794s5.506-12.794 12.298-12.794h640.706c6.796 0 12.303 5.73 12.303 12.794s-5.507 12.794-12.303 12.794h-640.706zM358.255 255.345c40.2 0 76.596-16.949 102.942-44.345s42.644-65.247 42.644-107.055c0-41.803-16.298-79.658-42.644-107.049-26.346-27.403-62.742-44.346-102.942-44.346-40.203 0-76.601 16.943-102.946 44.346-26.346 27.391-42.644 65.247-42.644 107.049 0 41.808 16.298 79.658 42.644 107.055 26.345 27.401 62.743 44.345 102.946 44.345zM358.255 64.987c20.69 0 37.464 17.442 37.464 38.958 0 21.52-16.774 38.963-37.464 38.963-20.694 0-37.468-17.443-37.468-38.963 0-21.516 16.774-38.958 37.468-38.958zM1251.625-3.105c-26.346 27.391-42.648 65.242-42.648 107.049 0 41.803 16.302 79.658 42.648 107.050 26.346 27.401 62.743 44.35 102.942 44.35 40.203 0 76.6-16.949 102.946-44.35 26.349-27.392 42.644-65.247 42.644-107.050 0-41.808-16.295-79.658-42.644-107.049-26.346-27.403-62.744-44.351-102.946-44.351-40.199 0-76.596 16.948-102.942 44.351zM1354.566 64.982c20.695 0 37.467 17.447 37.467 38.963s-16.772 38.963-37.467 38.963c-20.69 0-37.463-17.448-37.463-38.963s16.774-38.963 37.463-38.963zM1474.911 229.092c-32.006 33.278-75.072 51.836-120.344 51.836-45.266 0-88.331-18.557-120.337-51.836-31.059-32.298-48.78-75.43-49.802-120.97h-74.5c-2.123 0-4.185 0.275-6.149 0.801 3.912 7.347 6.149 15.794 6.149 24.781v636.149h283.269c63.738 0 121.596-28.996 163.468-75.709 41.433-46.219 67.144-109.844 67.144-179.709v-380.731c0-14.126-11.012-25.582-24.6-25.582h-74.5c-1.017 45.54-18.742 88.672-49.797 120.97zM1481.832 399.461v143.375c0 47.601-34.909 86.552-77.579 86.552h-106.673v-229.926h184.252z" />
<glyph unicode="&#xe920;" glyph-name="Watches-and-jewelery" horiz-adv-x="694" d="M554.666 716.8c76.8-64 128-162.134 128-268.8s-51.2-204.8-128-268.8l-42.666-243.2h-341.334l-42.666 243.2c-76.8 64-128 162.134-128 268.8s51.2 204.8 128 268.8l42.666 243.2h341.334l42.666-243.2zM341.334 704c-140.8 0-256-115.2-256-256s115.2-256 256-256c140.8 0 256 115.2 256 256s-115.2 256-256 256z" />
<glyph unicode="&#xe921;" glyph-name="water-transport" horiz-adv-x="1140" d="M161.358 661.422c-160.076-266.779-160.076-453.524-160.076-453.524h480.228c0 0-53.358 80.033-53.358 320.134s53.358 426.847 53.358 426.847c0 0-160.076-26.678-320.152-293.457zM1116.691 154.542h-528.463v800.337h-53.36v-800.337h-533.586c0-117.863 95.565-213.423 213.434-213.423h693.716c117.817 0 213.382 95.774 213.382 213.423h-5.123zM1121.814 207.898h-480.228v480.202l480.228-480.202z" />
</font>
</defs>
</svg>
