<svg width="16" height="16" viewBox="0 0 16 16" fill="none" xmlns="http://www.w3.org/2000/svg">
<mask id="mask0" mask-type="alpha" maskUnits="userSpaceOnUse" x="4" y="5" width="8" height="6">
<path fill-rule="evenodd" clip-rule="evenodd" d="M11.2606 6.3713L7.33887 10.5875C7.29686 10.6374 7.23082 10.6668 7.16067 10.6668C7.09052 10.6668 7.02448 10.6374 6.98247 10.5875L6.89987 10.5028L6.81393 10.4104L6.44421 10.0124L4.74081 8.16698C4.6419 8.05417 4.6419 7.89602 4.74081 7.78321L5.27375 7.20814C5.31575 7.15819 5.3818 7.12878 5.45195 7.12878C5.5221 7.12878 5.58814 7.15819 5.63015 7.20814L7.15701 8.86049L10.3686 5.41246C10.4108 5.36274 10.4768 5.3335 10.5468 5.3335C10.6169 5.3335 10.6828 5.36274 10.725 5.41246L11.2579 5.98753C11.3574 6.09987 11.3585 6.25788 11.2606 6.3713Z" fill="white"/>
</mask>
<g mask="url(#mask0)">
<rect width="16" height="16" fill="white"/>
</g>
</svg>
