<svg width="64" height="64" viewBox="0 0 64 64" fill="none" xmlns="http://www.w3.org/2000/svg">
<circle cx="32" cy="32" r="31" fill="#19AD48" stroke="white" stroke-width="2"/>
<path fill-rule="evenodd" clip-rule="evenodd" d="M25 22H39C40.1046 22 41 22.8954 41 24V40C41 41.1046 40.1046 42 39 42H25C23.8954 42 23 41.1046 23 40V24C23 22.8954 23.8954 22 25 22ZM25 24V40H39V24H25Z" fill="#C4C4C4"/>
<mask id="mask0" mask-type="alpha" maskUnits="userSpaceOnUse" x="23" y="22" width="18" height="20">
<path fill-rule="evenodd" clip-rule="evenodd" d="M25 22H39C40.1046 22 41 22.8954 41 24V40C41 41.1046 40.1046 42 39 42H25C23.8954 42 23 41.1046 23 40V24C23 22.8954 23.8954 22 25 22ZM25 24V40H39V24H25ZM33 27H28C27.4477 27 27 27.4477 27 28C27 28.5523 27.4477 29 28 29H33C33.5523 29 34 28.5523 34 28C34 27.4477 33.5523 27 33 27ZM28 31H35C35.5523 31 36 31.4477 36 32C36 32.5523 35.5523 33 35 33H28C27.4477 33 27 32.5523 27 32C27 31.4477 27.4477 31 28 31ZM31 35H28C27.4477 35 27 35.4477 27 36C27 36.5523 27.4477 37 28 37H31C31.5523 37 32 36.5523 32 36C32 35.4477 31.5523 35 31 35Z" fill="white"/>
</mask>
<g mask="url(#mask0)">
<rect x="20" y="20" width="24" height="24" fill="white"/>
</g>
</svg>
