<svg width="140" height="86" fill="none" xmlns="http://www.w3.org/2000/svg"><path d="M4.842 9.389c0 1.764.516 3.292 1.55 4.583 1.032 1.248 2.323 2.41 3.872 3.486a67.806 67.806 0 005.036 3.164 30.77 30.77 0 015.1 3.55 17.278 17.278 0 013.873 4.584c1.033 1.764 1.55 3.916 1.55 6.455 0 1.679-.302 3.25-.904 4.713a11.067 11.067 0 01-2.582 3.809c-1.076 1.076-2.367 1.915-3.874 2.518-1.506.602-3.142.903-4.906.903-1.636 0-3.034-.172-4.196-.516-1.162-.301-2.13-.667-2.905-1.097-.904-.474-1.657-1.012-2.26-1.614a6.918 6.918 0 01-1.42 1.807c-.56.56-1.162.925-1.808 1.098H0c.043-.603.086-1.248.13-1.937.042-.56.085-1.184.128-1.872.043-.689.065-1.356.065-2.002a34.2 34.2 0 00-.065-2.13A160.78 160.78 0 00.13 36.89 698.06 698.06 0 000 34.889h.968c.99 3.572 2.41 6.305 4.261 8.198 1.894 1.851 4.454 2.776 7.682 2.776 2.583 0 4.67-.817 6.262-2.453 1.636-1.678 2.453-3.98 2.453-6.907 0-1.765-.516-3.271-1.549-4.52-1.033-1.29-2.324-2.474-3.873-3.55a61.456 61.456 0 00-5.1-3.163 34.866 34.866 0 01-5.036-3.486 18.277 18.277 0 01-3.873-4.648C1.162 15.37.645 13.219.645 10.68c0-1.463.28-2.84.84-4.132a10.209 10.209 0 012.324-3.357c.99-.99 2.152-1.764 3.486-2.324C8.629.307 10.07.028 11.62.028c1.291 0 2.432.172 3.422.517.99.344 1.829.71 2.517 1.097a13.193 13.193 0 012.13 1.614 7.643 7.643 0 011.356-1.808c.603-.56 1.227-.925 1.873-1.097h.968a29.52 29.52 0 00-.194 1.937c-.043.602-.086 1.248-.129 1.936v4.132c.043.689.086 1.334.13 1.937.042.688.107 1.355.193 2h-.968c-.99-3.571-2.367-6.283-4.132-8.133-1.765-1.894-3.938-2.84-6.52-2.84-2.11 0-3.874.73-5.294 2.194-1.42 1.463-2.13 3.422-2.13 5.875zM54.57 32.952H41.336L38.11 43.927l4.196 1.614v.645H32.62v-.645l4.196-1.614L49.406.028h.968l13.557 44.544 3.874.968v.646H54.248v-.645l3.873-.969-3.55-11.62zm-12.91-1.227h12.523l-6.456-21.368-6.068 21.368zm43.544 13.17h11.62c0-1.808.367-3.486 1.098-5.036.732-1.549 1.657-2.883 2.776-4.002h.646a21.59 21.59 0 00-.194 1.743 143.14 143.14 0 00-.129 1.678v3.939c.043.602.086 1.14.129 1.613.043.517.108.969.194 1.356h-25.5v-.645l3.873-.969V2.61l-3.873-.968V.996h13.234v.646l-3.874.968v42.285zm49.691 0c0-1.808.366-3.486 1.098-5.036.731-1.549 1.657-2.883 2.776-4.002h.645c-.086.56-.15 1.14-.193 1.743a143.14 143.14 0 00-.129 1.678v3.939c.043.602.086 1.14.129 1.613.043.517.107.969.193 1.356h-26.791v-.645l3.874-.969V2.61l-3.874-.968V.996h26.146c-.086.388-.151.84-.194 1.356a71.196 71.196 0 00-.129 1.679v3.938c.043.56.086 1.097.129 1.613.043.603.108 1.184.194 1.743h-.646c-1.119-1.118-2.044-2.453-2.776-4.002-.731-1.55-1.097-3.228-1.097-5.035h-12.266v19.367h6.133l2.905-5.81h.646v12.91h-.646l-2.905-5.81h-6.133v21.95h12.911z" fill="#F5203A"/><path d="M2.066 80.24c.473-.624.903-1.367 1.29-2.227.323-.754.625-1.69.904-2.809.28-1.119.42-2.453.42-4.002v-4.196l-2.098-.646v-.323h11.62v.323l-1.937.484V80.24h2.421a6.285 6.285 0 00-.097.71c-.021.236-.043.527-.064.871v2.098c.021.323.043.603.064.84.022.28.054.548.097.807h-.322c-.56-.495-1.055-1.14-1.485-1.937-.41-.775-.614-1.69-.614-2.744H2.421c0 1.055-.216 1.97-.646 2.744-.409.796-.893 1.442-1.452 1.937H0c.021-.259.043-.528.064-.807.022-.237.043-.517.065-.84.021-.3.032-.613.032-.936 0-.43-.01-.817-.032-1.162a43.443 43.443 0 00-.13-1.582h2.067zm7.617 0V66.683H5.326v4.519c0 1.55-.13 2.883-.388 4.002-.258 1.12-.538 2.055-.839 2.809-.366.86-.775 1.603-1.226 2.227h6.81zM26.48 66.037c-.367 0-.743.13-1.13.388-.366.236-.71.645-1.033 1.226-.302.56-.56 1.313-.775 2.26-.194.947-.29 2.13-.29 3.55s.096 2.604.29 3.55c.215.948.473 1.712.775 2.293.322.56.667.968 1.032 1.226.388.237.764.355 1.13.355.366 0 .732-.118 1.098-.355.387-.258.731-.667 1.033-1.226.322-.581.58-1.345.774-2.292.215-.947.323-2.13.323-3.55 0-1.421-.108-2.605-.323-3.551-.193-.947-.452-1.7-.774-2.26-.302-.58-.646-.99-1.033-1.226-.366-.259-.732-.388-1.098-.388zm0-.484c.796 0 1.56.183 2.291.549.753.344 1.41.86 1.969 1.55.581.666 1.033 1.495 1.356 2.485.344.968.516 2.076.516 3.324 0 1.248-.172 2.367-.516 3.357-.323.969-.775 1.797-1.356 2.486a5.936 5.936 0 01-1.969 1.549 5.32 5.32 0 01-2.292.516 5.392 5.392 0 01-2.324-.516 6.403 6.403 0 01-1.969-1.55c-.56-.688-1.011-1.516-1.355-2.485-.323-.99-.485-2.109-.485-3.357 0-1.248.162-2.356.485-3.324.344-.99.796-1.819 1.355-2.486.581-.688 1.238-1.205 1.97-1.55a5.129 5.129 0 012.323-.548zm35.44-5.616a25.513 25.513 0 00-2.421 3.583c-.689 1.27-1.27 2.722-1.743 4.357-.474 1.614-.829 3.486-1.066 5.617-.236 2.108-.355 4.572-.355 7.391h-3.227c0-2.582.236-4.906.71-6.972.473-2.087 1.065-3.949 1.775-5.584.732-1.657 1.528-3.11 2.389-4.358a38.503 38.503 0 012.55-3.26h-10.49l-.646 2.744h-.485V58.29H61.92v1.647zm15.334 9.651c0-2.26-.129-4.121-.387-5.584-.258-1.464-.58-2.615-.968-3.454-.388-.84-.818-1.42-1.291-1.743-.474-.344-.936-.517-1.388-.517-.452 0-.915.173-1.388.517-.474.323-.904.904-1.291 1.743-.388.84-.71 1.99-.969 3.454-.258 1.463-.387 3.324-.387 5.584s.129 4.12.387 5.584c.258 1.463.581 2.615.969 3.454.387.839.817 1.43 1.29 1.775.474.323.937.484 1.389.484.452 0 .914-.161 1.388-.484.473-.344.903-.936 1.29-1.775.388-.84.71-1.99.97-3.454.257-1.463.386-3.325.386-5.584zm3.067 0c0 2.066-.204 3.841-.613 5.326-.41 1.485-.947 2.711-1.614 3.68-.667.946-1.431 1.646-2.292 2.098-.84.452-1.7.677-2.582.677-.883 0-1.754-.225-2.615-.677-.84-.452-1.592-1.152-2.26-2.098-.666-.969-1.204-2.195-1.613-3.68-.41-1.485-.614-3.26-.614-5.326s.205-3.841.614-5.326c.409-1.485.947-2.7 1.614-3.648.667-.968 1.42-1.678 2.26-2.13.86-.452 1.731-.678 2.614-.678.882 0 1.743.226 2.582.678.86.452 1.625 1.162 2.292 2.13.667.947 1.205 2.163 1.614 3.648.409 1.485.613 3.26.613 5.326zm21.127-11.298h1.453L88.214 80.885h-1.453l14.687-22.595zm-11.459.162c-.28 0-.548.075-.807.226-.258.129-.484.376-.678.742-.193.344-.344.818-.451 1.42-.108.603-.162 1.367-.162 2.292 0 .926.054 1.69.162 2.292.107.602.258 1.087.451 1.452.194.345.42.592.678.743a1.783 1.783 0 001.614 0c.258-.15.484-.398.678-.743.194-.365.344-.85.452-1.452.108-.603.161-1.367.161-2.292 0-.925-.053-1.689-.161-2.292-.108-.602-.258-1.076-.452-1.42-.194-.366-.42-.613-.678-.742a1.58 1.58 0 00-.807-.226zm0-.484c.603 0 1.173.129 1.711.387a4.08 4.08 0 011.453 1.033c.408.452.731 1 .968 1.646.258.624.387 1.324.387 2.098 0 .775-.129 1.485-.387 2.13a5.04 5.04 0 01-.968 1.614 4.454 4.454 0 01-1.453 1.066 4.2 4.2 0 01-1.71.355 4.428 4.428 0 01-1.744-.355 4.564 4.564 0 01-1.42-1.066 5.534 5.534 0 01-1-1.613 6.147 6.147 0 01-.356-2.13c0-.776.119-1.475.355-2.099a5.432 5.432 0 011.001-1.646 4.16 4.16 0 011.42-1.033 4.114 4.114 0 011.743-.387zm9.684 13.395c-.28 0-.549.076-.807.226-.258.13-.484.377-.678.743-.194.344-.344.817-.452 1.42-.108.602-.161 1.366-.161 2.291 0 .926.053 1.69.161 2.292.108.603.258 1.087.452 1.453.194.344.42.591.678.742a1.783 1.783 0 001.614 0c.258-.15.484-.398.678-.742.193-.366.344-.85.451-1.453.108-.602.162-1.366.162-2.291 0-.926-.054-1.69-.162-2.292-.107-.603-.258-1.076-.451-1.42-.194-.366-.42-.614-.678-.743a1.583 1.583 0 00-.807-.226zm0-.484c.602 0 1.173.13 1.711.387a4.084 4.084 0 011.452 1.033c.409.452.732 1 .968 1.646.259.625.388 1.324.388 2.099 0 .774-.129 1.484-.388 2.13a5.026 5.026 0 01-.968 1.614 4.461 4.461 0 01-1.452 1.065 4.204 4.204 0 01-1.711.355 4.43 4.43 0 01-1.743-.355 4.566 4.566 0 01-1.42-1.065 5.532 5.532 0 01-1.001-1.614 6.147 6.147 0 01-.355-2.13c0-.775.118-1.474.355-2.099a5.43 5.43 0 011-1.646 4.16 4.16 0 011.42-1.033 4.115 4.115 0 011.744-.387z" fill="#202020"/></svg>