<?xml version="1.0" encoding="UTF-8"?><!DOCTYPE svg PUBLIC "-//W3C//DTD SVG 1.1//EN" "http://www.w3.org/Graphics/SVG/1.1/DTD/svg11.dtd"><svg xmlns="http://www.w3.org/2000/svg" xmlns:xlink="http://www.w3.org/1999/xlink"><defs>
        <clipPath id="clip0">
            <path d="M0 0h115.061v72H0z"/>
        </clipPath>
    
        <clipPath id="clip0">
            <path d="M0 0h73v73H0z"/>
        </clipPath>
    
        <clipPath id="clip0">
            <path d="M0 0h73v73H0z"/>
        </clipPath>
    </defs><symbol id="ico-mono-affordable-price" viewBox="0 0 73 73">
    <path fill-rule="evenodd" clip-rule="evenodd" d="M9.59 14.906c1.121.74 2.073 1.485 2.947 2.349 1.234 1.221 2.277 2.646 3.424 4.56l.36.601-.443.544c-4.028 4.942-5.774 7.917-7.7 13.978l-.292.92-.93-.26c-.886-.247-1.51-.31-2.113-.24-.5.06-1.035.216-1.74.508-.165 2.014-.132 3.537.1 4.96.234 1.44.681 2.822 1.389 4.548.89.262 1.551.373 2.163.372.701-.002 1.408-.153 2.388-.498l.741-.262.43.658c1.605 2.461 2.931 4.126 4.393 5.463 1.459 1.334 3.092 2.377 5.358 3.55l.54.28V67h6.441v-6.47l1.335.475c4.294 1.53 7.546 2.23 10.728 2.213 3.185-.017 6.377-.753 10.553-2.215l1.33-.465V67h6.442v-9.958l.404-.3c2.676-1.987 4.467-3.644 5.839-5.538 1.371-1.893 2.365-4.078 3.372-7.174l1.902.618c-1.04 3.198-2.113 5.6-3.655 7.73-1.464 2.02-3.316 3.745-5.863 5.668V69h-10.44v-5.657c-3.668 1.206-6.742 1.858-9.873 1.875-3.143.016-6.28-.607-10.074-1.869V69H18.605V58.15c-2.088-1.112-3.738-2.187-5.248-3.567-1.493-1.366-2.817-3.002-4.295-5.206-.792.235-1.527.367-2.302.369-1.006.002-2.009-.214-3.218-.604l-.437-.14-.178-.424c-.839-1.992-1.408-3.647-1.698-5.43-.291-1.786-.296-3.649-.064-6.058l.055-.577.528-.239c1.042-.47 1.936-.793 2.861-.902a6.411 6.411 0 011.949.08c1.837-5.539 3.658-8.645 7.324-13.204-.947-1.518-1.798-2.628-2.752-3.571-1.074-1.063-2.313-1.95-4.04-2.972-.889-.526-.736-1.841.225-2.17 3.569-1.22 6.401-1.756 9.13-1.451 2.572.288 4.95 1.312 7.683 3.02l2.287-1.342 1.012 1.725-3.345 1.963-.517-.334c-2.837-1.83-5.047-2.788-7.343-3.044-1.924-.216-3.99.052-6.631.834z"/>
    <path d="M22 31.5a1.5 1.5 0 11-3 0 1.5 1.5 0 013 0z"/>
    <path fill-rule="evenodd" clip-rule="evenodd" d="M49.5 46C60.227 46 69 37.09 69 26S60.227 6 49.5 6 30 14.91 30 26s8.773 20 19.5 20zm0 2C61.374 48 71 38.15 71 26S61.374 4 49.5 4 28 13.85 28 26s9.626 22 21.5 22z"/>
    <path d="M44.815 34v-2.398H43V29.43h1.815V27.68H43v-2.779h1.815V18h5.173c2.087 0 3.607.418 4.56 1.255.968.837 1.452 1.987 1.452 3.45a5.25 5.25 0 01-.59 2.444c-.393.761-1.051 1.374-1.974 1.837-.907.463-2.148.695-3.72.695H48.24v1.748h3.494v2.173H48.24V34h-3.426zm3.426-9.098h1.134c.968 0 1.732-.164 2.292-.493.574-.329.862-.859.862-1.591 0-1.36-.908-2.04-2.723-2.04h-1.565v4.124z"/>
</symbol><symbol id="ico-mono-arrow-next" viewBox="0 0 20 20">
    <path d="M5.828 2.814l1.189-1.169L15.227 10l-8.21 8.38-1.19-1.167 7.065-7.211-7.064-7.187z"/>
</symbol><symbol id="ico-mono-arrow-prev" viewBox="0 0 20 20">
    <path d="M14.172 17.186l-1.189 1.169L4.773 10l8.21-8.38 1.19 1.167-7.065 7.211 7.064 7.187z"/>
</symbol><symbol id="ico-mono-basket" viewBox="0 0 24 24">
    <path fill-rule="evenodd" clip-rule="evenodd" d="M8.056 7c.144-3.134 1.47-4.915 3.995-4.915 2.525 0 3.85 1.781 3.992 4.915h1.34a2 2 0 011.956 1.58l2.143 10A2 2 0 0119.526 21H4.474a2 2 0 01-1.956-2.42l2.143-9.999A2 2 0 016.617 7h1.439zm5.99 0c-.088-2.071-.758-2.915-1.995-2.915s-1.909.844-2 2.915h3.996zm-7.43 2L4.475 19h15.052L17.383 9H6.617z"/>
</symbol><symbol id="ico-mono-close" viewBox="0 0 34 34">
    <path fill-rule="evenodd" clip-rule="evenodd" d="M26.8 24.496l-2.298 2.298-7.498-7.49L9.506 26.8l-2.298-2.304L14.698 17 7.2 9.504l2.306-2.3 7.498 7.492L24.502 7.2 26.8 9.504 19.309 17l7.491 7.496z"/>
</symbol><symbol id="ico-mono-design-decisions" viewBox="0 0 73 73">
    <path fill-rule="evenodd" clip-rule="evenodd" d="M32.172 10.219C33.1 9.394 34.432 9 36.25 9c1.82 0 3.151.4 4.074 1.236.915.828 1.257 1.934 1.442 2.937.086.465.144.948.198 1.402l.014.115c.06.5.12.967.21 1.417.181.896.469 1.625 1.026 2.193.31.316.705.5 1.225.64.265.072.539.126.849.187l.007.001c.295.058.628.124.952.214.66.184 1.409.501 1.963 1.23.546.718.79 1.685.79 2.928 0 .834-.314 1.527-.915 2.002-.548.432-1.236.604-1.856.673-1.08.121-2.385-.031-3.415-.151a92.16 92.16 0 00-.403-.047c-.23-.026-.437-.047-.623-.063.313.344.761.785 1.38 1.343 3.604 3.242 6.248 4.674 8.827 4.684 2.287.008 4.75-1.1 8.014-3.623a33.453 33.453 0 01-.466-.178c-.661-.256-1.335-.551-1.91-.956-.594-.417-1.104-.964-1.406-1.724-.298-.748-.359-1.61-.217-2.601.293-2.052 1.389-3.587 3.131-4.35 1.506-.66 3.373-.69 5.41-.175.784-1.193 1.599-2.096 2.643-2.665 1.238-.675 2.649-.802 4.384-.666l1.244.097-9.47 30.9H65.5v2H63v12H10V48H7v-2h2.648L.198 15.166l1.168-.157c1.727-.233 3.102-.082 4.337.639.993.579 1.81 1.48 2.638 2.607.152-.062.322-.128.505-.195.713-.26 1.723-.56 2.654-.56.95 0 2.174.311 3.243 1.151 1.092.858 1.963 2.221 2.247 4.208.139.97.108 1.821-.12 2.565a3.782 3.782 0 01-1.205 1.81c-.531.448-1.162.764-1.804 1.02-.146.06-.297.116-.451.171 2.883 2.597 5.09 3.676 7.198 3.65 2.42-.03 5.039-1.518 8.725-4.82.619-.555 1.078-.998 1.408-1.35l-.347.041-.38.048c-.983.125-2.25.286-3.302.17-.606-.067-1.283-.236-1.823-.673C24.3 25.014 24 24.323 24 23.5c0-1.227.216-2.18.703-2.894.504-.74 1.198-1.08 1.826-1.277.305-.096.617-.165.888-.224l.033-.007c.27-.06.506-.111.734-.177.461-.134.807-.305 1.084-.603.549-.588.83-1.333 1.01-2.238.089-.455.148-.925.21-1.425l.008-.07c.057-.467.118-.966.21-1.446.19-1.003.544-2.101 1.466-2.92zM8.447 20.395l-.775.387-.494-.712c-.99-1.429-1.712-2.245-2.482-2.695-.5-.29-1.076-.458-1.872-.467L11.74 46h49.522l8.9-29.041c-.87.026-1.492.184-2.01.466-.75.41-1.433 1.162-2.294 2.591l-.406.672-.749-.233c-2.06-.643-3.668-.592-4.758-.114-1.036.453-1.747 1.352-1.954 2.8-.108.76-.037 1.248.095 1.58.127.32.346.58.697.827.369.259.855.483 1.486.729.226.087.494.186.781.292.428.158.897.33 1.326.504l1.55.626-1.285 1.07c-4.009 3.338-7.304 5.184-10.652 5.172-3.362-.013-6.487-1.896-10.157-5.198-.92-.828-1.573-1.492-1.979-2.025a3.289 3.289 0 01-.484-.834c-.105-.288-.183-.708.016-1.136.2-.431.57-.635.837-.729.265-.093.546-.122.785-.131.48-.019 1.066.039 1.628.102l.419.047c1.068.123 2.12.244 2.953.15.464-.052.718-.159.84-.255.069-.054.154-.141.154-.432 0-1.008-.201-1.48-.382-1.717-.173-.229-.435-.383-.907-.514-.24-.067-.5-.119-.81-.18l-.024-.005a14.352 14.352 0 01-.957-.212c-.694-.187-1.473-.498-2.134-1.172-.941-.96-1.34-2.119-1.558-3.197a20.22 20.22 0 01-.236-1.573l-.012-.103c-.056-.468-.107-.89-.181-1.291-.16-.865-.396-1.436-.817-1.818-.414-.375-1.177-.718-2.732-.718-1.557 0-2.329.34-2.75.714-.426.378-.667.944-.83 1.8a20.75 20.75 0 00-.192 1.34l-.006.044c-.06.494-.127 1.033-.233 1.569-.212 1.076-.597 2.238-1.507 3.215-.619.663-1.346.972-1.99 1.16-.295.085-.591.15-.846.206l-.051.01c-.28.062-.509.114-.717.18-.399.124-.619.268-.772.494-.17.25-.356.745-.356 1.768 0 .302.088.388.147.436.11.088.343.192.784.24.796.088 1.802-.038 2.825-.166l.395-.05c.532-.064 1.097-.126 1.556-.108.226.01.51.04.777.145.286.113.654.358.806.833.139.43.022.827-.09 1.083-.12.27-.301.538-.51.8-.423.529-1.088 1.194-2.023 2.032-3.708 3.322-6.815 5.289-10.034 5.33-3.247.04-6.278-1.877-9.833-5.36l-1.189-1.166 1.587-.502.18-.057c.66-.209 1.233-.39 1.742-.593.55-.22.958-.44 1.254-.69.28-.238.472-.51.584-.872.117-.38.163-.915.052-1.694-.216-1.513-.845-2.4-1.503-2.917-.68-.535-1.457-.724-2.007-.724-.57 0-1.31.2-1.97.44a12.33 12.33 0 00-1.069.447l-.012.007h-.002zM61 48H12v4h49v-4zm0 6H12v4h49v-4z"/>
    <path fill-rule="evenodd" clip-rule="evenodd" d="M36.5 41a3.5 3.5 0 100-7 3.5 3.5 0 000 7zm0 2a5.5 5.5 0 100-11 5.5 5.5 0 000 11z"/>
</symbol><symbol id="ico-mono-home" viewBox="0 0 24 24">
    <path fill-rule="evenodd" clip-rule="evenodd" d="M16.667 11.117v6.118a.772.772 0 01-.778.765H8.111a.77.77 0 01-.778-.765v-6.118H5L12 5l7 6.118h-2.333v-.001z"/>
</symbol><symbol id="ico-mono-innovative-ideas" viewBox="0 0 73 73">
    <path fill-rule="evenodd" clip-rule="evenodd" d="M11.203 3.582C9.695 2.415 10.52 0 12.427 0h47.146c1.907 0 2.732 2.415 1.224 3.582L53.11 9.528l.704.228a5 5 0 013.138 6.524L50.447 33.5H52v7h-1.257l13.972 23.887a2 2 0 01-1.183 2.931C52.72 70.391 44.12 71.967 35.556 71.98c-8.566.012-17.038-1.54-27.597-4.65a2 2 0 01-1.15-2.948L21.23 40.5H20v-7h1.553l-6.505-17.22a5 5 0 013.138-6.524l.704-.228-7.687-5.946zm9.603 7.428l-2.005.649a3 3 0 00-1.882 3.914L23.69 33.5h4.572l-1.24-5.79 1.955-.42 1.33 6.21H41.76l3.284-10.791 1.914.582L43.85 33.5h4.459l6.772-17.927a3 3 0 00-1.883-3.914l-2.004-.649-13.358 10.334a3 3 0 01-3.672 0L20.806 11.01zM50 35.5H22v3h28v-3zm-1.574 5h-3.483l2.493 6.649-1.872.702-2.757-7.351H30.693l-4.257 11.351-1.872-.702L28.557 40.5h-4.993L8.524 65.41c10.453 3.08 18.723 4.581 27.03 4.57 8.308-.013 16.71-1.539 27.432-4.586L48.427 40.5zM59.573 2H12.427l22.961 17.762a1 1 0 001.224 0L59.573 2z"/>
    <path fill-rule="evenodd" clip-rule="evenodd" d="M43.006 7.953s0 .004-.003.01l.003-.01zM42.985 8a.985.985 0 00-.141-.178c-.22-.23-.63-.529-1.292-.823C40.234 6.413 38.272 6 36 6s-4.234.413-5.552 1c-.661.293-1.073.592-1.292.822a.984.984 0 00-.14.178.984.984 0 00.14.178c.22.23.63.529 1.292.823 1.318.586 3.28.999 5.552.999s4.234-.413 5.552-1c.661-.293 1.073-.592 1.292-.822a.984.984 0 00.14-.178zm-13.991-.047l.003.01a.032.032 0 01-.003-.01zm0 .094s0-.004.003-.01l-.003.01zm14.009-.01c.003.006.003.01.003.01l-.003-.01zM36 12c4.97 0 9-1.79 9-4s-4.03-4-9-4-9 1.79-9 4 4.03 4 9 4z"/>
</symbol><symbol id="ico-mono-logo" viewBox="0 0 116 72">
    <g clip-path="url(#clip0)">
        <path d="M47.767 16.213c0 3.487 1.744 6.45 4.359 8.194l.174.174s.175 0 .175.175l1.22.871.523.523a9.274 9.274 0 002.963-5.404h-.174c-3.312 0-5.927-2.615-5.927-5.928 0-1.743.697-3.312 2.092-4.532-.697-.523-1.395-.872-2.266-1.22-1.744 1.568-3.139 4.183-3.139 7.147z"/>
        <path d="M57.182 19.002h.348v-.523V17.782 17.26 16.736 16.213 15.69 15.167c0-.174 0-.174-.174-.349 0 0 0-.174-.174-.174 0-.174 0-.174-.175-.349 0 0 0-.174-.174-.174 0-.174 0-.174-.174-.349 0 0 0-.174-.175-.174 0-.174-.174-.174-.174-.174s0-.175-.174-.175l-.175-.174s0-.174-.174-.174l-.174-.175s0-.174-.175-.174c0-.174-.174-.174-.174-.174s0-.175-.174-.175c0-.174-.175-.174-.175-.348l-.174-.175-.349-.348c-1.046.871-1.743 2.092-1.743 3.486.174 2.267 2.092 4.184 4.533 4.184z"/>
        <path d="M65.027 23.012c.697-1.22 1.394-2.44 1.743-3.66v-.175c0-.175.174-.349.174-.523.175-.698.349-1.57.349-2.44a9.87 9.87 0 00-.523-3.139c-.697-1.743-1.743-3.487-3.312-4.533-.175-.174-.349-.174-.523-.348l-.349-.349c-1.569-.872-3.312-1.395-5.23-1.395-1.395 0-2.615.175-3.661.698l-1.395.697a5.61 5.61 0 012.267 1.395l.348.348c2.092 1.744 3.313 4.184 3.836 6.8.174.697.174 1.394.174 2.266V20.397c-.349 2.615-1.743 5.056-3.487 6.8l.175.174c.523.523.871 1.22 1.394 1.743 1.744-.523 3.313-1.395 4.533-2.44 1.395-1.047 2.615-2.267 3.487-3.662z"/>
        <path d="M51.952 25.976c-.35-.174-.698-.349-.872-.523-.523-.349-.872-.697-1.395-1.22-2.44-2.441-3.66-5.58-3.312-8.892v-1.22c-.174-2.092-1.395-4.184-3.138-5.404l-.175-.175c-.174-.174-.348-.174-.523-.348v1.569c0 .523-.174.871-.174 1.394 0 .175 0 .35-.174.523-1.046 3.313-.697 6.8.349 10.112.174.697.523 1.394.871 2.092 1.395 2.615 3.487 4.707 6.102 6.276 2.266 1.395 4.881 2.092 7.322 2.092-.872-2.615-2.615-4.707-4.881-6.276z"/>
        <path d="M46.547 9.937c.175.523.523 1.046.698 1.57 1.569-3.139 4.358-5.58 7.845-6.277 1.917-.349 3.835-.349 5.753.174 1.046.349 2.092.872 3.138 1.395h.174c.174.174.349.349.697.349.175 0 .175.174.349.174 1.918.872 4.184.872 6.276 0 0 0 .174 0 .174-.174.175-.175.349-.175.523-.349a3.796 3.796 0 01-1.394-.872c-.698 0-1.046-.348-1.395-.697l-.349-.349c-2.44-2.44-5.578-4.184-8.89-4.707-3.662-.523-7.323 0-10.81 1.918-.523.523-1.045.872-1.743 1.395l-.174.174c-1.046.872-1.743 2.266-1.743 3.661 0 .872.348 1.743.871 2.615-.174 0 0 0 0 0z"/>
        <path d="M73.569 13.947v-.175c-.175-1.394-1.046-2.615-2.267-3.312-.697-.523-1.569-.697-2.44-.697h-.698c-.348 0-.871 0-1.22-.175 1.395 1.918 2.092 4.184 2.092 6.625 0 1.046-.174 1.918-.349 2.79v.697c-1.569 5.056-5.404 9.065-10.46 10.809h-.174s0 .174.174.174c.175.523.35 1.046.523 1.569 2.615-.175 5.23-.872 7.323-2.267.174 0 .174-.174.348-.174 0 0 .174 0 .174-.174 0 0 .175 0 .175-.175l.174-.174c1.22-.872 2.266-1.918 3.313-2.963 2.266-2.79 3.66-6.45 3.66-10.286-.174-.698-.348-1.395-.348-2.092z"/>
        <path d="M13.947 53.172l2.266.697-5.056 13.773-5.753-13.947 2.267-.523v-.174H0v.174l2.092.523L9.762 72h.524l6.799-18.13 2.266-.698v-.174h-5.404v.174z"/>
        <path d="M31.729 52.998h-.523l-6.8 18.13-2.266.698V72h5.405v-.174l-2.44-.698 5.055-13.772 3.138 7.496h-2.092l-.349.872h2.79l2.44 5.753-2.266.349V72h7.67v-.174l-2.266-.349-7.496-18.48z"/>
        <path d="M52.998 61.714v-8.368h1.394c1.743 0 3.138.349 4.184 1.046 1.046.698 1.395 1.744 1.395 3.138 0 1.395-.523 2.44-1.395 3.138-1.046.698-2.266 1.046-4.184 1.046h-1.395zm12.029 9.24c-.175.174-.175.174-.35.174-.174 0-.174.175-.348.175s-.348 0-.523-.175c-.174-.174-.348-.348-.348-.697l-.698-4.707c-.174-.872-.523-1.395-1.22-1.918-.697-.523-1.395-.871-2.092-1.046-.872-.348-1.918-.523-2.964-.523 1.22-.174 2.44-.348 3.487-.697.349-.174.872-.349 1.22-.523a5.3 5.3 0 001.22-.872c.35-.348.523-.697.872-1.046.175-.348.349-.871.349-1.394 0-.698-.174-1.22-.523-1.744-.349-.523-.872-1.046-1.744-1.569-.697-.348-1.743-.697-2.789-1.046-1.22-.174-2.44-.348-4.01-.348h-6.624v.348l2.092.349v17.433l-2.267.349v.349h7.497v-.349l-2.092-.349v-8.716h1.395c.871 0 1.569 0 2.091.174.523.174 1.047.349 1.395.523.349.349.698.697.872 1.046.174.349.349.872.523 1.569l.697 4.707c0 .523.349.872.872 1.22.523.349 1.22.523 2.092.523.523 0 .871 0 1.22-.174s.698-.174.872-.349c.349-.174.523-.348.697-.697l-.349-.349c-.348.175-.348.175-.523.349z"/>
        <path d="M86.47 66.421c-.349 1.046-.872 2.092-1.57 2.79-.697.697-1.568 1.22-2.44 1.569-.872.348-1.918.523-2.964.523H78.45V53.52h1.046c1.046 0 2.092.174 2.964.523.872.348 1.743.871 2.44 1.569.698.697 1.221 1.569 1.57 2.789.348 1.046.523 2.44.523 4.01 0 1.394-.175 2.789-.523 4.01zm.871-10.983c-1.046-.871-2.092-1.394-3.486-1.917-1.395-.35-2.79-.698-4.359-.698H73.22v.349l2.092.349v17.433l-2.266.523v.349h6.276c1.569 0 3.138-.175 4.358-.698 1.395-.348 2.441-1.046 3.487-1.743 1.046-.872 1.743-1.743 2.266-2.964.523-1.22.872-2.44.872-4.01 0-1.394-.349-2.789-.872-4.01-.348-1.22-1.046-2.091-2.092-2.963z"/>
        <path d="M112.968 71.477l-7.67-18.48h-.523L98.15 71.129l-2.44.698V72h5.404v-.174l-2.267-.698 5.056-13.772 3.138 7.496h-2.266l-.175.872h2.79l2.266 5.753-2.266.349V72h7.67v-.174l-2.092-.349z"/>
    </g>
    
</symbol><symbol id="ico-mono-phone" viewBox="0 0 24 24">
    <path fill-rule="evenodd" clip-rule="evenodd" d="M20 15.5c-1.25 0-2.45-.2-3.57-.57-.1-.03-.21-.05-.31-.05-.26 0-.51.1-.71.29l-2.2 2.2a15.074 15.074 0 01-6.59-6.58l2.2-2.21c.28-.27.36-.66.25-1.01A11.36 11.36 0 018.5 4c0-.55-.45-1-1-1H4c-.55 0-1 .45-1 1 0 9.39 7.61 17 17 17 .55 0 1-.45 1-1v-3.5c0-.55-.45-1-1-1zM13 9h-2v2h2V9zm4 0h-2v2h2V9zM6.53 5h-1.5c.09 1.32.35 2.59.76 3.8l1.2-1.21C6.75 6.75 6.6 5.88 6.53 5zM19 18.97c-1.32-.09-2.6-.35-3.8-.76l1.2-1.2c.85.24 1.72.39 2.6.45v1.51zM21 11V9h-2v2h2z"/>
</symbol><symbol id="ico-mono-plus" viewBox="0 0 24 24">
    <path fill-rule="evenodd" clip-rule="evenodd" d="M13 7h-2v4H7v2h4v4h2v-4h4v-2h-4V7z"/>
</symbol><symbol id="ico-mono-product-convenience" viewBox="0 0 73 73">
    <g clip-path="url(#clip0)" fill-rule="evenodd" clip-rule="evenodd">
        <path d="M37.11 0h.02c6.007.214 9.898.964 12.623 2.54 2.658 1.537 4.081 3.784 5.324 6.662 1.521.562 2.643 1.394 3.508 2.712.905 1.377 1.487 3.229 2.067 5.659l.013.056.007.057c1.981 16.514 3.287 25.274 8.24 36.32l.286.638-.5.488c-1.864 1.814-3.474 3.055-5.284 3.774-1.395.554-2.853.776-4.553.772l1.941 4.41-.264.442c-1.709 2.87-3.285 4.89-5.281 6.214-2.008 1.333-4.329 1.891-7.38 2.073-1.957.216-3.54.274-5.047-.008-1.397-.262-2.668-.804-4.085-1.686-4.653 1.572-7.495 1.86-12.382 1.697l-.052-.002-.052-.007c-3.677-.51-6.521-1.133-8.832-2.462-2.354-1.353-4.057-3.379-5.597-6.487l-.191-.387 1.414-3.81c-1.653.015-3.09-.133-4.399-.656-1.728-.69-3.1-1.975-4.484-4.036l-.266-.395.14-.456c3.818-12.46 5.183-20.72 7.095-36.438l.004-.033.007-.033c.451-2.373.996-4.205 2.024-5.606.982-1.336 2.327-2.18 4.16-2.817 1.75-3.985 4.01-6.34 7.224-7.649C27.785.232 31.881.021 37.09 0h.02zM17.135 11.418c-1.093.482-1.812 1.048-2.349 1.778-.743 1.013-1.224 2.455-1.665 4.763-1.894 15.553-3.265 23.928-7.024 36.286 1.148 1.618 2.168 2.456 3.299 2.907 1.12.447 2.457.561 4.353.497 3.344-11.618 3.883-19.436 2.735-34.97l1.994-.146c1.183 16.003.598 24.073-3.009 36.365l-.01.034-1.643 4.425c1.364 2.643 2.785 4.21 4.608 5.258 1.941 1.117 4.435 1.703 8.058 2.208 4.653.152 7.252-.116 11.635-1.6l.949-2.395V26.113c-4.33-3.154-7.282-4.207-12.871-5.528-2.929-.514-5.266-1.206-6.836-2.857-1.378-1.45-2.029-3.486-2.224-6.31zm23.11 11.635c.628-.95 1.391-1.739 2.329-2.444 1.528-1.15 3.5-2.06 5.994-3.115 1.9-.925 2.98-1.764 3.645-2.811.65-1.025.984-2.376 1.106-4.504-1.197-2.817-2.403-4.656-4.567-5.908C46.478 2.957 43.013 2.212 37.079 2c-5.246.022-8.954.253-11.766 1.398-2.672 1.088-4.624 3.044-6.233 6.797.085 3.29.687 5.06 1.729 6.155 1.084 1.141 2.832 1.758 5.76 2.27l.029.005.028.007c4.804 1.134 7.841 2.111 11.387 4.345a8.128 8.128 0 00-.61-1.017c-.682-.963-1.605-1.778-3.096-2.706l-.268-.167-.123-.29c-1.592-3.745-3.109-5.894-5.894-8.758-1.218-1.253-.382-3.437 1.435-3.437h13.078c1.744 0 2.652 2.077 1.469 3.357l-7.636 8.262c1.116.791 1.974 1.605 2.666 2.583.482.68.87 1.418 1.21 2.25zm-5.115-6.44l7.405-8.011H29.457h-.001a.052.052 0 00-.004.008.05.05 0 00-.005.024l.002.002.007.009c2.577 2.65 4.174 4.785 5.674 7.968zm20.093-5.161c-.184 1.711-.565 3.11-1.322 4.303-.96 1.511-2.435 2.556-4.483 3.55l-.023.011-.024.01c-2.522 1.067-4.285 1.895-5.595 2.881-1.223.92-2.067 1.992-2.71 3.59V67.21l-.952 2.404c1.127.668 2.084 1.041 3.084 1.229 1.217.228 2.57.195 4.485-.016l.025-.003.026-.002c2.889-.17 4.818-.683 6.417-1.744 1.53-1.016 2.857-2.599 4.404-5.132l-2.197-4.99-.018-.068c-3.727-13.208-4.345-21.244-3.006-36.37l1.992.176c-1.296 14.653-.735 22.427 2.746 34.965 1.912.082 3.32-.103 4.604-.612 1.31-.52 2.568-1.41 4.125-2.868-4.849-11.04-6.168-20.033-8.108-36.198-.572-2.389-1.09-3.919-1.78-4.97a4.502 4.502 0 00-1.69-1.56z"/>
        <path d="M46.5 30c.586 0 1.5-.636 1.5-2 0-1.364-.914-2-1.5-2s-1.5.636-1.5 2c0 1.364.914 2 1.5 2zm0 2c1.933 0 3.5-1.79 3.5-4s-1.567-4-3.5-4-3.5 1.79-3.5 4 1.567 4 3.5 4z"/>
    </g>
    
</symbol><symbol id="ico-mono-product-quality" viewBox="0 0 73 73">
    <g clip-path="url(#clip0)" fill-rule="evenodd" clip-rule="evenodd">
        <path d="M13.45 8.25h46.1l13.78 16.003L36.5 65.501-.33 24.253 13.45 8.25zm.284 2.735l6.86 12.256H3.181l10.553-12.256zm-10.5 14.256l30.602 34.275-12.24-34.275H3.232zm20.485 0l12.759 35.724 12.18-35.724H23.718zm27.051 0L39.037 59.657l30.73-34.416H50.77zm19.05-2H51.824l7.41-12.292 10.584 12.292zM57.32 10.25H38.752l11.141 12.322 7.428-12.322zm-9.518 12.991l-11.32-12.519-11.857 12.52h23.177zm-25.293-.674L34.175 10.25h-18.56l6.894 12.317z"/>
        <path d="M11.029 52.766l3.358-3.358 1.415 1.414-3.359 3.359 3.32 3.32-1.413 1.415-3.321-3.321-3.359 3.359-1.414-1.415 3.359-3.358-3.182-3.182 1.414-1.415 3.182 3.182z"/>
        <path d="M64.988 45.05l2.597-2.596L69 43.868l-2.598 2.597 2.567 2.566-1.415 1.415-2.566-2.567-2.597 2.598-1.414-1.415 2.597-2.597-2.454-2.454 1.415-1.414 2.453 2.454z"/>
    </g>
    
</symbol><symbol id="ico-mono-search" viewBox="0 0 24 24">
    <path fill-rule="evenodd" clip-rule="evenodd" d="M9.754 3a6.739 6.739 0 016.063 3.779 6.746 6.746 0 01-.738 7.11l5.674 5.67a.844.844 0 01-1.193 1.194l-5.674-5.677a6.742 6.742 0 01-7.988.216A6.751 6.751 0 019.754 3zm0 11.816a5.066 5.066 0 003.58-8.645 5.06 5.06 0 00-8.64 3.58 5.069 5.069 0 005.06 5.06v.005z"/>
</symbol><symbol id="ico-mono-size-table" viewBox="0 0 24 10">
    <path fill-rule="evenodd" clip-rule="evenodd" d="M6.5 5.5V8H9V5.5h2V8h2.5V5.5h2V8h2.75V5.5h2V8H22V2H2v6h2.5V5.5h2zM0 0v10h24V0H0z"/>
</symbol><symbol id="ico-mono-social-facebook" viewBox="0 0 20 20">
    <path fill-rule="evenodd" clip-rule="evenodd" d="M7.956 13.45c0-.97-.004-1.94.003-2.91.002-.164-.045-.215-.21-.208-.304.012-.61-.002-.915.005-.123.003-.169-.03-.167-.16.006-.606.005-1.212 0-1.817 0-.117.034-.155.153-.152.312.007.624-.009.936.006.18.009.217-.055.214-.22-.011-.462-.011-.923-.001-1.384.012-.563.165-1.088.502-1.546.428-.58 1.035-.844 1.736-.875.72-.032 1.442-.015 2.162-.022.101-.001.13.034.13.131-.003.613-.003 1.225 0 1.838.002.109-.034.142-.142.14-.346-.005-.693-.003-1.04-.002-.46.002-.737.237-.766.69-.023.364-.006.73-.015 1.095-.003.13.075.12.162.12.526 0 1.053.006 1.58-.003.155-.003.206.032.188.194a81.018 81.018 0 00-.176 1.828c-.012.138-.075.164-.2.162a57.638 57.638 0 00-1.247-.002c-.299.002-.27-.043-.27.259-.001 1.9-.004 3.799.004 5.698.001.2-.05.25-.25.247a56.437 56.437 0 00-2.142 0c-.201.004-.235-.063-.233-.242.008-.956.004-1.913.004-2.87"/>
</symbol><symbol id="ico-mono-social-instagram" viewBox="0 0 20 20">
    <path fill-rule="evenodd" clip-rule="evenodd" d="M7.273 2.5h5.454A4.773 4.773 0 0117.5 7.273v5.454a4.773 4.773 0 01-4.773 4.773H7.273A4.773 4.773 0 012.5 12.727V7.273A4.773 4.773 0 017.273 2.5zm.134 1.667a3.24 3.24 0 00-3.24 3.24v5.186a3.24 3.24 0 003.24 3.24h5.186a3.24 3.24 0 003.24-3.24V7.407a3.24 3.24 0 00-3.24-3.24H7.407zM15 6.667a.833.833 0 10-1.667 0 .833.833 0 001.667 0zm-5 0a3.333 3.333 0 110 6.666 3.333 3.333 0 010-6.666zM11.667 10a1.667 1.667 0 10-3.334 0 1.667 1.667 0 003.334 0z"/>
</symbol><symbol id="ico-mono-social-tiktok" viewBox="0 0 20 20">
    <mask id="a" maskUnits="userSpaceOnUse" x="3" y="2" width="14" height="16">
        <path fill-rule="evenodd" clip-rule="evenodd" d="M12.91 2v.013c0 .244.072 3.765 3.777 3.984 0 3.276.002 0 .002 2.72-.277.017-2.438-.137-3.784-1.333l-.003 5.296c.032 2.399-1.306 4.75-3.813 5.224-.702.133-1.335.148-2.396-.084C.578 15.996 2.61 6.952 8.75 7.92c0 2.92.002 0 .002 2.92-2.538-.373-3.385 1.731-2.712 3.238.615 1.372 3.139 1.668 4.02-.266.1-.379.15-.81.15-1.296V2h2.7z"/>
    </mask>
    <g mask="url(#a)">
        <path fill-rule="evenodd" clip-rule="evenodd" d="M12.91 2v.013c0 .244.072 3.765 3.777 3.984 0 3.276.002 0 .002 2.72-.277.017-2.438-.137-3.784-1.333l-.003 5.296c.032 2.399-1.306 4.75-3.813 5.224-.702.133-1.335.148-2.396-.084C.578 15.996 2.61 6.952 8.75 7.92c0 2.92.002 0 .002 2.92-2.538-.373-3.385 1.731-2.712 3.238.615 1.372 3.139 1.668 4.02-.266.1-.379.15-.81.15-1.296V2h2.7z"/>
    </g>
</symbol><symbol id="ico-mono-truck" viewBox="0 0 24 24">
    <path fill-rule="evenodd" clip-rule="evenodd" d="M1 4h15v3h2.48L23 12.65V18h-3v-2h1v-2.65L17.52 9H16v2h-2V6H3v10h2v2H1V4zm14 14h-5v-2h5v2z"/>
    <path fill-rule="evenodd" clip-rule="evenodd" d="M7.5 19a1.5 1.5 0 100-3 1.5 1.5 0 000 3zm0 2a3.5 3.5 0 100-7 3.5 3.5 0 000 7z"/>
    <path fill-rule="evenodd" clip-rule="evenodd" d="M17.5 19a1.5 1.5 0 100-3 1.5 1.5 0 000 3zm0 2a3.5 3.5 0 100-7 3.5 3.5 0 000 7z"/>
</symbol></svg>