<?xml version="1.0" encoding="utf-8"?>
<!-- Generator: Adobe Illustrator 17.1.0, SVG Export Plug-In . SVG Version: 6.00 Build 0)  -->
<svg version="1.2" baseProfile="tiny" id="Layer_1" xmlns="http://www.w3.org/2000/svg" xmlns:xlink="http://www.w3.org/1999/xlink"
	 x="0px" y="0px" viewBox="0 0 841.9 595.3" xml:space="preserve">
<g id="XMLID_3_">
	<g id="XMLID_4110_">
		<path id="XMLID_21_" fill="#27253A" d="M344.1,263.7h26.5l12.7,52.2h-11.9l-2.6-10.8H346l-2.6,10.8h-11.9L344.1,263.7z
			 M348.6,294.6h17.5l-4.8-20.5h-7.8L348.6,294.6z"/>
	</g>
	<g id="XMLID_4108_">
		<path id="XMLID_18_" fill="#27253A" d="M415.3,315.9h-11.6v-17.2L384,263.7H397l12.3,22.4h0.4l12.3-22.4h13.1l-19.8,35.1V315.9z"
			/>
	</g>
	<g id="XMLID_4105_">
		<path id="XMLID_14_" fill="#27253A" d="M465.6,318.1c-16,0-28.7-12.7-28.7-28.4c0-15.7,12.7-28.4,28.7-28.4
			c16,0,28.7,12.7,28.7,28.4C494.3,305.4,481.6,318.1,465.6,318.1z M465.6,307.7c9.3,0,17.2-7.8,17.2-17.9s-7.8-17.9-17.2-17.9
			c-9.3,0-17.2,7.8-17.2,17.9S456.2,307.7,465.6,307.7z"/>
	</g>
	<g id="XMLID_4103_">
		<path id="XMLID_11_" fill="#27253A" d="M536.7,296.5h0.7v-32.8H549v52.2h-12.7l-20.1-32.8h-0.7v32.8h-11.6v-52.2h12.7L536.7,296.5
			z"/>
	</g>
	<g id="XMLID_4102_">
		<path id="XMLID_2_" fill="#27253A" d="M296.8,263.7h-39.7l4.1,10.4h28.1h7.5c9.3,0,16,6.7,16,15.7s-6.7,15.7-16,15.7h-7.5h-15.7
			l4.1,10.4h19c16,0,27.6-11.6,27.6-26.1C324.4,275.2,312.8,263.7,296.8,263.7z"/>
	</g>
	<g id="XMLID_4101_">
		<polygon id="XMLID_1_" fill="#27253A" points="296.9,284.5 265.6,284.5 269.7,295 296.9,295 		"/>
	</g>
</g>
</svg>
