<svg width="524" height="108" viewBox="0 0 524 108" fill="none" xmlns="http://www.w3.org/2000/svg">
<path d="M148.682 105.622L149.787 104.211C150.784 105.307 152.407 106.342 154.531 106.342C157.216 106.342 158.075 104.907 158.075 103.759C158.075 99.9052 149.157 102.036 149.157 96.6941C149.157 94.2297 151.367 92.5454 154.327 92.5454C156.631 92.5454 158.415 93.3124 159.679 94.6365L158.551 95.9985C157.422 94.7678 155.841 94.2107 154.192 94.2107C152.383 94.2107 151.097 95.1732 151.097 96.5833C151.097 99.9519 160.019 98.0182 160.019 103.602C160.019 105.778 158.528 108 154.462 108C151.843 108 149.922 107.017 148.682 105.622Z" fill="white"/>
<path d="M182.187 107.731L178.867 95.6649L175.549 107.731H173.515L169.227 92.7747H171.301L174.644 105.241L178.099 92.7747H179.66L183.113 105.241L186.433 92.7747H188.509L184.219 107.731H182.187Z" fill="white"/>
<path d="M198.461 92.7749H200.334V107.731H198.461V92.7749Z" fill="white"/>
<path d="M215.458 107.731V94.4327H210.693V92.7747H222.119V94.4327H217.331V107.731H215.458Z" fill="white"/>
<path d="M231.783 107.731V106.183L240.251 94.4327H231.783V92.7747H242.642V94.3219L234.175 106.073H242.799V107.731H231.783Z" fill="white"/>
<path d="M253.525 107.731V92.7747H263.395V94.4327H255.399V99.2566H263.235V100.915H255.399V106.073H263.395V107.731H253.525Z" fill="white"/>
<path d="M283.068 97.2779C283.068 95.5994 281.847 94.4328 280.066 94.4328H276.113V100.149H280.066C281.847 100.149 283.068 98.9622 283.068 97.2779ZM282.957 107.731L279.116 101.787H276.113V107.731H274.238V92.7748H280.289C283.045 92.7748 285.008 94.5247 285.008 97.2779C285.008 99.9713 283.158 101.451 281.101 101.629L285.166 107.731H282.957Z" fill="white"/>
<path d="M295.822 107.731V92.7747H297.696V106.073H304.695V107.731H295.822Z" fill="white"/>
<path d="M320.87 94.7019L317.663 102.752H324.054L320.87 94.7019ZM325.948 107.731L324.618 104.415H317.121L315.79 107.731H313.645L319.695 92.7755H322.021L328.096 107.731H325.948Z" fill="white"/>
<path d="M348.57 107.731L339.787 95.8035V107.731H337.912V92.7747H339.833L348.504 104.454V92.7747H350.377V107.731H348.57Z" fill="white"/>
<path d="M372.682 100.266C372.682 97.0356 370.628 94.4326 366.902 94.4326H363.629V106.072H366.902C370.562 106.072 372.682 103.471 372.682 100.266ZM361.756 107.73V92.7745H366.902C371.578 92.7745 374.626 96.0265 374.626 100.266C374.626 104.527 371.578 107.73 366.902 107.73H361.756Z" fill="white"/>
<path d="M110.557 44.3789L122.989 21.8547L140.217 44.4956L110.557 44.3789ZM178.605 65.8241L134.655 0.73321H129.749L92.2369 66.0443C89.4766 70.1654 85.9822 72.2186 81.7684 72.2186H80.5703V73.8445H106.305V72.2186H103.903C101.357 72.2186 99.7219 71.4647 98.9951 69.9437C98.2698 68.4242 98.5253 66.4089 99.7615 63.8744L108.051 49.0454L143.6 48.9273L155.92 65.1752C157.517 67.2795 158.172 68.9696 157.883 70.2689C157.517 71.5697 156.287 72.2186 154.174 72.2186H151.779V73.8445H190.599V72.2186H189.506C185.508 72.2186 181.877 70.0866 178.605 65.8241Z" fill="white"/>
<path d="M268.901 31.9275C265.119 34.7477 260.212 36.1506 254.179 36.1506H223.969V6.47789H261.704C265.558 6.47789 268.646 7.77866 270.969 10.3787C273.297 13.0415 274.462 16.5122 274.462 20.7761C274.462 25.3901 272.603 29.1072 268.901 31.9275ZM299.326 69.9443C298.304 69.5156 296.668 68.034 294.419 65.4995L270.314 38.8542C278.094 37.5549 284.205 35.3587 288.634 32.2526C293.071 29.0809 295.29 25.2851 295.29 20.8797C295.29 15.3164 292.201 10.8454 286.016 7.45346C279.913 4.06155 271.807 2.35831 261.704 2.35831H196.057V3.98281H197.255C199.362 3.98281 201.035 4.63319 202.273 5.9325C203.581 7.23181 204.236 8.93506 204.236 11.0277V65.1743C204.236 67.2801 203.581 68.9702 202.273 70.2695C201.035 71.5688 199.362 72.2192 197.255 72.2192H196.057V73.8437H232.149V72.2192H230.951C226.299 72.2192 223.969 69.8787 223.969 65.1743V40.155H251.777L272.061 62.3672C277.079 67.8517 280.933 71.1401 283.622 72.2192C286.24 73.2983 291.834 73.8437 300.412 73.8437H305.87V70.6982H305.319C302.342 70.6982 300.341 70.4503 299.326 69.9443Z" fill="white"/>
<path d="M395.944 61.0671C391.213 66.8389 384.998 69.7234 377.297 69.7234H339.235V6.47865H367.809C378.35 6.47865 386.857 9.36455 393.327 15.1349C399.798 20.984 403.029 28.6398 403.029 38.101C403.029 47.5637 400.668 55.2181 395.944 61.0671ZM407.61 12.2111C397.579 5.64744 384.309 2.35907 367.809 2.35907H311.322V3.98357H312.52C314.626 3.98357 316.302 4.6325 317.539 5.93326C318.847 7.23257 319.502 8.93436 319.502 11.0284V65.1751C319.502 67.2793 318.847 68.9695 317.539 70.2702C316.302 71.5695 314.626 72.2185 312.52 72.2185H311.322V73.8444H377.297C390.963 73.8444 401.937 70.5546 410.228 63.991C418.59 57.4157 422.77 48.7857 422.77 38.101C422.77 27.4178 417.713 18.7878 407.61 12.2111Z" fill="white"/>
<path d="M107.953 3.98341H109.157V2.35891H83.9665V3.98341H85.7064C88.8352 3.98341 90.8364 4.91962 91.707 6.80369C92.5057 8.67464 91.9948 11.1712 90.1815 14.2773L64.5521 58.8971L45.5782 30.114L67.1861 30.1854L69.6704 25.5525L42.6153 25.6196L32.2761 9.93603C31.2557 8.14237 31.0398 6.68702 31.6212 5.60791C32.1322 4.5288 33.3684 3.98341 35.3315 3.98341H38.1651C38.0139 3.98341 38.0139 3.69759 38.1651 3.11283C38.0139 2.61848 38.0139 2.35891 38.1651 2.35891H0V3.98341H0.980776C4.53976 3.98341 7.88439 6.1533 11.0117 10.4829L55.0659 75.4688H59.2078L97.4845 10.0527C100.324 6.01039 103.811 3.98341 107.953 3.98341Z" fill="white"/>
<path d="M443.27 44.3789L455.703 21.8547L472.93 44.4956L443.27 44.3789ZM522.218 72.2186C518.222 72.2186 514.59 70.0866 511.318 65.8241L467.368 0.73321H462.46L424.95 66.0443C422.189 70.1654 418.695 72.2186 414.481 72.2186H413.283V73.8445H439.018V72.2186H436.616C434.07 72.2186 432.435 71.4647 431.709 69.9437C430.983 68.4242 431.238 66.4089 432.474 63.8744L440.764 49.0454L476.313 48.9273L488.633 65.1752C490.229 67.2795 490.885 68.9696 490.596 70.2689C490.229 71.5697 489 72.2186 486.887 72.2186H484.491V73.8445H523.312V72.2186H522.218Z" fill="white"/>
</svg>
