<svg width="128" height="27" viewBox="0 0 128 27" fill="none" xmlns="http://www.w3.org/2000/svg">
<path d="M36.3672 26.4143L36.6376 26.067C36.8815 26.3367 37.2783 26.5917 37.7979 26.5917C38.4548 26.5917 38.6649 26.2383 38.6649 25.9557C38.6649 25.0065 36.4835 25.5312 36.4835 24.2157C36.4835 23.6088 37.024 23.194 37.748 23.194C38.3115 23.194 38.7478 23.3829 39.057 23.709L38.7812 24.0444C38.5051 23.7413 38.1183 23.6041 37.715 23.6041C37.2725 23.6041 36.9579 23.8411 36.9579 24.1884C36.9579 25.018 39.1403 24.5418 39.1403 25.9169C39.1403 26.4527 38.7755 27 37.7811 27C37.1404 27 36.6706 26.758 36.3672 26.4143Z" fill="black"/>
<path d="M44.5632 26.9337L43.7512 23.9623L42.9396 26.9337H42.4422L41.3932 23.2505H41.9006L42.7184 26.3206L43.5634 23.2505H43.9451L44.7898 26.3206L45.6018 23.2505H46.1096L45.0602 26.9337H44.5632Z" fill="black"/>
<path d="M48.5424 23.2505H49.0006V26.9337H48.5424V23.2505Z" fill="black"/>
<path d="M52.7005 26.9337V23.6588H51.5352V23.2505H54.3299V23.6588H53.1588V26.9337H52.7005Z" fill="black"/>
<path d="M56.694 26.9337V26.5526L58.765 23.6588H56.694V23.2505H59.3501V23.6315L57.279 26.5253H59.3885V26.9337H56.694Z" fill="black"/>
<path d="M62.0123 26.9337V23.2505H64.4264V23.6588H62.4706V24.8468H64.3872V25.2551H62.4706V26.5253H64.4264V26.9337H62.0123Z" fill="black"/>
<path d="M69.2373 24.3595C69.2373 23.9461 68.9385 23.6588 68.5029 23.6588H67.5361V25.0666H68.5029C68.9385 25.0666 69.2373 24.7743 69.2373 24.3595ZM69.21 26.9337L68.2705 25.4699H67.5361V26.9337H67.0775V23.2505H68.5575C69.2315 23.2505 69.7117 23.6815 69.7117 24.3595C69.7117 25.0228 69.2592 25.3873 68.7561 25.4311L69.7505 26.9337H69.21Z" fill="black"/>
<path d="M72.3574 26.9337V23.2505H72.8157V26.5253H74.5276V26.9337H72.3574Z" fill="black"/>
<path d="M78.484 23.7251L77.6997 25.7075H79.263L78.484 23.7251ZM79.7263 26.9339L79.4009 26.1172H77.5672L77.2415 26.9339H76.7168L78.1967 23.2507H78.7656L80.2517 26.9339H79.7263Z" fill="black"/>
<path d="M85.2598 26.9337L83.1116 23.9964V26.9337H82.653V23.2505H83.1227L85.2437 26.1267V23.2505H85.7019V26.9337H85.2598Z" fill="black"/>
<path d="M91.157 25.0953C91.157 24.2998 90.6546 23.6588 89.7431 23.6588H88.9426V26.5253H89.7431C90.6384 26.5253 91.157 25.8846 91.157 25.0953ZM88.4844 26.9336V23.2505H89.7431C90.8869 23.2505 91.6325 24.0513 91.6325 25.0953C91.6325 26.1446 90.8869 26.9336 89.7431 26.9336H88.4844Z" fill="black"/>
<path d="M27.0424 11.3321L30.0831 5.78505L34.2971 11.3608L27.0424 11.3321ZM43.6867 16.6134L32.9367 0.583492H31.7365L22.5612 16.6676C21.8861 17.6825 21.0314 18.1881 20.0007 18.1881H19.7076V18.5886H26.0024V18.1881H25.4148C24.7921 18.1881 24.3921 18.0025 24.2143 17.6279C24.0369 17.2537 24.0994 16.7574 24.4018 16.1332L26.4294 12.4813L35.1245 12.4522L38.1379 16.4536C38.5286 16.9718 38.6888 17.388 38.6181 17.708C38.5286 18.0283 38.2277 18.1881 37.7109 18.1881H37.1252V18.5886H46.6204V18.1881H46.3529C45.375 18.1881 44.4869 17.6631 43.6867 16.6134Z" fill="#472157"/>
<path d="M65.7727 8.26568C64.8476 8.96023 63.6474 9.3057 62.1717 9.3057H54.7824V1.99824H64.0123C64.955 1.99824 65.7102 2.31858 66.2783 2.9589C66.8479 3.61466 67.1327 4.46937 67.1327 5.51945C67.1327 6.65572 66.678 7.57113 65.7727 8.26568ZM73.2145 17.6281C72.9645 17.5225 72.5644 17.1576 72.0143 16.5334L66.1182 9.97152C68.0212 9.65154 69.5158 9.1107 70.5993 8.34576C71.6846 7.56467 72.2272 6.62987 72.2272 5.54495C72.2272 4.17489 71.4716 3.07382 69.959 2.23849C68.4661 1.40317 66.4834 0.983711 64.0123 0.983711H47.9551V1.38378H48.2481C48.7635 1.38378 49.1729 1.54395 49.4756 1.86393C49.7956 2.1839 49.9558 2.60336 49.9558 3.11871V16.4534C49.9558 16.9719 49.7956 17.3882 49.4756 17.7081C49.1729 18.0281 48.7635 18.1883 48.2481 18.1883H47.9551V18.5884H56.7831V18.1883H56.49C55.3523 18.1883 54.7824 17.6119 54.7824 16.4534V10.2919H61.5842L66.5455 15.762C67.773 17.1127 68.7157 17.9225 69.3733 18.1883C70.0136 18.454 71.3818 18.5884 73.4802 18.5884H74.8151V17.8137H74.6804C73.9521 17.8137 73.4626 17.7527 73.2145 17.6281Z" fill="#472157"/>
<path d="M96.846 15.4419C95.6889 16.8633 94.1687 17.5736 92.2851 17.5736H82.9751V1.99841H89.9644C92.5426 1.99841 94.6233 2.70911 96.206 4.13017C97.7887 5.57062 98.5791 7.45602 98.5791 9.78602C98.5791 12.1164 98.0016 14.0014 96.846 15.4419ZM99.6996 3.41012C97.246 1.7937 94.0003 0.983879 89.9644 0.983879H76.1478V1.38394H76.4409C76.9559 1.38394 77.366 1.54375 77.6684 1.86409C77.9883 2.18407 78.1485 2.60317 78.1485 3.11887V16.4535C78.1485 16.9717 77.9883 17.388 77.6684 17.7083C77.366 18.0283 76.9559 18.1881 76.4409 18.1881H76.1478V18.5885H92.2851C95.6278 18.5885 98.3119 17.7783 100.34 16.1619C102.385 14.5426 103.408 12.4173 103.408 9.78602C103.408 7.15508 102.171 5.02978 99.6996 3.41012Z" fill="#472157"/>
<path d="M26.405 1.38392H26.6995V0.983856H20.538V1.38392H20.9635C21.7288 1.38392 22.2183 1.61448 22.4313 2.07847C22.6266 2.53922 22.5017 3.15405 22.0581 3.91898L15.7893 14.9075L11.1483 7.81907L16.4335 7.83667L17.0412 6.69573L10.4236 6.71225L7.89464 2.84987C7.64504 2.40814 7.59225 2.04974 7.73447 1.78398C7.85944 1.51823 8.16182 1.38392 8.64197 1.38392H9.33508C9.29809 1.38392 9.29809 1.31353 9.33508 1.16952C9.29809 1.04778 9.29809 0.983856 9.33508 0.983856H0V1.38392H0.239895C1.11041 1.38392 1.9285 1.9183 2.69343 2.98454L13.469 18.9886H14.4821L23.8444 2.8786C24.539 1.8831 25.3919 1.38392 26.405 1.38392Z" fill="#472157"/>
<path d="M108.422 11.3321L111.463 5.78505L115.677 11.3608L108.422 11.3321ZM127.733 18.1881C126.755 18.1881 125.867 17.6631 125.066 16.6134L114.316 0.583492H113.116L103.941 16.6676C103.266 17.6825 102.411 18.1881 101.38 18.1881H101.087V18.5886H107.382V18.1881H106.794C106.172 18.1881 105.772 18.0025 105.594 17.6279C105.417 17.2537 105.479 16.7574 105.781 16.1332L107.809 12.4813L116.504 12.4522L119.518 16.4536C119.908 16.9718 120.068 17.388 119.998 17.708C119.908 18.0283 119.607 18.1881 119.091 18.1881H118.504V18.5886H128V18.1881H127.733Z" fill="#472157"/>
</svg>
