<svg width="93" height="93" viewBox="0 0 93 93" fill="none" xmlns="http://www.w3.org/2000/svg">
<path d="M44.3032 57.2827C43.9071 57.6675 43.8979 58.3006 44.2827 58.6968C44.6675 59.0929 45.3006 59.1021 45.6968 58.7173L44.3032 57.2827ZM52.5 69.5L53.2071 70.2071L53.5 69.9142V69.5H52.5ZM33 50.7143V49.7143H32.582L32.2883 50.0118L33 50.7143ZM12.4051 74.4051L13.1122 73.698L12.4051 74.4051ZM31.4142 90.5858L30.7071 89.8787L31.4142 90.5858ZM28.5858 90.5858L29.2929 89.8787L28.5858 90.5858ZM86.7514 39.133L87.2497 38.266L86.7514 39.133ZM6.2486 39.133L6.74689 40L6.2486 39.133ZM87.2497 38.266L46.9983 15.133L46.0017 16.867L86.2531 40L87.2497 38.266ZM46.0017 15.133L5.75032 38.266L6.74689 40L46.9983 16.867L46.0017 15.133ZM6.74689 42H62.5V40H6.74689V42ZM62.5 42H86.2531V40H62.5V42ZM61.8032 40.2827L51.8032 49.997L53.1968 51.4316L63.1968 41.7173L61.8032 40.2827ZM51.8032 49.997L44.3032 57.2827L45.6968 58.7173L53.1968 51.4316L51.8032 49.997ZM51.5 50.7143V69.5H53.5V50.7143H51.5ZM51.7929 68.7929L30.7071 89.8787L32.1213 91.2929L53.2071 70.2071L51.7929 68.7929ZM29.2929 89.8787L13.1122 73.698L11.698 75.1122L27.8787 91.2929L29.2929 89.8787ZM13.1077 72.2884L33.7117 51.4168L32.2883 50.0118L11.6844 70.8833L13.1077 72.2884ZM33 51.7143H52.5V49.7143H33V51.7143ZM47.5 16V12.5H45.5V16H47.5ZM63.2526 40.3415L59.7526 36.3415L58.2474 37.6585L61.7474 41.6585L63.2526 40.3415ZM13.1122 73.698C12.7235 73.3093 12.7215 72.6796 13.1077 72.2884L11.6844 70.8833C10.5257 72.057 10.5318 73.946 11.698 75.1122L13.1122 73.698ZM30.7071 89.8787C30.3166 90.2692 29.6834 90.2692 29.2929 89.8787L27.8787 91.2929C29.0503 92.4645 30.9497 92.4645 32.1213 91.2929L30.7071 89.8787ZM86.2531 40V42C88.3014 42 89.0256 39.2866 87.2497 38.266L86.2531 40ZM5.75032 38.266C3.9744 39.2866 4.69859 42 6.74689 42V40L6.74689 40L5.75032 38.266Z" fill="#472157"/>
<path d="M74.6176 37H18.3824C18.2795 37 18.2437 36.8632 18.3334 36.8128L46.5 21L74.6666 36.8128C74.7563 36.8632 74.7205 37 74.6176 37Z" stroke="#472157" stroke-width="2"/>
<circle cx="33.5" cy="61.5" r="1.5" fill="#472157"/>
<circle cx="31.5" cy="78.5" r="1.5" fill="#472157"/>
<path d="M25 72L41 67.5" stroke="#472157" stroke-width="2"/>
<path d="M45.5 13C48.5376 13 51 10.5376 51 7.5C51 4.46243 48.5376 2 45.5 2C42.4624 2 40 4.46243 40 7.5" stroke="#472157" stroke-width="2"/>
</svg>
