<?xml version="1.0" encoding="UTF-8"?><!DOCTYPE svg PUBLIC "-//W3C//DTD SVG 1.1//EN" "http://www.w3.org/Graphics/SVG/1.1/DTD/svg11.dtd"><svg xmlns="http://www.w3.org/2000/svg" xmlns:xlink="http://www.w3.org/1999/xlink"><symbol id="ico-mono-arrow-next" viewBox="0 0 49 95">
    <path fill-rule="evenodd" clip-rule="evenodd" d="M1.353.645l-.707.707 46.147 46.146L.646 93.644l.707.708 46.854-46.854L1.353.645z"/>
</symbol><symbol id="ico-mono-arrow-prev" viewBox="0 0 48 95">
    <path fill-rule="evenodd" clip-rule="evenodd" d="M47.147.645l.707.707L1.707 47.498l46.147 46.146-.707.708L.293 47.498 47.147.645z"/>
</symbol><symbol id="ico-mono-arrow-top" viewBox="0 0 28 16">
    <path d="M14 0l1.443 1.443-14 14.055L0 14.056 14 0z"/>
    <path d="M14.002 0L28 14.056 26.558 15.5l-14-14.056L14.003 0z"/>
</symbol><symbol id="ico-mono-close" viewBox="0 0 28 28">
    <path d="M26.557 0L28 1.443 1.443 28 0 26.558 26.557 0z"/>
    <path d="M1.443 0L28 26.556 26.557 28 0 1.444 1.443 0z"/>
</symbol><symbol id="ico-mono-download" viewBox="0 0 23 24">
    <path d="M17.679 16.455h-.412v-1.648h.412a3.71 3.71 0 10.297-7.414h-.709l-.082-.676a5.767 5.767 0 00-11.435 0l-.017.676h-.708a3.71 3.71 0 10.296 7.414h.412v1.648h-.412A5.355 5.355 0 014.251 5.86a7.415 7.415 0 0114.499 0 5.355 5.355 0 01-1.071 10.595z"/>
    <path d="M12.326 19.89V9.863h-1.648V19.89l-2.134-2.126-1.161 1.162 4.12 4.119 4.118-4.12-1.161-1.161-2.134 2.126z"/>
</symbol><symbol id="ico-mono-fb" viewBox="0 0 20 20">
    <path d="M3.652 0A3.644 3.644 0 000 3.652v12.696A3.644 3.644 0 003.652 20h6.881v-7.819H8.466V9.366h2.067V6.961c0-1.89 1.222-3.624 4.036-3.624 1.14 0 1.982.11 1.982.11l-.067 2.628s-.859-.008-1.797-.008c-1.014 0-1.177.467-1.177 1.244v2.055h3.055l-.133 2.815H13.51V20h2.838A3.644 3.644 0 0020 16.348V3.652A3.644 3.644 0 0016.348 0H3.652z"/>
</symbol><symbol id="ico-mono-inst" viewBox="0 0 20 20">
    <path d="M9.998 4.869A5.124 5.124 0 004.867 10a5.124 5.124 0 005.13 5.131A5.124 5.124 0 0015.13 10a5.124 5.124 0 00-5.131-5.131zm0 8.466A3.342 3.342 0 016.663 10a3.342 3.342 0 013.335-3.335A3.342 3.342 0 0113.332 10a3.342 3.342 0 01-3.334 3.335zm5.34-9.872c-.662 0-1.198.535-1.198 1.198 0 .663.536 1.199 1.199 1.199a1.195 1.195 0 001.107-1.657 1.196 1.196 0 00-1.107-.74zM20 10c0-1.38.013-2.75-.065-4.128-.077-1.6-.443-3.022-1.613-4.193C17.147.506 15.729.143 14.128.066 12.747-.012 11.378 0 10 0 8.62 0 7.25-.012 5.872.066 4.272.143 2.85.509 1.68 1.679.506 2.853.143 4.271.066 5.872-.012 7.253 0 8.622 0 10c0 1.378-.013 2.75.065 4.128.077 1.6.443 3.022 1.613 4.193 1.174 1.173 2.592 1.536 4.193 1.613C7.253 20.012 8.622 20 10 20c1.38 0 2.75.013 4.128-.065 1.6-.077 3.022-.443 4.193-1.613 1.173-1.174 1.536-2.592 1.613-4.193.08-1.379.065-2.747.065-4.128zm-2.201 5.899a3.18 3.18 0 01-.756 1.146c-.353.352-.69.573-1.146.755-1.315.523-4.44.405-5.898.405-1.459 0-4.586.118-5.902-.402a3.18 3.18 0 01-1.146-.756 3.201 3.201 0 01-.755-1.146c-.52-1.318-.403-4.442-.403-5.901 0-1.458-.118-4.586.403-5.901.182-.456.403-.796.755-1.146.353-.35.69-.573 1.146-.756 1.316-.52 4.443-.403 5.902-.403 1.458 0 4.585-.117 5.901.403a3.18 3.18 0 011.146.756 3.2 3.2 0 01.755 1.146c.52 1.315.403 4.443.403 5.901 0 1.459.118 4.583-.405 5.899z"/>
</symbol><symbol id="ico-mono-link" viewBox="0 0 15 15">
    <path d="M8.712 10.498a.157.157 0 00-.221 0l-2.27 2.27c-1.05 1.05-2.824 1.161-3.984 0-1.162-1.163-1.05-2.935 0-3.985l2.27-2.27c.06-.06.06-.16 0-.22l-.778-.778a.157.157 0 00-.22 0l-2.27 2.27a4.223 4.223 0 000 5.976 4.224 4.224 0 005.977 0l2.269-2.27c.06-.06.06-.16 0-.22l-.773-.773zm5.05-9.259a4.222 4.222 0 00-5.976 0L5.514 3.51a.157.157 0 000 .22l.776.776c.06.06.16.06.22 0l2.27-2.27c1.05-1.05 2.824-1.162 3.984 0 1.162 1.163 1.051 2.934 0 3.985l-2.27 2.27a.157.157 0 000 .22l.778.778c.06.06.16.06.22 0l2.27-2.27a4.229 4.229 0 000-5.979zM9.417 4.773a.157.157 0 00-.221 0L4.772 9.195a.157.157 0 000 .22l.774.774c.06.06.16.06.22 0l4.422-4.422c.06-.06.06-.16 0-.22l-.771-.774z"/>
</symbol><symbol id="ico-mono-map" viewBox="0 0 16 20">
    <path d="M8 0C3.59 0 0 3.589 0 7.995-.029 14.44 7.696 19.784 8 20c0 0 8.03-5.56 8-12 0-4.411-3.589-8-8-8zm0 12c-2.21 0-4-1.79-4-4s1.79-4 4-4 4 1.79 4 4-1.79 4-4 4z"/>
</symbol><symbol id="ico-mono-phone" viewBox="0 0 22 22">
    <path fill-rule="evenodd" clip-rule="evenodd" d="M5.107.784c.148.117.32.278.528.483.425.419.93 1.103 1.373 1.775.445.678.854 1.385 1.08 1.87.133.287.248.535.327.749.08.216.14.434.14.664 0 .476-.255.854-.562 1.272-.076.104-.144.194-.206.275-.146.192-.254.333-.337.49a.76.76 0 00-.082.565c.058.27.286.789.694 1.434.4.631.946 1.342 1.6 1.994a11.354 11.354 0 001.973 1.57c.632.393 1.142.611 1.417.67a.778.778 0 00.572-.082c.162-.084.311-.198.515-.354.074-.056.155-.118.247-.186.43-.32.817-.599 1.296-.598.236 0 .456.067.669.154.206.084.446.205.725.345l.015.008c.468.236 1.17.64 1.852 1.08.674.436 1.366.933 1.788 1.359.206.207.368.38.484.528.115.145.22.31.264.502a.915.915 0 01-.044.53 2.635 2.635 0 01-.084.199 5.376 5.376 0 00-.062.142v.001a8.153 8.153 0 01-.708 1.322v.001c-.542.813-1.031 1.316-1.784 1.667-.387.18-.94.365-1.82.255-.855-.106-1.996-.489-3.583-1.378-2.55-1.43-4.31-2.657-6.587-4.927-2.272-2.266-3.382-3.736-4.947-6.579C.288 5.729.337 4.049.736 3.196c.352-.752.86-1.24 1.67-1.778l.003-.001A8.2 8.2 0 013.73.712L3.733.71a5.43 5.43 0 00.165-.072c.052-.023.114-.051.177-.074a.917.917 0 01.53-.044c.192.044.356.15.502.263zm-.989.85a6.484 6.484 0 00.189-.083l.097-.041a.94.94 0 01.085.06c.1.08.238.206.443.409.348.342.806.953 1.24 1.613.431.655.812 1.318 1.01 1.742.137.297.233.506.295.675a.955.955 0 01.077.317c0 .105-.038.232-.367.68-.046.063-.097.13-.15.198a5.256 5.256 0 00-.471.692c-.187.353-.28.752-.176 1.24.096.446.4 1.085.827 1.76a12.74 12.74 0 001.739 2.167c.71.708 1.471 1.287 2.15 1.71.668.416 1.294.705 1.737.8.488.104.887.013 1.242-.173.247-.128.492-.315.715-.486.063-.048.123-.095.182-.138.489-.363.608-.401.699-.401.049 0 .13.013.292.08.165.067.37.17.668.32.43.217 1.1.601 1.759 1.027.666.43 1.28.879 1.62 1.223.204.205.33.342.41.443.03.038.05.066.06.084a2.236 2.236 0 01-.04.095l-.01.02-.074.169.462.193-.461-.195c-.17.405-.378.793-.62 1.159-.482.725-.846 1.068-1.372 1.313-.253.118-.617.252-1.274.17-.68-.084-1.692-.404-3.218-1.258-2.485-1.394-4.168-2.568-6.37-4.763-2.205-2.2-3.258-3.594-4.777-6.353C1.224 5.355 1.444 4.043 1.642 3.62c.245-.524.59-.885 1.317-1.368a7.2 7.2 0 011.16-.618z"/>
</symbol><symbol id="ico-mono-send" viewBox="0 0 22 22">
    <path d="M14.143 21.97l-3.158-7.69 3.428-6.662-6.724 3.367L0 7.845 21.997 0l-7.854 21.97z"/>
</symbol><symbol id="ico-mono-send2" viewBox="0 0 22 22">
    <path d="M21.746.267a.918.918 0 00-.964-.21L.592 7.388a.918.918 0 000 1.714l8.81 3.52 3.525 8.8a.917.917 0 00.825.577.919.919 0 00.845-.605l7.342-20.166a.916.916 0 00-.193-.962zM13.753 20.35l-3.2-7.976 3.2-3.607-.5-.516-3.392 3.51-8.223-3.51L20.48 1.53l-6.728 18.82z"/>
</symbol><symbol id="ico-mono-vk" viewBox="0 0 21 10">
    <path d="M19.579.677c.14-.39 0-.677-.662-.677h-2.193c-.558 0-.813.248-.953.52 0 0-1.115 2.285-2.695 3.766-.51.43-.743.567-1.021.567-.139 0-.341-.136-.341-.527V.677c0-.469-.161-.677-.626-.677H7.642c-.348 0-.558.217-.558.423 0 .444.79.547.871 1.797v2.712c0 .594-.127.702-.407.702-.743 0-2.551-2.293-3.624-4.917C3.715.207 3.504 0 2.944 0H.752C.125 0 0 .249 0 .52 0 1.01.743 3.43 3.461 6.63 5.273 8.815 7.824 10 10.148 10c1.393 0 1.565-.263 1.565-.717V7.631c0-.525.133-.631.574-.631.324 0 .882.137 2.183 1.19C15.956 9.44 16.202 10 17.037 10h2.192c.626 0 .939-.264.759-.783-.197-.517-.907-1.269-1.849-2.159-.512-.507-1.277-1.053-1.51-1.326-.325-.352-.231-.508 0-.82.001 0 2.672-3.16 2.95-4.235z"/>
</symbol><symbol id="ico-mono-youtube" viewBox="0 0 20 14">
    <path d="M19.583 2.187A2.504 2.504 0 0017.815.419C16.255 0 10 0 10 0S3.746 0 2.185.417A2.503 2.503 0 00.417 2.185C0 3.745 0 7 0 7s0 3.255.417 4.813c.23.86.909 1.538 1.768 1.768C3.745 14 10 14 10 14s6.255 0 7.815-.42a2.501 2.501 0 001.768-1.767C20 10.255 20 7 20 7s0-3.255-.417-4.813zm-11.57 7.8V4.013l5.179 2.965-5.179 3.01z"/>
</symbol></svg>