<?xml version="1.0" encoding="UTF-8"?><!DOCTYPE svg PUBLIC "-//W3C//DTD SVG 1.1//EN" "http://www.w3.org/Graphics/SVG/1.1/DTD/svg11.dtd"><svg xmlns="http://www.w3.org/2000/svg" xmlns:xlink="http://www.w3.org/1999/xlink"><symbol id="ico-color-logo" viewBox="0 0 573 70">
    <path d="M62.737 0H7.157C3.229 0 0 3.234 0 7.171v1.407h38.456c8.702 0 15.72 6.468 15.72 15.186S47.158 38.95 38.456 38.95h-9.263v15.89h40.702V7.17C69.895 3.234 66.667 0 62.737 0z" fill="#F15D3A"/>
    <path d="M22.035 31.64h16.842c4.07 0 7.299-3.938 7.299-8.016 0-4.077-3.228-8.015-7.299-8.015H0V62.715c0 3.938 3.228 7.172 7.158 7.172h55.72c3.93 0 7.158-3.234 7.158-7.172V61.17h-48v-29.53z" fill="#444646"/>
    <path d="M111.715 6.469h24.421c7.018 0 12.632 2.109 16.141 5.765 2.807 2.812 4.35 6.75 4.35 11.39 0 9.421-6.456 15.046-15.438 16.592l17.544 23.342h-7.86l-16.421-22.217h-16.281v22.217h-6.456V6.468zm23.86 29.107c8.561 0 14.596-4.359 14.596-11.952 0-7.031-5.333-11.25-14.596-11.25h-17.404v23.202h17.404z" fill="#444646"/>
    <path d="M168.57 6.469h41.123v5.906h-34.807V31.92h31.158v5.906h-31.158v19.827h35.228v5.905H168.57V6.468z" fill="#444646"/>
    <path d="M221.043 6.469h6.035l35.93 45.7v-45.7h6.316v57.09h-5.193l-36.772-46.825v46.824h-6.316V6.468z" fill="#444646"/>
    <path d="M279.289 35.014c0-15.75 11.79-29.53 29.193-29.53 17.404 0 28.913 13.64 28.913 29.53 0 15.748-11.79 29.529-29.193 29.529-17.264 0-28.913-13.64-28.913-29.53zm51.509 0c0-12.937-9.403-23.624-22.456-23.624-13.053 0-22.316 10.406-22.316 23.623 0 12.937 9.404 23.624 22.456 23.624 13.053 0 22.316-10.546 22.316-23.623z" fill="#444646"/>
    <path d="M340.352 6.465h7.017l16.281 47.528 15.579-47.669h5.333l15.579 47.669 16.281-47.528h6.737l-20.351 57.511h-5.474l-15.579-46.403-15.719 46.263h-5.333L340.352 6.465z" fill="#444646"/>
    <path d="M432.832 6.469h41.123v5.906h-34.807V31.92h31.158v5.906h-31.158v19.827h35.228v5.905h-41.544V6.468z" fill="#444646"/>
    <path d="M485.332 6.469h6.456v51.184h32.141v5.905h-38.457V6.468h-.14z" fill="#444646"/>
    <path d="M533.613 6.469h6.456v51.184h32.141v5.905h-38.456V6.468h-.141z" fill="#444646"/>
</symbol><symbol id="ico-color-small-logo" viewBox="0 0 50 50">
    <path d="M44.7 0H5.1C2.3 0 0 2.3 0 5.1v1h27.4c6.2 0 11.2 4.6 11.2 10.8 0 6.2-5 10.8-11.2 10.8h-6.6V39h29V5.1c0-2.8-2.3-5.1-5.1-5.1z" fill="#F15D3A"/>
    <path d="M15.7 22.502h12c2.9 0 5.2-2.8 5.2-5.7 0-2.9-2.3-5.7-5.2-5.7H0v33.5c0 2.8 2.3 5.1 5.1 5.1h39.7c2.8 0 5.1-2.3 5.1-5.1v-1.1H15.7v-21z" fill="#fff" fill-opacity=".8"/>
</symbol></svg>